<?xml version="1.0" encoding="UTF-8" standalone="no"?>
<!DOCTYPE svg PUBLIC "-//W3C//DTD SVG 1.1//EN" "http://www.w3.org/Graphics/SVG/1.1/DTD/svg11.dtd">
<svg xmlns="http://www.w3.org/2000/svg" version="1.1" xmlns:xlink="http://www.w3.org/1999/xlink" viewBox="0 0 512 288">

<!-- Copyright 2015-2021 Isaac Gouy -->

<!-- Box plot chart showing benchmark program performance grouped by implementation language -->

<!-- The Computer Language Benchmarks Game -->
<!-- https://benchmarksgame-team.pages.debian.net/benchmarksgame/license.html -->

<g style="stroke: #ccc;" >
<line x1="51" y1="264" x2="461" y2="264" />
<line x1="51" y1="206.75" x2="461" y2="206.75" />
<line x1="51" y1="180.12" x2="461" y2="180.12" />
<line x1="51" y1="144" x2="461" y2="144" />
<line x1="51" y1="86.75" x2="461" y2="86.75" />
<line x1="51" y1="60.12" x2="461" y2="60.12" />
<line x1="51" y1="24" x2="461" y2="24" />
</g>
<g style="text-anchor: end; font-family: Ubuntu,Verdana,sans-serif; font-size: 0.9em;" >
<text x="51" y="262" >1</text>
<text x="51" y="204.75" >3</text>
<text x="51" y="178.12" >5</text>
<text x="51" y="142" >10</text>
<text x="51" y="84.75" >30</text>
<text x="51" y="58.12" >50</text>
<text x="51" y="22" ></text>
</g>
<defs>
<linearGradient id="grade" x1="0" y1="0" x2="0" y2="1">
<stop offset="0" style="stop-color: white" stop-opacity="0.6"/>
<stop offset="1" style="stop-color: white" stop-opacity="0.8"/>
</linearGradient>
<mask id="fade">
<rect x="58" y="24" width="452" height="288" fill="url(#grade)"  />
</mask>
<g id="backgroundText" style="text-anchor: end; font-family: Ubuntu,Verdana,sans-serif; font-size: 1em;">
<text x="16" y="0" transform="rotate(270,16,0)" xml:space="preserve">   pidigits   pidigits   pidigits   pidigits</text>
<text x="43" y="0" transform="rotate(270,43,0)" xml:space="preserve">   binary-trees   binary-trees   binary-trees</text>
<text x="70" y="0" transform="rotate(270,70,0)" xml:space="preserve">   k-nucleotide   k-nucleotide   k-nucleotide</text>
<text x="97" y="0" transform="rotate(270,97,0)" xml:space="preserve">   fasta   fasta   fasta   fasta   fasta</text>
<text x="124" y="0" transform="rotate(270,124,0)" xml:space="preserve">   n-body   n-body   n-body   n-body   n-body</text>
<text x="151" y="0" transform="rotate(270,151,0)" xml:space="preserve">   regex-redux   regex-redux   regex-redux</text>
<text x="178" y="0" transform="rotate(270,178,0)" xml:space="preserve">   fannkuch-redux   fannkuch-redux</text>
<text x="205" y="0" transform="rotate(270,205,0)" xml:space="preserve">   spectral-norm   spectral-norm   spectral-norm</text>
<text x="232" y="0" transform="rotate(270,232,0)" xml:space="preserve">   mandelbrot   mandelbrot   mandelbrot</text>
<text x="259" y="0" transform="rotate(270,259,0)" xml:space="preserve">   reverse-complement   reverse-complement</text>
</g>
</defs>
<use x="60" y="27" xlink:href="#backgroundText"/>
<rect x="58" y="24" width="452" height="288" fill="white" mask="url(#fade)" />
<rect x="58" y="264" width="452" height="288" style="fill: white; stroke: white;" />
<g style="fill: black; stroke: black;">
<rect x="72" y="118.78" width="1" height="143.24" />
<rect x="99" y="47.82" width="1" height="210.34" />
<rect x="126" y="24.57" width="1" height="222.05" />
<rect x="153" y="51.56" width="1" height="212.31" />
<rect x="180" y="160.14" width="1" height="101.31" />
<rect x="207" y="63.21" width="1" height="200.79" />
<rect x="234" y="67.57" width="1" height="153.15" />
<rect x="261" y="15.46" width="1" height="232.7" />
<rect x="288" y="11.28" width="1" height="247.07" />
<rect x="315" y="17.94" width="1" height="246.06" />
</g>
<g style="fill: white; stroke: black;">
<rect x="62" y="159.58" width="22" height="81.74" />
<rect x="89" y="89.41" width="22" height="87.65" />
<rect x="116" y="69.44" width="22" height="125.67" />
<rect x="143" y="96.24" width="22" height="122.52" />
<rect x="170" y="184.67" width="22" height="26.7" />
<rect x="197" y="107.04" width="22" height="110.1" />
<rect x="224" y="110.03" width="22" height="95.22" />
<rect x="251" y="60.87" width="22" height="136.19" />
<rect x="278" y="56.44" width="22" height="131.08" />
<rect x="305" y="62.75" width="22" height="124.65" />
</g>
<g style="fill: black; stroke: black;">
<line x1="68.5" y1="262.02" x2="78" y2="262.02" />
<line x1="68.5" y1="118.78" x2="78" y2="118.78" />
<line x1="68.5" y1="-64.82" x2="78" y2="-64.82" />
<rect x="72" y="-64.82" width="1" height="5" />
</g>
<g style="fill: black; stroke: black;">
<rect x="63" y="217.22" width="20" height="1" />
</g>
<g style="fill: black; stroke: black;">
<line x1="95.5" y1="258.17" x2="105" y2="258.17" />
<line x1="95.5" y1="47.82" x2="105" y2="47.82" />
<line x1="95.5" y1="-82.14" x2="105" y2="-82.14" />
<rect x="99" y="-82.14" width="1" height="5" />
</g>
<g style="fill: black; stroke: black;">
<rect x="90" y="133.17" width="20" height="1" />
</g>
<g style="fill: black; stroke: black;">
<line x1="122.5" y1="246.62" x2="132" y2="246.62" />
<line x1="122.5" y1="24.57" x2="132" y2="24.57" />
<line x1="122.5" y1="-43.9" x2="132" y2="-43.9" />
<rect x="126" y="-43.9" width="1" height="5" />
</g>
<g style="fill: black; stroke: black;">
<rect x="117" y="137.52" width="20" height="1" />
</g>
<g style="fill: black; stroke: black;">
<line x1="149.5" y1="263.86" x2="159" y2="263.86" />
<line x1="149.5" y1="51.56" x2="159" y2="51.56" />
<line x1="149.5" y1="-61.95" x2="159" y2="-61.95" />
<rect x="153" y="-61.95" width="1" height="5" />
</g>
<g style="fill: black; stroke: black;">
<rect x="144" y="169.19" width="20" height="1" />
</g>
<g style="fill: black; stroke: black;">
<line x1="176.5" y1="261.44" x2="186" y2="261.44" />
<line x1="176.5" y1="160.14" x2="186" y2="160.14" />
<line x1="176.5" y1="-100.81" x2="186" y2="-100.81" />
<rect x="180" y="-100.81" width="1" height="5" />
</g>
<g style="fill: black; stroke: black;">
<rect x="171" y="201.72" width="20" height="1" />
</g>
<g style="fill: black; stroke: black;">
<line x1="203.5" y1="264" x2="213" y2="264" />
<line x1="203.5" y1="63.21" x2="213" y2="63.21" />
<line x1="203.5" y1="52.55" x2="213" y2="52.55" />
<rect x="207" y="52.55" width="1" height="5" />
</g>
<g style="fill: black; stroke: black;">
<rect x="198" y="162.16" width="20" height="1" />
</g>
<g style="fill: black; stroke: black;">
<line x1="230.5" y1="220.72" x2="240" y2="220.72" />
<line x1="230.5" y1="67.57" x2="240" y2="67.57" />
<line x1="230.5" y1="-101.64" x2="240" y2="-101.64" />
<rect x="234" y="-101.64" width="1" height="5" />
</g>
<g style="fill: black; stroke: black;">
<rect x="225" y="139.89" width="20" height="1" />
</g>
<g style="fill: black; stroke: black;">
<line x1="257.5" y1="248.17" x2="267" y2="248.17" />
<line x1="257.5" y1="15.46" x2="267" y2="15.46" />
<line x1="257.5" y1="-162.36" x2="267" y2="-162.36" />
<rect x="261" y="-162.36" width="1" height="5" />
</g>
<g style="fill: black; stroke: black;">
<rect x="252" y="138.65" width="20" height="1" />
</g>
<g style="fill: black; stroke: black;">
<line x1="284.5" y1="258.34" x2="294" y2="258.34" />
<line x1="284.5" y1="11.28" x2="294" y2="11.28" />
<line x1="284.5" y1="-150.71" x2="294" y2="-150.71" />
<rect x="288" y="-150.71" width="1" height="5" />
</g>
<g style="fill: black; stroke: black;">
<rect x="279" y="147.61" width="20" height="1" />
</g>
<g style="fill: black; stroke: black;">
<line x1="311.5" y1="264" x2="321" y2="264" />
<line x1="311.5" y1="17.94" x2="321" y2="17.94" />
<line x1="311.5" y1="-108.23" x2="321" y2="-108.23" />
<rect x="315" y="-108.23" width="1" height="5" />
</g>
<g style="fill: black; stroke: black;">
<rect x="306" y="125.32" width="20" height="1" />
</g>
<g style="text-anchor: end; font-family: Ubuntu,Verdana,sans-serif; font-size: 0.9em;" >
<text x="462" y="282" >14 Sep 2021 u64q</text>
<text x="58" y="282" style="text-anchor: start;" >benchmarks game</text>
</g>
<text x="16" y="144" transform="rotate(270,16,144)" style="text-anchor: middle; font-family: Ubuntu,Verdana,sans-serif; font-size: 0.9em;" >program elapsed time / fastest</text>
<rect x="58" y="0" width="452" height="23" style="fill: white; stroke: white;" />
<text x="259.5" y="18" style="text-anchor: middle; font-family: Ubuntu,Verdana,sans-serif; font-size: 1.2em;" >Elapsed time spread — all other programs</text>
<g style="stroke: #333;">
<line x1="58" y1="24" x2="58" y2="264" />
<line x1="461" y1="24" x2="461" y2="264" />
<line x1="58" y1="264" x2="461" y2="264" />
</g>
</svg>

