<?xml version="1.0" encoding="UTF-8" standalone="no"?>
<!DOCTYPE svg PUBLIC "-//W3C//DTD SVG 1.1//EN" "http://www.w3.org/Graphics/SVG/1.1/DTD/svg11.dtd">
<svg xmlns="http://www.w3.org/2000/svg" version="1.1" xmlns:xlink="http://www.w3.org/1999/xlink" viewBox="0 0 512 288">

<!-- Copyright 2015-2021 Isaac Gouy -->

<!-- Box plot chart showing benchmark program performance grouped by implementation language -->

<!-- The Computer Language Benchmarks Game -->
<!-- https://benchmarksgame-team.pages.debian.net/benchmarksgame/license.html -->

<g style="stroke: #ccc;" >
<line x1="51" y1="264" x2="461" y2="264" />
<line x1="51" y1="206.75" x2="461" y2="206.75" />
<line x1="51" y1="180.12" x2="461" y2="180.12" />
<line x1="51" y1="144" x2="461" y2="144" />
<line x1="51" y1="86.75" x2="461" y2="86.75" />
<line x1="51" y1="60.12" x2="461" y2="60.12" />
<line x1="51" y1="24" x2="461" y2="24" />
</g>
<g style="text-anchor: end; font-family: Ubuntu,Verdana,sans-serif; font-size: 0.9em;" >
<text x="51" y="262" >1</text>
<text x="51" y="204.75" >3</text>
<text x="51" y="178.12" >5</text>
<text x="51" y="142" >10</text>
<text x="51" y="84.75" >30</text>
<text x="51" y="58.12" >50</text>
<text x="51" y="22" >100</text>
</g>
<defs>
<linearGradient id="grade" x1="0" y1="0" x2="0" y2="1">
<stop offset="0" style="stop-color: white" stop-opacity="0.6"/>
<stop offset="1" style="stop-color: white" stop-opacity="0.8"/>
</linearGradient>
<mask id="fade">
<rect x="58" y="24" width="452" height="288" fill="url(#grade)"  />
</mask>
<g id="backgroundText" style="text-anchor: end; font-family: Ubuntu,Verdana,sans-serif; font-size: 1em;">
<text x="16" y="0" transform="rotate(270,16,0)" xml:space="preserve">   pidigits   pidigits   pidigits   pidigits</text>
<text x="43" y="0" transform="rotate(270,43,0)" xml:space="preserve">   n-body   n-body   n-body   n-body   n-body</text>
<text x="70" y="0" transform="rotate(270,70,0)" xml:space="preserve">   fannkuch-redux   fannkuch-redux</text>
<text x="97" y="0" transform="rotate(270,97,0)" xml:space="preserve">   fasta   fasta   fasta   fasta   fasta</text>
<text x="124" y="0" transform="rotate(270,124,0)" xml:space="preserve">   mandelbrot   mandelbrot   mandelbrot</text>
<text x="151" y="0" transform="rotate(270,151,0)" xml:space="preserve">   k-nucleotide   k-nucleotide   k-nucleotide</text>
<text x="178" y="0" transform="rotate(270,178,0)" xml:space="preserve">   spectral-norm   spectral-norm   spectral-norm</text>
<text x="205" y="0" transform="rotate(270,205,0)" xml:space="preserve">   regex-redux   regex-redux   regex-redux</text>
<text x="232" y="0" transform="rotate(270,232,0)" xml:space="preserve">   binary-trees   binary-trees   binary-trees</text>
<text x="259" y="0" transform="rotate(270,259,0)" xml:space="preserve">   reverse-complement   reverse-complement</text>
</g>
</defs>
<use x="60" y="27" xlink:href="#backgroundText"/>
<rect x="58" y="24" width="452" height="288" fill="white" mask="url(#fade)" />
<rect x="58" y="264" width="452" height="288" style="fill: white; stroke: white;" />
<g style="fill: black; stroke: black;">
<rect x="72" y="132.46" width="1" height="131.54" />
<rect x="99" y="182.52" width="1" height="62.49" />
<rect x="126" y="93.04" width="1" height="170.96" />
<rect x="153" y="104.08" width="1" height="159.92" />
<rect x="180" y="77.53" width="1" height="186.47" />
<rect x="207" y="90.69" width="1" height="173.31" />
<rect x="234" y="84.55" width="1" height="179.45" />
<rect x="261" y="72.39" width="1" height="191.61" />
<rect x="288" y="69.7" width="1" height="194.3" />
<rect x="315" y="31.81" width="1" height="232.19" />
</g>
<g style="fill: white; stroke: black;">
<rect x="62" y="171.55" width="22" height="71.2" />
<rect x="89" y="198.35" width="22" height="14.07" />
<rect x="116" y="132.84" width="22" height="75.27" />
<rect x="143" y="145.03" width="22" height="82.88" />
<rect x="170" y="117.59" width="22" height="76.93" />
<rect x="197" y="129.94" width="22" height="72.03" />
<rect x="224" y="124.03" width="22" height="73.38" />
<rect x="251" y="115.59" width="22" height="102.67" />
<rect x="278" y="108.58" width="22" height="70.01" />
<rect x="305" y="75.71" width="22" height="111.07" />
</g>
<g style="fill: black; stroke: black;">
<line x1="68.5" y1="264" x2="78" y2="264" />
<line x1="68.5" y1="132.46" x2="78" y2="132.46" />
<line x1="68.5" y1="-64.82" x2="78" y2="-64.82" />
<rect x="72" y="-64.82" width="1" height="5" />
</g>
<g style="fill: black; stroke: black;">
<rect x="63" y="219.98" width="20" height="1" />
</g>
<g style="fill: black; stroke: black;">
<line x1="95.5" y1="245.01" x2="105" y2="245.01" />
<line x1="95.5" y1="182.52" x2="105" y2="182.52" />
<line x1="95.5" y1="264" x2="105" y2="264" />
<rect x="99" y="259" width="1" height="5" />
<line x1="95.5" y1="-100.99" x2="105" y2="-100.99" />
<rect x="99" y="-100.99" width="1" height="5" />
</g>
<g style="fill: black; stroke: black;">
<rect x="90" y="205.29" width="20" height="1" />
</g>
<g style="fill: black; stroke: black;">
<line x1="122.5" y1="264" x2="132" y2="264" />
<line x1="122.5" y1="93.04" x2="132" y2="93.04" />
<line x1="122.5" y1="-101.67" x2="132" y2="-101.67" />
<rect x="126" y="-101.67" width="1" height="5" />
</g>
<g style="fill: black; stroke: black;">
<rect x="117" y="193.92" width="20" height="1" />
</g>
<g style="fill: black; stroke: black;">
<line x1="149.5" y1="264" x2="159" y2="264" />
<line x1="149.5" y1="104.08" x2="159" y2="104.08" />
<line x1="149.5" y1="-61.95" x2="159" y2="-61.95" />
<rect x="153" y="-61.95" width="1" height="5" />
</g>
<g style="fill: black; stroke: black;">
<rect x="144" y="179.6" width="20" height="1" />
</g>
<g style="fill: black; stroke: black;">
<line x1="176.5" y1="264" x2="186" y2="264" />
<line x1="176.5" y1="77.53" x2="186" y2="77.53" />
<line x1="176.5" y1="-150.77" x2="186" y2="-150.77" />
<rect x="180" y="-150.77" width="1" height="5" />
</g>
<g style="fill: black; stroke: black;">
<rect x="171" y="174.19" width="20" height="1" />
</g>
<g style="fill: black; stroke: black;">
<line x1="203.5" y1="264" x2="213" y2="264" />
<line x1="203.5" y1="90.69" x2="213" y2="90.69" />
<line x1="203.5" y1="-45.45" x2="213" y2="-45.45" />
<rect x="207" y="-45.45" width="1" height="5" />
</g>
<g style="fill: black; stroke: black;">
<rect x="198" y="171.47" width="20" height="1" />
</g>
<g style="fill: black; stroke: black;">
<line x1="230.5" y1="264" x2="240" y2="264" />
<line x1="230.5" y1="84.55" x2="240" y2="84.55" />
<line x1="230.5" y1="-162.63" x2="240" y2="-162.63" />
<rect x="234" y="-162.63" width="1" height="5" />
</g>
<g style="fill: black; stroke: black;">
<rect x="225" y="170.74" width="20" height="1" />
</g>
<g style="fill: black; stroke: black;">
<line x1="257.5" y1="264" x2="267" y2="264" />
<line x1="257.5" y1="72.39" x2="267" y2="72.39" />
<line x1="257.5" y1="48.56" x2="267" y2="48.56" />
<rect x="261" y="48.56" width="1" height="5" />
</g>
<g style="fill: black; stroke: black;">
<rect x="252" y="167.17" width="20" height="1" />
</g>
<g style="fill: black; stroke: black;">
<line x1="284.5" y1="264" x2="294" y2="264" />
<line x1="284.5" y1="69.7" x2="294" y2="69.7" />
<line x1="284.5" y1="-85.05" x2="294" y2="-85.05" />
<rect x="288" y="-85.05" width="1" height="5" />
</g>
<g style="fill: black; stroke: black;">
<rect x="279" y="139.76" width="20" height="1" />
</g>
<g style="fill: black; stroke: black;">
<line x1="311.5" y1="264" x2="321" y2="264" />
<line x1="311.5" y1="31.81" x2="321" y2="31.81" />
<line x1="311.5" y1="-108.23" x2="321" y2="-108.23" />
<rect x="315" y="-108.23" width="1" height="5" />
</g>
<g style="fill: black; stroke: black;">
<rect x="306" y="122.57" width="20" height="1" />
</g>
<g style="text-anchor: end; font-family: Ubuntu,Verdana,sans-serif; font-size: 0.9em;" >
<text x="462" y="282" >14 Sep 2021 u64q</text>
<text x="58" y="282" style="text-anchor: start;" >benchmarks game</text>
</g>
<text x="16" y="144" transform="rotate(270,16,144)" style="text-anchor: middle; font-family: Ubuntu,Verdana,sans-serif; font-size: 0.9em;" >program elapsed time / fastest</text>
<text x="259.5" y="18" style="text-anchor: middle; font-family: Ubuntu,Verdana,sans-serif; font-size: 1.2em;" >Elapsed time spread — all programs</text>
<g style="stroke: #333;">
<line x1="58" y1="24" x2="58" y2="264" />
<line x1="461" y1="24" x2="461" y2="264" />
<line x1="58" y1="264" x2="461" y2="264" />
</g>
</svg>

