<?xml version="1.0" encoding="UTF-8" standalone="no"?>
<!DOCTYPE svg PUBLIC "-//W3C//DTD SVG 1.1//EN" "http://www.w3.org/Graphics/SVG/1.1/DTD/svg11.dtd">
<svg xmlns="http://www.w3.org/2000/svg" version="1.1" xmlns:xlink="http://www.w3.org/1999/xlink" viewBox="0 0 512 288">

<!-- Copyright 2015-2021 Isaac Gouy -->

<!-- Box plot chart showing benchmark program performance grouped by implementation language -->

<!-- The Computer Language Benchmarks Game -->
<!-- https://benchmarksgame-team.pages.debian.net/benchmarksgame/license.html -->

<g style="stroke: #ccc;" >
<line x1="51" y1="264" x2="461" y2="264" />
<line x1="51" y1="206.75" x2="461" y2="206.75" />
<line x1="51" y1="180.12" x2="461" y2="180.12" />
<line x1="51" y1="144" x2="461" y2="144" />
<line x1="51" y1="86.75" x2="461" y2="86.75" />
<line x1="51" y1="60.12" x2="461" y2="60.12" />
<line x1="51" y1="24" x2="461" y2="24" />
</g>
<g style="text-anchor: end; font-family: Ubuntu,Verdana,sans-serif; font-size: 0.9em;" >
<text x="51" y="262" >1</text>
<text x="51" y="204.75" >3</text>
<text x="51" y="178.12" >5</text>
<text x="51" y="142" >10</text>
<text x="51" y="84.75" >30</text>
<text x="51" y="58.12" >50</text>
<text x="51" y="22" ></text>
</g>
<defs>
<linearGradient id="grade" x1="0" y1="0" x2="0" y2="1">
<stop offset="0" style="stop-color: white" stop-opacity="0.6"/>
<stop offset="1" style="stop-color: white" stop-opacity="0.8"/>
</linearGradient>
<mask id="fade">
<rect x="58" y="24" width="452" height="288" fill="url(#grade)"  />
</mask>
<g id="backgroundText" style="text-anchor: end; font-family: Ubuntu,Verdana,sans-serif; font-size: 1em;">
<text x="16" y="0" transform="rotate(270,16,0)" xml:space="preserve">   pidigits   pidigits   pidigits   pidigits</text>
<text x="43" y="0" transform="rotate(270,43,0)" xml:space="preserve">   n-body   n-body   n-body   n-body   n-body</text>
<text x="70" y="0" transform="rotate(270,70,0)" xml:space="preserve">   fannkuch-redux   fannkuch-redux</text>
<text x="97" y="0" transform="rotate(270,97,0)" xml:space="preserve">   regex-redux   regex-redux   regex-redux</text>
<text x="124" y="0" transform="rotate(270,124,0)" xml:space="preserve">   reverse-complement   reverse-complement</text>
<text x="151" y="0" transform="rotate(270,151,0)" xml:space="preserve">   binary-trees   binary-trees   binary-trees</text>
<text x="178" y="0" transform="rotate(270,178,0)" xml:space="preserve">   k-nucleotide   k-nucleotide   k-nucleotide</text>
<text x="205" y="0" transform="rotate(270,205,0)" xml:space="preserve">   spectral-norm   spectral-norm   spectral-norm</text>
<text x="232" y="0" transform="rotate(270,232,0)" xml:space="preserve">   fasta   fasta   fasta   fasta   fasta</text>
<text x="259" y="0" transform="rotate(270,259,0)" xml:space="preserve">   mandelbrot   mandelbrot   mandelbrot</text>
</g>
</defs>
<use x="60" y="27" xlink:href="#backgroundText"/>
<rect x="58" y="24" width="452" height="288" fill="white" mask="url(#fade)" />
<rect x="58" y="264" width="452" height="288" style="fill: white; stroke: white;" />
<g style="fill: black; stroke: black;">
<rect x="72" y="105.64" width="1" height="157.29" />
<rect x="99" y="221.35" width="1" height="42.65" />
<rect x="126" y="134.59" width="1" height="128.66" />
<rect x="153" y="79.26" width="1" height="183.22" />
<rect x="180" y="50.4" width="1" height="200.92" />
<rect x="207" y="77.31" width="1" height="163" />
<rect x="234" y="68.38" width="1" height="172.17" />
<rect x="261" y="120.99" width="1" height="142.64" />
<rect x="288" y="120.23" width="1" height="143.77" />
<rect x="315" y="45.94" width="1" height="211.03" />
</g>
<g style="fill: white; stroke: black;">
<rect x="62" y="147.48" width="22" height="89.72" />
<rect x="89" y="234.2" width="22" height="10.75" />
<rect x="116" y="173.92" width="22" height="72.51" />
<rect x="143" y="119.31" width="22" height="76.85" />
<rect x="170" y="95.52" width="22" height="130.33" />
<rect x="197" y="114.65" width="22" height="62.4" />
<rect x="224" y="110.82" width="22" height="95.06" />
<rect x="251" y="159.35" width="22" height="67.3" />
<rect x="278" y="160.5" width="22" height="78.24" />
<rect x="305" y="89.04" width="22" height="101.56" />
</g>
<g style="fill: black; stroke: black;">
<line x1="68.5" y1="262.92" x2="78" y2="262.92" />
<line x1="68.5" y1="105.64" x2="78" y2="105.64" />
<line x1="68.5" y1="40.15" x2="78" y2="40.15" />
<rect x="72" y="40.15" width="1" height="5" />
</g>
<g style="fill: black; stroke: black;">
<rect x="63" y="191.16" width="20" height="1" />
</g>
<g style="fill: black; stroke: black;">
<line x1="95.5" y1="264" x2="105" y2="264" />
<line x1="95.5" y1="221.35" x2="105" y2="221.35" />
<line x1="95.5" y1="42.6" x2="105" y2="42.6" />
<rect x="99" y="42.6" width="1" height="5" />
</g>
<g style="fill: black; stroke: black;">
<rect x="90" y="238.47" width="20" height="1" />
</g>
<g style="fill: black; stroke: black;">
<line x1="122.5" y1="263.25" x2="132" y2="263.25" />
<line x1="122.5" y1="134.59" x2="132" y2="134.59" />
<line x1="122.5" y1="46.56" x2="132" y2="46.56" />
<rect x="126" y="46.56" width="1" height="5" />
</g>
<g style="fill: black; stroke: black;">
<rect x="117" y="187.76" width="20" height="1" />
</g>
<g style="fill: black; stroke: black;">
<line x1="149.5" y1="262.48" x2="159" y2="262.48" />
<line x1="149.5" y1="79.26" x2="159" y2="79.26" />
<line x1="149.5" y1="52.99" x2="159" y2="52.99" />
<rect x="153" y="52.99" width="1" height="5" />
</g>
<g style="fill: black; stroke: black;">
<rect x="144" y="168.71" width="20" height="1" />
</g>
<g style="fill: black; stroke: black;">
<line x1="176.5" y1="251.32" x2="186" y2="251.32" />
<line x1="176.5" y1="50.4" x2="186" y2="50.4" />
<line x1="176.5" y1="-77.86" x2="186" y2="-77.86" />
<rect x="180" y="-77.86" width="1" height="5" />
</g>
<g style="fill: black; stroke: black;">
<rect x="171" y="199.42" width="20" height="1" />
</g>
<g style="fill: black; stroke: black;">
<line x1="203.5" y1="240.31" x2="213" y2="240.31" />
<line x1="203.5" y1="77.31" x2="213" y2="77.31" />
<line x1="203.5" y1="73.93" x2="213" y2="73.93" />
<rect x="207" y="73.93" width="1" height="5" />
</g>
<g style="fill: black; stroke: black;">
<rect x="198" y="142.36" width="20" height="1" />
</g>
<g style="fill: black; stroke: black;">
<line x1="230.5" y1="240.54" x2="240" y2="240.54" />
<line x1="230.5" y1="68.38" x2="240" y2="68.38" />
<line x1="230.5" y1="-41.47" x2="240" y2="-41.47" />
<rect x="234" y="-41.47" width="1" height="5" />
</g>
<g style="fill: black; stroke: black;">
<rect x="225" y="168.74" width="20" height="1" />
</g>
<g style="fill: black; stroke: black;">
<line x1="257.5" y1="263.64" x2="267" y2="263.64" />
<line x1="257.5" y1="120.99" x2="267" y2="120.99" />
<line x1="257.5" y1="38.68" x2="267" y2="38.68" />
<rect x="261" y="38.68" width="1" height="5" />
</g>
<g style="fill: black; stroke: black;">
<rect x="252" y="218.67" width="20" height="1" />
</g>
<g style="fill: black; stroke: black;">
<line x1="284.5" y1="264" x2="294" y2="264" />
<line x1="284.5" y1="120.23" x2="294" y2="120.23" />
<line x1="284.5" y1="19.14" x2="294" y2="19.14" />
<rect x="288" y="19.14" width="1" height="5" />
</g>
<g style="fill: black; stroke: black;">
<rect x="279" y="189.21" width="20" height="1" />
</g>
<g style="fill: black; stroke: black;">
<line x1="311.5" y1="256.98" x2="321" y2="256.98" />
<line x1="311.5" y1="45.94" x2="321" y2="45.94" />
<line x1="311.5" y1="-47.66" x2="321" y2="-47.66" />
<rect x="315" y="-47.66" width="1" height="5" />
</g>
<g style="fill: black; stroke: black;">
<rect x="306" y="158.24" width="20" height="1" />
</g>
<g style="text-anchor: end; font-family: Ubuntu,Verdana,sans-serif; font-size: 0.9em;" >
<text x="462" y="282" >18 Mar 2022 u64q</text>
<text x="58" y="282" style="text-anchor: start;" >benchmarks game</text>
</g>
<text x="16" y="144" transform="rotate(270,16,144)" style="text-anchor: middle; font-family: Ubuntu,Verdana,sans-serif; font-size: 0.9em;" >program elapsed time / fastest</text>
<rect x="58" y="0" width="452" height="23" style="fill: white; stroke: white;" />
<text x="259.5" y="18" style="text-anchor: middle; font-family: Ubuntu,Verdana,sans-serif; font-size: 1.2em;" >Elapsed time spread — Fortran, Julia … Node.js</text>
<g style="stroke: #333;">
<line x1="58" y1="24" x2="58" y2="264" />
<line x1="461" y1="24" x2="461" y2="264" />
<line x1="58" y1="264" x2="461" y2="264" />
</g>
</svg>

