<?xml version="1.0" encoding="UTF-8" standalone="no"?>
<!DOCTYPE svg PUBLIC "-//W3C//DTD SVG 1.1//EN" "http://www.w3.org/Graphics/SVG/1.1/DTD/svg11.dtd">
<svg xmlns="http://www.w3.org/2000/svg" version="1.1" xmlns:xlink="http://www.w3.org/1999/xlink" viewBox="0 0 512 288">

<!-- Copyright 2015-2021 Isaac Gouy -->

<!-- Box plot chart showing benchmark program performance grouped by implementation language -->

<!-- The Computer Language Benchmarks Game -->
<!-- https://benchmarksgame-team.pages.debian.net/benchmarksgame/license.html -->

<g style="stroke: #ccc;" >
<line x1="51" y1="264" x2="461" y2="264" />
<line x1="51" y1="206.75" x2="461" y2="206.75" />
<line x1="51" y1="180.12" x2="461" y2="180.12" />
<line x1="51" y1="144" x2="461" y2="144" />
<line x1="51" y1="86.75" x2="461" y2="86.75" />
<line x1="51" y1="60.12" x2="461" y2="60.12" />
<line x1="51" y1="24" x2="461" y2="24" />
</g>
<g style="text-anchor: end; font-family: Ubuntu,Verdana,sans-serif; font-size: 0.9em;" >
<text x="51" y="262" >1</text>
<text x="51" y="204.75" >3</text>
<text x="51" y="178.12" >5</text>
<text x="51" y="142" >10</text>
<text x="51" y="84.75" >30</text>
<text x="51" y="58.12" >50</text>
<text x="51" y="22" ></text>
</g>
<defs>
<linearGradient id="grade" x1="0" y1="0" x2="0" y2="1">
<stop offset="0" style="stop-color: white" stop-opacity="0.6"/>
<stop offset="1" style="stop-color: white" stop-opacity="0.8"/>
</linearGradient>
<mask id="fade">
<rect x="58" y="24" width="452" height="288" fill="url(#grade)"  />
</mask>
<g id="backgroundText" style="text-anchor: end; font-family: Ubuntu,Verdana,sans-serif; font-size: 1em;">
<text x="16" y="0" transform="rotate(270,16,0)" xml:space="preserve">   pidigits   pidigits   pidigits   pidigits</text>
<text x="43" y="0" transform="rotate(270,43,0)" xml:space="preserve">   n-body   n-body   n-body   n-body   n-body</text>
<text x="70" y="0" transform="rotate(270,70,0)" xml:space="preserve">   fannkuch-redux   fannkuch-redux</text>
<text x="97" y="0" transform="rotate(270,97,0)" xml:space="preserve">   regex-redux   regex-redux   regex-redux</text>
<text x="124" y="0" transform="rotate(270,124,0)" xml:space="preserve">   reverse-complement   reverse-complement</text>
<text x="151" y="0" transform="rotate(270,151,0)" xml:space="preserve">   binary-trees   binary-trees   binary-trees</text>
<text x="178" y="0" transform="rotate(270,178,0)" xml:space="preserve">   k-nucleotide   k-nucleotide   k-nucleotide</text>
<text x="205" y="0" transform="rotate(270,205,0)" xml:space="preserve">   spectral-norm   spectral-norm   spectral-norm</text>
<text x="232" y="0" transform="rotate(270,232,0)" xml:space="preserve">   fasta   fasta   fasta   fasta   fasta</text>
<text x="259" y="0" transform="rotate(270,259,0)" xml:space="preserve">   mandelbrot   mandelbrot   mandelbrot</text>
</g>
</defs>
<use x="60" y="27" xlink:href="#backgroundText"/>
<rect x="58" y="24" width="452" height="288" fill="white" mask="url(#fade)" />
<rect x="58" y="264" width="452" height="288" style="fill: white; stroke: white;" />
<g style="fill: black; stroke: black;">
<rect x="72" y="262.01" width="1" height="1.99" />
<rect x="99" y="233.69" width="1" height="27.17" />
<rect x="126" y="171.48" width="1" height="92.52" />
<rect x="153" y="161.77" width="1" height="102.23" />
<rect x="180" y="158.92" width="1" height="105.08" />
<rect x="207" y="188.09" width="1" height="75.91" />
<rect x="234" y="174.59" width="1" height="89.41" />
<rect x="261" y="158.76" width="1" height="105.24" />
<rect x="288" y="171.95" width="1" height="92.05" />
<rect x="315" y="84.77" width="1" height="179.23" />
</g>
<g style="fill: white; stroke: black;">
<rect x="62" y="262.64" width="22" height="1.36" />
<rect x="89" y="237.62" width="22" height="10.57" />
<rect x="116" y="188.27" width="22" height="74.54" />
<rect x="143" y="194.69" width="22" height="46.12" />
<rect x="170" y="196.16" width="22" height="61.94" />
<rect x="197" y="215.35" width="22" height="31.92" />
<rect x="224" y="203.27" width="22" height="35.01" />
<rect x="251" y="181.65" width="22" height="82.24" />
<rect x="278" y="187.64" width="22" height="66.43" />
<rect x="305" y="124.25" width="22" height="131.11" />
</g>
<g style="fill: black; stroke: black;">
<line x1="68.5" y1="264" x2="78" y2="264" />
<line x1="68.5" y1="262.01" x2="78" y2="262.01" />
</g>
<g style="fill: black; stroke: black;">
<rect x="63" y="262.64" width="20" height="1" />
</g>
<g style="fill: black; stroke: black;">
<line x1="95.5" y1="260.86" x2="105" y2="260.86" />
<line x1="95.5" y1="233.69" x2="105" y2="233.69" />
</g>
<g style="fill: black; stroke: black;">
<rect x="90" y="244.99" width="20" height="1" />
</g>
<g style="fill: black; stroke: black;">
<line x1="122.5" y1="264" x2="132" y2="264" />
<line x1="122.5" y1="171.48" x2="132" y2="171.48" />
</g>
<g style="fill: black; stroke: black;">
<rect x="117" y="243.57" width="20" height="1" />
</g>
<g style="fill: black; stroke: black;">
<line x1="149.5" y1="264" x2="159" y2="264" />
<line x1="149.5" y1="161.77" x2="159" y2="161.77" />
<line x1="149.5" y1="121.18" x2="159" y2="121.18" />
<rect x="153" y="121.18" width="1" height="5" />
</g>
<g style="fill: black; stroke: black;">
<rect x="144" y="232.5" width="20" height="1" />
</g>
<g style="fill: black; stroke: black;">
<line x1="176.5" y1="264" x2="186" y2="264" />
<line x1="176.5" y1="158.92" x2="186" y2="158.92" />
<line x1="176.5" y1="67.19" x2="186" y2="67.19" />
<rect x="180" y="67.19" width="1" height="5" />
</g>
<g style="fill: black; stroke: black;">
<rect x="171" y="232.37" width="20" height="1" />
</g>
<g style="fill: black; stroke: black;">
<line x1="203.5" y1="264" x2="213" y2="264" />
<line x1="203.5" y1="188.09" x2="213" y2="188.09" />
<line x1="203.5" y1="97.31" x2="213" y2="97.31" />
<rect x="207" y="97.31" width="1" height="5" />
</g>
<g style="fill: black; stroke: black;">
<rect x="198" y="229.2" width="20" height="1" />
</g>
<g style="fill: black; stroke: black;">
<line x1="230.5" y1="264" x2="240" y2="264" />
<line x1="230.5" y1="174.59" x2="240" y2="174.59" />
<line x1="230.5" y1="140.21" x2="240" y2="140.21" />
<rect x="234" y="140.21" width="1" height="5" />
</g>
<g style="fill: black; stroke: black;">
<rect x="225" y="228.12" width="20" height="1" />
</g>
<g style="fill: black; stroke: black;">
<line x1="257.5" y1="264" x2="267" y2="264" />
<line x1="257.5" y1="158.76" x2="267" y2="158.76" />
</g>
<g style="fill: black; stroke: black;">
<rect x="252" y="225.97" width="20" height="1" />
</g>
<g style="fill: black; stroke: black;">
<line x1="284.5" y1="264" x2="294" y2="264" />
<line x1="284.5" y1="171.95" x2="294" y2="171.95" />
</g>
<g style="fill: black; stroke: black;">
<rect x="279" y="215.37" width="20" height="1" />
</g>
<g style="fill: black; stroke: black;">
<line x1="311.5" y1="264" x2="321" y2="264" />
<line x1="311.5" y1="84.77" x2="321" y2="84.77" />
</g>
<g style="fill: black; stroke: black;">
<rect x="306" y="195.99" width="20" height="1" />
</g>
<g style="text-anchor: end; font-family: Ubuntu,Verdana,sans-serif; font-size: 0.9em;" >
<text x="462" y="282" >18 Mar 2022 u64q</text>
<text x="58" y="282" style="text-anchor: start;" >benchmarks game</text>
</g>
<text x="16" y="144" transform="rotate(270,16,144)" style="text-anchor: middle; font-family: Ubuntu,Verdana,sans-serif; font-size: 0.9em;" >program elapsed time / fastest</text>
<rect x="58" y="0" width="452" height="23" style="fill: white; stroke: white;" />
<text x="259.5" y="18" style="text-anchor: middle; font-family: Ubuntu,Verdana,sans-serif; font-size: 1.2em;" >Elapsed time spread — C, C++, Rust</text>
<g style="stroke: #333;">
<line x1="58" y1="24" x2="58" y2="264" />
<line x1="461" y1="24" x2="461" y2="264" />
<line x1="58" y1="264" x2="461" y2="264" />
</g>
</svg>

