<?xml version="1.0" encoding="UTF-8" standalone="no"?>
<!DOCTYPE svg PUBLIC "-//W3C//DTD SVG 1.1//EN" "http://www.w3.org/Graphics/SVG/1.1/DTD/svg11.dtd">
<svg xmlns="http://www.w3.org/2000/svg" version="1.1" xmlns:xlink="http://www.w3.org/1999/xlink" viewBox="0 0 512 288">

<!-- Copyright 2015-2021 Isaac Gouy -->

<!-- Box plot chart showing benchmark program performance grouped by implementation language -->

<!-- The Computer Language Benchmarks Game -->
<!-- https://benchmarksgame-team.pages.debian.net/benchmarksgame/license.html -->

<g style="stroke: #ccc;" >
<line x1="51" y1="264" x2="461" y2="264" />
<line x1="51" y1="206.75" x2="461" y2="206.75" />
<line x1="51" y1="180.12" x2="461" y2="180.12" />
<line x1="51" y1="144" x2="461" y2="144" />
<line x1="51" y1="86.75" x2="461" y2="86.75" />
<line x1="51" y1="60.12" x2="461" y2="60.12" />
<line x1="51" y1="24" x2="461" y2="24" />
</g>
<g style="text-anchor: end; font-family: Ubuntu,Verdana,sans-serif; font-size: 0.9em;" >
<text x="51" y="262" >1</text>
<text x="51" y="204.75" >3</text>
<text x="51" y="178.12" >5</text>
<text x="51" y="142" >10</text>
<text x="51" y="84.75" >30</text>
<text x="51" y="58.12" >50</text>
<text x="51" y="22" ></text>
</g>
<defs>
<linearGradient id="grade" x1="0" y1="0" x2="0" y2="1">
<stop offset="0" style="stop-color: white" stop-opacity="0.6"/>
<stop offset="1" style="stop-color: white" stop-opacity="0.8"/>
</linearGradient>
<mask id="fade">
<rect x="58" y="24" width="452" height="288" fill="url(#grade)"  />
</mask>
<g id="backgroundText" style="text-anchor: end; font-family: Ubuntu,Verdana,sans-serif; font-size: 1em;">
<text x="16" y="0" transform="rotate(270,16,0)" xml:space="preserve">   pidigits   pidigits   pidigits   pidigits</text>
<text x="43" y="0" transform="rotate(270,43,0)" xml:space="preserve">   n-body   n-body   n-body   n-body   n-body</text>
<text x="70" y="0" transform="rotate(270,70,0)" xml:space="preserve">   fannkuch-redux   fannkuch-redux</text>
<text x="97" y="0" transform="rotate(270,97,0)" xml:space="preserve">   regex-redux   regex-redux   regex-redux</text>
<text x="124" y="0" transform="rotate(270,124,0)" xml:space="preserve">   reverse-complement   reverse-complement</text>
<text x="151" y="0" transform="rotate(270,151,0)" xml:space="preserve">   binary-trees   binary-trees   binary-trees</text>
<text x="178" y="0" transform="rotate(270,178,0)" xml:space="preserve">   k-nucleotide   k-nucleotide   k-nucleotide</text>
<text x="205" y="0" transform="rotate(270,205,0)" xml:space="preserve">   spectral-norm   spectral-norm   spectral-norm</text>
<text x="232" y="0" transform="rotate(270,232,0)" xml:space="preserve">   fasta   fasta   fasta   fasta   fasta</text>
<text x="259" y="0" transform="rotate(270,259,0)" xml:space="preserve">   mandelbrot   mandelbrot   mandelbrot</text>
</g>
</defs>
<use x="60" y="27" xlink:href="#backgroundText"/>
<rect x="58" y="24" width="452" height="288" fill="white" mask="url(#fade)" />
<rect x="58" y="264" width="452" height="288" style="fill: white; stroke: white;" />
<g style="fill: black; stroke: black;">
<rect x="72" y="91.75" width="1" height="159.57" />
<rect x="99" y="-21.9" width="1" height="142.77" />
<rect x="126" y="-55.22" width="1" height="211.47" />
<rect x="153" y="50.33" width="1" height="170.78" />
<rect x="180" y="22.83" width="1" height="130.96" />
<rect x="207" y="-16.9" width="1" height="192.54" />
<rect x="234" y="-30.46" width="1" height="176.58" />
<rect x="261" y="-48.19" width="1" height="192.96" />
<rect x="288" y="-45.33" width="1" height="139.39" />
<rect x="315" y="-154.42" width="1" height="249.74" />
</g>
<g style="fill: white; stroke: black;">
<rect x="62" y="133.97" width="22" height="93.01" />
<rect x="89" y="10.98" width="22" height="45.99" />
<rect x="116" y="-12.98" width="22" height="93.14" />
<rect x="143" y="83.64" width="22" height="49.73" />
<rect x="170" y="62.22" width="22" height="72.86" />
<rect x="197" y="17.88" width="22" height="52.22" />
<rect x="224" y="8.95" width="22" height="72.96" />
<rect x="251" y="-12.49" width="22" height="55.57" />
<rect x="278" y="-4.79" width="22" height="80.03" />
<rect x="305" y="-109.05" width="22" height="135.41" />
</g>
<g style="fill: black; stroke: black;">
<line x1="68.5" y1="251.32" x2="78" y2="251.32" />
<line x1="68.5" y1="91.75" x2="78" y2="91.75" />
<line x1="68.5" y1="-54.89" x2="78" y2="-54.89" />
<rect x="72" y="-54.89" width="1" height="5" />
</g>
<g style="fill: black; stroke: black;">
<rect x="63" y="182.87" width="20" height="1" />
</g>
<g style="fill: black; stroke: black;">
<line x1="95.5" y1="120.88" x2="105" y2="120.88" />
<line x1="95.5" y1="-21.9" x2="105" y2="-21.9" />
<line x1="95.5" y1="-65.12" x2="105" y2="-65.12" />
<rect x="99" y="-65.12" width="1" height="5" />
</g>
<g style="fill: black; stroke: black;">
<rect x="90" y="54.17" width="20" height="1" />
</g>
<g style="fill: black; stroke: black;">
<line x1="122.5" y1="156.25" x2="132" y2="156.25" />
<line x1="122.5" y1="-55.22" x2="132" y2="-55.22" />
<line x1="122.5" y1="-115.55" x2="132" y2="-115.55" />
<rect x="126" y="-115.55" width="1" height="5" />
</g>
<g style="fill: black; stroke: black;">
<rect x="117" y="49.47" width="20" height="1" />
</g>
<g style="fill: black; stroke: black;">
<line x1="149.5" y1="221.11" x2="159" y2="221.11" />
<line x1="149.5" y1="50.33" x2="159" y2="50.33" />
</g>
<g style="fill: black; stroke: black;">
<rect x="144" y="106.69" width="20" height="1" />
</g>
<g style="fill: black; stroke: black;">
<line x1="176.5" y1="153.79" x2="186" y2="153.79" />
<line x1="176.5" y1="22.83" x2="186" y2="22.83" />
<line x1="176.5" y1="-9.8" x2="186" y2="-9.8" />
<rect x="180" y="-9.8" width="1" height="5" />
</g>
<g style="fill: black; stroke: black;">
<rect x="171" y="93.62" width="20" height="1" />
</g>
<g style="fill: black; stroke: black;">
<line x1="203.5" y1="175.64" x2="213" y2="175.64" />
<line x1="203.5" y1="-16.9" x2="213" y2="-16.9" />
<line x1="203.5" y1="-85.16" x2="213" y2="-85.16" />
<rect x="207" y="-85.16" width="1" height="5" />
</g>
<g style="fill: black; stroke: black;">
<rect x="198" y="44.3" width="20" height="1" />
</g>
<g style="fill: black; stroke: black;">
<line x1="230.5" y1="146.12" x2="240" y2="146.12" />
<line x1="230.5" y1="-30.46" x2="240" y2="-30.46" />
<line x1="230.5" y1="-39.04" x2="240" y2="-39.04" />
<rect x="234" y="-39.04" width="1" height="5" />
</g>
<g style="fill: black; stroke: black;">
<rect x="225" y="54.53" width="20" height="1" />
</g>
<g style="fill: black; stroke: black;">
<line x1="257.5" y1="144.77" x2="267" y2="144.77" />
<line x1="257.5" y1="-48.19" x2="267" y2="-48.19" />
<line x1="257.5" y1="-132.09" x2="267" y2="-132.09" />
<rect x="261" y="-132.09" width="1" height="5" />
</g>
<g style="fill: black; stroke: black;">
<rect x="252" y="1.71" width="20" height="1" />
</g>
<g style="fill: black; stroke: black;">
<line x1="284.5" y1="94.05" x2="294" y2="94.05" />
<line x1="284.5" y1="-45.33" x2="294" y2="-45.33" />
<line x1="284.5" y1="-61.14" x2="294" y2="-61.14" />
<rect x="288" y="-61.14" width="1" height="5" />
</g>
<g style="fill: black; stroke: black;">
<rect x="279" y="38.05" width="20" height="1" />
</g>
<g style="fill: black; stroke: black;">
<line x1="311.5" y1="95.31" x2="321" y2="95.31" />
<line x1="311.5" y1="-154.42" x2="321" y2="-154.42" />
<line x1="311.5" y1="-207.22" x2="321" y2="-207.22" />
<rect x="315" y="-207.22" width="1" height="5" />
</g>
<g style="fill: black; stroke: black;">
<rect x="306" y="-29.52" width="20" height="1" />
</g>
<g style="text-anchor: end; font-family: Ubuntu,Verdana,sans-serif; font-size: 0.9em;" >
<text x="462" y="282" >18 Mar 2022 u64q</text>
<text x="58" y="282" style="text-anchor: start;" >benchmarks game</text>
</g>
<text x="16" y="144" transform="rotate(270,16,144)" style="text-anchor: middle; font-family: Ubuntu,Verdana,sans-serif; font-size: 0.9em;" >program elapsed time / fastest</text>
<rect x="58" y="0" width="452" height="23" style="fill: white; stroke: white;" />
<text x="259.5" y="18" style="text-anchor: middle; font-family: Ubuntu,Verdana,sans-serif; font-size: 1.2em;" >Elapsed time spread — PHP, Erlang, Python 3 …</text>
<g style="stroke: #333;">
<line x1="58" y1="24" x2="58" y2="264" />
<line x1="461" y1="24" x2="461" y2="264" />
<line x1="58" y1="264" x2="461" y2="264" />
</g>
</svg>

