<?xml version="1.0" encoding="UTF-8" standalone="no"?>
<!DOCTYPE svg PUBLIC "-//W3C//DTD SVG 1.1//EN" "http://www.w3.org/Graphics/SVG/1.1/DTD/svg11.dtd">
<svg xmlns="http://www.w3.org/2000/svg" version="1.1" xmlns:xlink="http://www.w3.org/1999/xlink" viewBox="0 0 512 288">

<!-- Copyright 2015-2021 Isaac Gouy -->

<!-- Box plot chart showing benchmark program performance grouped by implementation language -->

<!-- The Computer Language Benchmarks Game -->
<!-- https://benchmarksgame-team.pages.debian.net/benchmarksgame/license.html -->

<g style="stroke: #ccc;" >
<line x1="51" y1="264" x2="461" y2="264" />
<line x1="51" y1="221.57" x2="461" y2="221.57" />
<line x1="51" y1="201.85" x2="461" y2="201.85" />
<line x1="51" y1="175.08" x2="461" y2="175.08" />
<line x1="51" y1="132.65" x2="461" y2="132.65" />
<line x1="51" y1="112.92" x2="461" y2="112.92" />
<line x1="51" y1="86.15" x2="461" y2="86.15" />
<line x1="51" y1="43.73" x2="461" y2="43.73" />
<line x1="51" y1="24" x2="461" y2="24" />
</g>
<g style="text-anchor: end; font-family: Ubuntu,Verdana,sans-serif; font-size: 0.9em;" >
<text x="51" y="262" >1</text>
<text x="51" y="219.57" >3</text>
<text x="51" y="199.85" >5</text>
<text x="51" y="173.08" >10</text>
<text x="51" y="130.65" >30</text>
<text x="51" y="110.92" >50</text>
<text x="51" y="84.15" >100</text>
<text x="51" y="41.73" >300</text>
<text x="51" y="22" ></text>
</g>
<defs>
<linearGradient id="grade" x1="0" y1="0" x2="0" y2="1">
<stop offset="0" style="stop-color: white" stop-opacity="0.6"/>
<stop offset="1" style="stop-color: white" stop-opacity="0.8"/>
</linearGradient>
<mask id="fade">
<rect x="58" y="24" width="452" height="288" fill="url(#grade)"  />
</mask>
<g id="backgroundText" style="text-anchor: end; font-family: Ubuntu,Verdana,sans-serif; font-size: 1em;">
<text x="16" y="0" transform="rotate(270,16,0)" xml:space="preserve">   pidigits   pidigits   pidigits   pidigits</text>
<text x="43" y="0" transform="rotate(270,43,0)" xml:space="preserve">   n-body   n-body   n-body   n-body   n-body</text>
<text x="70" y="0" transform="rotate(270,70,0)" xml:space="preserve">   fannkuch-redux   fannkuch-redux</text>
<text x="97" y="0" transform="rotate(270,97,0)" xml:space="preserve">   regex-redux   regex-redux   regex-redux</text>
<text x="124" y="0" transform="rotate(270,124,0)" xml:space="preserve">   reverse-complement   reverse-complement</text>
<text x="151" y="0" transform="rotate(270,151,0)" xml:space="preserve">   binary-trees   binary-trees   binary-trees</text>
<text x="178" y="0" transform="rotate(270,178,0)" xml:space="preserve">   k-nucleotide   k-nucleotide   k-nucleotide</text>
<text x="205" y="0" transform="rotate(270,205,0)" xml:space="preserve">   spectral-norm   spectral-norm   spectral-norm</text>
<text x="232" y="0" transform="rotate(270,232,0)" xml:space="preserve">   fasta   fasta   fasta   fasta   fasta</text>
<text x="259" y="0" transform="rotate(270,259,0)" xml:space="preserve">   mandelbrot   mandelbrot   mandelbrot</text>
</g>
</defs>
<use x="60" y="27" xlink:href="#backgroundText"/>
<rect x="58" y="24" width="452" height="288" fill="white" mask="url(#fade)" />
<rect x="58" y="264" width="452" height="288" style="fill: white; stroke: white;" />
<g style="fill: black; stroke: black;">
<rect x="72" y="136.36" width="1" height="118.25" />
<rect x="99" y="52.14" width="1" height="105.8" />
<rect x="126" y="27.45" width="1" height="156.71" />
<rect x="153" y="105.66" width="1" height="126.55" />
<rect x="180" y="85.29" width="1" height="97.04" />
<rect x="207" y="55.85" width="1" height="142.68" />
<rect x="234" y="45.8" width="1" height="130.85" />
<rect x="261" y="32.66" width="1" height="142.99" />
<rect x="288" y="34.73" width="1" height="103.29" />
<rect x="315" y="-46.06" width="1" height="185.06" />
</g>
<g style="fill: white; stroke: black;">
<rect x="62" y="167.65" width="22" height="68.92" />
<rect x="89" y="76.51" width="22" height="34.08" />
<rect x="116" y="58.75" width="22" height="69.02" />
<rect x="143" y="130.35" width="22" height="36.85" />
<rect x="170" y="114.48" width="22" height="53.99" />
<rect x="197" y="81.62" width="22" height="38.69" />
<rect x="224" y="75" width="22" height="54.07" />
<rect x="251" y="59.11" width="22" height="41.18" />
<rect x="278" y="64.77" width="22" height="59.31" />
<rect x="305" y="-12.44" width="22" height="100.34" />
</g>
<g style="fill: black; stroke: black;">
<line x1="68.5" y1="254.61" x2="78" y2="254.61" />
<line x1="68.5" y1="136.36" x2="78" y2="136.36" />
<line x1="68.5" y1="27.69" x2="78" y2="27.69" />
<rect x="72" y="27.69" width="1" height="5" />
</g>
<g style="fill: black; stroke: black;">
<rect x="63" y="203.62" width="20" height="1" />
</g>
<g style="fill: black; stroke: black;">
<line x1="95.5" y1="157.94" x2="105" y2="157.94" />
<line x1="95.5" y1="52.14" x2="105" y2="52.14" />
<line x1="95.5" y1="20.11" x2="105" y2="20.11" />
<rect x="99" y="20.11" width="1" height="5" />
</g>
<g style="fill: black; stroke: black;">
<rect x="90" y="108.25" width="20" height="1" />
</g>
<g style="fill: black; stroke: black;">
<line x1="122.5" y1="184.16" x2="132" y2="184.16" />
<line x1="122.5" y1="27.45" x2="132" y2="27.45" />
<line x1="122.5" y1="-17.26" x2="132" y2="-17.26" />
<rect x="126" y="-17.26" width="1" height="5" />
</g>
<g style="fill: black; stroke: black;">
<rect x="117" y="104.77" width="20" height="1" />
</g>
<g style="fill: black; stroke: black;">
<line x1="149.5" y1="232.22" x2="159" y2="232.22" />
<line x1="149.5" y1="105.66" x2="159" y2="105.66" />
</g>
<g style="fill: black; stroke: black;">
<rect x="144" y="147.17" width="20" height="1" />
</g>
<g style="fill: black; stroke: black;">
<line x1="176.5" y1="182.33" x2="186" y2="182.33" />
<line x1="176.5" y1="85.29" x2="186" y2="85.29" />
<line x1="176.5" y1="61.11" x2="186" y2="61.11" />
<rect x="180" y="61.11" width="1" height="5" />
</g>
<g style="fill: black; stroke: black;">
<rect x="171" y="137.48" width="20" height="1" />
</g>
<g style="fill: black; stroke: black;">
<line x1="203.5" y1="198.53" x2="213" y2="198.53" />
<line x1="203.5" y1="55.85" x2="213" y2="55.85" />
<line x1="203.5" y1="5.27" x2="213" y2="5.27" />
<rect x="207" y="5.27" width="1" height="5" />
</g>
<g style="fill: black; stroke: black;">
<rect x="198" y="100.94" width="20" height="1" />
</g>
<g style="fill: black; stroke: black;">
<line x1="230.5" y1="176.65" x2="240" y2="176.65" />
<line x1="230.5" y1="45.8" x2="240" y2="45.8" />
<line x1="230.5" y1="39.44" x2="240" y2="39.44" />
<rect x="234" y="39.44" width="1" height="5" />
</g>
<g style="fill: black; stroke: black;">
<rect x="225" y="108.52" width="20" height="1" />
</g>
<g style="fill: black; stroke: black;">
<line x1="257.5" y1="175.65" x2="267" y2="175.65" />
<line x1="257.5" y1="32.66" x2="267" y2="32.66" />
<line x1="257.5" y1="-29.52" x2="267" y2="-29.52" />
<rect x="261" y="-29.52" width="1" height="5" />
</g>
<g style="fill: black; stroke: black;">
<rect x="252" y="69.38" width="20" height="1" />
</g>
<g style="fill: black; stroke: black;">
<line x1="284.5" y1="138.02" x2="294" y2="138.02" />
<line x1="284.5" y1="34.73" x2="294" y2="34.73" />
<line x1="284.5" y1="23.01" x2="294" y2="23.01" />
<rect x="288" y="23.01" width="1" height="5" />
</g>
<g style="fill: black; stroke: black;">
<rect x="279" y="96.25" width="20" height="1" />
</g>
<g style="fill: black; stroke: black;">
<line x1="311.5" y1="139" x2="321" y2="139" />
<line x1="311.5" y1="-46.06" x2="321" y2="-46.06" />
<line x1="311.5" y1="-85.19" x2="321" y2="-85.19" />
<rect x="315" y="-85.19" width="1" height="5" />
</g>
<g style="fill: black; stroke: black;">
<rect x="306" y="46.24" width="20" height="1" />
</g>
<g style="text-anchor: end; font-family: Ubuntu,Verdana,sans-serif; font-size: 0.9em;" >
<text x="462" y="282" >18 Mar 2022 u64q</text>
<text x="58" y="282" style="text-anchor: start;" >benchmarks game</text>
</g>
<text x="16" y="144" transform="rotate(270,16,144)" style="text-anchor: middle; font-family: Ubuntu,Verdana,sans-serif; font-size: 0.9em;" >program elapsed time / fastest</text>
<rect x="58" y="0" width="452" height="23" style="fill: white; stroke: white;" />
<text x="259.5" y="18" style="text-anchor: middle; font-family: Ubuntu,Verdana,sans-serif; font-size: 1.2em;" >Elapsed time spread — PHP, Ruby, Python 3 …</text>
<g style="stroke: #333;">
<line x1="58" y1="24" x2="58" y2="264" />
<line x1="461" y1="24" x2="461" y2="264" />
<line x1="58" y1="264" x2="461" y2="264" />
</g>
</svg>

