<?xml version="1.0" encoding="UTF-8" standalone="no"?>
<!DOCTYPE svg PUBLIC "-//W3C//DTD SVG 1.1//EN" "http://www.w3.org/Graphics/SVG/1.1/DTD/svg11.dtd">
<svg xmlns="http://www.w3.org/2000/svg" version="1.1" xmlns:xlink="http://www.w3.org/1999/xlink" viewBox="0 0 512 288">

<!-- Copyright 2015-2021 Isaac Gouy -->

<!-- Box plot chart showing benchmark program performance grouped by implementation language -->

<!-- The Computer Language Benchmarks Game -->
<!-- https://benchmarksgame-team.pages.debian.net/benchmarksgame/license.html -->

<g style="stroke: #ccc;" >
<line x1="51" y1="264" x2="461" y2="264" />
<line x1="51" y1="206.75" x2="461" y2="206.75" />
<line x1="51" y1="180.12" x2="461" y2="180.12" />
<line x1="51" y1="144" x2="461" y2="144" />
<line x1="51" y1="86.75" x2="461" y2="86.75" />
<line x1="51" y1="60.12" x2="461" y2="60.12" />
<line x1="51" y1="24" x2="461" y2="24" />
</g>
<g style="text-anchor: end; font-family: Ubuntu,Verdana,sans-serif; font-size: 0.9em;" >
<text x="51" y="262" >1</text>
<text x="51" y="204.75" >3</text>
<text x="51" y="178.12" >5</text>
<text x="51" y="142" >10</text>
<text x="51" y="84.75" >30</text>
<text x="51" y="58.12" >50</text>
<text x="51" y="22" ></text>
</g>
<defs>
<linearGradient id="grade" x1="0" y1="0" x2="0" y2="1">
<stop offset="0" style="stop-color: white" stop-opacity="0.6"/>
<stop offset="1" style="stop-color: white" stop-opacity="0.8"/>
</linearGradient>
<mask id="fade">
<rect x="58" y="24" width="452" height="288" fill="url(#grade)"  />
</mask>
<g id="backgroundText" style="text-anchor: end; font-family: Ubuntu,Verdana,sans-serif; font-size: 1em;">
<text x="16" y="0" transform="rotate(270,16,0)" xml:space="preserve">   pidigits   pidigits   pidigits   pidigits</text>
<text x="43" y="0" transform="rotate(270,43,0)" xml:space="preserve">   n-body   n-body   n-body   n-body   n-body</text>
<text x="70" y="0" transform="rotate(270,70,0)" xml:space="preserve">   fannkuch-redux   fannkuch-redux</text>
<text x="97" y="0" transform="rotate(270,97,0)" xml:space="preserve">   regex-redux   regex-redux   regex-redux</text>
<text x="124" y="0" transform="rotate(270,124,0)" xml:space="preserve">   reverse-complement   reverse-complement</text>
<text x="151" y="0" transform="rotate(270,151,0)" xml:space="preserve">   binary-trees   binary-trees   binary-trees</text>
<text x="178" y="0" transform="rotate(270,178,0)" xml:space="preserve">   k-nucleotide   k-nucleotide   k-nucleotide</text>
<text x="205" y="0" transform="rotate(270,205,0)" xml:space="preserve">   spectral-norm   spectral-norm   spectral-norm</text>
<text x="232" y="0" transform="rotate(270,232,0)" xml:space="preserve">   fasta   fasta   fasta   fasta   fasta</text>
<text x="259" y="0" transform="rotate(270,259,0)" xml:space="preserve">   mandelbrot   mandelbrot   mandelbrot</text>
</g>
</defs>
<use x="60" y="27" xlink:href="#backgroundText"/>
<rect x="58" y="24" width="452" height="288" fill="white" mask="url(#fade)" />
<rect x="58" y="264" width="452" height="288" style="fill: white; stroke: white;" />
<g style="fill: black; stroke: black;">
<rect x="72" y="121.19" width="1" height="141.17" />
<rect x="99" y="219.82" width="1" height="44.18" />
<rect x="126" y="134.32" width="1" height="124.21" />
<rect x="153" y="52.99" width="1" height="147.74" />
<rect x="180" y="65.81" width="1" height="170.53" />
<rect x="207" y="77.54" width="1" height="146" />
<rect x="234" y="71.58" width="1" height="168.97" />
<rect x="261" y="120.99" width="1" height="142.64" />
<rect x="288" y="118.56" width="1" height="133.98" />
<rect x="315" y="46.34" width="1" height="209.12" />
</g>
<g style="fill: white; stroke: black;">
<rect x="62" y="157.32" width="22" height="57.27" />
<rect x="89" y="232.57" width="22" height="10.65" />
<rect x="116" y="173.92" width="22" height="74.07" />
<rect x="143" y="92.04" width="22" height="83.76" />
<rect x="170" y="109.71" width="22" height="111.06" />
<rect x="197" y="114.65" width="22" height="61.38" />
<rect x="224" y="113.44" width="22" height="89.89" />
<rect x="251" y="159.39" width="22" height="67.48" />
<rect x="278" y="154.92" width="22" height="58.21" />
<rect x="305" y="89.04" width="22" height="97.49" />
</g>
<g style="fill: black; stroke: black;">
<line x1="68.5" y1="262.36" x2="78" y2="262.36" />
<line x1="68.5" y1="121.19" x2="78" y2="121.19" />
<line x1="68.5" y1="40.15" x2="78" y2="40.15" />
<rect x="72" y="40.15" width="1" height="5" />
</g>
<g style="fill: black; stroke: black;">
<rect x="63" y="185.9" width="20" height="1" />
</g>
<g style="fill: black; stroke: black;">
<line x1="95.5" y1="264" x2="105" y2="264" />
<line x1="95.5" y1="219.82" x2="105" y2="219.82" />
<line x1="95.5" y1="42.6" x2="105" y2="42.6" />
<rect x="99" y="42.6" width="1" height="5" />
</g>
<g style="fill: black; stroke: black;">
<rect x="90" y="237.15" width="20" height="1" />
</g>
<g style="fill: black; stroke: black;">
<line x1="122.5" y1="258.54" x2="132" y2="258.54" />
<line x1="122.5" y1="134.32" x2="132" y2="134.32" />
<line x1="122.5" y1="70.44" x2="132" y2="70.44" />
<rect x="126" y="70.44" width="1" height="5" />
</g>
<g style="fill: black; stroke: black;">
<rect x="117" y="237.17" width="20" height="1" />
</g>
<g style="fill: black; stroke: black;">
<line x1="149.5" y1="200.72" x2="159" y2="200.72" />
<line x1="149.5" y1="52.99" x2="159" y2="52.99" />
</g>
<g style="fill: black; stroke: black;">
<rect x="144" y="128.25" width="20" height="1" />
</g>
<g style="fill: black; stroke: black;">
<line x1="176.5" y1="236.34" x2="186" y2="236.34" />
<line x1="176.5" y1="65.81" x2="186" y2="65.81" />
<line x1="176.5" y1="17.19" x2="186" y2="17.19" />
<rect x="180" y="17.19" width="1" height="5" />
</g>
<g style="fill: black; stroke: black;">
<rect x="171" y="193.95" width="20" height="1" />
</g>
<g style="fill: black; stroke: black;">
<line x1="203.5" y1="223.54" x2="213" y2="223.54" />
<line x1="203.5" y1="77.54" x2="213" y2="77.54" />
<line x1="203.5" y1="73.93" x2="213" y2="73.93" />
<rect x="207" y="73.93" width="1" height="5" />
</g>
<g style="fill: black; stroke: black;">
<rect x="198" y="132.46" width="20" height="1" />
</g>
<g style="fill: black; stroke: black;">
<line x1="230.5" y1="240.54" x2="240" y2="240.54" />
<line x1="230.5" y1="71.58" x2="240" y2="71.58" />
<line x1="230.5" y1="-27.65" x2="240" y2="-27.65" />
<rect x="234" y="-27.65" width="1" height="5" />
</g>
<g style="fill: black; stroke: black;">
<rect x="225" y="158.64" width="20" height="1" />
</g>
<g style="fill: black; stroke: black;">
<line x1="257.5" y1="263.64" x2="267" y2="263.64" />
<line x1="257.5" y1="120.99" x2="267" y2="120.99" />
<line x1="257.5" y1="70.21" x2="267" y2="70.21" />
<rect x="261" y="70.21" width="1" height="5" />
</g>
<g style="fill: black; stroke: black;">
<rect x="252" y="222.78" width="20" height="1" />
</g>
<g style="fill: black; stroke: black;">
<line x1="284.5" y1="252.55" x2="294" y2="252.55" />
<line x1="284.5" y1="118.56" x2="294" y2="118.56" />
<line x1="284.5" y1="62.6" x2="294" y2="62.6" />
<rect x="288" y="62.6" width="1" height="5" />
</g>
<g style="fill: black; stroke: black;">
<rect x="279" y="172.82" width="20" height="1" />
</g>
<g style="fill: black; stroke: black;">
<line x1="311.5" y1="255.46" x2="321" y2="255.46" />
<line x1="311.5" y1="46.34" x2="321" y2="46.34" />
<line x1="311.5" y1="-3.17" x2="321" y2="-3.17" />
<rect x="315" y="-3.17" width="1" height="5" />
</g>
<g style="fill: black; stroke: black;">
<rect x="306" y="158.34" width="20" height="1" />
</g>
<g style="text-anchor: end; font-family: Ubuntu,Verdana,sans-serif; font-size: 0.9em;" >
<text x="462" y="282" >18 Mar 2022 u64q</text>
<text x="58" y="282" style="text-anchor: start;" >benchmarks game</text>
</g>
<text x="16" y="144" transform="rotate(270,16,144)" style="text-anchor: middle; font-family: Ubuntu,Verdana,sans-serif; font-size: 0.9em;" >program elapsed time / fastest</text>
<rect x="58" y="0" width="452" height="23" style="fill: white; stroke: white;" />
<text x="259.5" y="18" style="text-anchor: middle; font-family: Ubuntu,Verdana,sans-serif; font-size: 1.2em;" >Elapsed time spread — Fortran, Julia … Racket</text>
<g style="stroke: #333;">
<line x1="58" y1="24" x2="58" y2="264" />
<line x1="461" y1="24" x2="461" y2="264" />
<line x1="58" y1="264" x2="461" y2="264" />
</g>
</svg>

