<?xml version="1.0" encoding="UTF-8" standalone="no"?>
<!DOCTYPE svg PUBLIC "-//W3C//DTD SVG 1.1//EN" "http://www.w3.org/Graphics/SVG/1.1/DTD/svg11.dtd">
<svg xmlns="http://www.w3.org/2000/svg" version="1.1" xmlns:xlink="http://www.w3.org/1999/xlink" viewBox="0 0 512 288">

<!-- Copyright 2015-2021 Isaac Gouy -->
<!-- https://salsa.debian.org/benchmarksgame-team/benchmarksgame/blob/master/LICENSE.md -->

<g style="stroke: #ccc;" >
<line x1="51" y1="264" x2="461" y2="264" />
<line x1="51" y1="221.57" x2="461" y2="221.57" />
<line x1="51" y1="201.85" x2="461" y2="201.85" />
<line x1="51" y1="175.08" x2="461" y2="175.08" />
<line x1="51" y1="132.65" x2="461" y2="132.65" />
<line x1="51" y1="112.92" x2="461" y2="112.92" />
<line x1="51" y1="86.15" x2="461" y2="86.15" />
<line x1="51" y1="43.73" x2="461" y2="43.73" />
<line x1="51" y1="24" x2="461" y2="24" />
</g>
<g style="text-anchor: end; font-family: Ubuntu,Verdana,sans-serif; font-size: 0.9em;" >
<text x="51" y="262" >1</text>
<text x="51" y="219.57" >3</text>
<text x="51" y="199.85" >5</text>
<text x="51" y="173.08" >10</text>
<text x="51" y="130.65" >30</text>
<text x="51" y="110.92" >50</text>
<text x="51" y="84.15" >100</text>
<text x="51" y="41.73" >300</text>
<text x="51" y="22" ></text>
</g>
<defs>
<linearGradient id="grade" x1="0" y1="0" x2="0" y2="1">
<stop offset="0" style="stop-color: white" stop-opacity="0.6"/>
<stop offset="1" style="stop-color: white" stop-opacity="0.8"/>
</linearGradient>
<mask id="fade">
<rect x="58" y="24" width="452" height="288" fill="url(#grade)"  />
</mask>
<g id="backgroundText" style="text-anchor: end; font-family: Ubuntu,Verdana,sans-serif; font-size: 1em;">
<text x="15" y="0" transform="rotate(270,15,0)" xml:space="preserve">   C++ g++   C++ g++   C++ g++   C++ g++</text>
<text x="40" y="0" transform="rotate(270,40,0)" xml:space="preserve">   C gcc   C gcc   C gcc   C gcc   C gcc</text>
<text x="65" y="0" transform="rotate(270,65,0)" xml:space="preserve">   Rust   Rust   Rust   Rust   Rust   Rust</text>
<text x="90" y="0" transform="rotate(270,90,0)" xml:space="preserve">                                                            </text>
<text x="115" y="0" transform="rotate(270,115,0)" xml:space="preserve">   Intel Fortran   Intel Fortran   Intel Fortran</text>
<text x="140" y="0" transform="rotate(270,140,0)" xml:space="preserve">   Julia   Julia   Julia   Julia   Julia</text>
<text x="165" y="0" transform="rotate(270,165,0)" xml:space="preserve">   C# .NET   C# .NET   C# .NET   C# .NET</text>
<text x="190" y="0" transform="rotate(270,190,0)" xml:space="preserve">   Ada 2012 GNAT   Ada 2012 GNAT   Ada 2012 GNAT</text>
<text x="215" y="0" transform="rotate(270,215,0)" xml:space="preserve">   Haskell GHC   Haskell GHC   Haskell GHC</text>
<text x="240" y="0" transform="rotate(270,240,0)" xml:space="preserve">   Free Pascal   Free Pascal   Free Pascal</text>
<text x="265" y="0" transform="rotate(270,265,0)" xml:space="preserve">   F# .NET   F# .NET   F# .NET   F# .NET</text>
<text x="290" y="0" transform="rotate(270,290,0)" xml:space="preserve">   Java   Java   Java   Java   Java   Java</text>
<text x="315" y="0" transform="rotate(270,315,0)" xml:space="preserve">   Go   Go   Go   Go   Go   Go   Go   Go   Go   Go</text>
<text x="340" y="0" transform="rotate(270,340,0)" xml:space="preserve">   OCaml   OCaml   OCaml   OCaml   OCaml</text>
<text x="365" y="0" transform="rotate(270,365,0)" xml:space="preserve">   Chapel   Chapel   Chapel   Chapel   Chapel</text>
<text x="390" y="0" transform="rotate(270,390,0)" xml:space="preserve">   Lisp SBCL   Lisp SBCL   Lisp SBCL</text>
</g>
</defs>
<use x="60" y="27" xlink:href="#backgroundText"/>
<rect x="58" y="24" width="452" height="288" fill="white" mask="url(#fade)" />
<rect x="58" y="264" width="452" height="288" style="fill: white; stroke: white;" />
<g style="fill: black; stroke: black;">
<rect x="72" y="236.46" width="1" height="27.54" />
<rect x="97" y="236.28" width="1" height="27.72" />
<rect x="122" y="234.49" width="1" height="29.51" />
<rect x="147" y="708.61" width="1" height="0" />
<rect x="172" y="210.86" width="1" height="51.81" />
<rect x="197" y="217.62" width="1" height="32.89" />
<rect x="222" y="195" width="1" height="58.15" />
<rect x="247" y="192.31" width="1" height="70.41" />
<rect x="272" y="184.79" width="1" height="73.1" />
<rect x="297" y="188.31" width="1" height="74.51" />
<rect x="322" y="191.05" width="1" height="66.84" />
<rect x="347" y="182.89" width="1" height="69.65" />
<rect x="372" y="188.07" width="1" height="62.5" />
<rect x="397" y="180.85" width="1" height="74.67" />
<rect x="422" y="191" width="1" height="69.38" />
<rect x="447" y="182.95" width="1" height="56.15" />
</g>
<g style="fill: white; stroke: black;">
<rect x="62" y="240.88" width="20" height="23.12" />
<rect x="87" y="247.15" width="20" height="16.85" />
<rect x="112" y="241" width="20" height="22.57" />
<rect x="137" y="708.61" width="20" height="0" />
<rect x="162" y="226.92" width="20" height="16.26" />
<rect x="187" y="230.55" width="20" height="11.9" />
<rect x="212" y="208.96" width="20" height="31.07" />
<rect x="237" y="211.11" width="20" height="20.9" />
<rect x="262" y="208.55" width="20" height="32.3" />
<rect x="287" y="199.93" width="20" height="35.9" />
<rect x="312" y="206.03" width="20" height="21.56" />
<rect x="337" y="202.56" width="20" height="22.57" />
<rect x="362" y="205.07" width="20" height="17.76" />
<rect x="387" y="193.47" width="20" height="31.53" />
<rect x="412" y="194.03" width="20" height="29.38" />
<rect x="437" y="202.39" width="20" height="22.13" />
</g>
<g style="fill: black; stroke: black;">
<line x1="67.5" y1="264" x2="77" y2="264" />
<line x1="67.5" y1="236.46" x2="77" y2="236.46" />
</g>
<g style="fill: black; stroke: black;">
<rect x="63" y="263" width="18" height="1" />
</g>
<g style="fill: black; stroke: black;">
<line x1="92.5" y1="264" x2="102" y2="264" />
<line x1="92.5" y1="236.28" x2="102" y2="236.28" />
</g>
<g style="fill: black; stroke: black;">
<rect x="88" y="259.42" width="18" height="1" />
</g>
<g style="fill: black; stroke: black;">
<line x1="117.5" y1="264" x2="127" y2="264" />
<line x1="117.5" y1="234.49" x2="127" y2="234.49" />
</g>
<g style="fill: black; stroke: black;">
<rect x="113" y="251.23" width="18" height="1" />
</g>
<g style="fill: black; stroke: black;">
<line x1="142.5" y1="708.61" x2="152" y2="708.61" />
<line x1="142.5" y1="708.61" x2="152" y2="708.61" />
</g>
<g style="fill: black; stroke: black;">
<rect x="138" y="707.61" width="18" height="1" />
</g>
<g style="fill: black; stroke: black;">
<line x1="167.5" y1="262.67" x2="177" y2="262.67" />
<line x1="167.5" y1="210.86" x2="177" y2="210.86" />
<line x1="167.5" y1="192.16" x2="177" y2="192.16" />
<rect x="172" y="192.16" width="1" height="5" />
</g>
<g style="fill: black; stroke: black;">
<rect x="163" y="236.93" width="18" height="1" />
</g>
<g style="fill: black; stroke: black;">
<line x1="192.5" y1="250.51" x2="202" y2="250.51" />
<line x1="192.5" y1="217.62" x2="202" y2="217.62" />
<line x1="192.5" y1="176.03" x2="202" y2="176.03" />
<rect x="197" y="176.03" width="1" height="5" />
</g>
<g style="fill: black; stroke: black;">
<rect x="188" y="237.12" width="18" height="1" />
</g>
<g style="fill: black; stroke: black;">
<line x1="217.5" y1="253.15" x2="227" y2="253.15" />
<line x1="217.5" y1="195" x2="227" y2="195" />
</g>
<g style="fill: black; stroke: black;">
<rect x="213" y="229.43" width="18" height="1" />
</g>
<g style="fill: black; stroke: black;">
<line x1="242.5" y1="262.72" x2="252" y2="262.72" />
<line x1="242.5" y1="192.31" x2="252" y2="192.31" />
<line x1="242.5" y1="185.11" x2="252" y2="185.11" />
<rect x="247" y="185.11" width="1" height="5" />
</g>
<g style="fill: black; stroke: black;">
<rect x="238" y="222.58" width="18" height="1" />
</g>
<g style="fill: black; stroke: black;">
<line x1="267.5" y1="257.89" x2="277" y2="257.89" />
<line x1="267.5" y1="184.79" x2="277" y2="184.79" />
<line x1="267.5" y1="160.89" x2="277" y2="160.89" />
<rect x="272" y="160.89" width="1" height="5" />
</g>
<g style="fill: black; stroke: black;">
<rect x="263" y="220.58" width="18" height="1" />
</g>
<g style="fill: black; stroke: black;">
<line x1="292.5" y1="262.83" x2="302" y2="262.83" />
<line x1="292.5" y1="188.31" x2="302" y2="188.31" />
</g>
<g style="fill: black; stroke: black;">
<rect x="288" y="215.33" width="18" height="1" />
</g>
<g style="fill: black; stroke: black;">
<line x1="317.5" y1="257.89" x2="327" y2="257.89" />
<line x1="317.5" y1="191.05" x2="327" y2="191.05" />
</g>
<g style="fill: black; stroke: black;">
<rect x="313" y="213.05" width="18" height="1" />
</g>
<g style="fill: black; stroke: black;">
<line x1="342.5" y1="252.54" x2="352" y2="252.54" />
<line x1="342.5" y1="182.89" x2="352" y2="182.89" />
<line x1="342.5" y1="175.65" x2="352" y2="175.65" />
<rect x="347" y="175.65" width="1" height="5" />
</g>
<g style="fill: black; stroke: black;">
<rect x="338" y="213.88" width="18" height="1" />
</g>
<g style="fill: black; stroke: black;">
<line x1="367.5" y1="250.57" x2="377" y2="250.57" />
<line x1="367.5" y1="188.07" x2="377" y2="188.07" />
<line x1="367.5" y1="175.46" x2="377" y2="175.46" />
<rect x="372" y="175.46" width="1" height="5" />
</g>
<g style="fill: black; stroke: black;">
<rect x="363" y="215.36" width="18" height="1" />
</g>
<g style="fill: black; stroke: black;">
<line x1="392.5" y1="255.51" x2="402" y2="255.51" />
<line x1="392.5" y1="180.85" x2="402" y2="180.85" />
</g>
<g style="fill: black; stroke: black;">
<rect x="388" y="217.5" width="18" height="1" />
</g>
<g style="fill: black; stroke: black;">
<line x1="417.5" y1="260.38" x2="427" y2="260.38" />
<line x1="417.5" y1="191" x2="427" y2="191" />
</g>
<g style="fill: black; stroke: black;">
<rect x="413" y="210.65" width="18" height="1" />
</g>
<g style="fill: black; stroke: black;">
<line x1="442.5" y1="239.1" x2="452" y2="239.1" />
<line x1="442.5" y1="182.95" x2="452" y2="182.95" />
<line x1="442.5" y1="152.53" x2="452" y2="152.53" />
<rect x="447" y="152.53" width="1" height="5" />
</g>
<g style="fill: black; stroke: black;">
<rect x="438" y="213.53" width="18" height="1" />
</g>
<g style="text-anchor: end; font-family: Ubuntu,Verdana,sans-serif; font-size: 0.9em;" >
<text x="462" y="282" >01 May 2021 u64q</text>
<text x="58" y="282" style="text-anchor: start;" >benchmarks game</text>
</g>
<text x="16" y="144" transform="rotate(270,16,144)" style="text-anchor: middle; font-family: Ubuntu,Verdana,sans-serif; font-size: 0.9em;" >program busy time / least busy</text>
<text x="259.5" y="18" style="text-anchor: middle; font-family: Ubuntu,Verdana,sans-serif; font-size: 1.2em;" >How many times slower?</text>
<g style="stroke: #333;">
<line x1="58" y1="24" x2="58" y2="264" />
<line x1="461" y1="24" x2="461" y2="264" />
<line x1="58" y1="264" x2="461" y2="264" />
</g>
</svg>

