<?xml version="1.0" encoding="UTF-8" standalone="no"?>
<!DOCTYPE svg PUBLIC "-//W3C//DTD SVG 1.1//EN" "http://www.w3.org/Graphics/SVG/1.1/DTD/svg11.dtd">
<svg xmlns="http://www.w3.org/2000/svg" version="1.1" xmlns:xlink="http://www.w3.org/1999/xlink" viewBox="0 0 512 288">

<!-- Copyright 2015-2021 Isaac Gouy -->

<!-- Box plot chart showing benchmark program performance grouped by implementation language -->

<!-- The Computer Language Benchmarks Game -->
<!-- https://benchmarksgame-team.pages.debian.net/benchmarksgame/license.html -->

<g style="stroke: #ccc;" >
<line x1="51" y1="264" x2="461" y2="264" />
<line x1="51" y1="221.57" x2="461" y2="221.57" />
<line x1="51" y1="201.85" x2="461" y2="201.85" />
<line x1="51" y1="175.08" x2="461" y2="175.08" />
<line x1="51" y1="132.65" x2="461" y2="132.65" />

<line x1="58" y1="78" x2="468" y2="78"/>
<line x1="58" y1="38" x2="468" y2="38"/>
<line x1="58" y1="24" x2="461" y2="24"/>
</g>
<g style="text-anchor: end; font-family: Ubuntu,Verdana,sans-serif; font-size: 0.9em;" >
<text x="51" y="262" >1</text>
<text x="51" y="219.57" >3</text>
<text x="51" y="199.85" >5</text>
<text x="51" y="173.08" >10</text>
<text x="51" y="130.65" >30</text>
<text x="51" y="22" ></text>
</g>
<defs>
<linearGradient id="grade" x1="0" y1="0" x2="0" y2="1">
<stop offset="0" style="stop-color: white" stop-opacity="0.6"/>
<stop offset="1" style="stop-color: white" stop-opacity="0.8"/>
</linearGradient>
<mask id="fade">
<rect x="58" y="24" width="452" height="288" fill="url(#grade)"  />
</mask>
<g id="backgroundText" style="text-anchor: end; font-family: Ubuntu,Verdana,sans-serif; font-size: 1em;">
<text x="16" y="0" transform="rotate(270,16,0)" xml:space="preserve">   C++ g++   C++ g++   C++ g++   C++ g++</text>
<text x="43" y="0" transform="rotate(270,43,0)" xml:space="preserve">   C gcc   C gcc   C gcc   C gcc   C gcc</text>
<text x="70" y="0" transform="rotate(270,70,0)" xml:space="preserve">   Rust   Rust   Rust   Rust   Rust   Rust</text>
<text x="97" y="0" transform="rotate(270,97,0)" xml:space="preserve">   Classic Fortran   Classic Fortran</text>
<text x="124" y="0" transform="rotate(270,124,0)" xml:space="preserve">   Julia   Julia   Julia   Julia   Julia</text>
<text x="151" y="0" transform="rotate(270,151,0)" xml:space="preserve">   Ada 2012 GNAT   Ada 2012 GNAT   Ada 2012 GNAT</text>
<text x="178" y="0" transform="rotate(270,178,0)" xml:space="preserve">   C# .NET   C# .NET   C# .NET   C# .NET</text>
<text x="205" y="0" transform="rotate(270,205,0)" xml:space="preserve">   Chapel   Chapel   Chapel   Chapel   Chapel</text>
<text x="232" y="0" transform="rotate(270,232,0)" xml:space="preserve">   Haskell GHC   Haskell GHC   Haskell GHC</text>
<text x="259" y="0" transform="rotate(270,259,0)" xml:space="preserve">   Free Pascal   Free Pascal   Free Pascal</text>
<text x="286" y="0" transform="rotate(270,286,0)" xml:space="preserve">   F# .NET   F# .NET   F# .NET   F# .NET</text>
<text x="313" y="0" transform="rotate(270,313,0)" xml:space="preserve">   OCaml   OCaml   OCaml   OCaml   OCaml</text>
<text x="340" y="0" transform="rotate(270,340,0)" xml:space="preserve">   Java   Java   Java   Java   Java   Java</text>
<text x="367" y="0" transform="rotate(270,367,0)" xml:space="preserve">   Go   Go   Go   Go   Go   Go   Go   Go   Go   Go</text>
<text x="394" y="0" transform="rotate(270,394,0)" xml:space="preserve">   Swift   Swift   Swift   Swift   Swift</text>
</g>
</defs>
<use x="60" y="27" xlink:href="#backgroundText"/>
<rect x="58" y="24" width="452" height="288" fill="white" mask="url(#fade)" />
<rect x="58" y="264" width="452" height="288" style="fill: white; stroke: white;" />
<g style="fill: black; stroke: black;">
<rect x="72" y="245.33" width="1" height="18.67" />
<rect x="99" y="238.49" width="1" height="25.51" />
<rect x="126" y="238.7" width="1" height="25.3" />
<rect x="153" y="210.33" width="1" height="51.48" />
<rect x="180" y="219.22" width="1" height="27.82" />
<rect x="207" y="204.3" width="1" height="58.3" />
<rect x="234" y="191.91" width="1" height="67.94" />
<rect x="261" y="188.18" width="1" height="71.17" />
<rect x="288" y="197.15" width="1" height="58.08" />
<rect x="315" y="188.22" width="1" height="74.28" />
<rect x="342" y="186.66" width="1" height="72.3" />
<rect x="369" y="192.3" width="1" height="69.15" />
<rect x="396" y="182.27" width="1" height="75.93" />
<rect x="423" y="187.21" width="1" height="67.95" />
<rect x="450" y="195.04" width="1" height="65.85" />
</g>
<g style="fill: white; stroke: black;">
<rect x="62" y="255.42" width="22" height="8.58" />
<rect x="89" y="251.72" width="22" height="12.28" />
<rect x="116" y="246.72" width="22" height="13.33" />
<rect x="143" y="226.58" width="22" height="16.55" />
<rect x="170" y="231.31" width="22" height="10.86" />
<rect x="197" y="218.31" width="22" height="13.3" />
<rect x="224" y="203.68" width="22" height="44.7" />
<rect x="251" y="206.96" width="22" height="20.87" />
<rect x="278" y="215.79" width="22" height="20.61" />
<rect x="305" y="197.88" width="22" height="36.34" />
<rect x="332" y="202.72" width="22" height="28.91" />
<rect x="359" y="208.46" width="22" height="16.43" />
<rect x="386" y="202.49" width="22" height="23.7" />
<rect x="413" y="204.23" width="22" height="17.8" />
<rect x="440" y="211.89" width="22" height="17.51" />
</g>
<g style="fill: black; stroke: black;">
<line x1="68.5" y1="264" x2="78" y2="264" />
<line x1="68.5" y1="245.33" x2="78" y2="245.33" />
<line x1="68.5" y1="238.01" x2="78" y2="238.01" />
<rect x="72" y="238.01" width="1" height="5" />
</g>
<g style="fill: black; stroke: black;">
<rect x="63" y="262.42" width="20" height="1" />
</g>
<g style="fill: black; stroke: black;">
<line x1="95.5" y1="264" x2="105" y2="264" />
<line x1="95.5" y1="238.49" x2="105" y2="238.49" />
<line x1="95.5" y1="235.23" x2="105" y2="235.23" />
<rect x="99" y="235.23" width="1" height="5" />
</g>
<g style="fill: black; stroke: black;">
<rect x="90" y="259.79" width="20" height="1" />
</g>
<g style="fill: black; stroke: black;">
<line x1="122.5" y1="264" x2="132" y2="264" />
<line x1="122.5" y1="238.7" x2="132" y2="238.7" />
</g>
<g style="fill: black; stroke: black;">
<rect x="117" y="254.23" width="20" height="1" />
</g>
<g style="fill: black; stroke: black;">
<line x1="149.5" y1="261.81" x2="159" y2="261.81" />
<line x1="149.5" y1="210.33" x2="159" y2="210.33" />
<line x1="149.5" y1="189.08" x2="159" y2="189.08" />
<rect x="153" y="189.08" width="1" height="5" />
</g>
<g style="fill: black; stroke: black;">
<rect x="144" y="236.95" width="20" height="1" />
</g>
<g style="fill: black; stroke: black;">
<line x1="176.5" y1="247.05" x2="186" y2="247.05" />
<line x1="176.5" y1="219.22" x2="186" y2="219.22" />
<line x1="176.5" y1="188.57" x2="186" y2="188.57" />
<rect x="180" y="188.57" width="1" height="5" />
</g>
<g style="fill: black; stroke: black;">
<rect x="171" y="236.56" width="20" height="1" />
</g>
<g style="fill: black; stroke: black;">
<line x1="203.5" y1="262.6" x2="213" y2="262.6" />
<line x1="203.5" y1="204.3" x2="213" y2="204.3" />
<line x1="203.5" y1="202.93" x2="213" y2="202.93" />
<rect x="207" y="202.93" width="1" height="5" />
</g>
<g style="fill: black; stroke: black;">
<rect x="198" y="227.88" width="20" height="1" />
</g>
<g style="fill: black; stroke: black;">
<line x1="230.5" y1="259.84" x2="240" y2="259.84" />
<line x1="230.5" y1="191.91" x2="240" y2="191.91" />
</g>
<g style="fill: black; stroke: black;">
<rect x="225" y="231.29" width="20" height="1" />
</g>
<g style="fill: black; stroke: black;">
<line x1="257.5" y1="259.35" x2="267" y2="259.35" />
<line x1="257.5" y1="188.18" x2="267" y2="188.18" />
<line x1="257.5" y1="186.74" x2="267" y2="186.74" />
<rect x="261" y="186.74" width="1" height="5" />
</g>
<g style="fill: black; stroke: black;">
<rect x="252" y="218.19" width="20" height="1" />
</g>
<g style="fill: black; stroke: black;">
<line x1="284.5" y1="255.23" x2="294" y2="255.23" />
<line x1="284.5" y1="197.15" x2="294" y2="197.15" />
<line x1="284.5" y1="189.75" x2="294" y2="189.75" />
<rect x="288" y="189.75" width="1" height="5" />
</g>
<g style="fill: black; stroke: black;">
<rect x="279" y="217.86" width="20" height="1" />
</g>
<g style="fill: black; stroke: black;">
<line x1="311.5" y1="262.49" x2="321" y2="262.49" />
<line x1="311.5" y1="188.22" x2="321" y2="188.22" />
</g>
<g style="fill: black; stroke: black;">
<rect x="306" y="215.6" width="20" height="1" />
</g>
<g style="fill: black; stroke: black;">
<line x1="338.5" y1="258.97" x2="348" y2="258.97" />
<line x1="338.5" y1="186.66" x2="348" y2="186.66" />
</g>
<g style="fill: black; stroke: black;">
<rect x="333" y="215.04" width="20" height="1" />
</g>
<g style="fill: black; stroke: black;">
<line x1="365.5" y1="261.45" x2="375" y2="261.45" />
<line x1="365.5" y1="192.3" x2="375" y2="192.3" />
<line x1="365.5" y1="180.81" x2="375" y2="180.81" />
<rect x="369" y="180.81" width="1" height="5" />
</g>
<g style="fill: black; stroke: black;">
<rect x="360" y="218.17" width="20" height="1" />
</g>
<g style="fill: black; stroke: black;">
<line x1="392.5" y1="258.2" x2="402" y2="258.2" />
<line x1="392.5" y1="182.27" x2="402" y2="182.27" />
<line x1="392.5" y1="177.87" x2="402" y2="177.87" />
<rect x="396" y="177.87" width="1" height="5" />
</g>
<g style="fill: black; stroke: black;">
<rect x="387" y="215.08" width="20" height="1" />
</g>
<g style="fill: black; stroke: black;">
<line x1="419.5" y1="255.16" x2="429" y2="255.16" />
<line x1="419.5" y1="187.21" x2="429" y2="187.21" />
<line x1="419.5" y1="180" x2="429" y2="180" />
<rect x="423" y="180" width="1" height="5" />
</g>
<g style="fill: black; stroke: black;">
<rect x="414" y="216.14" width="20" height="1" />
</g>
<g style="fill: black; stroke: black;">
<line x1="446.5" y1="260.89" x2="456" y2="260.89" />
<line x1="446.5" y1="195.04" x2="456" y2="195.04" />
<line x1="446.5" y1="138.11" x2="456" y2="138.11" />
<rect x="450" y="138.11" width="1" height="5" />
</g>
<g style="fill: black; stroke: black;">
<rect x="441" y="216.47" width="20" height="1" />
</g>
<g style="fill: white; stroke: black;">
<rect x="62" y="73" width="22" height="5"/>
<rect x="89" y="78" width="22" height="6"/>
<rect x="116" y="54" width="22" height="24"/>
<rect x="143" y="78" width="22" height="6"/>
<rect x="170" y="41" width="22" height="37"/>
<rect x="197" y="78" width="22" height="10"/>
<rect x="224" y="67" width="22" height="11"/>
<rect x="251" y="78" width="22" height="0"/>
<rect x="278" y="74" width="22" height="4"/>
<rect x="305" y="75" width="22" height="3"/>
<rect x="332" y="66" width="22" height="12"/>
<rect x="359" y="78" width="22" height="5"/>
<rect x="386" y="78" width="22" height="7"/>
<rect x="413" y="67" width="22" height="11"/>
<rect x="440" y="78" width="22" height="0"/>
</g>
<g style="text-anchor: end; font-family: Ubuntu,Verdana,sans-serif; font-size: 0.9em;" >

<text x="462" y="282" >31 Jan 2022 u64q</text>
<text x="58" y="282" style="text-anchor: start;" >benchmarks game</text>
</g>
<text x="16" y="144" transform="rotate(270,16,144)" style="text-anchor: middle; font-family: Ubuntu,Verdana,sans-serif; font-size: 0.9em;" >program busy time / least busy</text>
<rect x="" y="0" width="" height="23" style="fill: white; stroke: white;" />
<text x="259.5" y="18" style="text-anchor: middle; font-family: Ubuntu,Verdana,sans-serif; font-size: 1.2em;" >How many times slower?</text>
<text x="16" y="636" transform="rotate(270,16,144)" style="text-anchor: middle; font-family: Ubuntu,Verdana,sans-serif; font-size: 0.9em;">2018:2020 programs contributed + -</text>
<g style="text-anchor: end; font-family: Ubuntu,Verdana,sans-serif; font-size: 0.9em;">
<text x="488" y="76">ave</text>
<text x="488" y="36">+40</text>
</g>
<g style="stroke: #333;">
<line x1="58" y1="24" x2="58" y2="264" />
<line x1="461" y1="24" x2="461" y2="264" />
<line x1="58" y1="264" x2="461" y2="264" />
</g>
</svg>

