<?xml version="1.0" encoding="UTF-8" standalone="no"?>
<!DOCTYPE svg PUBLIC "-//W3C//DTD SVG 1.1//EN" "http://www.w3.org/Graphics/SVG/1.1/DTD/svg11.dtd">
<svg xmlns="http://www.w3.org/2000/svg" version="1.1" xmlns:xlink="http://www.w3.org/1999/xlink" viewBox="0 0 512 288">

<!-- Copyright 2015-2021 Isaac Gouy -->
<!-- https://salsa.debian.org/benchmarksgame-team/benchmarksgame/blob/master/LICENSE.md -->

<g style="stroke: #ccc;" >
<line x1="51" y1="264" x2="461" y2="264" />
<line x1="51" y1="221.57" x2="461" y2="221.57" />
<line x1="51" y1="201.85" x2="461" y2="201.85" />
<line x1="51" y1="175.08" x2="461" y2="175.08" />
<line x1="51" y1="132.65" x2="461" y2="132.65" />
<line x1="51" y1="112.92" x2="461" y2="112.92" />
<line x1="51" y1="86.15" x2="461" y2="86.15" />
<line x1="51" y1="43.73" x2="461" y2="43.73" />
<line x1="51" y1="24" x2="461" y2="24" />
</g>
<g style="text-anchor: end; font-family: Ubuntu,Verdana,sans-serif; font-size: 0.9em;" >
<text x="51" y="262" >1</text>
<text x="51" y="219.57" >3</text>
<text x="51" y="199.85" >5</text>
<text x="51" y="173.08" >10</text>
<text x="51" y="130.65" >30</text>
<text x="51" y="110.92" >50</text>
<text x="51" y="84.15" >100</text>
<text x="51" y="41.73" >300</text>
<text x="51" y="22" ></text>
</g>
<defs>
<linearGradient id="grade" x1="0" y1="0" x2="0" y2="1">
<stop offset="0" style="stop-color: white" stop-opacity="0.6"/>
<stop offset="1" style="stop-color: white" stop-opacity="0.8"/>
</linearGradient>
<mask id="fade">
<rect x="58" y="24" width="452" height="288" fill="url(#grade)"  />
</mask>
<g id="backgroundText" style="text-anchor: end; font-family: Ubuntu,Verdana,sans-serif; font-size: 1em;">
<text x="22.5" y="0" transform="rotate(270,22.5,0)" xml:space="preserve">   Swift   Swift   Swift   Swift   Swift</text>
<text x="56.5" y="0" transform="rotate(270,56.5,0)" xml:space="preserve">   Node js   Node js   Node js   Node js</text>
<text x="90.5" y="0" transform="rotate(270,90.5,0)" xml:space="preserve">   Dart   Dart   Dart   Dart   Dart   Dart</text>
<text x="124.5" y="0" transform="rotate(270,124.5,0)" xml:space="preserve">   Racket   Racket   Racket   Racket   Racket</text>
<text x="158.5" y="0" transform="rotate(270,158.5,0)" xml:space="preserve">   PHP   PHP   PHP   PHP   PHP   PHP   PHP   PHP</text>
<text x="192.5" y="0" transform="rotate(270,192.5,0)" xml:space="preserve">   Erlang   Erlang   Erlang   Erlang   Erlang</text>
<text x="226.5" y="0" transform="rotate(270,226.5,0)" xml:space="preserve">   Python 3   Python 3   Python 3   Python 3</text>
<text x="260.5" y="0" transform="rotate(270,260.5,0)" xml:space="preserve">   Lua   Lua   Lua   Lua   Lua   Lua   Lua   Lua</text>
<text x="294.5" y="0" transform="rotate(270,294.5,0)" xml:space="preserve">   VW Smalltalk   VW Smalltalk   VW Smalltalk</text>
<text x="328.5" y="0" transform="rotate(270,328.5,0)" xml:space="preserve">   Ruby   Ruby   Ruby   Ruby   Ruby   Ruby</text>
<text x="362.5" y="0" transform="rotate(270,362.5,0)" xml:space="preserve">   Perl   Perl   Perl   Perl   Perl   Perl</text>
<text x="396.5" y="0" transform="rotate(270,396.5,0)" xml:space="preserve">   Matz's Ruby   Matz's Ruby   Matz's Ruby</text>
</g>
</defs>
<use x="60" y="27" xlink:href="#backgroundText"/>
<rect x="58" y="24" width="452" height="288" fill="white" mask="url(#fade)" />
<rect x="58" y="264" width="452" height="288" style="fill: white; stroke: white;" />
<g style="fill: black; stroke: black;">
<rect x="73" y="151.26" width="1" height="104.98" />
<rect x="107" y="180.95" width="1" height="60.42" />
<rect x="141" y="149.8" width="1" height="70.01" />
<rect x="175" y="154.91" width="1" height="90.29" />
<rect x="209" y="126" width="1" height="128.1" />
<rect x="243" y="92.74" width="1" height="122.24" />
<rect x="277" y="56.31" width="1" height="193.1" />
<rect x="311" y="87.37" width="1" height="162.78" />
<rect x="345" y="85.98" width="1" height="85.45" />
<rect x="379" y="66.74" width="1" height="130.42" />
<rect x="413" y="57.2" width="1" height="169.36" />
<rect x="447" y="-5.89" width="1" height="155.88" />
</g>
<g style="fill: white; stroke: black;">
<rect x="62" y="179.57" width="23" height="49.31" />
<rect x="96" y="185.9" width="23" height="30.2" />
<rect x="130" y="176.08" width="23" height="40.53" />
<rect x="164" y="169.86" width="23" height="20.86" />
<rect x="198" y="134.6" width="23" height="34.3" />
<rect x="232" y="115.33" width="23" height="29.16" />
<rect x="266" y="87.06" width="23" height="64.48" />
<rect x="300" y="98.27" width="23" height="30.58" />
<rect x="334" y="104.55" width="23" height="41.14" />
<rect x="368" y="96.44" width="23" height="57.07" />
<rect x="402" y="87.54" width="23" height="61.31" />
<rect x="436" y="-1.49" width="23" height="79.45" />
</g>
<g style="fill: black; stroke: black;">
<line x1="68.5" y1="256.24" x2="79" y2="256.24" />
<line x1="68.5" y1="151.26" x2="79" y2="151.26" />
<line x1="68.5" y1="139.85" x2="79" y2="139.85" />
<rect x="73" y="139.85" width="1" height="5" />
</g>
<g style="fill: black; stroke: black;">
<rect x="63" y="210.42" width="21" height="1" />
</g>
<g style="fill: black; stroke: black;">
<line x1="102.5" y1="241.38" x2="113" y2="241.38" />
<line x1="102.5" y1="180.95" x2="113" y2="180.95" />
</g>
<g style="fill: black; stroke: black;">
<rect x="97" y="205.38" width="21" height="1" />
</g>
<g style="fill: black; stroke: black;">
<line x1="136.5" y1="219.81" x2="147" y2="219.81" />
<line x1="136.5" y1="149.8" x2="147" y2="149.8" />
<line x1="136.5" y1="143.58" x2="147" y2="143.58" />
<rect x="141" y="143.58" width="1" height="5" />
</g>
<g style="fill: black; stroke: black;">
<rect x="131" y="191.79" width="21" height="1" />
</g>
<g style="fill: black; stroke: black;">
<line x1="170.5" y1="245.2" x2="181" y2="245.2" />
<line x1="170.5" y1="154.91" x2="181" y2="154.91" />
</g>
<g style="fill: black; stroke: black;">
<rect x="165" y="174.67" width="21" height="1" />
</g>
<g style="fill: black; stroke: black;">
<line x1="204.5" y1="254.1" x2="215" y2="254.1" />
<line x1="204.5" y1="126" x2="215" y2="126" />
</g>
<g style="fill: black; stroke: black;">
<rect x="199" y="149.92" width="21" height="1" />
</g>
<g style="fill: black; stroke: black;">
<line x1="238.5" y1="214.98" x2="249" y2="214.98" />
<line x1="238.5" y1="92.74" x2="249" y2="92.74" />
<line x1="238.5" y1="39.74" x2="249" y2="39.74" />
<rect x="243" y="39.74" width="1" height="5" />
</g>
<g style="fill: black; stroke: black;">
<rect x="233" y="131.86" width="21" height="1" />
</g>
<g style="fill: black; stroke: black;">
<line x1="272.5" y1="249.41" x2="283" y2="249.41" />
<line x1="272.5" y1="56.31" x2="283" y2="56.31" />
<line x1="272.5" y1="44.84" x2="283" y2="44.84" />
<rect x="277" y="44.84" width="1" height="5" />
</g>
<g style="fill: black; stroke: black;">
<rect x="267" y="116.78" width="21" height="1" />
</g>
<g style="fill: black; stroke: black;">
<line x1="306.5" y1="250.15" x2="317" y2="250.15" />
<line x1="306.5" y1="87.37" x2="317" y2="87.37" />
</g>
<g style="fill: black; stroke: black;">
<rect x="301" y="116.89" width="21" height="1" />
</g>
<g style="fill: black; stroke: black;">
<line x1="340.5" y1="171.43" x2="351" y2="171.43" />
<line x1="340.5" y1="85.98" x2="351" y2="85.98" />
</g>
<g style="fill: black; stroke: black;">
<rect x="335" y="124.22" width="21" height="1" />
</g>
<g style="fill: black; stroke: black;">
<line x1="374.5" y1="197.16" x2="385" y2="197.16" />
<line x1="374.5" y1="66.74" x2="385" y2="66.74" />
<line x1="374.5" y1="56.6" x2="385" y2="56.6" />
<rect x="379" y="56.6" width="1" height="5" />
</g>
<g style="fill: black; stroke: black;">
<rect x="369" y="121.29" width="21" height="1" />
</g>
<g style="fill: black; stroke: black;">
<line x1="408.5" y1="226.56" x2="419" y2="226.56" />
<line x1="408.5" y1="57.2" x2="419" y2="57.2" />
<line x1="408.5" y1="13.05" x2="419" y2="13.05" />
<rect x="413" y="13.05" width="1" height="5" />
</g>
<g style="fill: black; stroke: black;">
<rect x="403" y="103.79" width="21" height="1" />
</g>
<g style="fill: black; stroke: black;">
<line x1="442.5" y1="149.99" x2="453" y2="149.99" />
<line x1="442.5" y1="-5.89" x2="453" y2="-5.89" />
</g>
<g style="fill: black; stroke: black;">
<rect x="437" y="33.59" width="21" height="1" />
</g>
<g style="text-anchor: end; font-family: Ubuntu,Verdana,sans-serif; font-size: 0.9em;" >
<text x="462" y="282" >01 Aug 2021 u64q</text>
<text x="58" y="282" style="text-anchor: start;" >benchmarks game</text>
</g>
<text x="16" y="144" transform="rotate(270,16,144)" style="text-anchor: middle; font-family: Ubuntu,Verdana,sans-serif; font-size: 0.9em;" >program busy time / least busy</text>
<text x="259.5" y="18" style="text-anchor: middle; font-family: Ubuntu,Verdana,sans-serif; font-size: 1.2em;" >How many times slower?</text>
<g style="stroke: #333;">
<line x1="58" y1="24" x2="58" y2="264" />
<line x1="461" y1="24" x2="461" y2="264" />
<line x1="58" y1="264" x2="461" y2="264" />
</g>
</svg>

