<?xml version="1.0" encoding="UTF-8" standalone="no"?>
<!DOCTYPE svg PUBLIC "-//W3C//DTD SVG 1.1//EN" "http://www.w3.org/Graphics/SVG/1.1/DTD/svg11.dtd">
<svg xmlns="http://www.w3.org/2000/svg" version="1.1" xmlns:xlink="http://www.w3.org/1999/xlink" viewBox="0 0 512 288">

<!-- Copyright 2015 Isaac Gouy -->
<!-- http://benchmarksgame.alioth.debian.org/license.html -->

<g style="stroke: #ccc;" >
<line x1="51" y1="264" x2="511" y2="264" />
<line x1="51" y1="221.57" x2="511" y2="221.57" />
<line x1="51" y1="201.85" x2="511" y2="201.85" />
<line x1="51" y1="175.08" x2="511" y2="175.08" />
<line x1="51" y1="132.65" x2="511" y2="132.65" />
<line x1="51" y1="112.92" x2="511" y2="112.92" />
<line x1="51" y1="86.15" x2="511" y2="86.15" />
<line x1="51" y1="43.73" x2="511" y2="43.73" />
<line x1="51" y1="24" x2="511" y2="24" />
</g>
<g style="text-anchor: end; font-family: Ubuntu,Verdana,sans-serif; font-size: 0.9em;" >
<text x="51" y="262" >1</text>
<text x="51" y="219.57" >3</text>
<text x="51" y="199.85" >5</text>
<text x="51" y="173.08" >10</text>
<text x="51" y="130.65" >30</text>
<text x="51" y="110.92" >50</text>
<text x="51" y="84.15" >100</text>
<text x="51" y="41.73" >300</text>
<text x="51" y="22" ></text>
</g>
<defs>
<linearGradient id="grade" x1="0" y1="0" x2="0" y2="1">
<stop offset="0" style="stop-color: white" stop-opacity="0.6"/>
<stop offset="1" style="stop-color: white" stop-opacity="0.8"/>
</linearGradient>
<mask id="fade">
<rect x="58" y="24" width="452" height="288" fill="url(#grade)"  />
</mask>
<g id="backgroundText" style="text-anchor: end; font-family: Ubuntu,Verdana,sans-serif; font-size: 1em;">
<text x="16.5" y="0" transform="rotate(270,16.5,0)" xml:space="preserve">   C++ g++   C++ g++   C++ g++   C++ g++   C++ g++   C++ g++</text>
<text x="43.5" y="0" transform="rotate(270,43.5,0)" xml:space="preserve">   C gcc   C gcc   C gcc   C gcc   C gcc   C gcc   C gcc</text>
<text x="70.5" y="0" transform="rotate(270,70.5,0)" xml:space="preserve">Rust   Rust   Rust   Rust   Rust   Rust   Rust   Rust   Rust</text>
<text x="97.5" y="0" transform="rotate(270,97.5,0)" xml:space="preserve">da 2012 GNAT   Ada 2012 GNAT   Ada 2012 GNAT   Ada 2012 GNAT</text>
<text x="124.5" y="0" transform="rotate(270,124.5,0)" xml:space="preserve">ortran Intel   Fortran Intel   Fortran Intel   Fortran Intel</text>
<br />
<b>Warning</b>:  Division by zero in <b>/home/dunham/8000-benchmarksgame/website/lib/lib_chartSVG.php</b> on line <b>289</b><br />
<br />
<b>Warning</b>:  str_repeat() expects parameter 2 to be integer, float given in <b>/home/dunham/8000-benchmarksgame/website/lib/lib_chartSVG.php</b> on line <b>290</b><br />
<text x="151.5" y="0" transform="rotate(270,151.5,0)" xml:space="preserve"></text>
<text x="178.5" y="0" transform="rotate(270,178.5,0)" xml:space="preserve">   Swift   Swift   Swift   Swift   Swift   Swift   Swift</text>
<text x="205.5" y="0" transform="rotate(270,205.5,0)" xml:space="preserve">Java   Java   Java   Java   Java   Java   Java   Java   Java</text>
<text x="232.5" y="0" transform="rotate(270,232.5,0)" xml:space="preserve">   C# .NET Core   C# .NET Core   C# .NET Core   C# .NET Core</text>
<text x="259.5" y="0" transform="rotate(270,259.5,0)" xml:space="preserve">   Chapel   Chapel   Chapel   Chapel   Chapel   Chapel</text>
<text x="286.5" y="0" transform="rotate(270,286.5,0)" xml:space="preserve">   Free Pascal   Free Pascal   Free Pascal   Free Pascal</text>
<text x="313.5" y="0" transform="rotate(270,313.5,0)" xml:space="preserve">   F# .NET Core   F# .NET Core   F# .NET Core   F# .NET Core</text>
<br />
<b>Warning</b>:  Division by zero in <b>/home/dunham/8000-benchmarksgame/website/lib/lib_chartSVG.php</b> on line <b>289</b><br />
<br />
<b>Warning</b>:  str_repeat() expects parameter 2 to be integer, float given in <b>/home/dunham/8000-benchmarksgame/website/lib/lib_chartSVG.php</b> on line <b>290</b><br />
<text x="340.5" y="0" transform="rotate(270,340.5,0)" xml:space="preserve"></text>
<text x="367.5" y="0" transform="rotate(270,367.5,0)" xml:space="preserve">   Go   Go   Go   Go   Go   Go   Go   Go   Go   Go   Go   Go</text>
<text x="394.5" y="0" transform="rotate(270,394.5,0)" xml:space="preserve">   Lisp SBCL   Lisp SBCL   Lisp SBCL   Lisp SBCL   Lisp SBCL</text>
<text x="421.5" y="0" transform="rotate(270,421.5,0)" xml:space="preserve">   OCaml   OCaml   OCaml   OCaml   OCaml   OCaml   OCaml</text>
</g>
</defs>
<use x="60" y="27" xlink:href="#backgroundText"/>
<rect x="58" y="24" width="452" height="288" fill="white" mask="url(#fade)" />
<rect x="58" y="264" width="452" height="288" style="fill: white; stroke: white;" />
<g style="fill: black; stroke: black;">
<rect x="72" y="246" width="1" height="18" />
<rect x="99" y="238.28" width="1" height="25.72" />
<rect x="126" y="230.13" width="1" height="32.93" />
<rect x="153" y="194.08" width="1" height="67.47" />
<rect x="180" y="189.09" width="1" height="74.91" />
<rect x="207" y="708.61" width="1" height="0" />
<rect x="234" y="162.3" width="1" height="98.84" />
<rect x="261" y="182.97" width="1" height="75.04" />
<rect x="288" y="189.81" width="1" height="56.84" />
<rect x="315" y="189.85" width="1" height="74.15" />
<rect x="342" y="208.53" width="1" height="32.87" />
<rect x="369" y="184.59" width="1" height="56.19" />
<rect x="396" y="708.61" width="1" height="0" />
<rect x="423" y="164.25" width="1" height="91.14" />
<rect x="450" y="186.16" width="1" height="46.01" />
<rect x="477" y="174.35" width="1" height="66.83" />
</g>
<g style="fill: white; stroke: black;">
<rect x="62" y="255.77" width="21" height="8.23" />
<rect x="89" y="251.6" width="21" height="12.4" />
<rect x="116" y="245.86" width="21" height="15.78" />
<rect x="143" y="219.29" width="21" height="36.76" />
<rect x="170" y="215.89" width="21" height="42.55" />
<rect x="197" y="708.61" width="21" height="0" />
<rect x="224" y="192.6" width="21" height="61.1" />
<rect x="251" y="206" width="21" height="30.29" />
<rect x="278" y="211.88" width="21" height="27.86" />
<rect x="305" y="199.79" width="21" height="38.56" />
<rect x="332" y="217.88" width="21" height="7.78" />
<rect x="359" y="206.79" width="21" height="28.16" />
<rect x="386" y="708.61" width="21" height="0" />
<rect x="413" y="192.63" width="21" height="49.65" />
<rect x="440" y="195.47" width="21" height="30.08" />
<rect x="467" y="192.64" width="21" height="34.21" />
</g>
<g style="fill: black; stroke: black;">
<line x1="68" y1="264" x2="77.5" y2="264" />
<line x1="68" y1="246" x2="77.5" y2="246" />
<line x1="68" y1="241.59" x2="77.5" y2="241.59" />
<rect x="72" y="241.59" width="1" height="5" />
</g>
<g style="fill: black; stroke: black;">
<rect x="63" y="259.73" width="19" height="1" />
</g>
<g style="fill: black; stroke: black;">
<line x1="95" y1="264" x2="104.5" y2="264" />
<line x1="95" y1="238.28" x2="104.5" y2="238.28" />
<line x1="95" y1="219.35" x2="104.5" y2="219.35" />
<rect x="99" y="219.35" width="1" height="5" />
</g>
<g style="fill: black; stroke: black;">
<rect x="90" y="258.86" width="19" height="1" />
</g>
<g style="fill: black; stroke: black;">
<line x1="122" y1="263.05" x2="131.5" y2="263.05" />
<line x1="122" y1="230.13" x2="131.5" y2="230.13" />
<line x1="122" y1="219.34" x2="131.5" y2="219.34" />
<rect x="126" y="219.34" width="1" height="5" />
</g>
<g style="fill: black; stroke: black;">
<rect x="117" y="250.21" width="19" height="1" />
</g>
<g style="fill: black; stroke: black;">
<line x1="149" y1="261.55" x2="158.5" y2="261.55" />
<line x1="149" y1="194.08" x2="158.5" y2="194.08" />
<line x1="149" y1="184.07" x2="158.5" y2="184.07" />
<rect x="153" y="184.07" width="1" height="5" />
</g>
<g style="fill: black; stroke: black;">
<rect x="144" y="237.49" width="19" height="1" />
</g>
<g style="fill: black; stroke: black;">
<line x1="176" y1="264" x2="185.5" y2="264" />
<line x1="176" y1="189.09" x2="185.5" y2="189.09" />
<line x1="176" y1="183.22" x2="185.5" y2="183.22" />
<rect x="180" y="183.22" width="1" height="5" />
</g>
<g style="fill: black; stroke: black;">
<rect x="171" y="236.23" width="19" height="1" />
</g>
<g style="fill: black; stroke: black;">
<line x1="203" y1="708.61" x2="212.5" y2="708.61" />
<line x1="203" y1="708.61" x2="212.5" y2="708.61" />
</g>
<g style="fill: black; stroke: black;">
<rect x="198" y="707.61" width="19" height="1" />
</g>
<g style="fill: black; stroke: black;">
<line x1="230" y1="261.13" x2="239.5" y2="261.13" />
<line x1="230" y1="162.3" x2="239.5" y2="162.3" />
<line x1="230" y1="121.72" x2="239.5" y2="121.72" />
<rect x="234" y="121.72" width="1" height="5" />
</g>
<g style="fill: black; stroke: black;">
<rect x="225" y="236.83" width="19" height="1" />
</g>
<g style="fill: black; stroke: black;">
<line x1="257" y1="258.01" x2="266.5" y2="258.01" />
<line x1="257" y1="182.97" x2="266.5" y2="182.97" />
<line x1="257" y1="166.23" x2="266.5" y2="166.23" />
<rect x="261" y="166.23" width="1" height="5" />
</g>
<g style="fill: black; stroke: black;">
<rect x="252" y="224.83" width="19" height="1" />
</g>
<g style="fill: black; stroke: black;">
<line x1="284" y1="246.64" x2="293.5" y2="246.64" />
<line x1="284" y1="189.81" x2="293.5" y2="189.81" />
<line x1="284" y1="150.75" x2="293.5" y2="150.75" />
<rect x="288" y="150.75" width="1" height="5" />
</g>
<g style="fill: black; stroke: black;">
<rect x="279" y="226.63" width="19" height="1" />
</g>
<g style="fill: black; stroke: black;">
<line x1="311" y1="264" x2="320.5" y2="264" />
<line x1="311" y1="189.85" x2="320.5" y2="189.85" />
</g>
<g style="fill: black; stroke: black;">
<rect x="306" y="216.68" width="19" height="1" />
</g>
<g style="fill: black; stroke: black;">
<line x1="338" y1="241.41" x2="347.5" y2="241.41" />
<line x1="338" y1="208.53" x2="347.5" y2="208.53" />
<line x1="338" y1="261.91" x2="347.5" y2="261.91" />
<rect x="342" y="256.91" width="1" height="5" />
<line x1="338" y1="177.26" x2="347.5" y2="177.26" />
<rect x="342" y="177.26" width="1" height="5" />
</g>
<g style="fill: black; stroke: black;">
<rect x="333" y="219.22" width="19" height="1" />
</g>
<g style="fill: black; stroke: black;">
<line x1="365" y1="240.78" x2="374.5" y2="240.78" />
<line x1="365" y1="184.59" x2="374.5" y2="184.59" />
<line x1="365" y1="150.61" x2="374.5" y2="150.61" />
<rect x="369" y="150.61" width="1" height="5" />
</g>
<g style="fill: black; stroke: black;">
<rect x="360" y="223.2" width="19" height="1" />
</g>
<g style="fill: black; stroke: black;">
<line x1="392" y1="708.61" x2="401.5" y2="708.61" />
<line x1="392" y1="708.61" x2="401.5" y2="708.61" />
</g>
<g style="fill: black; stroke: black;">
<rect x="387" y="707.61" width="19" height="1" />
</g>
<g style="fill: black; stroke: black;">
<line x1="419" y1="255.39" x2="428.5" y2="255.39" />
<line x1="419" y1="164.25" x2="428.5" y2="164.25" />
<line x1="419" y1="140.18" x2="428.5" y2="140.18" />
<rect x="423" y="140.18" width="1" height="5" />
</g>
<g style="fill: black; stroke: black;">
<rect x="414" y="216.15" width="19" height="1" />
</g>
<g style="fill: black; stroke: black;">
<line x1="446" y1="232.17" x2="455.5" y2="232.17" />
<line x1="446" y1="186.16" x2="455.5" y2="186.16" />
</g>
<g style="fill: black; stroke: black;">
<rect x="441" y="218.46" width="19" height="1" />
</g>
<g style="fill: black; stroke: black;">
<line x1="473" y1="241.17" x2="482.5" y2="241.17" />
<line x1="473" y1="174.35" x2="482.5" y2="174.35" />
</g>
<g style="fill: black; stroke: black;">
<rect x="468" y="208.62" width="19" height="1" />
</g>
<g style="text-anchor: end; font-family: Ubuntu,Verdana,sans-serif; font-size: 0.9em;" >
<text x="512" y="282" >18 Nov 2018 u64q</text>
<text x="58" y="282" style="text-anchor: start;" >benchmarks game</text>
</g>
<text x="16" y="144" transform="rotate(270,16,144)" style="text-anchor: middle; font-family: Ubuntu,Verdana,sans-serif; font-size: 0.9em;" >program CPU time / fastest CPU time</text>
<text x="285" y="18" style="text-anchor: middle; font-family: Ubuntu,Verdana,sans-serif; font-size: 1.2em;" >How many times slower?</text>
<g style="stroke: #333;">
<line x1="58" y1="24" x2="58" y2="264" />
<line x1="511" y1="24" x2="511" y2="264" />
<line x1="58" y1="264" x2="511" y2="264" />
</g>
</svg>

