<?xml version="1.0" encoding="UTF-8" standalone="no"?>
<!DOCTYPE svg PUBLIC "-//W3C//DTD SVG 1.1//EN" "http://www.w3.org/Graphics/SVG/1.1/DTD/svg11.dtd">
<svg xmlns="http://www.w3.org/2000/svg" version="1.1" xmlns:xlink="http://www.w3.org/1999/xlink" viewBox="0 0 512 288">

<!-- Copyright 2015-2020 Isaac Gouy -->
<!-- https://salsa.debian.org/benchmarksgame-team/benchmarksgame/blob/master/LICENSE.md -->

<g style="stroke: #ccc;" >
<line x1="51" y1="264" x2="511" y2="264" />
<line x1="51" y1="221.57" x2="511" y2="221.57" />
<line x1="51" y1="201.85" x2="511" y2="201.85" />
<line x1="51" y1="175.08" x2="511" y2="175.08" />
<line x1="51" y1="132.65" x2="511" y2="132.65" />
<line x1="51" y1="112.92" x2="511" y2="112.92" />
<line x1="51" y1="86.15" x2="511" y2="86.15" />
<line x1="51" y1="43.73" x2="511" y2="43.73" />
<line x1="51" y1="24" x2="511" y2="24" />
</g>
<g style="text-anchor: end; font-family: Ubuntu,Verdana,sans-serif; font-size: 0.9em;" >
<text x="51" y="262" >1</text>
<text x="51" y="219.57" >3</text>
<text x="51" y="199.85" >5</text>
<text x="51" y="173.08" >10</text>
<text x="51" y="130.65" >30</text>
<text x="51" y="110.92" >50</text>
<text x="51" y="84.15" >100</text>
<text x="51" y="41.73" >300</text>
<text x="51" y="22" ></text>
</g>
<defs>
<linearGradient id="grade" x1="0" y1="0" x2="0" y2="1">
<stop offset="0" style="stop-color: white" stop-opacity="0.6"/>
<stop offset="1" style="stop-color: white" stop-opacity="0.8"/>
</linearGradient>
<mask id="fade">
<rect x="58" y="24" width="452" height="288" fill="url(#grade)"  />
</mask>
<g id="backgroundText" style="text-anchor: end; font-family: Ubuntu,Verdana,sans-serif; font-size: 1em;">
<text x="17" y="0" transform="rotate(270,17,0)" xml:space="preserve">   C++ g++   C++ g++   C++ g++   C++ g++</text>
<text x="45" y="0" transform="rotate(270,45,0)" xml:space="preserve">   C gcc   C gcc   C gcc   C gcc   C gcc</text>
<text x="73" y="0" transform="rotate(270,73,0)" xml:space="preserve">   Rust   Rust   Rust   Rust   Rust   Rust</text>
<text x="101" y="0" transform="rotate(270,101,0)" xml:space="preserve">   Intel Fortran   Intel Fortran   Intel Fortran</text>
<text x="129" y="0" transform="rotate(270,129,0)" xml:space="preserve">   Julia   Julia   Julia   Julia   Julia</text>
<text x="157" y="0" transform="rotate(270,157,0)" xml:space="preserve">   Ada 2012 GNAT   Ada 2012 GNAT   Ada 2012 GNAT</text>
<text x="185" y="0" transform="rotate(270,185,0)" xml:space="preserve">   C# .NET Core   C# .NET Core   C# .NET Core</text>
<text x="213" y="0" transform="rotate(270,213,0)" xml:space="preserve">                                                            </text>
<text x="241" y="0" transform="rotate(270,241,0)" xml:space="preserve">   Free Pascal   Free Pascal   Free Pascal</text>
<text x="269" y="0" transform="rotate(270,269,0)" xml:space="preserve">   F# .NET Core   F# .NET Core   F# .NET Core</text>
<text x="297" y="0" transform="rotate(270,297,0)" xml:space="preserve">   Java   Java   Java   Java   Java   Java</text>
<text x="325" y="0" transform="rotate(270,325,0)" xml:space="preserve">   Go   Go   Go   Go   Go   Go   Go   Go   Go   Go</text>
<text x="353" y="0" transform="rotate(270,353,0)" xml:space="preserve">   Chapel   Chapel   Chapel   Chapel   Chapel</text>
<text x="381" y="0" transform="rotate(270,381,0)" xml:space="preserve">   Haskell GHC   Haskell GHC   Haskell GHC</text>
<text x="409" y="0" transform="rotate(270,409,0)" xml:space="preserve">   OCaml   OCaml   OCaml   OCaml   OCaml</text>
<text x="437" y="0" transform="rotate(270,437,0)" xml:space="preserve">   Lisp SBCL   Lisp SBCL   Lisp SBCL</text>
</g>
</defs>
<use x="60" y="27" xlink:href="#backgroundText"/>
<rect x="58" y="24" width="452" height="288" fill="white" mask="url(#fade)" />
<rect x="58" y="264" width="452" height="288" style="fill: white; stroke: white;" />
<g style="fill: black; stroke: black;">
<rect x="72" y="254.22" width="1" height="9.78" />
<rect x="100" y="252.52" width="1" height="11.48" />
<rect x="128" y="247.84" width="1" height="16.16" />
<rect x="156" y="226.63" width="1" height="37.37" />
<rect x="184" y="236.85" width="1" height="21.65" />
<rect x="212" y="213.4" width="1" height="50.51" />
<rect x="240" y="212.81" width="1" height="49.61" />
<rect x="268" y="708.61" width="1" height="0" />
<rect x="296" y="197.13" width="1" height="66.87" />
<rect x="324" y="207.25" width="1" height="49.88" />
<rect x="352" y="187.63" width="1" height="70.1" />
<rect x="380" y="193.64" width="1" height="58.89" />
<rect x="408" y="195.19" width="1" height="68.81" />
<rect x="436" y="189.78" width="1" height="71.37" />
<rect x="464" y="177.77" width="1" height="82.22" />
<rect x="492" y="185.92" width="1" height="54.88" />
</g>
<g style="fill: white; stroke: black;">
<rect x="62" y="256.82" width="22" height="7.18" />
<rect x="90" y="256.22" width="22" height="5.88" />
<rect x="118" y="252.67" width="22" height="11.33" />
<rect x="146" y="238.41" width="22" height="22.76" />
<rect x="174" y="243.69" width="22" height="5.35" />
<rect x="202" y="230.7" width="22" height="25.44" />
<rect x="230" y="215.62" width="22" height="31.7" />
<rect x="258" y="708.61" width="22" height="0" />
<rect x="286" y="214.39" width="22" height="33.02" />
<rect x="314" y="212.55" width="22" height="27.28" />
<rect x="342" y="211.88" width="22" height="33.71" />
<rect x="370" y="213.59" width="22" height="23.15" />
<rect x="398" y="206.82" width="22" height="29.07" />
<rect x="426" y="210.96" width="22" height="25.78" />
<rect x="454" y="194.19" width="22" height="43.38" />
<rect x="482" y="206.54" width="22" height="29.22" />
</g>
<g style="fill: black; stroke: black;">
<line x1="68.5" y1="264" x2="78" y2="264" />
<line x1="68.5" y1="254.22" x2="78" y2="254.22" />
</g>
<g style="fill: black; stroke: black;">
<rect x="63" y="260.64" width="20" height="1" />
</g>
<g style="fill: black; stroke: black;">
<line x1="96.5" y1="264" x2="106" y2="264" />
<line x1="96.5" y1="252.52" x2="106" y2="252.52" />
</g>
<g style="fill: black; stroke: black;">
<rect x="91" y="258.32" width="20" height="1" />
</g>
<g style="fill: black; stroke: black;">
<line x1="124.5" y1="264" x2="134" y2="264" />
<line x1="124.5" y1="247.84" x2="134" y2="247.84" />
</g>
<g style="fill: black; stroke: black;">
<rect x="119" y="259.14" width="20" height="1" />
</g>
<g style="fill: black; stroke: black;">
<line x1="152.5" y1="264" x2="162" y2="264" />
<line x1="152.5" y1="226.63" x2="162" y2="226.63" />
</g>
<g style="fill: black; stroke: black;">
<rect x="147" y="247.27" width="20" height="1" />
</g>
<g style="fill: black; stroke: black;">
<line x1="180.5" y1="258.5" x2="190" y2="258.5" />
<line x1="180.5" y1="236.85" x2="190" y2="236.85" />
<line x1="180.5" y1="202.44" x2="190" y2="202.44" />
<rect x="184" y="202.44" width="1" height="5" />
</g>
<g style="fill: black; stroke: black;">
<rect x="175" y="245.44" width="20" height="1" />
</g>
<g style="fill: black; stroke: black;">
<line x1="208.5" y1="263.91" x2="218" y2="263.91" />
<line x1="208.5" y1="213.4" x2="218" y2="213.4" />
</g>
<g style="fill: black; stroke: black;">
<rect x="203" y="244.16" width="20" height="1" />
</g>
<g style="fill: black; stroke: black;">
<line x1="236.5" y1="262.42" x2="246" y2="262.42" />
<line x1="236.5" y1="212.81" x2="246" y2="212.81" />
</g>
<g style="fill: black; stroke: black;">
<rect x="231" y="240.74" width="20" height="1" />
</g>
<g style="fill: black; stroke: black;">
<line x1="264.5" y1="708.61" x2="274" y2="708.61" />
<line x1="264.5" y1="708.61" x2="274" y2="708.61" />
</g>
<g style="fill: black; stroke: black;">
<rect x="259" y="707.61" width="20" height="1" />
</g>
<g style="fill: black; stroke: black;">
<line x1="292.5" y1="264" x2="302" y2="264" />
<line x1="292.5" y1="197.13" x2="302" y2="197.13" />
</g>
<g style="fill: black; stroke: black;">
<rect x="287" y="222.94" width="20" height="1" />
</g>
<g style="fill: black; stroke: black;">
<line x1="320.5" y1="257.13" x2="330" y2="257.13" />
<line x1="320.5" y1="207.25" x2="330" y2="207.25" />
</g>
<g style="fill: black; stroke: black;">
<rect x="315" y="228.91" width="20" height="1" />
</g>
<g style="fill: black; stroke: black;">
<line x1="348.5" y1="257.74" x2="358" y2="257.74" />
<line x1="348.5" y1="187.63" x2="358" y2="187.63" />
<line x1="348.5" y1="178.64" x2="358" y2="178.64" />
<rect x="352" y="178.64" width="1" height="5" />
</g>
<g style="fill: black; stroke: black;">
<rect x="343" y="228.31" width="20" height="1" />
</g>
<g style="fill: black; stroke: black;">
<line x1="376.5" y1="252.53" x2="386" y2="252.53" />
<line x1="376.5" y1="193.64" x2="386" y2="193.64" />
<line x1="376.5" y1="181.33" x2="386" y2="181.33" />
<rect x="380" y="181.33" width="1" height="5" />
</g>
<g style="fill: black; stroke: black;">
<rect x="371" y="224.21" width="20" height="1" />
</g>
<g style="fill: black; stroke: black;">
<line x1="404.5" y1="264" x2="414" y2="264" />
<line x1="404.5" y1="195.19" x2="414" y2="195.19" />
</g>
<g style="fill: black; stroke: black;">
<rect x="399" y="213.65" width="20" height="1" />
</g>
<g style="fill: black; stroke: black;">
<line x1="432.5" y1="261.15" x2="442" y2="261.15" />
<line x1="432.5" y1="189.78" x2="442" y2="189.78" />
<line x1="432.5" y1="171.58" x2="442" y2="171.58" />
<rect x="436" y="171.58" width="1" height="5" />
</g>
<g style="fill: black; stroke: black;">
<rect x="427" y="216.55" width="20" height="1" />
</g>
<g style="fill: black; stroke: black;">
<line x1="460.5" y1="259.98" x2="470" y2="259.98" />
<line x1="460.5" y1="177.77" x2="470" y2="177.77" />
</g>
<g style="fill: black; stroke: black;">
<rect x="455" y="228.75" width="20" height="1" />
</g>
<g style="fill: black; stroke: black;">
<line x1="488.5" y1="240.8" x2="498" y2="240.8" />
<line x1="488.5" y1="185.92" x2="498" y2="185.92" />
</g>
<g style="fill: black; stroke: black;">
<rect x="483" y="221.78" width="20" height="1" />
</g>
<g style="text-anchor: end; font-family: Ubuntu,Verdana,sans-serif; font-size: 0.9em;" >
<text x="512" y="282" >01 Jul 2020 Q6600</text>
<text x="58" y="282" style="text-anchor: start;" >benchmarks game</text>
</g>
<text x="16" y="144" transform="rotate(270,16,144)" style="text-anchor: middle; font-family: Ubuntu,Verdana,sans-serif; font-size: 0.9em;" >program busy time / least busy</text>
<text x="285" y="18" style="text-anchor: middle; font-family: Ubuntu,Verdana,sans-serif; font-size: 1.2em;" >How many times slower?</text>
<g style="stroke: #333;">
<line x1="58" y1="24" x2="58" y2="264" />
<line x1="511" y1="24" x2="511" y2="264" />
<line x1="58" y1="264" x2="511" y2="264" />
</g>
</svg>

