<?xml version="1.0" encoding="UTF-8" standalone="no"?>
<!DOCTYPE svg PUBLIC "-//W3C//DTD SVG 1.1//EN" "http://www.w3.org/Graphics/SVG/1.1/DTD/svg11.dtd">
<svg xmlns="http://www.w3.org/2000/svg" version="1.1" xmlns:xlink="http://www.w3.org/1999/xlink" viewBox="0 0 512 288">

<!-- Copyright 2015 Isaac Gouy -->
<!-- http://benchmarksgame.alioth.debian.org/license.html -->

<g style="stroke: #ccc;" >
<line x1="51" y1="264" x2="511" y2="264" />
<line x1="51" y1="221.57" x2="511" y2="221.57" />
<line x1="51" y1="201.85" x2="511" y2="201.85" />
<line x1="51" y1="175.08" x2="511" y2="175.08" />
<line x1="51" y1="132.65" x2="511" y2="132.65" />
<line x1="51" y1="112.92" x2="511" y2="112.92" />
<line x1="51" y1="86.15" x2="511" y2="86.15" />
<line x1="51" y1="43.73" x2="511" y2="43.73" />
<line x1="51" y1="24" x2="511" y2="24" />
</g>
<g style="text-anchor: end; font-family: Ubuntu,Verdana,sans-serif; font-size: 0.9em;" >
<text x="51" y="262" >1</text>
<text x="51" y="219.57" >3</text>
<text x="51" y="199.85" >5</text>
<text x="51" y="173.08" >10</text>
<text x="51" y="130.65" >30</text>
<text x="51" y="110.92" >50</text>
<text x="51" y="84.15" >100</text>
<text x="51" y="41.73" >300</text>
<text x="51" y="22" ></text>
</g>
<defs>
<linearGradient id="grade" x1="0" y1="0" x2="0" y2="1">
<stop offset="0" style="stop-color: white" stop-opacity="0.6"/>
<stop offset="1" style="stop-color: white" stop-opacity="0.8"/>
</linearGradient>
<mask id="fade">
<rect x="58" y="24" width="452" height="288" fill="url(#grade)"  />
</mask>
<g id="backgroundText" style="text-anchor: end; font-family: Ubuntu,Verdana,sans-serif; font-size: 1em;">
<text x="14" y="0" transform="rotate(270,14,0)" xml:space="preserve">   Java AOT   Java AOT   Java AOT   Java AOT   Java AOT</text>
<text x="37" y="0" transform="rotate(270,37,0)" xml:space="preserve">   Node js   Node js   Node js   Node js   Node js   Node js</text>
<text x="60" y="0" transform="rotate(270,60,0)" xml:space="preserve">   TypeScript   TypeScript   TypeScript   TypeScript</text>
<text x="83" y="0" transform="rotate(270,83,0)" xml:space="preserve">   Racket   Racket   Racket   Racket   Racket   Racket</text>
<text x="106" y="0" transform="rotate(270,106,0)" xml:space="preserve">Dart   Dart   Dart   Dart   Dart   Dart   Dart   Dart   Dart</text>
<br />
<b>Warning</b>:  Division by zero in <b>/home/dunham/8000-benchmarksgame/website/lib/lib_chartSVG.php</b> on line <b>289</b><br />
<br />
<b>Warning</b>:  str_repeat() expects parameter 2 to be integer, float given in <b>/home/dunham/8000-benchmarksgame/website/lib/lib_chartSVG.php</b> on line <b>290</b><br />
<text x="129" y="0" transform="rotate(270,129,0)" xml:space="preserve"></text>
<text x="152" y="0" transform="rotate(270,152,0)" xml:space="preserve">   PHP   PHP   PHP   PHP   PHP   PHP   PHP   PHP   PHP   PHP</text>
<text x="175" y="0" transform="rotate(270,175,0)" xml:space="preserve">Hack   Hack   Hack   Hack   Hack   Hack   Hack   Hack   Hack</text>
<text x="198" y="0" transform="rotate(270,198,0)" xml:space="preserve">   Erlang HiPE   Erlang HiPE   Erlang HiPE   Erlang HiPE</text>
<text x="221" y="0" transform="rotate(270,221,0)" xml:space="preserve">   VW Smalltalk   VW Smalltalk   VW Smalltalk   VW Smalltalk</text>
<br />
<b>Warning</b>:  Division by zero in <b>/home/dunham/8000-benchmarksgame/website/lib/lib_chartSVG.php</b> on line <b>289</b><br />
<br />
<b>Warning</b>:  str_repeat() expects parameter 2 to be integer, float given in <b>/home/dunham/8000-benchmarksgame/website/lib/lib_chartSVG.php</b> on line <b>290</b><br />
<text x="244" y="0" transform="rotate(270,244,0)" xml:space="preserve"></text>
<text x="267" y="0" transform="rotate(270,267,0)" xml:space="preserve">   Truffle Ruby   Truffle Ruby   Truffle Ruby   Truffle Ruby</text>
<text x="290" y="0" transform="rotate(270,290,0)" xml:space="preserve">Ruby   Ruby   Ruby   Ruby   Ruby   Ruby   Ruby   Ruby   Ruby</text>
<text x="313" y="0" transform="rotate(270,313,0)" xml:space="preserve">Perl   Perl   Perl   Perl   Perl   Perl   Perl   Perl   Perl</text>
<text x="336" y="0" transform="rotate(270,336,0)" xml:space="preserve">   Python 3   Python 3   Python 3   Python 3   Python 3</text>
<text x="359" y="0" transform="rotate(270,359,0)" xml:space="preserve">   Lua   Lua   Lua   Lua   Lua   Lua   Lua   Lua   Lua   Lua</text>
<text x="382" y="0" transform="rotate(270,382,0)" xml:space="preserve">   JRuby   JRuby   JRuby   JRuby   JRuby   JRuby   JRuby</text>
<br />
<b>Warning</b>:  Division by zero in <b>/home/dunham/8000-benchmarksgame/website/lib/lib_chartSVG.php</b> on line <b>289</b><br />
<br />
<b>Warning</b>:  str_repeat() expects parameter 2 to be integer, float given in <b>/home/dunham/8000-benchmarksgame/website/lib/lib_chartSVG.php</b> on line <b>290</b><br />
<text x="405" y="0" transform="rotate(270,405,0)" xml:space="preserve"></text>
<text x="428" y="0" transform="rotate(270,428,0)" xml:space="preserve">   Matz's Ruby   Matz's Ruby   Matz's Ruby   Matz's Ruby</text>
</g>
</defs>
<use x="60" y="27" xlink:href="#backgroundText"/>
<rect x="58" y="24" width="452" height="288" fill="white" mask="url(#fade)" />
<rect x="58" y="264" width="452" height="288" style="fill: white; stroke: white;" />
<g style="fill: black; stroke: black;">
<rect x="71" y="171.21" width="1" height="71.16" />
<rect x="94" y="171.02" width="1" height="52.75" />
<rect x="117" y="176.5" width="1" height="45.51" />
<rect x="140" y="144.63" width="1" height="108.07" />
<rect x="163" y="159.42" width="1" height="64.91" />
<rect x="186" y="708.61" width="1" height="0" />
<rect x="209" y="95.57" width="1" height="168.43" />
<rect x="232" y="96.8" width="1" height="154.33" />
<rect x="255" y="110.54" width="1" height="127.73" />
<rect x="278" y="88.65" width="1" height="103.21" />
<rect x="301" y="708.61" width="1" height="0" />
<rect x="324" y="98.35" width="1" height="92.03" />
<rect x="347" y="72.02" width="1" height="138.1" />
<rect x="370" y="64.95" width="1" height="169.53" />
<rect x="393" y="50.9" width="1" height="183.57" />
<rect x="416" y="86.97" width="1" height="72.53" />
<rect x="439" y="61.41" width="1" height="116.74" />
<rect x="462" y="708.61" width="1" height="0" />
<rect x="485" y="-30.41" width="1" height="190.28" />
</g>
<g style="fill: white; stroke: black;">
<rect x="62" y="192.59" width="18" height="26.23" />
<rect x="85" y="179.53" width="18" height="37.56" />
<rect x="108" y="189.49" width="18" height="11.97" />
<rect x="131" y="166.95" width="18" height="33.23" />
<rect x="154" y="181.35" width="18" height="27.52" />
<rect x="177" y="708.61" width="18" height="0" />
<rect x="200" y="119" width="18" height="77.85" />
<rect x="223" y="116.73" width="18" height="68.95" />
<rect x="246" y="136.17" width="18" height="38.18" />
<rect x="269" y="117.73" width="18" height="53.36" />
<rect x="292" y="708.61" width="18" height="0" />
<rect x="315" y="120.33" width="18" height="27.65" />
<rect x="338" y="98.86" width="18" height="70.1" />
<rect x="361" y="95.93" width="18" height="66.31" />
<rect x="384" y="83.73" width="18" height="86.38" />
<rect x="407" y="100.43" width="18" height="44.32" />
<rect x="430" y="89.25" width="18" height="47.05" />
<rect x="453" y="708.61" width="18" height="0" />
<rect x="476" y="2.91" width="18" height="94.41" />
</g>
<g style="fill: black; stroke: black;">
<line x1="67" y1="242.37" x2="75.5" y2="242.37" />
<line x1="67" y1="171.21" x2="75.5" y2="171.21" />
<line x1="67" y1="151.24" x2="75.5" y2="151.24" />
<rect x="71" y="151.24" width="1" height="5" />
</g>
<g style="fill: black; stroke: black;">
<rect x="63" y="200.83" width="16" height="1" />
</g>
<g style="fill: black; stroke: black;">
<line x1="90" y1="223.77" x2="98.5" y2="223.77" />
<line x1="90" y1="171.02" x2="98.5" y2="171.02" />
</g>
<g style="fill: black; stroke: black;">
<rect x="86" y="195.27" width="16" height="1" />
</g>
<g style="fill: black; stroke: black;">
<line x1="113" y1="222.02" x2="121.5" y2="222.02" />
<line x1="113" y1="176.5" x2="121.5" y2="176.5" />
<line x1="113" y1="163.11" x2="121.5" y2="163.11" />
<rect x="117" y="163.11" width="1" height="5" />
</g>
<g style="fill: black; stroke: black;">
<rect x="109" y="191.42" width="16" height="1" />
</g>
<g style="fill: black; stroke: black;">
<line x1="136" y1="252.7" x2="144.5" y2="252.7" />
<line x1="136" y1="144.63" x2="144.5" y2="144.63" />
</g>
<g style="fill: black; stroke: black;">
<rect x="132" y="188.29" width="16" height="1" />
</g>
<g style="fill: black; stroke: black;">
<line x1="159" y1="224.33" x2="167.5" y2="224.33" />
<line x1="159" y1="159.42" x2="167.5" y2="159.42" />
<line x1="159" y1="93.6" x2="167.5" y2="93.6" />
<rect x="163" y="93.6" width="1" height="5" />
</g>
<g style="fill: black; stroke: black;">
<rect x="155" y="189.4" width="16" height="1" />
</g>
<g style="fill: black; stroke: black;">
<line x1="182" y1="708.61" x2="190.5" y2="708.61" />
<line x1="182" y1="708.61" x2="190.5" y2="708.61" />
</g>
<g style="fill: black; stroke: black;">
<rect x="178" y="707.61" width="16" height="1" />
</g>
<g style="fill: black; stroke: black;">
<line x1="205" y1="264" x2="213.5" y2="264" />
<line x1="205" y1="95.57" x2="213.5" y2="95.57" />
</g>
<g style="fill: black; stroke: black;">
<rect x="201" y="153.16" width="16" height="1" />
</g>
<g style="fill: black; stroke: black;">
<line x1="228" y1="251.14" x2="236.5" y2="251.14" />
<line x1="228" y1="96.8" x2="236.5" y2="96.8" />
</g>
<g style="fill: black; stroke: black;">
<rect x="224" y="134.65" width="16" height="1" />
</g>
<g style="fill: black; stroke: black;">
<line x1="251" y1="238.27" x2="259.5" y2="238.27" />
<line x1="251" y1="110.54" x2="259.5" y2="110.54" />
<line x1="251" y1="96.23" x2="259.5" y2="96.23" />
<rect x="255" y="96.23" width="1" height="5" />
</g>
<g style="fill: black; stroke: black;">
<rect x="247" y="142.29" width="16" height="1" />
</g>
<g style="fill: black; stroke: black;">
<line x1="274" y1="191.85" x2="282.5" y2="191.85" />
<line x1="274" y1="88.65" x2="282.5" y2="88.65" />
<line x1="274" y1="86.9" x2="282.5" y2="86.9" />
<rect x="278" y="86.9" width="1" height="5" />
</g>
<g style="fill: black; stroke: black;">
<rect x="270" y="135.79" width="16" height="1" />
</g>
<g style="fill: black; stroke: black;">
<line x1="297" y1="708.61" x2="305.5" y2="708.61" />
<line x1="297" y1="708.61" x2="305.5" y2="708.61" />
</g>
<g style="fill: black; stroke: black;">
<rect x="293" y="707.61" width="16" height="1" />
</g>
<g style="fill: black; stroke: black;">
<line x1="320" y1="190.37" x2="328.5" y2="190.37" />
<line x1="320" y1="98.35" x2="328.5" y2="98.35" />
<line x1="320" y1="66.45" x2="328.5" y2="66.45" />
<rect x="324" y="66.45" width="1" height="5" />
</g>
<g style="fill: black; stroke: black;">
<rect x="316" y="138.43" width="16" height="1" />
</g>
<g style="fill: black; stroke: black;">
<line x1="343" y1="210.12" x2="351.5" y2="210.12" />
<line x1="343" y1="72.02" x2="351.5" y2="72.02" />
</g>
<g style="fill: black; stroke: black;">
<rect x="339" y="130.93" width="16" height="1" />
</g>
<g style="fill: black; stroke: black;">
<line x1="366" y1="234.48" x2="374.5" y2="234.48" />
<line x1="366" y1="64.95" x2="374.5" y2="64.95" />
<line x1="366" y1="24.89" x2="374.5" y2="24.89" />
<rect x="370" y="24.89" width="1" height="5" />
</g>
<g style="fill: black; stroke: black;">
<rect x="362" y="128.05" width="16" height="1" />
</g>
<g style="fill: black; stroke: black;">
<line x1="389" y1="234.47" x2="397.5" y2="234.47" />
<line x1="389" y1="50.9" x2="397.5" y2="50.9" />
<line x1="389" y1="45.75" x2="397.5" y2="45.75" />
<rect x="393" y="45.75" width="1" height="5" />
</g>
<g style="fill: black; stroke: black;">
<rect x="385" y="132.2" width="16" height="1" />
</g>
<g style="fill: black; stroke: black;">
<line x1="412" y1="159.51" x2="420.5" y2="159.51" />
<line x1="412" y1="86.97" x2="420.5" y2="86.97" />
</g>
<g style="fill: black; stroke: black;">
<rect x="408" y="117.22" width="16" height="1" />
</g>
<g style="fill: black; stroke: black;">
<line x1="435" y1="178.15" x2="443.5" y2="178.15" />
<line x1="435" y1="61.41" x2="443.5" y2="61.41" />
<line x1="435" y1="29.86" x2="443.5" y2="29.86" />
<rect x="439" y="29.86" width="1" height="5" />
</g>
<g style="fill: black; stroke: black;">
<rect x="431" y="115.74" width="16" height="1" />
</g>
<g style="fill: black; stroke: black;">
<line x1="458" y1="708.61" x2="466.5" y2="708.61" />
<line x1="458" y1="708.61" x2="466.5" y2="708.61" />
</g>
<g style="fill: black; stroke: black;">
<rect x="454" y="707.61" width="16" height="1" />
</g>
<g style="fill: black; stroke: black;">
<line x1="481" y1="159.87" x2="489.5" y2="159.87" />
<line x1="481" y1="-30.41" x2="489.5" y2="-30.41" />
<line x1="481" y1="-36.22" x2="489.5" y2="-36.22" />
<rect x="485" y="-36.22" width="1" height="5" />
</g>
<g style="fill: black; stroke: black;">
<rect x="477" y="68.22" width="16" height="1" />
</g>
<g style="text-anchor: end; font-family: Ubuntu,Verdana,sans-serif; font-size: 0.9em;" >
<text x="512" y="282" >01 Nov 2018 u64q</text>
<text x="58" y="282" style="text-anchor: start;" >benchmarks game</text>
</g>
<text x="16" y="144" transform="rotate(270,16,144)" style="text-anchor: middle; font-family: Ubuntu,Verdana,sans-serif; font-size: 0.9em;" >program CPU time / fastest CPU time</text>
<text x="285" y="18" style="text-anchor: middle; font-family: Ubuntu,Verdana,sans-serif; font-size: 1.2em;" >How many times slower?</text>
<g style="stroke: #333;">
<line x1="58" y1="24" x2="58" y2="264" />
<line x1="511" y1="24" x2="511" y2="264" />
<line x1="58" y1="264" x2="511" y2="264" />
</g>
</svg>

