<?xml version="1.0" encoding="UTF-8" standalone="no"?>
<!DOCTYPE svg PUBLIC "-//W3C//DTD SVG 1.1//EN" "http://www.w3.org/Graphics/SVG/1.1/DTD/svg11.dtd">
<svg xmlns="http://www.w3.org/2000/svg" version="1.1" xmlns:xlink="http://www.w3.org/1999/xlink" viewBox="0 0 512 288">

<!-- Copyright 2015 Isaac Gouy -->
<!-- http://benchmarksgame.alioth.debian.org/license.html -->

<g style="stroke: #ccc;" >
<line x1="51" y1="264" x2="511" y2="264" />
<line x1="51" y1="221.57" x2="511" y2="221.57" />
<line x1="51" y1="201.85" x2="511" y2="201.85" />
<line x1="51" y1="175.08" x2="511" y2="175.08" />
<line x1="51" y1="132.65" x2="511" y2="132.65" />
<line x1="51" y1="112.92" x2="511" y2="112.92" />
<line x1="51" y1="86.15" x2="511" y2="86.15" />
<line x1="51" y1="43.73" x2="511" y2="43.73" />
<line x1="51" y1="24" x2="511" y2="24" />
</g>
<g style="text-anchor: end; font-family: Ubuntu,Verdana,sans-serif; font-size: 0.9em;" >
<text x="51" y="262" >1</text>
<text x="51" y="219.57" >3</text>
<text x="51" y="199.85" >5</text>
<text x="51" y="173.08" >10</text>
<text x="51" y="130.65" >30</text>
<text x="51" y="110.92" >50</text>
<text x="51" y="84.15" >100</text>
<text x="51" y="41.73" >300</text>
<text x="51" y="22" ></text>
</g>
<defs>
<linearGradient id="grade" x1="0" y1="0" x2="0" y2="1">
<stop offset="0" style="stop-color: white" stop-opacity="0.6"/>
<stop offset="1" style="stop-color: white" stop-opacity="0.8"/>
</linearGradient>
<mask id="fade">
<rect x="58" y="24" width="452" height="288" fill="url(#grade)"  />
</mask>
<g id="backgroundText" style="text-anchor: end; font-family: Ubuntu,Verdana,sans-serif; font-size: 1em;">
<text x="17.5" y="0" transform="rotate(270,17.5,0)" xml:space="preserve">   C++ g++   C++ g++   C++ g++   C++ g++   C++ g++   C++ g++</text>
<text x="45.5" y="0" transform="rotate(270,45.5,0)" xml:space="preserve">   C gcc   C gcc   C gcc   C gcc   C gcc   C gcc   C gcc</text>
<text x="73.5" y="0" transform="rotate(270,73.5,0)" xml:space="preserve">Rust   Rust   Rust   Rust   Rust   Rust   Rust   Rust   Rust</text>
<br />
<b>Warning</b>:  Division by zero in <b>/home/dunham/8000-benchmarksgame/website/lib/lib_chartSVG.php</b> on line <b>289</b><br />
<br />
<b>Warning</b>:  str_repeat() expects parameter 2 to be int, float given in <b>/home/dunham/8000-benchmarksgame/website/lib/lib_chartSVG.php</b> on line <b>290</b><br />
<text x="101.5" y="0" transform="rotate(270,101.5,0)" xml:space="preserve"></text>
<text x="129.5" y="0" transform="rotate(270,129.5,0)" xml:space="preserve">da 2012 GNAT   Ada 2012 GNAT   Ada 2012 GNAT   Ada 2012 GNAT</text>
<text x="157.5" y="0" transform="rotate(270,157.5,0)" xml:space="preserve">ortran Intel   Fortran Intel   Fortran Intel   Fortran Intel</text>
<text x="185.5" y="0" transform="rotate(270,185.5,0)" xml:space="preserve">   C# .NET Core   C# .NET Core   C# .NET Core   C# .NET Core</text>
<text x="213.5" y="0" transform="rotate(270,213.5,0)" xml:space="preserve">   Free Pascal   Free Pascal   Free Pascal   Free Pascal</text>
<text x="241.5" y="0" transform="rotate(270,241.5,0)" xml:space="preserve">Java   Java   Java   Java   Java   Java   Java   Java   Java</text>
<text x="269.5" y="0" transform="rotate(270,269.5,0)" xml:space="preserve">   Julia   Julia   Julia   Julia   Julia   Julia   Julia</text>
<text x="297.5" y="0" transform="rotate(270,297.5,0)" xml:space="preserve">   Swift   Swift   Swift   Swift   Swift   Swift   Swift</text>
<text x="325.5" y="0" transform="rotate(270,325.5,0)" xml:space="preserve">   Chapel   Chapel   Chapel   Chapel   Chapel   Chapel</text>
<text x="353.5" y="0" transform="rotate(270,353.5,0)" xml:space="preserve">   F# .NET Core   F# .NET Core   F# .NET Core   F# .NET Core</text>
<text x="381.5" y="0" transform="rotate(270,381.5,0)" xml:space="preserve">   OCaml   OCaml   OCaml   OCaml   OCaml   OCaml   OCaml</text>
<text x="409.5" y="0" transform="rotate(270,409.5,0)" xml:space="preserve">   Lisp SBCL   Lisp SBCL   Lisp SBCL   Lisp SBCL   Lisp SBCL</text>
<text x="437.5" y="0" transform="rotate(270,437.5,0)" xml:space="preserve">   Go   Go   Go   Go   Go   Go   Go   Go   Go   Go   Go   Go</text>
</g>
</defs>
<use x="60" y="27" xlink:href="#backgroundText"/>
<rect x="58" y="24" width="452" height="288" fill="white" mask="url(#fade)" />
<rect x="58" y="264" width="452" height="288" style="fill: white; stroke: white;" />
<g style="fill: black; stroke: black;">
<rect x="72" y="250.35" width="1" height="13.65" />
<rect x="100" y="250.44" width="1" height="13.56" />
<rect x="128" y="251.29" width="1" height="12.71" />
<rect x="156" y="708.61" width="1" height="0" />
<rect x="184" y="215.76" width="1" height="48.16" />
<rect x="212" y="219.64" width="1" height="44.36" />
<rect x="240" y="212.45" width="1" height="40.69" />
<rect x="268" y="197.09" width="1" height="66.91" />
<rect x="296" y="209.64" width="1" height="43.99" />
<rect x="324" y="193.99" width="1" height="52.66" />
<rect x="352" y="188.41" width="1" height="72.1" />
<rect x="380" y="197.45" width="1" height="66.55" />
<rect x="408" y="188.86" width="1" height="54.62" />
<rect x="436" y="189.81" width="1" height="51.04" />
<rect x="464" y="198.65" width="1" height="38.56" />
<rect x="492" y="187.86" width="1" height="67.37" />
</g>
<g style="fill: white; stroke: black;">
<rect x="62" y="257.44" width="21" height="6.56" />
<rect x="90" y="257.4" width="21" height="5.9" />
<rect x="118" y="258.41" width="21" height="5.59" />
<rect x="146" y="708.61" width="21" height="0" />
<rect x="174" y="234.65" width="21" height="21.08" />
<rect x="202" y="237.31" width="21" height="18.89" />
<rect x="230" y="225.39" width="21" height="21.07" />
<rect x="258" y="218.13" width="21" height="25.46" />
<rect x="286" y="224.17" width="21" height="14.03" />
<rect x="314" y="215.11" width="21" height="25.66" />
<rect x="342" y="211.99" width="21" height="31.78" />
<rect x="370" y="207.82" width="21" height="29.56" />
<rect x="398" y="210.89" width="21" height="27.75" />
<rect x="426" y="210.73" width="21" height="25.19" />
<rect x="454" y="205.2" width="21" height="25.68" />
<rect x="482" y="211.71" width="21" height="32.58" />
</g>
<g style="fill: black; stroke: black;">
<line x1="68" y1="264" x2="77.5" y2="264" />
<line x1="68" y1="250.35" x2="77.5" y2="250.35" />
</g>
<g style="fill: black; stroke: black;">
<rect x="63" y="259.7" width="19" height="1" />
</g>
<g style="fill: black; stroke: black;">
<line x1="96" y1="264" x2="105.5" y2="264" />
<line x1="96" y1="250.44" x2="105.5" y2="250.44" />
</g>
<g style="fill: black; stroke: black;">
<rect x="91" y="259.58" width="19" height="1" />
</g>
<g style="fill: black; stroke: black;">
<line x1="124" y1="264" x2="133.5" y2="264" />
<line x1="124" y1="251.29" x2="133.5" y2="251.29" />
<line x1="124" y1="242.84" x2="133.5" y2="242.84" />
<rect x="128" y="242.84" width="1" height="5" />
</g>
<g style="fill: black; stroke: black;">
<rect x="119" y="260.96" width="19" height="1" />
</g>
<g style="fill: black; stroke: black;">
<line x1="152" y1="708.61" x2="161.5" y2="708.61" />
<line x1="152" y1="708.61" x2="161.5" y2="708.61" />
</g>
<g style="fill: black; stroke: black;">
<rect x="147" y="707.61" width="19" height="1" />
</g>
<g style="fill: black; stroke: black;">
<line x1="180" y1="263.92" x2="189.5" y2="263.92" />
<line x1="180" y1="215.76" x2="189.5" y2="215.76" />
<line x1="180" y1="213.29" x2="189.5" y2="213.29" />
<rect x="184" y="213.29" width="1" height="5" />
</g>
<g style="fill: black; stroke: black;">
<rect x="175" y="243.22" width="19" height="1" />
</g>
<g style="fill: black; stroke: black;">
<line x1="208" y1="264" x2="217.5" y2="264" />
<line x1="208" y1="219.64" x2="217.5" y2="219.64" />
<line x1="208" y1="181.4" x2="217.5" y2="181.4" />
<rect x="212" y="181.4" width="1" height="5" />
</g>
<g style="fill: black; stroke: black;">
<rect x="203" y="246.22" width="19" height="1" />
</g>
<g style="fill: black; stroke: black;">
<line x1="236" y1="253.14" x2="245.5" y2="253.14" />
<line x1="236" y1="212.45" x2="245.5" y2="212.45" />
</g>
<g style="fill: black; stroke: black;">
<rect x="231" y="234.98" width="19" height="1" />
</g>
<g style="fill: black; stroke: black;">
<line x1="264" y1="264" x2="273.5" y2="264" />
<line x1="264" y1="197.09" x2="273.5" y2="197.09" />
<line x1="264" y1="196.81" x2="273.5" y2="196.81" />
<rect x="268" y="196.81" width="1" height="5" />
</g>
<g style="fill: black; stroke: black;">
<rect x="259" y="220.79" width="19" height="1" />
</g>
<g style="fill: black; stroke: black;">
<line x1="292" y1="253.63" x2="301.5" y2="253.63" />
<line x1="292" y1="209.64" x2="301.5" y2="209.64" />
<line x1="292" y1="205.78" x2="301.5" y2="205.78" />
<rect x="296" y="205.78" width="1" height="5" />
</g>
<g style="fill: black; stroke: black;">
<rect x="287" y="228.34" width="19" height="1" />
</g>
<g style="fill: black; stroke: black;">
<line x1="320" y1="246.64" x2="329.5" y2="246.64" />
<line x1="320" y1="193.99" x2="329.5" y2="193.99" />
<line x1="320" y1="191.92" x2="329.5" y2="191.92" />
<rect x="324" y="191.92" width="1" height="5" />
</g>
<g style="fill: black; stroke: black;">
<rect x="315" y="234.03" width="19" height="1" />
</g>
<g style="fill: black; stroke: black;">
<line x1="348" y1="260.51" x2="357.5" y2="260.51" />
<line x1="348" y1="188.41" x2="357.5" y2="188.41" />
<line x1="348" y1="164.86" x2="357.5" y2="164.86" />
<rect x="352" y="164.86" width="1" height="5" />
</g>
<g style="fill: black; stroke: black;">
<rect x="343" y="236.11" width="19" height="1" />
</g>
<g style="fill: black; stroke: black;">
<line x1="376" y1="264" x2="385.5" y2="264" />
<line x1="376" y1="197.45" x2="385.5" y2="197.45" />
</g>
<g style="fill: black; stroke: black;">
<rect x="371" y="218.88" width="19" height="1" />
</g>
<g style="fill: black; stroke: black;">
<line x1="404" y1="243.49" x2="413.5" y2="243.49" />
<line x1="404" y1="188.86" x2="413.5" y2="188.86" />
<line x1="404" y1="153.84" x2="413.5" y2="153.84" />
<rect x="408" y="153.84" width="1" height="5" />
</g>
<g style="fill: black; stroke: black;">
<rect x="399" y="230.58" width="19" height="1" />
</g>
<g style="fill: black; stroke: black;">
<line x1="432" y1="240.85" x2="441.5" y2="240.85" />
<line x1="432" y1="189.81" x2="441.5" y2="189.81" />
<line x1="432" y1="178.32" x2="441.5" y2="178.32" />
<rect x="436" y="178.32" width="1" height="5" />
</g>
<g style="fill: black; stroke: black;">
<rect x="427" y="223.08" width="19" height="1" />
</g>
<g style="fill: black; stroke: black;">
<line x1="460" y1="237.21" x2="469.5" y2="237.21" />
<line x1="460" y1="198.65" x2="469.5" y2="198.65" />
</g>
<g style="fill: black; stroke: black;">
<rect x="455" y="218.6" width="19" height="1" />
</g>
<g style="fill: black; stroke: black;">
<line x1="488" y1="255.22" x2="497.5" y2="255.22" />
<line x1="488" y1="187.86" x2="497.5" y2="187.86" />
<line x1="488" y1="148.55" x2="497.5" y2="148.55" />
<rect x="492" y="148.55" width="1" height="5" />
</g>
<g style="fill: black; stroke: black;">
<rect x="483" y="216.52" width="19" height="1" />
</g>
<g style="text-anchor: end; font-family: Ubuntu,Verdana,sans-serif; font-size: 0.9em;" >
<text x="512" y="282" >24 Sep 2019 u64q</text>
<text x="58" y="282" style="text-anchor: start;" >benchmarks game</text>
</g>
<text x="16" y="144" transform="rotate(270,16,144)" style="text-anchor: middle; font-family: Ubuntu,Verdana,sans-serif; font-size: 0.9em;" >program busy time / least busy</text>
<text x="285" y="18" style="text-anchor: middle; font-family: Ubuntu,Verdana,sans-serif; font-size: 1.2em;" >How many times slower?</text>
<g style="stroke: #333;">
<line x1="58" y1="24" x2="58" y2="264" />
<line x1="511" y1="24" x2="511" y2="264" />
<line x1="58" y1="264" x2="511" y2="264" />
</g>
</svg>

