<?xml version="1.0" encoding="UTF-8" standalone="no"?>
<!DOCTYPE svg PUBLIC "-//W3C//DTD SVG 1.1//EN" "http://www.w3.org/Graphics/SVG/1.1/DTD/svg11.dtd">
<svg xmlns="http://www.w3.org/2000/svg" version="1.1" xmlns:xlink="http://www.w3.org/1999/xlink" viewBox="0 0 512 288">

<!-- Copyright 2015-2020 Isaac Gouy -->
<!-- https://salsa.debian.org/benchmarksgame-team/benchmarksgame/blob/master/LICENSE.md -->

<g style="stroke: #ccc;" >
<line x1="51" y1="264" x2="511" y2="264" />
<line x1="51" y1="221.57" x2="511" y2="221.57" />
<line x1="51" y1="201.85" x2="511" y2="201.85" />
<line x1="51" y1="175.08" x2="511" y2="175.08" />
<line x1="51" y1="132.65" x2="511" y2="132.65" />
<line x1="51" y1="112.92" x2="511" y2="112.92" />
<line x1="51" y1="86.15" x2="511" y2="86.15" />
<line x1="51" y1="43.73" x2="511" y2="43.73" />
<line x1="51" y1="24" x2="511" y2="24" />
</g>
<g style="text-anchor: end; font-family: Ubuntu,Verdana,sans-serif; font-size: 0.9em;" >
<text x="51" y="262" >1</text>
<text x="51" y="219.57" >3</text>
<text x="51" y="199.85" >5</text>
<text x="51" y="173.08" >10</text>
<text x="51" y="130.65" >30</text>
<text x="51" y="110.92" >50</text>
<text x="51" y="84.15" >100</text>
<text x="51" y="41.73" >300</text>
<text x="51" y="22" ></text>
</g>
<defs>
<linearGradient id="grade" x1="0" y1="0" x2="0" y2="1">
<stop offset="0" style="stop-color: white" stop-opacity="0.6"/>
<stop offset="1" style="stop-color: white" stop-opacity="0.8"/>
</linearGradient>
<mask id="fade">
<rect x="58" y="24" width="452" height="288" fill="url(#grade)"  />
</mask>
<g id="backgroundText" style="text-anchor: end; font-family: Ubuntu,Verdana,sans-serif; font-size: 1em;">
<text x="17" y="0" transform="rotate(270,17,0)" xml:space="preserve">   Swift   Swift   Swift   Swift   Swift</text>
<text x="45" y="0" transform="rotate(270,45,0)" xml:space="preserve">   Node js   Node js   Node js   Node js</text>
<text x="73" y="0" transform="rotate(270,73,0)" xml:space="preserve">                                                            </text>
<text x="101" y="0" transform="rotate(270,101,0)" xml:space="preserve">   Racket   Racket   Racket   Racket   Racket</text>
<text x="129" y="0" transform="rotate(270,129,0)" xml:space="preserve">   Dart   Dart   Dart   Dart   Dart   Dart</text>
<text x="157" y="0" transform="rotate(270,157,0)" xml:space="preserve">                                                            </text>
<text x="185" y="0" transform="rotate(270,185,0)" xml:space="preserve">   PHP   PHP   PHP   PHP   PHP   PHP   PHP   PHP</text>
<text x="213" y="0" transform="rotate(270,213,0)" xml:space="preserve">   Ruby   Ruby   Ruby   Ruby   Ruby   Ruby</text>
<text x="241" y="0" transform="rotate(270,241,0)" xml:space="preserve">   Erlang HiPE   Erlang HiPE   Erlang HiPE</text>
<text x="269" y="0" transform="rotate(270,269,0)" xml:space="preserve">   VW Smalltalk   VW Smalltalk   VW Smalltalk</text>
<text x="297" y="0" transform="rotate(270,297,0)" xml:space="preserve">   Python 3   Python 3   Python 3   Python 3</text>
<text x="325" y="0" transform="rotate(270,325,0)" xml:space="preserve">   Lua   Lua   Lua   Lua   Lua   Lua   Lua   Lua</text>
<text x="353" y="0" transform="rotate(270,353,0)" xml:space="preserve">   Perl   Perl   Perl   Perl   Perl   Perl</text>
<text x="381" y="0" transform="rotate(270,381,0)" xml:space="preserve">                                                            </text>
<text x="409" y="0" transform="rotate(270,409,0)" xml:space="preserve">   Matz's Ruby   Matz's Ruby   Matz's Ruby</text>
</g>
</defs>
<use x="60" y="27" xlink:href="#backgroundText"/>
<rect x="58" y="24" width="452" height="288" fill="white" mask="url(#fade)" />
<rect x="58" y="264" width="452" height="288" style="fill: white; stroke: white;" />
<g style="fill: black; stroke: black;">
<rect x="72" y="158.35" width="1" height="102.63" />
<rect x="100" y="191.81" width="1" height="53.17" />
<rect x="128" y="708.61" width="1" height="0" />
<rect x="156" y="153.54" width="1" height="97.84" />
<rect x="184" y="160.67" width="1" height="73.23" />
<rect x="212" y="708.61" width="1" height="0" />
<rect x="240" y="100.65" width="1" height="153.5" />
<rect x="268" y="106.47" width="1" height="114.08" />
<rect x="296" y="100.12" width="1" height="127.99" />
<rect x="324" y="87.92" width="1" height="96.83" />
<rect x="352" y="64.34" width="1" height="184.87" />
<rect x="380" y="97.91" width="1" height="67.28" />
<rect x="408" y="68.44" width="1" height="129.57" />
<rect x="436" y="708.61" width="1" height="0" />
<rect x="464" y="7.03" width="1" height="135.48" />
</g>
<g style="fill: white; stroke: black;">
<rect x="62" y="188.33" width="22" height="58.88" />
<rect x="90" y="204.6" width="22" height="17.28" />
<rect x="118" y="708.61" width="22" height="0" />
<rect x="146" y="169.45" width="22" height="52.14" />
<rect x="174" y="183.91" width="22" height="30.86" />
<rect x="202" y="708.61" width="22" height="0" />
<rect x="230" y="128.26" width="22" height="45.98" />
<rect x="258" y="131.43" width="22" height="35.93" />
<rect x="286" y="127.5" width="22" height="44.96" />
<rect x="314" y="117.41" width="22" height="55.78" />
<rect x="342" y="92.29" width="22" height="86.63" />
<rect x="370" y="116.69" width="22" height="34.9" />
<rect x="398" y="98.33" width="22" height="58.29" />
<rect x="426" y="708.61" width="22" height="0" />
<rect x="454" y="22.5" width="22" height="62.12" />
</g>
<g style="fill: black; stroke: black;">
<line x1="68.5" y1="260.98" x2="78" y2="260.98" />
<line x1="68.5" y1="158.35" x2="78" y2="158.35" />
<line x1="68.5" y1="139.27" x2="78" y2="139.27" />
<rect x="72" y="139.27" width="1" height="5" />
</g>
<g style="fill: black; stroke: black;">
<rect x="63" y="231.65" width="20" height="1" />
</g>
<g style="fill: black; stroke: black;">
<line x1="96.5" y1="244.98" x2="106" y2="244.98" />
<line x1="96.5" y1="191.81" x2="106" y2="191.81" />
</g>
<g style="fill: black; stroke: black;">
<rect x="91" y="209.2" width="20" height="1" />
</g>
<g style="fill: black; stroke: black;">
<line x1="124.5" y1="708.61" x2="134" y2="708.61" />
<line x1="124.5" y1="708.61" x2="134" y2="708.61" />
</g>
<g style="fill: black; stroke: black;">
<rect x="119" y="707.61" width="20" height="1" />
</g>
<g style="fill: black; stroke: black;">
<line x1="152.5" y1="251.38" x2="162" y2="251.38" />
<line x1="152.5" y1="153.54" x2="162" y2="153.54" />
</g>
<g style="fill: black; stroke: black;">
<rect x="147" y="177.48" width="20" height="1" />
</g>
<g style="fill: black; stroke: black;">
<line x1="180.5" y1="233.9" x2="190" y2="233.9" />
<line x1="180.5" y1="160.67" x2="190" y2="160.67" />
<line x1="180.5" y1="70.18" x2="190" y2="70.18" />
<rect x="184" y="70.18" width="1" height="5" />
</g>
<g style="fill: black; stroke: black;">
<rect x="175" y="202.87" width="20" height="1" />
</g>
<g style="fill: black; stroke: black;">
<line x1="208.5" y1="708.61" x2="218" y2="708.61" />
<line x1="208.5" y1="708.61" x2="218" y2="708.61" />
</g>
<g style="fill: black; stroke: black;">
<rect x="203" y="707.61" width="20" height="1" />
</g>
<g style="fill: black; stroke: black;">
<line x1="236.5" y1="254.15" x2="246" y2="254.15" />
<line x1="236.5" y1="100.65" x2="246" y2="100.65" />
<line x1="236.5" y1="100.01" x2="246" y2="100.01" />
<rect x="240" y="100.01" width="1" height="5" />
</g>
<g style="fill: black; stroke: black;">
<rect x="231" y="155.1" width="20" height="1" />
</g>
<g style="fill: black; stroke: black;">
<line x1="264.5" y1="220.55" x2="274" y2="220.55" />
<line x1="264.5" y1="106.47" x2="274" y2="106.47" />
<line x1="264.5" y1="101.85" x2="274" y2="101.85" />
<rect x="268" y="101.85" width="1" height="5" />
</g>
<g style="fill: black; stroke: black;">
<rect x="259" y="151.63" width="20" height="1" />
</g>
<g style="fill: black; stroke: black;">
<line x1="292.5" y1="228.12" x2="302" y2="228.12" />
<line x1="292.5" y1="100.12" x2="302" y2="100.12" />
<line x1="292.5" y1="98.13" x2="302" y2="98.13" />
<rect x="296" y="98.13" width="1" height="5" />
</g>
<g style="fill: black; stroke: black;">
<rect x="287" y="142.88" width="20" height="1" />
</g>
<g style="fill: black; stroke: black;">
<line x1="320.5" y1="184.75" x2="330" y2="184.75" />
<line x1="320.5" y1="87.92" x2="330" y2="87.92" />
<line x1="320.5" y1="87.26" x2="330" y2="87.26" />
<rect x="324" y="87.26" width="1" height="5" />
</g>
<g style="fill: black; stroke: black;">
<rect x="315" y="145.28" width="20" height="1" />
</g>
<g style="fill: black; stroke: black;">
<line x1="348.5" y1="249.21" x2="358" y2="249.21" />
<line x1="348.5" y1="64.34" x2="358" y2="64.34" />
</g>
<g style="fill: black; stroke: black;">
<rect x="343" y="136.19" width="20" height="1" />
</g>
<g style="fill: black; stroke: black;">
<line x1="376.5" y1="165.19" x2="386" y2="165.19" />
<line x1="376.5" y1="97.91" x2="386" y2="97.91" />
</g>
<g style="fill: black; stroke: black;">
<rect x="371" y="129.56" width="20" height="1" />
</g>
<g style="fill: black; stroke: black;">
<line x1="404.5" y1="198.01" x2="414" y2="198.01" />
<line x1="404.5" y1="68.44" x2="414" y2="68.44" />
<line x1="404.5" y1="25.47" x2="414" y2="25.47" />
<rect x="408" y="25.47" width="1" height="5" />
</g>
<g style="fill: black; stroke: black;">
<rect x="399" y="136.63" width="20" height="1" />
</g>
<g style="fill: black; stroke: black;">
<line x1="432.5" y1="708.61" x2="442" y2="708.61" />
<line x1="432.5" y1="708.61" x2="442" y2="708.61" />
</g>
<g style="fill: black; stroke: black;">
<rect x="427" y="707.61" width="20" height="1" />
</g>
<g style="fill: black; stroke: black;">
<line x1="460.5" y1="142.5" x2="470" y2="142.5" />
<line x1="460.5" y1="7.03" x2="470" y2="7.03" />
</g>
<g style="fill: black; stroke: black;">
<rect x="455" y="71.85" width="20" height="1" />
</g>
<g style="text-anchor: end; font-family: Ubuntu,Verdana,sans-serif; font-size: 0.9em;" >
<text x="512" y="282" >01 Jul 2020 Q6600</text>
<text x="58" y="282" style="text-anchor: start;" >benchmarks game</text>
</g>
<text x="16" y="144" transform="rotate(270,16,144)" style="text-anchor: middle; font-family: Ubuntu,Verdana,sans-serif; font-size: 0.9em;" >program busy time / least busy</text>
<text x="285" y="18" style="text-anchor: middle; font-family: Ubuntu,Verdana,sans-serif; font-size: 1.2em;" >How many times slower?</text>
<g style="stroke: #333;">
<line x1="58" y1="24" x2="58" y2="264" />
<line x1="511" y1="24" x2="511" y2="264" />
<line x1="58" y1="264" x2="511" y2="264" />
</g>
</svg>

