<?xml version="1.0" encoding="UTF-8" standalone="no"?>
<!DOCTYPE svg PUBLIC "-//W3C//DTD SVG 1.1//EN" "http://www.w3.org/Graphics/SVG/1.1/DTD/svg11.dtd">
<svg xmlns="http://www.w3.org/2000/svg" version="1.1" xmlns:xlink="http://www.w3.org/1999/xlink" viewBox="0 0 512 288">

<!-- Copyright 2015-2021 Isaac Gouy -->
<!-- https://salsa.debian.org/benchmarksgame-team/benchmarksgame/blob/master/LICENSE.md -->

<g style="stroke: #ccc;" >
<line x1="51" y1="264" x2="461" y2="264" />
<line x1="51" y1="221.57" x2="461" y2="221.57" />
<line x1="51" y1="201.85" x2="461" y2="201.85" />
<line x1="51" y1="175.08" x2="461" y2="175.08" />
<line x1="51" y1="132.65" x2="461" y2="132.65" />
<line x1="51" y1="112.92" x2="461" y2="112.92" />
<line x1="51" y1="86.15" x2="461" y2="86.15" />
<line x1="51" y1="43.73" x2="461" y2="43.73" />
<line x1="51" y1="24" x2="461" y2="24" />
</g>
<g style="text-anchor: end; font-family: Ubuntu,Verdana,sans-serif; font-size: 0.9em;" >
<text x="51" y="262" >1</text>
<text x="51" y="219.57" >3</text>
<text x="51" y="199.85" >5</text>
<text x="51" y="173.08" >10</text>
<text x="51" y="130.65" >30</text>
</g>
<defs>
<linearGradient id="grade" x1="0" y1="0" x2="0" y2="1">
<stop offset="0" style="stop-color: white" stop-opacity="0.6"/>
<stop offset="1" style="stop-color: white" stop-opacity="0.8"/>
</linearGradient>
<mask id="fade">
<rect x="58" y="24" width="452" height="288" fill="url(#grade)"  />
</mask>
<g id="backgroundText" style="text-anchor: end; font-family: Ubuntu,Verdana,sans-serif; font-size: 1em;">
<text x="16" y="0" transform="rotate(270,16,0)" xml:space="preserve">   C++ g++   C++ g++   C++ g++   C++ g++</text>
<text x="43" y="0" transform="rotate(270,43,0)" xml:space="preserve">   C gcc   C gcc   C gcc   C gcc   C gcc</text>
<text x="70" y="0" transform="rotate(270,70,0)" xml:space="preserve">   Rust   Rust   Rust   Rust   Rust   Rust</text>
<text x="97" y="0" transform="rotate(270,97,0)" xml:space="preserve">   Intel Fortran   Intel Fortran   Intel Fortran</text>
<text x="124" y="0" transform="rotate(270,124,0)" xml:space="preserve">   Julia   Julia   Julia   Julia   Julia</text>
<text x="151" y="0" transform="rotate(270,151,0)" xml:space="preserve">   C# .NET   C# .NET   C# .NET   C# .NET</text>
<text x="178" y="0" transform="rotate(270,178,0)" xml:space="preserve">   Ada 2012 GNAT   Ada 2012 GNAT   Ada 2012 GNAT</text>
<text x="205" y="0" transform="rotate(270,205,0)" xml:space="preserve">   Haskell GHC   Haskell GHC   Haskell GHC</text>
<text x="232" y="0" transform="rotate(270,232,0)" xml:space="preserve">   Free Pascal   Free Pascal   Free Pascal</text>
<text x="259" y="0" transform="rotate(270,259,0)" xml:space="preserve">   F# .NET   F# .NET   F# .NET   F# .NET</text>
<text x="286" y="0" transform="rotate(270,286,0)" xml:space="preserve">   Java   Java   Java   Java   Java   Java</text>
<text x="313" y="0" transform="rotate(270,313,0)" xml:space="preserve">   OCaml   OCaml   OCaml   OCaml   OCaml</text>
<text x="340" y="0" transform="rotate(270,340,0)" xml:space="preserve">   Go   Go   Go   Go   Go   Go   Go   Go   Go   Go</text>
<text x="367" y="0" transform="rotate(270,367,0)" xml:space="preserve">   Chapel   Chapel   Chapel   Chapel   Chapel</text>
<text x="394" y="0" transform="rotate(270,394,0)" xml:space="preserve">   Lisp SBCL   Lisp SBCL   Lisp SBCL</text>
</g>
</defs>
<use x="60" y="27" xlink:href="#backgroundText"/>
<rect x="58" y="24" width="452" height="288" fill="white" mask="url(#fade)" />
<rect x="58" y="264" width="452" height="288" style="fill: white; stroke: white;" />
<g style="fill: black; stroke: black;">
<rect x="72" y="236.46" width="1" height="27.54" />
<rect x="99" y="232.41" width="1" height="31.59" />
<rect x="126" y="232.46" width="1" height="31.54" />
<rect x="153" y="210.76" width="1" height="51.91" />
<rect x="180" y="217.62" width="1" height="32.89" />
<rect x="207" y="189.72" width="1" height="63.43" />
<rect x="234" y="186.11" width="1" height="76.61" />
<rect x="261" y="184.79" width="1" height="73.1" />
<rect x="288" y="188.31" width="1" height="74.51" />
<rect x="315" y="186.88" width="1" height="71.01" />
<rect x="342" y="182.89" width="1" height="69.65" />
<rect x="369" y="180.85" width="1" height="74.67" />
<rect x="396" y="188.29" width="1" height="62.28" />
<rect x="423" y="188.75" width="1" height="71.63" />
<rect x="450" y="182.95" width="1" height="56.15" />
</g>
<g style="fill: white; stroke: black;">
<rect x="62" y="240.88" width="22" height="23.12" />
<rect x="89" y="247.15" width="22" height="16.85" />
<rect x="116" y="241.04" width="22" height="22.02" />
<rect x="143" y="226.92" width="22" height="16.42" />
<rect x="170" y="230.55" width="22" height="11.9" />
<rect x="197" y="208.96" width="22" height="31.07" />
<rect x="224" y="205.83" width="22" height="26.18" />
<rect x="251" y="208.55" width="22" height="32.3" />
<rect x="278" y="196.92" width="22" height="38.92" />
<rect x="305" y="206.03" width="22" height="21.56" />
<rect x="332" y="202.56" width="22" height="22.57" />
<rect x="359" y="194.14" width="22" height="30.86" />
<rect x="386" y="205.07" width="22" height="17.4" />
<rect x="413" y="191.2" width="22" height="32.21" />
<rect x="440" y="202.39" width="22" height="22.13" />
</g>
<g style="fill: black; stroke: black;">
<line x1="68.5" y1="264" x2="78" y2="264" />
<line x1="68.5" y1="236.46" x2="78" y2="236.46" />
</g>
<g style="fill: black; stroke: black;">
<rect x="63" y="263" width="20" height="1" />
</g>
<g style="fill: black; stroke: black;">
<line x1="95.5" y1="264" x2="105" y2="264" />
<line x1="95.5" y1="232.41" x2="105" y2="232.41" />
</g>
<g style="fill: black; stroke: black;">
<rect x="90" y="259.93" width="20" height="1" />
</g>
<g style="fill: black; stroke: black;">
<line x1="122.5" y1="264" x2="132" y2="264" />
<line x1="122.5" y1="232.46" x2="132" y2="232.46" />
</g>
<g style="fill: black; stroke: black;">
<rect x="117" y="247.9" width="20" height="1" />
</g>
<g style="fill: black; stroke: black;">
<line x1="149.5" y1="262.67" x2="159" y2="262.67" />
<line x1="149.5" y1="210.76" x2="159" y2="210.76" />
<line x1="149.5" y1="186.88" x2="159" y2="186.88" />
<rect x="153" y="186.88" width="1" height="5" />
</g>
<g style="fill: black; stroke: black;">
<rect x="144" y="236.93" width="20" height="1" />
</g>
<g style="fill: black; stroke: black;">
<line x1="176.5" y1="250.51" x2="186" y2="250.51" />
<line x1="176.5" y1="217.62" x2="186" y2="217.62" />
<line x1="176.5" y1="192.59" x2="186" y2="192.59" />
<rect x="180" y="192.59" width="1" height="5" />
</g>
<g style="fill: black; stroke: black;">
<rect x="171" y="237.12" width="20" height="1" />
</g>
<g style="fill: black; stroke: black;">
<line x1="203.5" y1="253.15" x2="213" y2="253.15" />
<line x1="203.5" y1="189.72" x2="213" y2="189.72" />
</g>
<g style="fill: black; stroke: black;">
<rect x="198" y="229.43" width="20" height="1" />
</g>
<g style="fill: black; stroke: black;">
<line x1="230.5" y1="262.72" x2="240" y2="262.72" />
<line x1="230.5" y1="186.11" x2="240" y2="186.11" />
</g>
<g style="fill: black; stroke: black;">
<rect x="225" y="222.58" width="20" height="1" />
</g>
<g style="fill: black; stroke: black;">
<line x1="257.5" y1="257.89" x2="267" y2="257.89" />
<line x1="257.5" y1="184.79" x2="267" y2="184.79" />
<line x1="257.5" y1="160.89" x2="267" y2="160.89" />
<rect x="261" y="160.89" width="1" height="5" />
</g>
<g style="fill: black; stroke: black;">
<rect x="252" y="220.58" width="20" height="1" />
</g>
<g style="fill: black; stroke: black;">
<line x1="284.5" y1="262.83" x2="294" y2="262.83" />
<line x1="284.5" y1="188.31" x2="294" y2="188.31" />
</g>
<g style="fill: black; stroke: black;">
<rect x="279" y="215.33" width="20" height="1" />
</g>
<g style="fill: black; stroke: black;">
<line x1="311.5" y1="257.89" x2="321" y2="257.89" />
<line x1="311.5" y1="186.88" x2="321" y2="186.88" />
<line x1="311.5" y1="185.78" x2="321" y2="185.78" />
<rect x="315" y="185.78" width="1" height="5" />
</g>
<g style="fill: black; stroke: black;">
<rect x="306" y="213.54" width="20" height="1" />
</g>
<g style="fill: black; stroke: black;">
<line x1="338.5" y1="252.54" x2="348" y2="252.54" />
<line x1="338.5" y1="182.89" x2="348" y2="182.89" />
<line x1="338.5" y1="176.66" x2="348" y2="176.66" />
<rect x="342" y="176.66" width="1" height="5" />
</g>
<g style="fill: black; stroke: black;">
<rect x="333" y="213.88" width="20" height="1" />
</g>
<g style="fill: black; stroke: black;">
<line x1="365.5" y1="255.51" x2="375" y2="255.51" />
<line x1="365.5" y1="180.85" x2="375" y2="180.85" />
</g>
<g style="fill: black; stroke: black;">
<rect x="360" y="217.5" width="20" height="1" />
</g>
<g style="fill: black; stroke: black;">
<line x1="392.5" y1="250.57" x2="402" y2="250.57" />
<line x1="392.5" y1="188.29" x2="402" y2="188.29" />
<line x1="392.5" y1="175.46" x2="402" y2="175.46" />
<rect x="396" y="175.46" width="1" height="5" />
</g>
<g style="fill: black; stroke: black;">
<rect x="387" y="215.87" width="20" height="1" />
</g>
<g style="fill: black; stroke: black;">
<line x1="419.5" y1="260.38" x2="429" y2="260.38" />
<line x1="419.5" y1="188.75" x2="429" y2="188.75" />
</g>
<g style="fill: black; stroke: black;">
<rect x="414" y="210.65" width="20" height="1" />
</g>
<g style="fill: black; stroke: black;">
<line x1="446.5" y1="239.1" x2="456" y2="239.1" />
<line x1="446.5" y1="182.95" x2="456" y2="182.95" />
<line x1="446.5" y1="153.54" x2="456" y2="153.54" />
<rect x="450" y="153.54" width="1" height="5" />
</g>
<g style="fill: black; stroke: black;">
<rect x="441" y="213.53" width="20" height="1" />
</g>

<g style="fill: white; stroke: black;">
<rect x="62" y="73" width="22" height="5" />
<rect x="89" y="78" width="22" height="6" />
<rect x="116" y="54" width="22" height="24" />
<rect x="143" y="78" width="22" height="6" />
<rect x="170" y="41" width="22" height="37" />
<rect x="197" y="67" width="22" height="11" />
<rect x="224" y="78" width="22" height="10" />
<rect x="251" y="75" width="22" height="4" />
<rect x="278" y="76" width="22" height="3" />
<rect x="305" y="66" width="22" height="12" />
<rect x="332" y="78" width="22" height="7" />
<rect x="359" y="78" width="22" height="5" />
<rect x="386" y="67" width="22" height="11" />
<rect x="413" y="78" width="22" height="0" />
<rect x="440" y="78" width="22" height="2" />
</g>
<g style="text-anchor: end; font-family: Ubuntu,Verdana,sans-serif; font-size: 0.9em;" >
<text x="462" y="282" >01 Jun 2021 u64q</text>
<text x="58" y="282" style="text-anchor: start;" >benchmarks game</text>
</g>
<text x="16" y="144" transform="rotate(270,16,144)" style="text-anchor: middle; font-family: Ubuntu,Verdana,sans-serif; font-size: 0.9em;" >program busy time / least busy</text>
<text x="259.5" y="18" style="text-anchor: middle; font-family: Ubuntu,Verdana,sans-serif; font-size: 1.2em;" >How many times slower?</text>
<text x="16" y="636" transform="rotate(270,16,144)" style="text-anchor: middle; font-family: Ubuntu,Verdana,sans-serif; font-size: 0.9em;" >2018:2020 programs contributed + -</text>
<g style="text-anchor: end; font-family: Ubuntu,Verdana,sans-serif; font-size: 0.9em;" >
<text x="488" y="76" >ave</text>
<text x="488" y="36" >+40</text>
</g>
<g style="stroke: #333;">
<line x1="58" y1="24" x2="58" y2="264" />
<line x1="461" y1="24" x2="461" y2="264" />
<line x1="58" y1="264" x2="461" y2="264" />
</g>
</svg>

