<?xml version="1.0" encoding="UTF-8" standalone="no"?>
<!DOCTYPE svg PUBLIC "-//W3C//DTD SVG 1.1//EN" "http://www.w3.org/Graphics/SVG/1.1/DTD/svg11.dtd">
<svg xmlns="http://www.w3.org/2000/svg" version="1.1" xmlns:xlink="http://www.w3.org/1999/xlink" viewBox="0 0 512 288">

<!-- Copyright 2015-2020 Isaac Gouy -->
<!-- https://salsa.debian.org/benchmarksgame-team/benchmarksgame/blob/master/LICENSE.md -->

<g style="stroke: #ccc;" >
<line x1="51" y1="264" x2="511" y2="264" />
<line x1="51" y1="221.57" x2="511" y2="221.57" />
<line x1="51" y1="201.85" x2="511" y2="201.85" />
<line x1="51" y1="175.08" x2="511" y2="175.08" />
<line x1="51" y1="132.65" x2="511" y2="132.65" />
<line x1="51" y1="112.92" x2="511" y2="112.92" />
<line x1="51" y1="86.15" x2="511" y2="86.15" />
<line x1="51" y1="43.73" x2="511" y2="43.73" />
<line x1="51" y1="24" x2="511" y2="24" />
</g>
<g style="text-anchor: end; font-family: Ubuntu,Verdana,sans-serif; font-size: 0.9em;" >
<text x="51" y="262" >1</text>
<text x="51" y="219.57" >3</text>
<text x="51" y="199.85" >5</text>
<text x="51" y="173.08" >10</text>
<text x="51" y="130.65" >30</text>
<text x="51" y="110.92" >50</text>
<text x="51" y="84.15" >100</text>
<text x="51" y="41.73" >300</text>
<text x="51" y="22" ></text>
</g>
<defs>
<linearGradient id="grade" x1="0" y1="0" x2="0" y2="1">
<stop offset="0" style="stop-color: white" stop-opacity="0.6"/>
<stop offset="1" style="stop-color: white" stop-opacity="0.8"/>
</linearGradient>
<mask id="fade">
<rect x="58" y="24" width="452" height="288" fill="url(#grade)"  />
</mask>
<g id="backgroundText" style="text-anchor: end; font-family: Ubuntu,Verdana,sans-serif; font-size: 1em;">
<text x="17" y="0" transform="rotate(270,17,0)" xml:space="preserve">   C++ g++   C++ g++   C++ g++   C++ g++</text>
<text x="45" y="0" transform="rotate(270,45,0)" xml:space="preserve">   Rust   Rust   Rust   Rust   Rust   Rust</text>
<text x="73" y="0" transform="rotate(270,73,0)" xml:space="preserve">   C gcc   C gcc   C gcc   C gcc   C gcc</text>
<text x="101" y="0" transform="rotate(270,101,0)" xml:space="preserve">                                                            </text>
<text x="129" y="0" transform="rotate(270,129,0)" xml:space="preserve">   Intel Fortran   Intel Fortran   Intel Fortran</text>
<text x="157" y="0" transform="rotate(270,157,0)" xml:space="preserve">   Julia   Julia   Julia   Julia   Julia</text>
<text x="185" y="0" transform="rotate(270,185,0)" xml:space="preserve">   C# .NET Core   C# .NET Core   C# .NET Core</text>
<text x="213" y="0" transform="rotate(270,213,0)" xml:space="preserve">   Ada 2012 GNAT   Ada 2012 GNAT   Ada 2012 GNAT</text>
<text x="241" y="0" transform="rotate(270,241,0)" xml:space="preserve">   Free Pascal   Free Pascal   Free Pascal</text>
<text x="269" y="0" transform="rotate(270,269,0)" xml:space="preserve">   F# .NET Core   F# .NET Core   F# .NET Core</text>
<text x="297" y="0" transform="rotate(270,297,0)" xml:space="preserve">   OCaml   OCaml   OCaml   OCaml   OCaml</text>
<text x="325" y="0" transform="rotate(270,325,0)" xml:space="preserve">   Java   Java   Java   Java   Java   Java</text>
<text x="353" y="0" transform="rotate(270,353,0)" xml:space="preserve">   Go   Go   Go   Go   Go   Go   Go   Go   Go   Go</text>
<text x="381" y="0" transform="rotate(270,381,0)" xml:space="preserve">   Chapel   Chapel   Chapel   Chapel   Chapel</text>
<text x="409" y="0" transform="rotate(270,409,0)" xml:space="preserve">   Haskell GHC   Haskell GHC   Haskell GHC</text>
<text x="437" y="0" transform="rotate(270,437,0)" xml:space="preserve">   Lisp SBCL   Lisp SBCL   Lisp SBCL</text>
</g>
</defs>
<use x="60" y="27" xlink:href="#backgroundText"/>
<rect x="58" y="24" width="452" height="288" fill="white" mask="url(#fade)" />
<rect x="58" y="264" width="452" height="288" style="fill: white; stroke: white;" />
<g style="fill: black; stroke: black;">
<rect x="72" y="256.24" width="1" height="7.76" />
<rect x="100" y="235.21" width="1" height="28.79" />
<rect x="128" y="236.26" width="1" height="27.74" />
<rect x="156" y="708.61" width="1" height="0" />
<rect x="184" y="211.21" width="1" height="52.79" />
<rect x="212" y="219.23" width="1" height="34.98" />
<rect x="240" y="213.5" width="1" height="46.4" />
<rect x="268" y="203.76" width="1" height="58.85" />
<rect x="296" y="196.38" width="1" height="66.33" />
<rect x="324" y="196.27" width="1" height="55.17" />
<rect x="352" y="180.73" width="1" height="81.88" />
<rect x="380" y="176.92" width="1" height="80.81" />
<rect x="408" y="181.16" width="1" height="75.58" />
<rect x="436" y="187.23" width="1" height="74.6" />
<rect x="464" y="172.81" width="1" height="88.87" />
<rect x="492" y="185.91" width="1" height="51.37" />
</g>
<g style="fill: white; stroke: black;">
<rect x="62" y="260.71" width="22" height="3.29" />
<rect x="90" y="242.42" width="22" height="19.82" />
<rect x="118" y="246.43" width="22" height="16.23" />
<rect x="146" y="708.61" width="22" height="0" />
<rect x="174" y="233.31" width="22" height="27.95" />
<rect x="202" y="234.45" width="22" height="15.01" />
<rect x="230" y="231.05" width="22" height="18.69" />
<rect x="258" y="216.33" width="22" height="35.9" />
<rect x="286" y="211.84" width="22" height="32.74" />
<rect x="314" y="214.44" width="22" height="19.77" />
<rect x="342" y="196.49" width="22" height="43.6" />
<rect x="370" y="203.15" width="22" height="40.34" />
<rect x="398" y="205.35" width="22" height="33.56" />
<rect x="426" y="198.54" width="22" height="37.8" />
<rect x="454" y="199.54" width="22" height="42.28" />
<rect x="482" y="206.57" width="22" height="24.64" />
</g>
<g style="fill: black; stroke: black;">
<line x1="68.5" y1="264" x2="78" y2="264" />
<line x1="68.5" y1="256.24" x2="78" y2="256.24" />
<line x1="68.5" y1="255.43" x2="78" y2="255.43" />
<rect x="72" y="255.43" width="1" height="5" />
</g>
<g style="fill: black; stroke: black;">
<rect x="63" y="262.46" width="20" height="1" />
</g>
<g style="fill: black; stroke: black;">
<line x1="96.5" y1="264" x2="106" y2="264" />
<line x1="96.5" y1="235.21" x2="106" y2="235.21" />
</g>
<g style="fill: black; stroke: black;">
<rect x="91" y="259.2" width="20" height="1" />
</g>
<g style="fill: black; stroke: black;">
<line x1="124.5" y1="264" x2="134" y2="264" />
<line x1="124.5" y1="236.26" x2="134" y2="236.26" />
</g>
<g style="fill: black; stroke: black;">
<rect x="119" y="255.14" width="20" height="1" />
</g>
<g style="fill: black; stroke: black;">
<line x1="152.5" y1="708.61" x2="162" y2="708.61" />
<line x1="152.5" y1="708.61" x2="162" y2="708.61" />
</g>
<g style="fill: black; stroke: black;">
<rect x="147" y="707.61" width="20" height="1" />
</g>
<g style="fill: black; stroke: black;">
<line x1="180.5" y1="264" x2="190" y2="264" />
<line x1="180.5" y1="211.21" x2="190" y2="211.21" />
<line x1="180.5" y1="192.58" x2="190" y2="192.58" />
<rect x="184" y="192.58" width="1" height="5" />
</g>
<g style="fill: black; stroke: black;">
<rect x="175" y="242.03" width="20" height="1" />
</g>
<g style="fill: black; stroke: black;">
<line x1="208.5" y1="254.21" x2="218" y2="254.21" />
<line x1="208.5" y1="219.23" x2="218" y2="219.23" />
<line x1="208.5" y1="185.75" x2="218" y2="185.75" />
<rect x="212" y="185.75" width="1" height="5" />
</g>
<g style="fill: black; stroke: black;">
<rect x="203" y="240.54" width="20" height="1" />
</g>
<g style="fill: black; stroke: black;">
<line x1="236.5" y1="259.9" x2="246" y2="259.9" />
<line x1="236.5" y1="213.5" x2="246" y2="213.5" />
<line x1="236.5" y1="194.4" x2="246" y2="194.4" />
<rect x="240" y="194.4" width="1" height="5" />
</g>
<g style="fill: black; stroke: black;">
<rect x="231" y="235.1" width="20" height="1" />
</g>
<g style="fill: black; stroke: black;">
<line x1="264.5" y1="262.61" x2="274" y2="262.61" />
<line x1="264.5" y1="203.76" x2="274" y2="203.76" />
</g>
<g style="fill: black; stroke: black;">
<rect x="259" y="230.91" width="20" height="1" />
</g>
<g style="fill: black; stroke: black;">
<line x1="292.5" y1="262.72" x2="302" y2="262.72" />
<line x1="292.5" y1="196.38" x2="302" y2="196.38" />
</g>
<g style="fill: black; stroke: black;">
<rect x="287" y="227.21" width="20" height="1" />
</g>
<g style="fill: black; stroke: black;">
<line x1="320.5" y1="251.44" x2="330" y2="251.44" />
<line x1="320.5" y1="196.27" x2="330" y2="196.27" />
<line x1="320.5" y1="191.02" x2="330" y2="191.02" />
<rect x="324" y="191.02" width="1" height="5" />
</g>
<g style="fill: black; stroke: black;">
<rect x="315" y="227.77" width="20" height="1" />
</g>
<g style="fill: black; stroke: black;">
<line x1="348.5" y1="262.61" x2="358" y2="262.61" />
<line x1="348.5" y1="180.73" x2="358" y2="180.73" />
</g>
<g style="fill: black; stroke: black;">
<rect x="343" y="232.08" width="20" height="1" />
</g>
<g style="fill: black; stroke: black;">
<line x1="376.5" y1="257.74" x2="386" y2="257.74" />
<line x1="376.5" y1="176.92" x2="386" y2="176.92" />
<line x1="376.5" y1="174.48" x2="386" y2="174.48" />
<rect x="380" y="174.48" width="1" height="5" />
</g>
<g style="fill: black; stroke: black;">
<rect x="371" y="226.84" width="20" height="1" />
</g>
<g style="fill: black; stroke: black;">
<line x1="404.5" y1="256.73" x2="414" y2="256.73" />
<line x1="404.5" y1="181.16" x2="414" y2="181.16" />
<line x1="404.5" y1="170.77" x2="414" y2="170.77" />
<rect x="408" y="170.77" width="1" height="5" />
</g>
<g style="fill: black; stroke: black;">
<rect x="399" y="229.67" width="20" height="1" />
</g>
<g style="fill: black; stroke: black;">
<line x1="432.5" y1="261.83" x2="442" y2="261.83" />
<line x1="432.5" y1="187.23" x2="442" y2="187.23" />
</g>
<g style="fill: black; stroke: black;">
<rect x="427" y="216.92" width="20" height="1" />
</g>
<g style="fill: black; stroke: black;">
<line x1="460.5" y1="261.68" x2="470" y2="261.68" />
<line x1="460.5" y1="172.81" x2="470" y2="172.81" />
<line x1="460.5" y1="168.94" x2="470" y2="168.94" />
<rect x="464" y="168.94" width="1" height="5" />
</g>
<g style="fill: black; stroke: black;">
<rect x="455" y="222.18" width="20" height="1" />
</g>
<g style="fill: black; stroke: black;">
<line x1="488.5" y1="237.28" x2="498" y2="237.28" />
<line x1="488.5" y1="185.91" x2="498" y2="185.91" />
<line x1="488.5" y1="149.64" x2="498" y2="149.64" />
<rect x="492" y="149.64" width="1" height="5" />
</g>
<g style="fill: black; stroke: black;">
<rect x="483" y="224.47" width="20" height="1" />
</g>
<g style="text-anchor: end; font-family: Ubuntu,Verdana,sans-serif; font-size: 0.9em;" >
<text x="512" y="282" >01 Nov 2020 u64q</text>
<text x="58" y="282" style="text-anchor: start;" >benchmarks game</text>
</g>
<text x="16" y="144" transform="rotate(270,16,144)" style="text-anchor: middle; font-family: Ubuntu,Verdana,sans-serif; font-size: 0.9em;" >program busy time / least busy</text>
<text x="285" y="18" style="text-anchor: middle; font-family: Ubuntu,Verdana,sans-serif; font-size: 1.2em;" >How many times slower?</text>
<g style="stroke: #333;">
<line x1="58" y1="24" x2="58" y2="264" />
<line x1="511" y1="24" x2="511" y2="264" />
<line x1="58" y1="264" x2="511" y2="264" />
</g>
</svg>

