<?xml version="1.0" encoding="UTF-8" standalone="no"?>
<!DOCTYPE svg PUBLIC "-//W3C//DTD SVG 1.1//EN" "http://www.w3.org/Graphics/SVG/1.1/DTD/svg11.dtd">
<svg xmlns="http://www.w3.org/2000/svg" version="1.1" xmlns:xlink="http://www.w3.org/1999/xlink" viewBox="0 0 512 288">

<!-- Copyright 2015-2020 Isaac Gouy -->
<!-- https://salsa.debian.org/benchmarksgame-team/benchmarksgame/blob/master/LICENSE.md -->

<g style="stroke: #ccc;" >
<line x1="51" y1="264" x2="511" y2="264" />
<line x1="51" y1="221.57" x2="511" y2="221.57" />
<line x1="51" y1="201.85" x2="511" y2="201.85" />
<line x1="51" y1="175.08" x2="511" y2="175.08" />
<line x1="51" y1="132.65" x2="511" y2="132.65" />
<line x1="51" y1="112.92" x2="511" y2="112.92" />
<line x1="51" y1="86.15" x2="511" y2="86.15" />
<line x1="51" y1="43.73" x2="511" y2="43.73" />
<line x1="51" y1="24" x2="511" y2="24" />
</g>
<g style="text-anchor: end; font-family: Ubuntu,Verdana,sans-serif; font-size: 0.9em;" >
<text x="51" y="262" >1</text>
<text x="51" y="219.57" >3</text>
<text x="51" y="199.85" >5</text>
<text x="51" y="173.08" >10</text>
<text x="51" y="130.65" >30</text>
<text x="51" y="110.92" >50</text>
<text x="51" y="84.15" >100</text>
<text x="51" y="41.73" >300</text>
<text x="51" y="22" ></text>
</g>
<defs>
<linearGradient id="grade" x1="0" y1="0" x2="0" y2="1">
<stop offset="0" style="stop-color: white" stop-opacity="0.6"/>
<stop offset="1" style="stop-color: white" stop-opacity="0.8"/>
</linearGradient>
<mask id="fade">
<rect x="58" y="24" width="452" height="288" fill="url(#grade)"  />
</mask>
<g id="backgroundText" style="text-anchor: end; font-family: Ubuntu,Verdana,sans-serif; font-size: 1em;">
<text x="17" y="0" transform="rotate(270,17,0)" xml:space="preserve">   Node js   Node js   Node js   Node js</text>
<text x="45" y="0" transform="rotate(270,45,0)" xml:space="preserve">   Dart   Dart   Dart   Dart   Dart   Dart</text>
<text x="73" y="0" transform="rotate(270,73,0)" xml:space="preserve">   Racket   Racket   Racket   Racket   Racket</text>
<text x="101" y="0" transform="rotate(270,101,0)" xml:space="preserve">   PHP   PHP   PHP   PHP   PHP   PHP   PHP   PHP</text>
<text x="129" y="0" transform="rotate(270,129,0)" xml:space="preserve">   Erlang HiPE   Erlang HiPE   Erlang HiPE</text>
<text x="157" y="0" transform="rotate(270,157,0)" xml:space="preserve">   VW Smalltalk   VW Smalltalk   VW Smalltalk</text>
<text x="185" y="0" transform="rotate(270,185,0)" xml:space="preserve">   Ruby   Ruby   Ruby   Ruby   Ruby   Ruby</text>
<text x="213" y="0" transform="rotate(270,213,0)" xml:space="preserve">   Lua   Lua   Lua   Lua   Lua   Lua   Lua   Lua</text>
<text x="241" y="0" transform="rotate(270,241,0)" xml:space="preserve">   Python 3   Python 3   Python 3   Python 3</text>
<text x="269" y="0" transform="rotate(270,269,0)" xml:space="preserve">   Perl   Perl   Perl   Perl   Perl   Perl</text>
</g>
</defs>
<use x="60" y="27" xlink:href="#backgroundText"/>
<rect x="58" y="24" width="452" height="288" fill="white" mask="url(#fade)" />
<rect x="58" y="264" width="452" height="288" style="fill: white; stroke: white;" />
<g style="fill: black; stroke: black;">
<rect x="72" y="183.19" width="1" height="56.15" />
<rect x="100" y="150.63" width="1" height="86.86" />
<rect x="128" y="151.61" width="1" height="96.57" />
<rect x="156" y="104.76" width="1" height="149.72" />
<rect x="184" y="93.68" width="1" height="133.28" />
<rect x="212" y="88.63" width="1" height="89.01" />
<rect x="240" y="97.27" width="1" height="73.27" />
<rect x="268" y="98.52" width="1" height="61.33" />
<rect x="296" y="60.11" width="1" height="188.3" />
<rect x="324" y="60.69" width="1" height="114.33" />
</g>
<g style="fill: white; stroke: black;">
<rect x="62" y="189.29" width="22" height="31.5" />
<rect x="90" y="177.95" width="22" height="44.7" />
<rect x="118" y="161.62" width="22" height="50.45" />
<rect x="146" y="128.27" width="22" height="31.62" />
<rect x="174" y="119.44" width="22" height="38.64" />
<rect x="202" y="111.61" width="22" height="44.34" />
<rect x="230" y="109.85" width="22" height="48.44" />
<rect x="258" y="103.19" width="22" height="35.8" />
<rect x="286" y="68.7" width="22" height="62.25" />
<rect x="314" y="90.74" width="22" height="59.37" />
</g>
<g style="fill: black; stroke: black;">
<line x1="68.5" y1="239.34" x2="78" y2="239.34" />
<line x1="68.5" y1="183.19" x2="78" y2="183.19" />
</g>
<g style="fill: black; stroke: black;">
<rect x="63" y="210.05" width="20" height="1" />
</g>
<g style="fill: black; stroke: black;">
<line x1="96.5" y1="237.48" x2="106" y2="237.48" />
<line x1="96.5" y1="150.63" x2="106" y2="150.63" />
<line x1="96.5" y1="62.86" x2="106" y2="62.86" />
<rect x="100" y="62.86" width="1" height="5" />
</g>
<g style="fill: black; stroke: black;">
<rect x="91" y="206.21" width="20" height="1" />
</g>
<g style="fill: black; stroke: black;">
<line x1="124.5" y1="248.18" x2="134" y2="248.18" />
<line x1="124.5" y1="151.61" x2="134" y2="151.61" />
</g>
<g style="fill: black; stroke: black;">
<rect x="119" y="181.07" width="20" height="1" />
</g>
<g style="fill: black; stroke: black;">
<line x1="152.5" y1="254.47" x2="162" y2="254.47" />
<line x1="152.5" y1="104.76" x2="162" y2="104.76" />
<line x1="152.5" y1="94.47" x2="162" y2="94.47" />
<rect x="156" y="94.47" width="1" height="5" />
</g>
<g style="fill: black; stroke: black;">
<rect x="147" y="148.97" width="20" height="1" />
</g>
<g style="fill: black; stroke: black;">
<line x1="180.5" y1="226.95" x2="190" y2="226.95" />
<line x1="180.5" y1="93.68" x2="190" y2="93.68" />
<line x1="180.5" y1="83.48" x2="190" y2="83.48" />
<rect x="184" y="83.48" width="1" height="5" />
</g>
<g style="fill: black; stroke: black;">
<rect x="175" y="124.78" width="20" height="1" />
</g>
<g style="fill: black; stroke: black;">
<line x1="208.5" y1="177.64" x2="218" y2="177.64" />
<line x1="208.5" y1="88.63" x2="218" y2="88.63" />
</g>
<g style="fill: black; stroke: black;">
<rect x="203" y="129.01" width="20" height="1" />
</g>
<g style="fill: black; stroke: black;">
<line x1="236.5" y1="170.54" x2="246" y2="170.54" />
<line x1="236.5" y1="97.27" x2="246" y2="97.27" />
</g>
<g style="fill: black; stroke: black;">
<rect x="231" y="128.53" width="20" height="1" />
</g>
<g style="fill: black; stroke: black;">
<line x1="264.5" y1="159.85" x2="274" y2="159.85" />
<line x1="264.5" y1="98.52" x2="274" y2="98.52" />
</g>
<g style="fill: black; stroke: black;">
<rect x="259" y="117.43" width="20" height="1" />
</g>
<g style="fill: black; stroke: black;">
<line x1="292.5" y1="248.41" x2="302" y2="248.41" />
<line x1="292.5" y1="60.11" x2="302" y2="60.11" />
</g>
<g style="fill: black; stroke: black;">
<rect x="287" y="124.2" width="20" height="1" />
</g>
<g style="fill: black; stroke: black;">
<line x1="320.5" y1="175.02" x2="330" y2="175.02" />
<line x1="320.5" y1="60.69" x2="330" y2="60.69" />
<line x1="320.5" y1="16.01" x2="330" y2="16.01" />
<rect x="324" y="16.01" width="1" height="5" />
</g>
<g style="fill: black; stroke: black;">
<rect x="315" y="124.99" width="20" height="1" />
</g>
<g style="text-anchor: end; font-family: Ubuntu,Verdana,sans-serif; font-size: 0.9em;" >
<text x="512" y="282" >02 Jul 2020 i5-3330</text>
<text x="58" y="282" style="text-anchor: start;" >benchmarks game</text>
</g>
<text x="16" y="144" transform="rotate(270,16,144)" style="text-anchor: middle; font-family: Ubuntu,Verdana,sans-serif; font-size: 0.9em;" >program busy time / least busy</text>
<text x="285" y="18" style="text-anchor: middle; font-family: Ubuntu,Verdana,sans-serif; font-size: 1.2em;" >How many times slower?</text>
<g style="stroke: #333;">
<line x1="58" y1="24" x2="58" y2="264" />
<line x1="511" y1="24" x2="511" y2="264" />
<line x1="58" y1="264" x2="511" y2="264" />
</g>
</svg>

