<?xml version="1.0" encoding="UTF-8" standalone="no"?>
<!DOCTYPE svg PUBLIC "-//W3C//DTD SVG 1.1//EN" "http://www.w3.org/Graphics/SVG/1.1/DTD/svg11.dtd">
<svg xmlns="http://www.w3.org/2000/svg" version="1.1" xmlns:xlink="http://www.w3.org/1999/xlink" viewBox="0 0 512 288">

<!-- Copyright 2015-2022 Isaac Gouy -->

<!-- Box plot chart showing benchmark program performance grouped by implementation language -->

<!-- The Computer Language Benchmarks Game -->
<!-- https://benchmarksgame-team.pages.debian.net/benchmarksgame/license.html -->

<g style="stroke: #ccc;" >
<line x1="51" y1="264" x2="461" y2="264" />
<line x1="51" y1="221.57" x2="461" y2="221.57" />
<line x1="51" y1="201.85" x2="461" y2="201.85" />
<line x1="51" y1="175.08" x2="461" y2="175.08" />
<line x1="51" y1="132.65" x2="461" y2="132.65" />
<line x1="51" y1="112.92" x2="461" y2="112.92" />
<line x1="51" y1="86.15" x2="461" y2="86.15" />
<line x1="51" y1="43.73" x2="461" y2="43.73" />
<line x1="51" y1="24" x2="461" y2="24" />
</g>
<g style="text-anchor: end; font-family: Ubuntu,Verdana,sans-serif; font-size: 0.9em;" >
<text x="51" y="262" >1</text>
<text x="51" y="219.57" >3</text>
<text x="51" y="199.85" >5</text>
<text x="51" y="173.08" >10</text>
<text x="51" y="130.65" >30</text>
<text x="51" y="110.92" >50</text>
<text x="51" y="84.15" >100</text>
<text x="51" y="41.73" >300</text>
<text x="51" y="22" ></text>
</g>
<defs>
<linearGradient id="grade" x1="0" y1="0" x2="0" y2="1">
<stop offset="0" style="stop-color: white" stop-opacity="0.6"/>
<stop offset="1" style="stop-color: white" stop-opacity="0.8"/>
</linearGradient>
<mask id="fade">
<rect x="58" y="24" width="452" height="288" fill="url(#grade)"  />
</mask>
<g id="backgroundText" style="text-anchor: end; font-family: Ubuntu,Verdana,sans-serif; font-size: 1em;">
<text x="16" y="0" transform="rotate(270,16,0)" xml:space="preserve">   OCaml   OCaml   OCaml   OCaml   OCaml</text>
<text x="43" y="0" transform="rotate(270,43,0)" xml:space="preserve">   Java   Java   Java   Java   Java   Java</text>
<text x="70" y="0" transform="rotate(270,70,0)" xml:space="preserve">   Swift   Swift   Swift   Swift   Swift</text>
<text x="97" y="0" transform="rotate(270,97,0)" xml:space="preserve">   Node js   Node js   Node js   Node js</text>
<text x="124" y="0" transform="rotate(270,124,0)" xml:space="preserve">   Lisp SBCL   Lisp SBCL   Lisp SBCL</text>
<text x="151" y="0" transform="rotate(270,151,0)" xml:space="preserve">   Dart   Dart   Dart   Dart   Dart   Dart</text>
<text x="178" y="0" transform="rotate(270,178,0)" xml:space="preserve">   Racket   Racket   Racket   Racket   Racket</text>
<text x="205" y="0" transform="rotate(270,205,0)" xml:space="preserve">   PHP   PHP   PHP   PHP   PHP   PHP   PHP   PHP</text>
<text x="232" y="0" transform="rotate(270,232,0)" xml:space="preserve">   Erlang   Erlang   Erlang   Erlang   Erlang</text>
<text x="259" y="0" transform="rotate(270,259,0)" xml:space="preserve">   Lua   Lua   Lua   Lua   Lua   Lua   Lua   Lua</text>
<text x="286" y="0" transform="rotate(270,286,0)" xml:space="preserve">   Python 3   Python 3   Python 3   Python 3</text>
<text x="313" y="0" transform="rotate(270,313,0)" xml:space="preserve">   VW Smalltalk   VW Smalltalk   VW Smalltalk</text>
<text x="340" y="0" transform="rotate(270,340,0)" xml:space="preserve">   Ruby   Ruby   Ruby   Ruby   Ruby   Ruby</text>
<text x="367" y="0" transform="rotate(270,367,0)" xml:space="preserve">   Perl   Perl   Perl   Perl   Perl   Perl</text>
<text x="394" y="0" transform="rotate(270,394,0)" xml:space="preserve">   Matz's Ruby   Matz's Ruby   Matz's Ruby</text>
</g>
</defs>
<use x="60" y="27" xlink:href="#backgroundText"/>
<rect x="58" y="24" width="452" height="288" fill="white" mask="url(#fade)" />
<rect x="58" y="264" width="452" height="288" style="fill: white; stroke: white;" />
<g style="fill: black; stroke: black;">
<rect x="72" y="192.3" width="1" height="69.15" />
<rect x="99" y="182.27" width="1" height="75.93" />
<rect x="126" y="195.04" width="1" height="65.85" />
<rect x="153" y="182.59" width="1" height="62.53" />
<rect x="180" y="178.76" width="1" height="52.24" />
<rect x="207" y="151.79" width="1" height="67.7" />
<rect x="234" y="159.74" width="1" height="89.04" />
<rect x="261" y="131.83" width="1" height="121.54" />
<rect x="288" y="91.74" width="1" height="121.71" />
<rect x="315" y="90.07" width="1" height="159.94" />
<rect x="342" y="61.3" width="1" height="187.84" />
<rect x="369" y="86.57" width="1" height="87.58" />
<rect x="396" y="68.28" width="1" height="167.03" />
<rect x="423" y="56.92" width="1" height="168.9" />
<rect x="450" y="-29.76" width="1" height="179.3" />
</g>
<g style="fill: white; stroke: black;">
<rect x="62" y="208.46" width="22" height="16.43" />
<rect x="89" y="202.49" width="22" height="23.7" />
<rect x="116" y="211.89" width="22" height="17.51" />
<rect x="143" y="186.5" width="22" height="29.84" />
<rect x="170" y="198.34" width="22" height="22.41" />
<rect x="197" y="176.44" width="22" height="38.36" />
<rect x="224" y="170.48" width="22" height="20.99" />
<rect x="251" y="144.98" width="22" height="32.96" />
<rect x="278" y="114.37" width="22" height="29.25" />
<rect x="305" y="100.88" width="22" height="37.78" />
<rect x="332" y="92.38" width="22" height="67.11" />
<rect x="359" y="105.97" width="22" height="39.96" />
<rect x="386" y="97.02" width="22" height="51.53" />
<rect x="413" y="86.59" width="22" height="56.87" />
<rect x="440" y="3.47" width="22" height="92.68" />
</g>
<g style="fill: black; stroke: black;">
<line x1="68.5" y1="261.45" x2="78" y2="261.45" />
<line x1="68.5" y1="192.3" x2="78" y2="192.3" />
<line x1="68.5" y1="180.81" x2="78" y2="180.81" />
<rect x="72" y="180.81" width="1" height="5" />
</g>
<g style="fill: black; stroke: black;">
<rect x="63" y="218.17" width="20" height="1" />
</g>
<g style="fill: black; stroke: black;">
<line x1="95.5" y1="258.2" x2="105" y2="258.2" />
<line x1="95.5" y1="182.27" x2="105" y2="182.27" />
<line x1="95.5" y1="177.87" x2="105" y2="177.87" />
<rect x="99" y="177.87" width="1" height="5" />
</g>
<g style="fill: black; stroke: black;">
<rect x="90" y="215.08" width="20" height="1" />
</g>
<g style="fill: black; stroke: black;">
<line x1="122.5" y1="260.89" x2="132" y2="260.89" />
<line x1="122.5" y1="195.04" x2="132" y2="195.04" />
<line x1="122.5" y1="138.11" x2="132" y2="138.11" />
<rect x="126" y="138.11" width="1" height="5" />
</g>
<g style="fill: black; stroke: black;">
<rect x="117" y="216.47" width="20" height="1" />
</g>
<g style="fill: black; stroke: black;">
<line x1="149.5" y1="245.12" x2="159" y2="245.12" />
<line x1="149.5" y1="182.59" x2="159" y2="182.59" />
</g>
<g style="fill: black; stroke: black;">
<rect x="144" y="205.96" width="20" height="1" />
</g>
<g style="fill: black; stroke: black;">
<line x1="176.5" y1="230.99" x2="186" y2="230.99" />
<line x1="176.5" y1="178.76" x2="186" y2="178.76" />
<line x1="176.5" y1="152.25" x2="186" y2="152.25" />
<rect x="180" y="152.25" width="1" height="5" />
</g>
<g style="fill: black; stroke: black;">
<rect x="171" y="208.91" width="20" height="1" />
</g>
<g style="fill: black; stroke: black;">
<line x1="203.5" y1="219.49" x2="213" y2="219.49" />
<line x1="203.5" y1="151.79" x2="213" y2="151.79" />
</g>
<g style="fill: black; stroke: black;">
<rect x="198" y="199.1" width="20" height="1" />
</g>
<g style="fill: black; stroke: black;">
<line x1="230.5" y1="248.78" x2="240" y2="248.78" />
<line x1="230.5" y1="159.74" x2="240" y2="159.74" />
</g>
<g style="fill: black; stroke: black;">
<rect x="225" y="175.49" width="20" height="1" />
</g>
<g style="fill: black; stroke: black;">
<line x1="257.5" y1="253.37" x2="267" y2="253.37" />
<line x1="257.5" y1="131.83" x2="267" y2="131.83" />
</g>
<g style="fill: black; stroke: black;">
<rect x="252" y="156.88" width="20" height="1" />
</g>
<g style="fill: black; stroke: black;">
<line x1="284.5" y1="213.45" x2="294" y2="213.45" />
<line x1="284.5" y1="91.74" x2="294" y2="91.74" />
<line x1="284.5" y1="80.12" x2="294" y2="80.12" />
<rect x="288" y="80.12" width="1" height="5" />
</g>
<g style="fill: black; stroke: black;">
<rect x="279" y="129.85" width="20" height="1" />
</g>
<g style="fill: black; stroke: black;">
<line x1="311.5" y1="250.02" x2="321" y2="250.02" />
<line x1="311.5" y1="90.07" x2="321" y2="90.07" />
</g>
<g style="fill: black; stroke: black;">
<rect x="306" y="113.94" width="20" height="1" />
</g>
<g style="fill: black; stroke: black;">
<line x1="338.5" y1="249.14" x2="348" y2="249.14" />
<line x1="338.5" y1="61.3" x2="348" y2="61.3" />
<line x1="338.5" y1="50.44" x2="348" y2="50.44" />
<rect x="342" y="50.44" width="1" height="5" />
</g>
<g style="fill: black; stroke: black;">
<rect x="333" y="107.01" width="20" height="1" />
</g>
<g style="fill: black; stroke: black;">
<line x1="365.5" y1="174.16" x2="375" y2="174.16" />
<line x1="365.5" y1="86.57" x2="375" y2="86.57" />
</g>
<g style="fill: black; stroke: black;">
<rect x="360" y="125.14" width="20" height="1" />
</g>
<g style="fill: black; stroke: black;">
<line x1="392.5" y1="235.31" x2="402" y2="235.31" />
<line x1="392.5" y1="68.28" x2="402" y2="68.28" />
<line x1="392.5" y1="55.76" x2="402" y2="55.76" />
<rect x="396" y="55.76" width="1" height="5" />
</g>
<g style="fill: black; stroke: black;">
<rect x="387" y="120.48" width="20" height="1" />
</g>
<g style="fill: black; stroke: black;">
<line x1="419.5" y1="225.82" x2="429" y2="225.82" />
<line x1="419.5" y1="56.92" x2="429" y2="56.92" />
<line x1="419.5" y1="18.74" x2="429" y2="18.74" />
<rect x="423" y="18.74" width="1" height="5" />
</g>
<g style="fill: black; stroke: black;">
<rect x="414" y="98.69" width="20" height="1" />
</g>
<g style="fill: black; stroke: black;">
<line x1="446.5" y1="149.54" x2="456" y2="149.54" />
<line x1="446.5" y1="-29.76" x2="456" y2="-29.76" />
<line x1="446.5" y1="-34.59" x2="456" y2="-34.59" />
<rect x="450" y="-34.59" width="1" height="5" />
</g>
<g style="fill: black; stroke: black;">
<rect x="441" y="34.99" width="20" height="1" />
</g>
<g style="text-anchor: end; font-family: Ubuntu,Verdana,sans-serif; font-size: 0.9em;" >
<text x="462" y="282" >26 Jan 2022 u64q</text>
<text x="58" y="282" style="text-anchor: start;" >benchmarks game</text>
</g>
<text x="16" y="144" transform="rotate(270,16,144)" style="text-anchor: middle; font-family: Ubuntu,Verdana,sans-serif; font-size: 0.9em;" >program busy time / least busy</text>
<rect x="58" y="0" width="452" height="23" style="fill: white; stroke: white;" />
<text x="259.5" y="18" style="text-anchor: middle; font-family: Ubuntu,Verdana,sans-serif; font-size: 1.2em;" >How many times slower?</text>
<g style="stroke: #333;">
<line x1="58" y1="24" x2="58" y2="264" />
<line x1="461" y1="24" x2="461" y2="264" />
<line x1="58" y1="264" x2="461" y2="264" />
</g>
</svg>

