<?xml version="1.0" encoding="UTF-8" standalone="no"?>
<!DOCTYPE svg PUBLIC "-//W3C//DTD SVG 1.1//EN" "http://www.w3.org/Graphics/SVG/1.1/DTD/svg11.dtd">
<svg xmlns="http://www.w3.org/2000/svg" version="1.1" xmlns:xlink="http://www.w3.org/1999/xlink" viewBox="0 0 512 288">

<!-- Copyright 2015 Isaac Gouy -->
<!-- http://benchmarksgame.alioth.debian.org/license.html -->

<g style="stroke: #ccc;" >
<line x1="51" y1="264" x2="511" y2="264" />
<line x1="51" y1="221.57" x2="511" y2="221.57" />
<line x1="51" y1="201.85" x2="511" y2="201.85" />
<line x1="51" y1="175.08" x2="511" y2="175.08" />
<line x1="51" y1="132.65" x2="511" y2="132.65" />
<line x1="51" y1="112.92" x2="511" y2="112.92" />
<line x1="51" y1="86.15" x2="511" y2="86.15" />
<line x1="51" y1="43.73" x2="511" y2="43.73" />
<line x1="51" y1="24" x2="511" y2="24" />
</g>
<g style="text-anchor: end; font-family: Ubuntu,Verdana,sans-serif; font-size: 0.9em;" >
<text x="51" y="262" >1</text>
<text x="51" y="219.57" >3</text>
<text x="51" y="199.85" >5</text>
<text x="51" y="173.08" >10</text>
<text x="51" y="130.65" >30</text>
<text x="51" y="110.92" >50</text>
<text x="51" y="84.15" >100</text>
<text x="51" y="41.73" >300</text>
<text x="51" y="22" ></text>
</g>
<defs>
<linearGradient id="grade" x1="0" y1="0" x2="0" y2="1">
<stop offset="0" style="stop-color: white" stop-opacity="0.6"/>
<stop offset="1" style="stop-color: white" stop-opacity="0.8"/>
</linearGradient>
<mask id="fade">
<rect x="58" y="24" width="452" height="288" fill="url(#grade)"  />
</mask>
<g id="backgroundText" style="text-anchor: end; font-family: Ubuntu,Verdana,sans-serif; font-size: 1em;">
<text x="17.5" y="0" transform="rotate(270,17.5,0)" xml:space="preserve">   C gcc   C gcc   C gcc   C gcc   C gcc   C gcc   C gcc</text>
<text x="45.5" y="0" transform="rotate(270,45.5,0)" xml:space="preserve">Rust   Rust   Rust   Rust   Rust   Rust   Rust   Rust   Rust</text>
<text x="73.5" y="0" transform="rotate(270,73.5,0)" xml:space="preserve">   C++ g++   C++ g++   C++ g++   C++ g++   C++ g++   C++ g++</text>
<br />
<b>Warning</b>:  Division by zero in <b>/home/dunham/8000-benchmarksgame/website/lib/lib_chartSVG.php</b> on line <b>289</b><br />
<br />
<b>Warning</b>:  str_repeat() expects parameter 2 to be int, float given in <b>/home/dunham/8000-benchmarksgame/website/lib/lib_chartSVG.php</b> on line <b>290</b><br />
<text x="101.5" y="0" transform="rotate(270,101.5,0)" xml:space="preserve"></text>
<text x="129.5" y="0" transform="rotate(270,129.5,0)" xml:space="preserve">da 2012 GNAT   Ada 2012 GNAT   Ada 2012 GNAT   Ada 2012 GNAT</text>
<text x="157.5" y="0" transform="rotate(270,157.5,0)" xml:space="preserve">ortran Intel   Fortran Intel   Fortran Intel   Fortran Intel</text>
<text x="185.5" y="0" transform="rotate(270,185.5,0)" xml:space="preserve">   C# .NET Core   C# .NET Core   C# .NET Core   C# .NET Core</text>
<text x="213.5" y="0" transform="rotate(270,213.5,0)" xml:space="preserve">   Julia   Julia   Julia   Julia   Julia   Julia   Julia</text>
<text x="241.5" y="0" transform="rotate(270,241.5,0)" xml:space="preserve">   Free Pascal   Free Pascal   Free Pascal   Free Pascal</text>
<text x="269.5" y="0" transform="rotate(270,269.5,0)" xml:space="preserve">Java   Java   Java   Java   Java   Java   Java   Java   Java</text>
<text x="297.5" y="0" transform="rotate(270,297.5,0)" xml:space="preserve">   F# .NET Core   F# .NET Core   F# .NET Core   F# .NET Core</text>
<text x="325.5" y="0" transform="rotate(270,325.5,0)" xml:space="preserve">   Swift   Swift   Swift   Swift   Swift   Swift   Swift</text>
<text x="353.5" y="0" transform="rotate(270,353.5,0)" xml:space="preserve">   Go   Go   Go   Go   Go   Go   Go   Go   Go   Go   Go   Go</text>
<text x="381.5" y="0" transform="rotate(270,381.5,0)" xml:space="preserve">   Chapel   Chapel   Chapel   Chapel   Chapel   Chapel</text>
<text x="409.5" y="0" transform="rotate(270,409.5,0)" xml:space="preserve">   OCaml   OCaml   OCaml   OCaml   OCaml   OCaml   OCaml</text>
<text x="437.5" y="0" transform="rotate(270,437.5,0)" xml:space="preserve">   Haskell GHC   Haskell GHC   Haskell GHC   Haskell GHC</text>
</g>
</defs>
<use x="60" y="27" xlink:href="#backgroundText"/>
<rect x="58" y="24" width="452" height="288" fill="white" mask="url(#fade)" />
<rect x="58" y="264" width="452" height="288" style="fill: white; stroke: white;" />
<g style="fill: black; stroke: black;">
<rect x="72" y="251.12" width="1" height="12.88" />
<rect x="100" y="248.09" width="1" height="15.91" />
<rect x="128" y="244.74" width="1" height="19.26" />
<rect x="156" y="708.61" width="1" height="0" />
<rect x="184" y="218.99" width="1" height="44.92" />
<rect x="212" y="217.5" width="1" height="46.5" />
<rect x="240" y="214.14" width="1" height="48.75" />
<rect x="268" y="212.64" width="1" height="34.73" />
<rect x="296" y="200.71" width="1" height="63.29" />
<rect x="324" y="210.99" width="1" height="43.6" />
<rect x="352" y="208.41" width="1" height="49.99" />
<rect x="380" y="190.23" width="1" height="71.12" />
<rect x="408" y="191.14" width="1" height="62.57" />
<rect x="436" y="195.78" width="1" height="68.22" />
<rect x="464" y="191.04" width="1" height="49.68" />
<rect x="492" y="190.81" width="1" height="65.16" />
</g>
<g style="fill: white; stroke: black;">
<rect x="62" y="256.74" width="21" height="7.26" />
<rect x="90" y="256.83" width="21" height="7.17" />
<rect x="118" y="255.07" width="21" height="8.83" />
<rect x="146" y="708.61" width="21" height="0" />
<rect x="174" y="236.61" width="21" height="18.8" />
<rect x="202" y="238.5" width="21" height="25.36" />
<rect x="230" y="227.84" width="21" height="24.23" />
<rect x="258" y="228.3" width="21" height="17.61" />
<rect x="286" y="220.43" width="21" height="22.68" />
<rect x="314" y="224.77" width="21" height="13.01" />
<rect x="342" y="215.18" width="21" height="24.1" />
<rect x="370" y="214.19" width="21" height="32.87" />
<rect x="398" y="214.14" width="21" height="30.21" />
<rect x="426" y="207.67" width="21" height="29.32" />
<rect x="454" y="211.55" width="21" height="24.31" />
<rect x="482" y="209.47" width="21" height="20.64" />
</g>
<g style="fill: black; stroke: black;">
<line x1="68" y1="264" x2="77.5" y2="264" />
<line x1="68" y1="251.12" x2="77.5" y2="251.12" />
</g>
<g style="fill: black; stroke: black;">
<rect x="63" y="259.41" width="19" height="1" />
</g>
<g style="fill: black; stroke: black;">
<line x1="96" y1="264" x2="105.5" y2="264" />
<line x1="96" y1="248.09" x2="105.5" y2="248.09" />
<line x1="96" y1="245.54" x2="105.5" y2="245.54" />
<rect x="100" y="245.54" width="1" height="5" />
</g>
<g style="fill: black; stroke: black;">
<rect x="91" y="260.83" width="19" height="1" />
</g>
<g style="fill: black; stroke: black;">
<line x1="124" y1="264" x2="133.5" y2="264" />
<line x1="124" y1="244.74" x2="133.5" y2="244.74" />
<line x1="124" y1="239.92" x2="133.5" y2="239.92" />
<rect x="128" y="239.92" width="1" height="5" />
</g>
<g style="fill: black; stroke: black;">
<rect x="119" y="256.92" width="19" height="1" />
</g>
<g style="fill: black; stroke: black;">
<line x1="152" y1="708.61" x2="161.5" y2="708.61" />
<line x1="152" y1="708.61" x2="161.5" y2="708.61" />
</g>
<g style="fill: black; stroke: black;">
<rect x="147" y="707.61" width="19" height="1" />
</g>
<g style="fill: black; stroke: black;">
<line x1="180" y1="263.91" x2="189.5" y2="263.91" />
<line x1="180" y1="218.99" x2="189.5" y2="218.99" />
<line x1="180" y1="213.38" x2="189.5" y2="213.38" />
<rect x="184" y="213.38" width="1" height="5" />
</g>
<g style="fill: black; stroke: black;">
<rect x="175" y="244.51" width="19" height="1" />
</g>
<g style="fill: black; stroke: black;">
<line x1="208" y1="264" x2="217.5" y2="264" />
<line x1="208" y1="217.5" x2="217.5" y2="217.5" />
<line x1="208" y1="182.09" x2="217.5" y2="182.09" />
<rect x="212" y="182.09" width="1" height="5" />
</g>
<g style="fill: black; stroke: black;">
<rect x="203" y="243.71" width="19" height="1" />
</g>
<g style="fill: black; stroke: black;">
<line x1="236" y1="262.88" x2="245.5" y2="262.88" />
<line x1="236" y1="214.14" x2="245.5" y2="214.14" />
</g>
<g style="fill: black; stroke: black;">
<rect x="231" y="240.62" width="19" height="1" />
</g>
<g style="fill: black; stroke: black;">
<line x1="264" y1="247.37" x2="273.5" y2="247.37" />
<line x1="264" y1="212.64" x2="273.5" y2="212.64" />
</g>
<g style="fill: black; stroke: black;">
<rect x="259" y="236.84" width="19" height="1" />
</g>
<g style="fill: black; stroke: black;">
<line x1="292" y1="264" x2="301.5" y2="264" />
<line x1="292" y1="200.71" x2="301.5" y2="200.71" />
<line x1="292" y1="196.93" x2="301.5" y2="196.93" />
<rect x="296" y="196.93" width="1" height="5" />
</g>
<g style="fill: black; stroke: black;">
<rect x="287" y="223.63" width="19" height="1" />
</g>
<g style="fill: black; stroke: black;">
<line x1="320" y1="254.58" x2="329.5" y2="254.58" />
<line x1="320" y1="210.99" x2="329.5" y2="210.99" />
<line x1="320" y1="206.03" x2="329.5" y2="206.03" />
<rect x="324" y="206.03" width="1" height="5" />
</g>
<g style="fill: black; stroke: black;">
<rect x="315" y="232.78" width="19" height="1" />
</g>
<g style="fill: black; stroke: black;">
<line x1="348" y1="258.39" x2="357.5" y2="258.39" />
<line x1="348" y1="208.41" x2="357.5" y2="208.41" />
</g>
<g style="fill: black; stroke: black;">
<rect x="343" y="229.9" width="19" height="1" />
</g>
<g style="fill: black; stroke: black;">
<line x1="376" y1="261.34" x2="385.5" y2="261.34" />
<line x1="376" y1="190.23" x2="385.5" y2="190.23" />
<line x1="376" y1="165.27" x2="385.5" y2="165.27" />
<rect x="380" y="165.27" width="1" height="5" />
</g>
<g style="fill: black; stroke: black;">
<rect x="371" y="236.1" width="19" height="1" />
</g>
<g style="fill: black; stroke: black;">
<line x1="404" y1="253.71" x2="413.5" y2="253.71" />
<line x1="404" y1="191.14" x2="413.5" y2="191.14" />
<line x1="404" y1="185.11" x2="413.5" y2="185.11" />
<rect x="408" y="185.11" width="1" height="5" />
</g>
<g style="fill: black; stroke: black;">
<rect x="399" y="222.37" width="19" height="1" />
</g>
<g style="fill: black; stroke: black;">
<line x1="432" y1="264" x2="441.5" y2="264" />
<line x1="432" y1="195.78" x2="441.5" y2="195.78" />
</g>
<g style="fill: black; stroke: black;">
<rect x="427" y="215.88" width="19" height="1" />
</g>
<g style="fill: black; stroke: black;">
<line x1="460" y1="240.72" x2="469.5" y2="240.72" />
<line x1="460" y1="191.04" x2="469.5" y2="191.04" />
<line x1="460" y1="178.2" x2="469.5" y2="178.2" />
<rect x="464" y="178.2" width="1" height="5" />
</g>
<g style="fill: black; stroke: black;">
<rect x="455" y="227.11" width="19" height="1" />
</g>
<g style="fill: black; stroke: black;">
<line x1="488" y1="255.98" x2="497.5" y2="255.98" />
<line x1="488" y1="190.81" x2="497.5" y2="190.81" />
<line x1="488" y1="172.49" x2="497.5" y2="172.49" />
<rect x="492" y="172.49" width="1" height="5" />
</g>
<g style="fill: black; stroke: black;">
<rect x="483" y="220.29" width="19" height="1" />
</g>
<g style="text-anchor: end; font-family: Ubuntu,Verdana,sans-serif; font-size: 0.9em;" >
<text x="512" y="282" >01 Dec 2019 u64q</text>
<text x="58" y="282" style="text-anchor: start;" >benchmarks game</text>
</g>
<text x="16" y="144" transform="rotate(270,16,144)" style="text-anchor: middle; font-family: Ubuntu,Verdana,sans-serif; font-size: 0.9em;" >program busy time / least busy</text>
<text x="285" y="18" style="text-anchor: middle; font-family: Ubuntu,Verdana,sans-serif; font-size: 1.2em;" >How many times slower?</text>
<g style="stroke: #333;">
<line x1="58" y1="24" x2="58" y2="264" />
<line x1="511" y1="24" x2="511" y2="264" />
<line x1="58" y1="264" x2="511" y2="264" />
</g>
</svg>

