<?xml version="1.0" encoding="UTF-8" standalone="no"?>
<!DOCTYPE svg PUBLIC "-//W3C//DTD SVG 1.1//EN" "http://www.w3.org/Graphics/SVG/1.1/DTD/svg11.dtd">
<svg xmlns="http://www.w3.org/2000/svg" version="1.1" xmlns:xlink="http://www.w3.org/1999/xlink" viewBox="0 0 512 288">

<!-- Copyright 2015 Isaac Gouy -->
<!-- http://benchmarksgame.alioth.debian.org/license.html -->

<g style="stroke: #ccc;" >
<line x1="51" y1="264" x2="511" y2="264" />
<line x1="51" y1="221.57" x2="511" y2="221.57" />
<line x1="51" y1="201.85" x2="511" y2="201.85" />
<line x1="51" y1="175.08" x2="511" y2="175.08" />
<line x1="51" y1="132.65" x2="511" y2="132.65" />
<line x1="51" y1="112.92" x2="511" y2="112.92" />
<line x1="51" y1="86.15" x2="511" y2="86.15" />
<line x1="51" y1="43.73" x2="511" y2="43.73" />
<line x1="51" y1="24" x2="511" y2="24" />
</g>
<g style="text-anchor: end; font-family: Ubuntu,Verdana,sans-serif; font-size: 0.9em;" >
<text x="51" y="262" >1</text>
<text x="51" y="219.57" >3</text>
<text x="51" y="199.85" >5</text>
<text x="51" y="173.08" >10</text>
<text x="51" y="130.65" >30</text>
<text x="51" y="110.92" >50</text>
<text x="51" y="84.15" >100</text>
<text x="51" y="41.73" >300</text>
<text x="51" y="22" ></text>
</g>
<defs>
<linearGradient id="grade" x1="0" y1="0" x2="0" y2="1">
<stop offset="0" style="stop-color: white" stop-opacity="0.6"/>
<stop offset="1" style="stop-color: white" stop-opacity="0.8"/>
</linearGradient>
<mask id="fade">
<rect x="58" y="24" width="452" height="288" fill="url(#grade)"  />
</mask>
<g id="backgroundText" style="text-anchor: end; font-family: Ubuntu,Verdana,sans-serif; font-size: 1em;">
<text x="17.5" y="0" transform="rotate(270,17.5,0)" xml:space="preserve">   C++ g++   C++ g++   C++ g++   C++ g++   C++ g++   C++ g++</text>
<text x="45.5" y="0" transform="rotate(270,45.5,0)" xml:space="preserve">   C gcc   C gcc   C gcc   C gcc   C gcc   C gcc   C gcc</text>
<text x="73.5" y="0" transform="rotate(270,73.5,0)" xml:space="preserve">Rust   Rust   Rust   Rust   Rust   Rust   Rust   Rust   Rust</text>
<br />
<b>Warning</b>:  Division by zero in <b>/home/dunham/8000-benchmarksgame/website/lib/lib_chartSVG.php</b> on line <b>289</b><br />
<br />
<b>Warning</b>:  str_repeat() expects parameter 2 to be int, float given in <b>/home/dunham/8000-benchmarksgame/website/lib/lib_chartSVG.php</b> on line <b>290</b><br />
<text x="101.5" y="0" transform="rotate(270,101.5,0)" xml:space="preserve"></text>
<text x="129.5" y="0" transform="rotate(270,129.5,0)" xml:space="preserve">da 2012 GNAT   Ada 2012 GNAT   Ada 2012 GNAT   Ada 2012 GNAT</text>
<text x="157.5" y="0" transform="rotate(270,157.5,0)" xml:space="preserve">ortran Intel   Fortran Intel   Fortran Intel   Fortran Intel</text>
<text x="185.5" y="0" transform="rotate(270,185.5,0)" xml:space="preserve">   C# .NET Core   C# .NET Core   C# .NET Core   C# .NET Core</text>
<text x="213.5" y="0" transform="rotate(270,213.5,0)" xml:space="preserve">Java   Java   Java   Java   Java   Java   Java   Java   Java</text>
<text x="241.5" y="0" transform="rotate(270,241.5,0)" xml:space="preserve">   Free Pascal   Free Pascal   Free Pascal   Free Pascal</text>
<text x="269.5" y="0" transform="rotate(270,269.5,0)" xml:space="preserve">   Julia   Julia   Julia   Julia   Julia   Julia   Julia</text>
<text x="297.5" y="0" transform="rotate(270,297.5,0)" xml:space="preserve">   Swift   Swift   Swift   Swift   Swift   Swift   Swift</text>
<text x="325.5" y="0" transform="rotate(270,325.5,0)" xml:space="preserve">   Chapel   Chapel   Chapel   Chapel   Chapel   Chapel</text>
<text x="353.5" y="0" transform="rotate(270,353.5,0)" xml:space="preserve">   F# .NET Core   F# .NET Core   F# .NET Core   F# .NET Core</text>
<text x="381.5" y="0" transform="rotate(270,381.5,0)" xml:space="preserve">   OCaml   OCaml   OCaml   OCaml   OCaml   OCaml   OCaml</text>
<text x="409.5" y="0" transform="rotate(270,409.5,0)" xml:space="preserve">   Lisp SBCL   Lisp SBCL   Lisp SBCL   Lisp SBCL   Lisp SBCL</text>
<text x="437.5" y="0" transform="rotate(270,437.5,0)" xml:space="preserve">   Go   Go   Go   Go   Go   Go   Go   Go   Go   Go   Go   Go</text>
</g>
</defs>
<use x="60" y="27" xlink:href="#backgroundText"/>
<rect x="58" y="24" width="452" height="288" fill="white" mask="url(#fade)" />
<rect x="58" y="264" width="452" height="288" style="fill: white; stroke: white;" />
<g style="fill: black; stroke: black;">
<rect x="72" y="250.23" width="1" height="13.77" />
<rect x="100" y="250.44" width="1" height="13.56" />
<rect x="128" y="256.31" width="1" height="7.69" />
<rect x="156" y="708.61" width="1" height="0" />
<rect x="184" y="215.8" width="1" height="48.12" />
<rect x="212" y="220.12" width="1" height="43.88" />
<rect x="240" y="212.84" width="1" height="42.92" />
<rect x="268" y="212.43" width="1" height="41.24" />
<rect x="296" y="195.63" width="1" height="68.37" />
<rect x="324" y="197.45" width="1" height="49.29" />
<rect x="352" y="188.47" width="1" height="73.03" />
<rect x="380" y="197.4" width="1" height="66.6" />
<rect x="408" y="187.88" width="1" height="55.65" />
<rect x="436" y="189.52" width="1" height="51.25" />
<rect x="464" y="198.65" width="1" height="38.56" />
<rect x="492" y="187.63" width="1" height="67.89" />
</g>
<g style="fill: white; stroke: black;">
<rect x="62" y="257.69" width="21" height="6.31" />
<rect x="90" y="257.32" width="21" height="6.68" />
<rect x="118" y="259.78" width="21" height="2.5" />
<rect x="146" y="708.61" width="21" height="0" />
<rect x="174" y="234.65" width="21" height="21" />
<rect x="202" y="237.6" width="21" height="18.57" />
<rect x="230" y="223.89" width="21" height="23.42" />
<rect x="258" y="225.48" width="21" height="12.05" />
<rect x="286" y="218.05" width="21" height="28.7" />
<rect x="314" y="210.82" width="21" height="29.97" />
<rect x="342" y="211.82" width="21" height="31.15" />
<rect x="370" y="206.11" width="21" height="35.37" />
<rect x="398" y="210.26" width="21" height="28.63" />
<rect x="426" y="210.52" width="21" height="25.39" />
<rect x="454" y="205.14" width="21" height="25.7" />
<rect x="482" y="211.15" width="21" height="31.62" />
</g>
<g style="fill: black; stroke: black;">
<line x1="68" y1="264" x2="77.5" y2="264" />
<line x1="68" y1="250.23" x2="77.5" y2="250.23" />
</g>
<g style="fill: black; stroke: black;">
<rect x="63" y="260.55" width="19" height="1" />
</g>
<g style="fill: black; stroke: black;">
<line x1="96" y1="264" x2="105.5" y2="264" />
<line x1="96" y1="250.44" x2="105.5" y2="250.44" />
</g>
<g style="fill: black; stroke: black;">
<rect x="91" y="259.85" width="19" height="1" />
</g>
<g style="fill: black; stroke: black;">
<line x1="124" y1="264" x2="133.5" y2="264" />
<line x1="124" y1="256.31" x2="133.5" y2="256.31" />
<line x1="124" y1="242.84" x2="133.5" y2="242.84" />
<rect x="128" y="242.84" width="1" height="5" />
</g>
<g style="fill: black; stroke: black;">
<rect x="119" y="260.56" width="19" height="1" />
</g>
<g style="fill: black; stroke: black;">
<line x1="152" y1="708.61" x2="161.5" y2="708.61" />
<line x1="152" y1="708.61" x2="161.5" y2="708.61" />
</g>
<g style="fill: black; stroke: black;">
<rect x="147" y="707.61" width="19" height="1" />
</g>
<g style="fill: black; stroke: black;">
<line x1="180" y1="263.92" x2="189.5" y2="263.92" />
<line x1="180" y1="215.8" x2="189.5" y2="215.8" />
<line x1="180" y1="213.29" x2="189.5" y2="213.29" />
<rect x="184" y="213.29" width="1" height="5" />
</g>
<g style="fill: black; stroke: black;">
<rect x="175" y="243.22" width="19" height="1" />
</g>
<g style="fill: black; stroke: black;">
<line x1="208" y1="264" x2="217.5" y2="264" />
<line x1="208" y1="220.12" x2="217.5" y2="220.12" />
<line x1="208" y1="181.3" x2="217.5" y2="181.3" />
<rect x="212" y="181.3" width="1" height="5" />
</g>
<g style="fill: black; stroke: black;">
<rect x="203" y="245.96" width="19" height="1" />
</g>
<g style="fill: black; stroke: black;">
<line x1="236" y1="255.76" x2="245.5" y2="255.76" />
<line x1="236" y1="212.84" x2="245.5" y2="212.84" />
</g>
<g style="fill: black; stroke: black;">
<rect x="231" y="234.46" width="19" height="1" />
</g>
<g style="fill: black; stroke: black;">
<line x1="264" y1="253.67" x2="273.5" y2="253.67" />
<line x1="264" y1="212.43" x2="273.5" y2="212.43" />
<line x1="264" y1="211.19" x2="273.5" y2="211.19" />
<rect x="268" y="211.19" width="1" height="5" />
</g>
<g style="fill: black; stroke: black;">
<rect x="259" y="229.97" width="19" height="1" />
</g>
<g style="fill: black; stroke: black;">
<line x1="292" y1="264" x2="301.5" y2="264" />
<line x1="292" y1="195.63" x2="301.5" y2="195.63" />
<line x1="292" y1="191.35" x2="301.5" y2="191.35" />
<rect x="296" y="191.35" width="1" height="5" />
</g>
<g style="fill: black; stroke: black;">
<rect x="287" y="220.79" width="19" height="1" />
</g>
<g style="fill: black; stroke: black;">
<line x1="320" y1="246.74" x2="329.5" y2="246.74" />
<line x1="320" y1="197.45" x2="329.5" y2="197.45" />
</g>
<g style="fill: black; stroke: black;">
<rect x="315" y="232.35" width="19" height="1" />
</g>
<g style="fill: black; stroke: black;">
<line x1="348" y1="261.5" x2="357.5" y2="261.5" />
<line x1="348" y1="188.47" x2="357.5" y2="188.47" />
<line x1="348" y1="164.57" x2="357.5" y2="164.57" />
<rect x="352" y="164.57" width="1" height="5" />
</g>
<g style="fill: black; stroke: black;">
<rect x="343" y="236.15" width="19" height="1" />
</g>
<g style="fill: black; stroke: black;">
<line x1="376" y1="264" x2="385.5" y2="264" />
<line x1="376" y1="197.4" x2="385.5" y2="197.4" />
</g>
<g style="fill: black; stroke: black;">
<rect x="371" y="218.88" width="19" height="1" />
</g>
<g style="fill: black; stroke: black;">
<line x1="404" y1="243.52" x2="413.5" y2="243.52" />
<line x1="404" y1="187.88" x2="413.5" y2="187.88" />
<line x1="404" y1="163.06" x2="413.5" y2="163.06" />
<rect x="408" y="163.06" width="1" height="5" />
</g>
<g style="fill: black; stroke: black;">
<rect x="399" y="229.96" width="19" height="1" />
</g>
<g style="fill: black; stroke: black;">
<line x1="432" y1="240.77" x2="441.5" y2="240.77" />
<line x1="432" y1="189.52" x2="441.5" y2="189.52" />
<line x1="432" y1="178.32" x2="441.5" y2="178.32" />
<rect x="436" y="178.32" width="1" height="5" />
</g>
<g style="fill: black; stroke: black;">
<rect x="427" y="223.08" width="19" height="1" />
</g>
<g style="fill: black; stroke: black;">
<line x1="460" y1="237.21" x2="469.5" y2="237.21" />
<line x1="460" y1="198.65" x2="469.5" y2="198.65" />
</g>
<g style="fill: black; stroke: black;">
<rect x="455" y="218.6" width="19" height="1" />
</g>
<g style="fill: black; stroke: black;">
<line x1="488" y1="255.52" x2="497.5" y2="255.52" />
<line x1="488" y1="187.63" x2="497.5" y2="187.63" />
<line x1="488" y1="152.58" x2="497.5" y2="152.58" />
<rect x="492" y="152.58" width="1" height="5" />
</g>
<g style="fill: black; stroke: black;">
<rect x="483" y="216.81" width="19" height="1" />
</g>
<g style="text-anchor: end; font-family: Ubuntu,Verdana,sans-serif; font-size: 0.9em;" >
<text x="512" y="282" >05 Aug 2019 u64q</text>
<text x="58" y="282" style="text-anchor: start;" >benchmarks game</text>
</g>
<text x="16" y="144" transform="rotate(270,16,144)" style="text-anchor: middle; font-family: Ubuntu,Verdana,sans-serif; font-size: 0.9em;" >program busy time / least busy</text>
<text x="285" y="18" style="text-anchor: middle; font-family: Ubuntu,Verdana,sans-serif; font-size: 1.2em;" >How many times slower?</text>
<g style="stroke: #333;">
<line x1="58" y1="24" x2="58" y2="264" />
<line x1="511" y1="24" x2="511" y2="264" />
<line x1="58" y1="264" x2="511" y2="264" />
</g>
</svg>

