<?xml version="1.0" encoding="UTF-8" standalone="no"?>
<!DOCTYPE svg PUBLIC "-//W3C//DTD SVG 1.1//EN" "http://www.w3.org/Graphics/SVG/1.1/DTD/svg11.dtd">
<svg xmlns="http://www.w3.org/2000/svg" version="1.1" xmlns:xlink="http://www.w3.org/1999/xlink" viewBox="0 0 512 288">

<!-- Copyright 2015-2021 Isaac Gouy -->

<!-- Box plot chart showing benchmark program performance grouped by implementation language -->

<!-- The Computer Language Benchmarks Game -->
<!-- https://benchmarksgame-team.pages.debian.net/benchmarksgame/license.html -->

<g style="stroke: #ccc;" >
<line x1="51" y1="264" x2="461" y2="264" />
<line x1="51" y1="221.57" x2="461" y2="221.57" />
<line x1="51" y1="201.85" x2="461" y2="201.85" />
<line x1="51" y1="175.08" x2="461" y2="175.08" />
<line x1="51" y1="132.65" x2="461" y2="132.65" />
<line x1="51" y1="112.92" x2="461" y2="112.92" />
<line x1="51" y1="86.15" x2="461" y2="86.15" />
<line x1="51" y1="43.73" x2="461" y2="43.73" />
<line x1="51" y1="24" x2="461" y2="24" />
</g>
<g style="text-anchor: end; font-family: Ubuntu,Verdana,sans-serif; font-size: 0.9em;" >
<text x="51" y="262" >1</text>
<text x="51" y="219.57" >3</text>
<text x="51" y="199.85" >5</text>
<text x="51" y="173.08" >10</text>
<text x="51" y="130.65" >30</text>
<text x="51" y="110.92" >50</text>
<text x="51" y="84.15" >100</text>
<text x="51" y="41.73" >300</text>
<text x="51" y="22" ></text>
</g>
<defs>
<linearGradient id="grade" x1="0" y1="0" x2="0" y2="1">
<stop offset="0" style="stop-color: white" stop-opacity="0.6"/>
<stop offset="1" style="stop-color: white" stop-opacity="0.8"/>
</linearGradient>
<mask id="fade">
<rect x="58" y="24" width="452" height="288" fill="url(#grade)"  />
</mask>
<g id="backgroundText" style="text-anchor: end; font-family: Ubuntu,Verdana,sans-serif; font-size: 1em;">
<text x="16" y="0" transform="rotate(270,16,0)" xml:space="preserve">   F# .NET   F# .NET   F# .NET   F# .NET</text>
<text x="43" y="0" transform="rotate(270,43,0)" xml:space="preserve">   Java   Java   Java   Java   Java   Java</text>
<text x="70" y="0" transform="rotate(270,70,0)" xml:space="preserve">   Lisp SBCL   Lisp SBCL   Lisp SBCL</text>
<text x="97" y="0" transform="rotate(270,97,0)" xml:space="preserve">   Free Pascal   Free Pascal   Free Pascal</text>
<text x="124" y="0" transform="rotate(270,124,0)" xml:space="preserve">   Dart   Dart   Dart   Dart   Dart   Dart</text>
<text x="151" y="0" transform="rotate(270,151,0)" xml:space="preserve">   Node js   Node js   Node js   Node js</text>
<text x="178" y="0" transform="rotate(270,178,0)" xml:space="preserve">   Racket   Racket   Racket   Racket   Racket</text>
<text x="205" y="0" transform="rotate(270,205,0)" xml:space="preserve">   PHP   PHP   PHP   PHP   PHP   PHP   PHP   PHP</text>
<text x="232" y="0" transform="rotate(270,232,0)" xml:space="preserve">   Erlang   Erlang   Erlang   Erlang   Erlang</text>
<text x="259" y="0" transform="rotate(270,259,0)" xml:space="preserve">   Ruby   Ruby   Ruby   Ruby   Ruby   Ruby</text>
<text x="286" y="0" transform="rotate(270,286,0)" xml:space="preserve">   Python 3   Python 3   Python 3   Python 3</text>
<text x="313" y="0" transform="rotate(270,313,0)" xml:space="preserve">   VW Smalltalk   VW Smalltalk   VW Smalltalk</text>
<text x="340" y="0" transform="rotate(270,340,0)" xml:space="preserve">   Lua   Lua   Lua   Lua   Lua   Lua   Lua   Lua</text>
<text x="367" y="0" transform="rotate(270,367,0)" xml:space="preserve">   Perl   Perl   Perl   Perl   Perl   Perl</text>
<text x="394" y="0" transform="rotate(270,394,0)" xml:space="preserve">   Matz's Ruby   Matz's Ruby   Matz's Ruby</text>
</g>
</defs>
<use x="60" y="27" xlink:href="#backgroundText"/>
<rect x="58" y="24" width="452" height="288" fill="white" mask="url(#fade)" />
<rect x="58" y="264" width="452" height="288" style="fill: white; stroke: white;" />
<g style="fill: black; stroke: black;">
<rect x="72" y="185.53" width="1" height="74.11" />
<rect x="99" y="181.98" width="1" height="76.51" />
<rect x="126" y="178.68" width="1" height="45.45" />
<rect x="153" y="187.77" width="1" height="75.26" />
<rect x="180" y="163.96" width="1" height="53.39" />
<rect x="207" y="180.52" width="1" height="64.35" />
<rect x="234" y="158.47" width="1" height="91.4" />
<rect x="261" y="131.34" width="1" height="122.92" />
<rect x="288" y="95.16" width="1" height="118.94" />
<rect x="315" y="55.76" width="1" height="180.17" />
<rect x="342" y="49.9" width="1" height="199.85" />
<rect x="369" y="86.91" width="1" height="87.73" />
<rect x="396" y="83.98" width="1" height="166.7" />
<rect x="423" y="39.23" width="1" height="188.05" />
<rect x="450" y="-34.31" width="1" height="184.41" />
</g>
<g style="fill: white; stroke: black;">
<rect x="62" y="202.82" width="22" height="28.15" />
<rect x="89" y="202.13" width="22" height="23.54" />
<rect x="116" y="197.11" width="22" height="20.24" />
<rect x="143" y="196.09" width="22" height="37.82" />
<rect x="170" y="183.52" width="22" height="22.37" />
<rect x="197" y="184.73" width="22" height="32.15" />
<rect x="224" y="167.76" width="22" height="23.12" />
<rect x="251" y="137.36" width="22" height="32.43" />
<rect x="278" y="113.95" width="22" height="20.89" />
<rect x="305" y="83.81" width="22" height="66.36" />
<rect x="332" y="75.29" width="22" height="83.06" />
<rect x="359" y="104.81" width="22" height="41.26" />
<rect x="386" y="96.79" width="22" height="30.71" />
<rect x="413" y="70.88" width="22" height="72.34" />
<rect x="440" y="-5.63" width="22" height="101.5" />
</g>
<g style="fill: black; stroke: black;">
<line x1="68.5" y1="259.64" x2="78" y2="259.64" />
<line x1="68.5" y1="185.53" x2="78" y2="185.53" />
</g>
<g style="fill: black; stroke: black;">
<rect x="63" y="210.73" width="20" height="1" />
</g>
<g style="fill: black; stroke: black;">
<line x1="95.5" y1="258.49" x2="105" y2="258.49" />
<line x1="95.5" y1="181.98" x2="105" y2="181.98" />
<line x1="95.5" y1="178.3" x2="105" y2="178.3" />
<rect x="99" y="178.3" width="1" height="5" />
</g>
<g style="fill: black; stroke: black;">
<rect x="90" y="209.82" width="20" height="1" />
</g>
<g style="fill: black; stroke: black;">
<line x1="122.5" y1="224.13" x2="132" y2="224.13" />
<line x1="122.5" y1="178.68" x2="132" y2="178.68" />
<line x1="122.5" y1="152.74" x2="132" y2="152.74" />
<rect x="126" y="152.74" width="1" height="5" />
</g>
<g style="fill: black; stroke: black;">
<rect x="117" y="208.81" width="20" height="1" />
</g>
<g style="fill: black; stroke: black;">
<line x1="149.5" y1="263.04" x2="159" y2="263.04" />
<line x1="149.5" y1="187.77" x2="159" y2="187.77" />
</g>
<g style="fill: black; stroke: black;">
<rect x="144" y="208.1" width="20" height="1" />
</g>
<g style="fill: black; stroke: black;">
<line x1="176.5" y1="217.35" x2="186" y2="217.35" />
<line x1="176.5" y1="163.96" x2="186" y2="163.96" />
<line x1="176.5" y1="149.75" x2="186" y2="149.75" />
<rect x="180" y="149.75" width="1" height="5" />
</g>
<g style="fill: black; stroke: black;">
<rect x="171" y="201.05" width="20" height="1" />
</g>
<g style="fill: black; stroke: black;">
<line x1="203.5" y1="244.86" x2="213" y2="244.86" />
<line x1="203.5" y1="180.52" x2="213" y2="180.52" />
</g>
<g style="fill: black; stroke: black;">
<rect x="198" y="199.84" width="20" height="1" />
</g>
<g style="fill: black; stroke: black;">
<line x1="230.5" y1="249.87" x2="240" y2="249.87" />
<line x1="230.5" y1="158.47" x2="240" y2="158.47" />
</g>
<g style="fill: black; stroke: black;">
<rect x="225" y="172.45" width="20" height="1" />
</g>
<g style="fill: black; stroke: black;">
<line x1="257.5" y1="254.26" x2="267" y2="254.26" />
<line x1="257.5" y1="131.34" x2="267" y2="131.34" />
</g>
<g style="fill: black; stroke: black;">
<rect x="252" y="152.98" width="20" height="1" />
</g>
<g style="fill: black; stroke: black;">
<line x1="284.5" y1="214.1" x2="294" y2="214.1" />
<line x1="284.5" y1="95.16" x2="294" y2="95.16" />
<line x1="284.5" y1="78.93" x2="294" y2="78.93" />
<rect x="288" y="78.93" width="1" height="5" />
</g>
<g style="fill: black; stroke: black;">
<rect x="279" y="126.37" width="20" height="1" />
</g>
<g style="fill: black; stroke: black;">
<line x1="311.5" y1="235.92" x2="321" y2="235.92" />
<line x1="311.5" y1="55.76" x2="321" y2="55.76" />
</g>
<g style="fill: black; stroke: black;">
<rect x="306" y="122.74" width="20" height="1" />
</g>
<g style="fill: black; stroke: black;">
<line x1="338.5" y1="249.75" x2="348" y2="249.75" />
<line x1="338.5" y1="49.9" x2="348" y2="49.9" />
</g>
<g style="fill: black; stroke: black;">
<rect x="333" y="119.19" width="20" height="1" />
</g>
<g style="fill: black; stroke: black;">
<line x1="365.5" y1="174.63" x2="375" y2="174.63" />
<line x1="365.5" y1="86.91" x2="375" y2="86.91" />
</g>
<g style="fill: black; stroke: black;">
<rect x="360" y="116.51" width="20" height="1" />
</g>
<g style="fill: black; stroke: black;">
<line x1="392.5" y1="250.68" x2="402" y2="250.68" />
<line x1="392.5" y1="83.98" x2="402" y2="83.98" />
</g>
<g style="fill: black; stroke: black;">
<rect x="387" y="111.48" width="20" height="1" />
</g>
<g style="fill: black; stroke: black;">
<line x1="419.5" y1="227.28" x2="429" y2="227.28" />
<line x1="419.5" y1="39.23" x2="429" y2="39.23" />
<line x1="419.5" y1="18.72" x2="429" y2="18.72" />
<rect x="423" y="18.72" width="1" height="5" />
</g>
<g style="fill: black; stroke: black;">
<rect x="414" y="104.85" width="20" height="1" />
</g>
<g style="fill: black; stroke: black;">
<line x1="446.5" y1="150.1" x2="456" y2="150.1" />
<line x1="446.5" y1="-34.31" x2="456" y2="-34.31" />
</g>
<g style="fill: black; stroke: black;">
<rect x="441" y="37.41" width="20" height="1" />
</g>
<g style="text-anchor: end; font-family: Ubuntu,Verdana,sans-serif; font-size: 0.9em;" >
<text x="462" y="282" >18 Mar 2022 u64q</text>
<text x="58" y="282" style="text-anchor: start;" >benchmarks game</text>
</g>
<text x="16" y="144" transform="rotate(270,16,144)" style="text-anchor: middle; font-family: Ubuntu,Verdana,sans-serif; font-size: 0.9em;" >program cpu time / lowest</text>
<rect x="58" y="0" width="452" height="23" style="fill: white; stroke: white;" />
<text x="259.5" y="18" style="text-anchor: middle; font-family: Ubuntu,Verdana,sans-serif; font-size: 1.2em;" >How many times more CPU seconds?</text>
<g style="stroke: #333;">
<line x1="58" y1="24" x2="58" y2="264" />
<line x1="461" y1="24" x2="461" y2="264" />
<line x1="58" y1="264" x2="461" y2="264" />
</g>
</svg>

