<?xml version="1.0" encoding="UTF-8" standalone="no"?>
<!DOCTYPE svg PUBLIC "-//W3C//DTD SVG 1.1//EN" "http://www.w3.org/Graphics/SVG/1.1/DTD/svg11.dtd">
<svg xmlns="http://www.w3.org/2000/svg" version="1.1" xmlns:xlink="http://www.w3.org/1999/xlink" viewBox="0 0 512 288">

<!-- Copyright 2015 Isaac Gouy -->
<!-- http://benchmarksgame.alioth.debian.org/license.html -->

<g style="stroke: #ccc;" >
<line x1="51" y1="264" x2="511" y2="264" />
<line x1="51" y1="221.57" x2="511" y2="221.57" />
<line x1="51" y1="201.85" x2="511" y2="201.85" />
<line x1="51" y1="175.08" x2="511" y2="175.08" />
<line x1="51" y1="132.65" x2="511" y2="132.65" />
<line x1="51" y1="112.92" x2="511" y2="112.92" />
<line x1="51" y1="86.15" x2="511" y2="86.15" />
<line x1="51" y1="43.73" x2="511" y2="43.73" />
<line x1="51" y1="24" x2="511" y2="24" />
</g>
<g style="text-anchor: end; font-family: Ubuntu,Verdana,sans-serif; font-size: 0.9em;" >
<text x="51" y="262" >1</text>
<text x="51" y="219.57" >3</text>
<text x="51" y="199.85" >5</text>
<text x="51" y="173.08" >10</text>
<text x="51" y="130.65" >30</text>
<text x="51" y="110.92" >50</text>
<text x="51" y="84.15" >100</text>
<text x="51" y="41.73" >300</text>
<text x="51" y="22" ></text>
</g>
<defs>
<linearGradient id="grade" x1="0" y1="0" x2="0" y2="1">
<stop offset="0" style="stop-color: white" stop-opacity="0.6"/>
<stop offset="1" style="stop-color: white" stop-opacity="0.8"/>
</linearGradient>
<mask id="fade">
<rect x="58" y="24" width="452" height="288" fill="url(#grade)"  />
</mask>
<g id="backgroundText" style="text-anchor: end; font-family: Ubuntu,Verdana,sans-serif; font-size: 1em;">
<text x="15" y="0" transform="rotate(270,15,0)" xml:space="preserve">   C gcc   C gcc   C gcc   C gcc   C gcc   C gcc   C gcc</text>
<text x="40" y="0" transform="rotate(270,40,0)" xml:space="preserve">Rust   Rust   Rust   Rust   Rust   Rust   Rust   Rust   Rust</text>
<text x="65" y="0" transform="rotate(270,65,0)" xml:space="preserve">   C++ g++   C++ g++   C++ g++   C++ g++   C++ g++   C++ g++</text>
<br />
<b>Warning</b>:  Division by zero in <b>/home/dunham/8000-benchmarksgame/website/lib/lib_chartSVG.php</b> on line <b>289</b><br />
<br />
<b>Warning</b>:  str_repeat() expects parameter 2 to be int, float given in <b>/home/dunham/8000-benchmarksgame/website/lib/lib_chartSVG.php</b> on line <b>290</b><br />
<text x="90" y="0" transform="rotate(270,90,0)" xml:space="preserve"></text>
<text x="115" y="0" transform="rotate(270,115,0)" xml:space="preserve">da 2012 GNAT   Ada 2012 GNAT   Ada 2012 GNAT   Ada 2012 GNAT</text>
<text x="140" y="0" transform="rotate(270,140,0)" xml:space="preserve">ortran Intel   Fortran Intel   Fortran Intel   Fortran Intel</text>
<text x="165" y="0" transform="rotate(270,165,0)" xml:space="preserve">   C# .NET Core   C# .NET Core   C# .NET Core   C# .NET Core</text>
<br />
<b>Warning</b>:  Division by zero in <b>/home/dunham/8000-benchmarksgame/website/lib/lib_chartSVG.php</b> on line <b>289</b><br />
<br />
<b>Warning</b>:  str_repeat() expects parameter 2 to be int, float given in <b>/home/dunham/8000-benchmarksgame/website/lib/lib_chartSVG.php</b> on line <b>290</b><br />
<text x="190" y="0" transform="rotate(270,190,0)" xml:space="preserve"></text>
<text x="215" y="0" transform="rotate(270,215,0)" xml:space="preserve">   Julia   Julia   Julia   Julia   Julia   Julia   Julia</text>
<text x="240" y="0" transform="rotate(270,240,0)" xml:space="preserve">   Free Pascal   Free Pascal   Free Pascal   Free Pascal</text>
<text x="265" y="0" transform="rotate(270,265,0)" xml:space="preserve">Java   Java   Java   Java   Java   Java   Java   Java   Java</text>
<text x="290" y="0" transform="rotate(270,290,0)" xml:space="preserve">   F# .NET Core   F# .NET Core   F# .NET Core   F# .NET Core</text>
<text x="315" y="0" transform="rotate(270,315,0)" xml:space="preserve">   Swift   Swift   Swift   Swift   Swift   Swift   Swift</text>
<text x="340" y="0" transform="rotate(270,340,0)" xml:space="preserve">   Go   Go   Go   Go   Go   Go   Go   Go   Go   Go   Go   Go</text>
<text x="365" y="0" transform="rotate(270,365,0)" xml:space="preserve">   Chapel   Chapel   Chapel   Chapel   Chapel   Chapel</text>
<text x="390" y="0" transform="rotate(270,390,0)" xml:space="preserve">   OCaml   OCaml   OCaml   OCaml   OCaml   OCaml   OCaml</text>
<text x="415" y="0" transform="rotate(270,415,0)" xml:space="preserve">   Haskell GHC   Haskell GHC   Haskell GHC   Haskell GHC</text>
<text x="440" y="0" transform="rotate(270,440,0)" xml:space="preserve">   Lisp SBCL   Lisp SBCL   Lisp SBCL   Lisp SBCL   Lisp SBCL</text>
</g>
</defs>
<use x="60" y="27" xlink:href="#backgroundText"/>
<rect x="58" y="24" width="452" height="288" fill="white" mask="url(#fade)" />
<rect x="58" y="264" width="452" height="288" style="fill: white; stroke: white;" />
<g style="fill: black; stroke: black;">
<rect x="72" y="251.12" width="1" height="12.88" />
<rect x="97" y="247.52" width="1" height="16.48" />
<rect x="122" y="245.05" width="1" height="18.95" />
<rect x="147" y="708.61" width="1" height="0" />
<rect x="172" y="218.9" width="1" height="45.01" />
<rect x="197" y="220.94" width="1" height="43.06" />
<rect x="222" y="214.14" width="1" height="48.75" />
<rect x="247" y="708.61" width="1" height="0" />
<rect x="272" y="212.9" width="1" height="34.46" />
<rect x="297" y="200.58" width="1" height="63.42" />
<rect x="322" y="210.99" width="1" height="43.6" />
<rect x="347" y="208.41" width="1" height="49.99" />
<rect x="372" y="190.28" width="1" height="71.19" />
<rect x="397" y="191.08" width="1" height="62.63" />
<rect x="422" y="196.04" width="1" height="67.96" />
<rect x="447" y="191.22" width="1" height="49.67" />
<rect x="472" y="190.99" width="1" height="65.15" />
<rect x="497" y="186.12" width="1" height="54.32" />
</g>
<g style="fill: white; stroke: black;">
<rect x="62" y="257.01" width="20" height="6.99" />
<rect x="87" y="256.5" width="20" height="7.4" />
<rect x="112" y="255.23" width="20" height="8.67" />
<rect x="137" y="708.61" width="20" height="0" />
<rect x="162" y="236.61" width="20" height="18.96" />
<rect x="187" y="238.59" width="20" height="18.85" />
<rect x="212" y="227.84" width="20" height="24.49" />
<rect x="237" y="708.61" width="20" height="0" />
<rect x="262" y="228.3" width="20" height="17.83" />
<rect x="287" y="220.43" width="20" height="22.94" />
<rect x="312" y="224.77" width="20" height="13.01" />
<rect x="337" y="215.44" width="20" height="24" />
<rect x="362" y="214.34" width="20" height="33.17" />
<rect x="387" y="214.14" width="20" height="30.37" />
<rect x="412" y="207.67" width="20" height="29.32" />
<rect x="437" y="211.67" width="20" height="24.18" />
<rect x="462" y="209.58" width="20" height="20.53" />
<rect x="487" y="202.1" width="20" height="33.35" />
</g>
<g style="fill: black; stroke: black;">
<line x1="67.5" y1="264" x2="77" y2="264" />
<line x1="67.5" y1="251.12" x2="77" y2="251.12" />
</g>
<g style="fill: black; stroke: black;">
<rect x="63" y="259.54" width="18" height="1" />
</g>
<g style="fill: black; stroke: black;">
<line x1="92.5" y1="264" x2="102" y2="264" />
<line x1="92.5" y1="247.52" x2="102" y2="247.52" />
<line x1="92.5" y1="243.91" x2="102" y2="243.91" />
<rect x="97" y="243.91" width="1" height="5" />
</g>
<g style="fill: black; stroke: black;">
<rect x="88" y="260.43" width="18" height="1" />
</g>
<g style="fill: black; stroke: black;">
<line x1="117.5" y1="264" x2="127" y2="264" />
<line x1="117.5" y1="245.05" x2="127" y2="245.05" />
<line x1="117.5" y1="239.92" x2="127" y2="239.92" />
<rect x="122" y="239.92" width="1" height="5" />
</g>
<g style="fill: black; stroke: black;">
<rect x="113" y="257.05" width="18" height="1" />
</g>
<g style="fill: black; stroke: black;">
<line x1="142.5" y1="708.61" x2="152" y2="708.61" />
<line x1="142.5" y1="708.61" x2="152" y2="708.61" />
</g>
<g style="fill: black; stroke: black;">
<rect x="138" y="707.61" width="18" height="1" />
</g>
<g style="fill: black; stroke: black;">
<line x1="167.5" y1="263.91" x2="177" y2="263.91" />
<line x1="167.5" y1="218.9" x2="177" y2="218.9" />
<line x1="167.5" y1="213.38" x2="177" y2="213.38" />
<rect x="172" y="213.38" width="1" height="5" />
</g>
<g style="fill: black; stroke: black;">
<rect x="163" y="244.78" width="18" height="1" />
</g>
<g style="fill: black; stroke: black;">
<line x1="192.5" y1="264" x2="202" y2="264" />
<line x1="192.5" y1="220.94" x2="202" y2="220.94" />
<line x1="192.5" y1="181.65" x2="202" y2="181.65" />
<rect x="197" y="181.65" width="1" height="5" />
</g>
<g style="fill: black; stroke: black;">
<rect x="188" y="246.1" width="18" height="1" />
</g>
<g style="fill: black; stroke: black;">
<line x1="217.5" y1="262.88" x2="227" y2="262.88" />
<line x1="217.5" y1="214.14" x2="227" y2="214.14" />
</g>
<g style="fill: black; stroke: black;">
<rect x="213" y="240.7" width="18" height="1" />
</g>
<g style="fill: black; stroke: black;">
<line x1="242.5" y1="708.61" x2="252" y2="708.61" />
<line x1="242.5" y1="708.61" x2="252" y2="708.61" />
</g>
<g style="fill: black; stroke: black;">
<rect x="238" y="707.61" width="18" height="1" />
</g>
<g style="fill: black; stroke: black;">
<line x1="267.5" y1="247.37" x2="277" y2="247.37" />
<line x1="267.5" y1="212.9" x2="277" y2="212.9" />
</g>
<g style="fill: black; stroke: black;">
<rect x="263" y="237.02" width="18" height="1" />
</g>
<g style="fill: black; stroke: black;">
<line x1="292.5" y1="264" x2="302" y2="264" />
<line x1="292.5" y1="200.58" x2="302" y2="200.58" />
<line x1="292.5" y1="196.93" x2="302" y2="196.93" />
<rect x="297" y="196.93" width="1" height="5" />
</g>
<g style="fill: black; stroke: black;">
<rect x="288" y="223.63" width="18" height="1" />
</g>
<g style="fill: black; stroke: black;">
<line x1="317.5" y1="254.58" x2="327" y2="254.58" />
<line x1="317.5" y1="210.99" x2="327" y2="210.99" />
<line x1="317.5" y1="206.03" x2="327" y2="206.03" />
<rect x="322" y="206.03" width="1" height="5" />
</g>
<g style="fill: black; stroke: black;">
<rect x="313" y="232.78" width="18" height="1" />
</g>
<g style="fill: black; stroke: black;">
<line x1="342.5" y1="258.39" x2="352" y2="258.39" />
<line x1="342.5" y1="208.41" x2="352" y2="208.41" />
</g>
<g style="fill: black; stroke: black;">
<rect x="338" y="229.9" width="18" height="1" />
</g>
<g style="fill: black; stroke: black;">
<line x1="367.5" y1="261.47" x2="377" y2="261.47" />
<line x1="367.5" y1="190.28" x2="377" y2="190.28" />
<line x1="367.5" y1="165.23" x2="377" y2="165.23" />
<rect x="372" y="165.23" width="1" height="5" />
</g>
<g style="fill: black; stroke: black;">
<rect x="363" y="236.09" width="18" height="1" />
</g>
<g style="fill: black; stroke: black;">
<line x1="392.5" y1="253.71" x2="402" y2="253.71" />
<line x1="392.5" y1="191.08" x2="402" y2="191.08" />
<line x1="392.5" y1="185.11" x2="402" y2="185.11" />
<rect x="397" y="185.11" width="1" height="5" />
</g>
<g style="fill: black; stroke: black;">
<rect x="388" y="222.51" width="18" height="1" />
</g>
<g style="fill: black; stroke: black;">
<line x1="417.5" y1="264" x2="427" y2="264" />
<line x1="417.5" y1="196.04" x2="427" y2="196.04" />
</g>
<g style="fill: black; stroke: black;">
<rect x="413" y="213.62" width="18" height="1" />
</g>
<g style="fill: black; stroke: black;">
<line x1="442.5" y1="240.88" x2="452" y2="240.88" />
<line x1="442.5" y1="191.22" x2="452" y2="191.22" />
<line x1="442.5" y1="178.2" x2="452" y2="178.2" />
<rect x="447" y="178.2" width="1" height="5" />
</g>
<g style="fill: black; stroke: black;">
<rect x="438" y="227.11" width="18" height="1" />
</g>
<g style="fill: black; stroke: black;">
<line x1="467.5" y1="256.14" x2="477" y2="256.14" />
<line x1="467.5" y1="190.99" x2="477" y2="190.99" />
<line x1="467.5" y1="172.49" x2="477" y2="172.49" />
<rect x="472" y="172.49" width="1" height="5" />
</g>
<g style="fill: black; stroke: black;">
<rect x="463" y="220.29" width="18" height="1" />
</g>
<g style="fill: black; stroke: black;">
<line x1="492.5" y1="240.44" x2="502" y2="240.44" />
<line x1="492.5" y1="186.12" x2="502" y2="186.12" />
</g>
<g style="fill: black; stroke: black;">
<rect x="488" y="213.6" width="18" height="1" />
</g>
<g style="text-anchor: end; font-family: Ubuntu,Verdana,sans-serif; font-size: 0.9em;" >
<text x="512" y="282" >01 Jan 2020 u64q</text>
<text x="58" y="282" style="text-anchor: start;" >benchmarks game</text>
</g>
<text x="16" y="144" transform="rotate(270,16,144)" style="text-anchor: middle; font-family: Ubuntu,Verdana,sans-serif; font-size: 0.9em;" >program busy time / least busy</text>
<text x="285" y="18" style="text-anchor: middle; font-family: Ubuntu,Verdana,sans-serif; font-size: 1.2em;" >How many times slower?</text>
<g style="stroke: #333;">
<line x1="58" y1="24" x2="58" y2="264" />
<line x1="511" y1="24" x2="511" y2="264" />
<line x1="58" y1="264" x2="511" y2="264" />
</g>
</svg>

