<?xml version="1.0" encoding="UTF-8" standalone="no"?>
<!DOCTYPE svg PUBLIC "-//W3C//DTD SVG 1.1//EN" "http://www.w3.org/Graphics/SVG/1.1/DTD/svg11.dtd">
<svg xmlns="http://www.w3.org/2000/svg" version="1.1" xmlns:xlink="http://www.w3.org/1999/xlink" viewBox="0 0 512 288">

<!-- Copyright 2015-2020 Isaac Gouy -->
<!-- https://salsa.debian.org/benchmarksgame-team/benchmarksgame/blob/master/LICENSE.md -->

<g style="stroke: #ccc;" >
<line x1="51" y1="264" x2="511" y2="264" />
<line x1="51" y1="221.57" x2="511" y2="221.57" />
<line x1="51" y1="201.85" x2="511" y2="201.85" />
<line x1="51" y1="175.08" x2="511" y2="175.08" />
<line x1="51" y1="132.65" x2="511" y2="132.65" />
<line x1="51" y1="112.92" x2="511" y2="112.92" />
<line x1="51" y1="86.15" x2="511" y2="86.15" />
<line x1="51" y1="43.73" x2="511" y2="43.73" />
<line x1="51" y1="24" x2="511" y2="24" />
</g>
<g style="text-anchor: end; font-family: Ubuntu,Verdana,sans-serif; font-size: 0.9em;" >
<text x="51" y="262" >1</text>
<text x="51" y="219.57" >3</text>
<text x="51" y="199.85" >5</text>
<text x="51" y="173.08" >10</text>
<text x="51" y="130.65" >30</text>
<text x="51" y="110.92" >50</text>
<text x="51" y="84.15" >100</text>
<text x="51" y="41.73" >300</text>
<text x="51" y="22" ></text>
</g>
<defs>
<linearGradient id="grade" x1="0" y1="0" x2="0" y2="1">
<stop offset="0" style="stop-color: white" stop-opacity="0.6"/>
<stop offset="1" style="stop-color: white" stop-opacity="0.8"/>
</linearGradient>
<mask id="fade">
<rect x="58" y="24" width="452" height="288" fill="url(#grade)"  />
</mask>
<g id="backgroundText" style="text-anchor: end; font-family: Ubuntu,Verdana,sans-serif; font-size: 1em;">
<text x="15" y="0" transform="rotate(270,15,0)" xml:space="preserve">   C++ g++   C++ g++   C++ g++   C++ g++</text>
<text x="40" y="0" transform="rotate(270,40,0)" xml:space="preserve">   Rust   Rust   Rust   Rust   Rust   Rust</text>
<text x="65" y="0" transform="rotate(270,65,0)" xml:space="preserve">   C gcc   C gcc   C gcc   C gcc   C gcc</text>
<text x="90" y="0" transform="rotate(270,90,0)" xml:space="preserve">                                                            </text>
<text x="115" y="0" transform="rotate(270,115,0)" xml:space="preserve">   Intel Fortran   Intel Fortran   Intel Fortran</text>
<text x="140" y="0" transform="rotate(270,140,0)" xml:space="preserve">   Julia   Julia   Julia   Julia   Julia</text>
<text x="165" y="0" transform="rotate(270,165,0)" xml:space="preserve">   C# .NET Core   C# .NET Core   C# .NET Core</text>
<text x="190" y="0" transform="rotate(270,190,0)" xml:space="preserve">   Ada 2012 GNAT   Ada 2012 GNAT   Ada 2012 GNAT</text>
<text x="215" y="0" transform="rotate(270,215,0)" xml:space="preserve">                                                            </text>
<text x="240" y="0" transform="rotate(270,240,0)" xml:space="preserve">   Free Pascal   Free Pascal   Free Pascal</text>
<text x="265" y="0" transform="rotate(270,265,0)" xml:space="preserve">   F# .NET Core   F# .NET Core   F# .NET Core</text>
<text x="290" y="0" transform="rotate(270,290,0)" xml:space="preserve">   Java   Java   Java   Java   Java   Java</text>
<text x="315" y="0" transform="rotate(270,315,0)" xml:space="preserve">   Haskell GHC   Haskell GHC   Haskell GHC</text>
<text x="340" y="0" transform="rotate(270,340,0)" xml:space="preserve">   Go   Go   Go   Go   Go   Go   Go   Go   Go   Go</text>
<text x="365" y="0" transform="rotate(270,365,0)" xml:space="preserve">   Chapel   Chapel   Chapel   Chapel   Chapel</text>
<text x="390" y="0" transform="rotate(270,390,0)" xml:space="preserve">   Lisp SBCL   Lisp SBCL   Lisp SBCL</text>
<text x="415" y="0" transform="rotate(270,415,0)" xml:space="preserve">   OCaml   OCaml   OCaml   OCaml   OCaml</text>
<text x="440" y="0" transform="rotate(270,440,0)" xml:space="preserve">   Swift   Swift   Swift   Swift   Swift</text>
</g>
</defs>
<use x="60" y="27" xlink:href="#backgroundText"/>
<rect x="58" y="24" width="452" height="288" fill="white" mask="url(#fade)" />
<rect x="58" y="264" width="452" height="288" style="fill: white; stroke: white;" />
<g style="fill: black; stroke: black;">
<rect x="72" y="256.51" width="1" height="7.49" />
<rect x="97" y="235.81" width="1" height="28.19" />
<rect x="122" y="238.8" width="1" height="25.2" />
<rect x="147" y="708.61" width="1" height="0" />
<rect x="172" y="222.7" width="1" height="41.3" />
<rect x="197" y="218.96" width="1" height="36.48" />
<rect x="222" y="214.76" width="1" height="44.98" />
<rect x="247" y="206.02" width="1" height="55.3" />
<rect x="272" y="708.61" width="1" height="0" />
<rect x="297" y="196.26" width="1" height="62.68" />
<rect x="322" y="198.67" width="1" height="56" />
<rect x="347" y="180.06" width="1" height="74.81" />
<rect x="372" y="170.66" width="1" height="87.72" />
<rect x="397" y="184.05" width="1" height="60.97" />
<rect x="422" y="193.89" width="1" height="70.11" />
<rect x="447" y="187.4" width="1" height="53.87" />
<rect x="472" y="182.89" width="1" height="60.28" />
<rect x="497" y="147.43" width="1" height="111.08" />
</g>
<g style="fill: white; stroke: black;">
<rect x="62" y="258.73" width="20" height="5.27" />
<rect x="87" y="248.6" width="20" height="13.2" />
<rect x="112" y="249.85" width="20" height="11.65" />
<rect x="137" y="708.61" width="20" height="0" />
<rect x="162" y="240.39" width="20" height="18.91" />
<rect x="187" y="233.15" width="20" height="13.55" />
<rect x="212" y="231.97" width="20" height="18.11" />
<rect x="237" y="223.39" width="20" height="29.03" />
<rect x="262" y="708.61" width="20" height="0" />
<rect x="287" y="207.95" width="20" height="39.06" />
<rect x="312" y="215.95" width="20" height="18.23" />
<rect x="337" y="205.38" width="20" height="37.14" />
<rect x="362" y="199.2" width="20" height="50.45" />
<rect x="387" y="207.73" width="20" height="32.08" />
<rect x="412" y="197.96" width="20" height="38.98" />
<rect x="437" y="208.61" width="20" height="25.85" />
<rect x="462" y="188.82" width="20" height="48.63" />
<rect x="487" y="178.59" width="20" height="67.82" />
</g>
<g style="fill: black; stroke: black;">
<line x1="67.5" y1="264" x2="77" y2="264" />
<line x1="67.5" y1="256.51" x2="77" y2="256.51" />
</g>
<g style="fill: black; stroke: black;">
<rect x="63" y="261.46" width="18" height="1" />
</g>
<g style="fill: black; stroke: black;">
<line x1="92.5" y1="264" x2="102" y2="264" />
<line x1="92.5" y1="235.81" x2="102" y2="235.81" />
</g>
<g style="fill: black; stroke: black;">
<rect x="88" y="259.1" width="18" height="1" />
</g>
<g style="fill: black; stroke: black;">
<line x1="117.5" y1="264" x2="127" y2="264" />
<line x1="117.5" y1="238.8" x2="127" y2="238.8" />
</g>
<g style="fill: black; stroke: black;">
<rect x="113" y="256.57" width="18" height="1" />
</g>
<g style="fill: black; stroke: black;">
<line x1="142.5" y1="708.61" x2="152" y2="708.61" />
<line x1="142.5" y1="708.61" x2="152" y2="708.61" />
</g>
<g style="fill: black; stroke: black;">
<rect x="138" y="707.61" width="18" height="1" />
</g>
<g style="fill: black; stroke: black;">
<line x1="167.5" y1="264" x2="177" y2="264" />
<line x1="167.5" y1="222.7" x2="177" y2="222.7" />
<line x1="167.5" y1="194.34" x2="177" y2="194.34" />
<rect x="172" y="194.34" width="1" height="5" />
</g>
<g style="fill: black; stroke: black;">
<rect x="163" y="244.48" width="18" height="1" />
</g>
<g style="fill: black; stroke: black;">
<line x1="192.5" y1="255.44" x2="202" y2="255.44" />
<line x1="192.5" y1="218.96" x2="202" y2="218.96" />
<line x1="192.5" y1="195.19" x2="202" y2="195.19" />
<rect x="197" y="195.19" width="1" height="5" />
</g>
<g style="fill: black; stroke: black;">
<rect x="188" y="240.88" width="18" height="1" />
</g>
<g style="fill: black; stroke: black;">
<line x1="217.5" y1="259.75" x2="227" y2="259.75" />
<line x1="217.5" y1="214.76" x2="227" y2="214.76" />
<line x1="217.5" y1="194.66" x2="227" y2="194.66" />
<rect x="222" y="194.66" width="1" height="5" />
</g>
<g style="fill: black; stroke: black;">
<rect x="213" y="238.78" width="18" height="1" />
</g>
<g style="fill: black; stroke: black;">
<line x1="242.5" y1="261.32" x2="252" y2="261.32" />
<line x1="242.5" y1="206.02" x2="252" y2="206.02" />
</g>
<g style="fill: black; stroke: black;">
<rect x="238" y="231.19" width="18" height="1" />
</g>
<g style="fill: black; stroke: black;">
<line x1="267.5" y1="708.61" x2="277" y2="708.61" />
<line x1="267.5" y1="708.61" x2="277" y2="708.61" />
</g>
<g style="fill: black; stroke: black;">
<rect x="263" y="707.61" width="18" height="1" />
</g>
<g style="fill: black; stroke: black;">
<line x1="292.5" y1="258.94" x2="302" y2="258.94" />
<line x1="292.5" y1="196.26" x2="302" y2="196.26" />
</g>
<g style="fill: black; stroke: black;">
<rect x="288" y="227.96" width="18" height="1" />
</g>
<g style="fill: black; stroke: black;">
<line x1="317.5" y1="254.67" x2="327" y2="254.67" />
<line x1="317.5" y1="198.67" x2="327" y2="198.67" />
<line x1="317.5" y1="190.96" x2="327" y2="190.96" />
<rect x="322" y="190.96" width="1" height="5" />
</g>
<g style="fill: black; stroke: black;">
<rect x="313" y="231.36" width="18" height="1" />
</g>
<g style="fill: black; stroke: black;">
<line x1="342.5" y1="254.87" x2="352" y2="254.87" />
<line x1="342.5" y1="180.06" x2="352" y2="180.06" />
<line x1="342.5" y1="175.65" x2="352" y2="175.65" />
<rect x="347" y="175.65" width="1" height="5" />
</g>
<g style="fill: black; stroke: black;">
<rect x="338" y="230.22" width="18" height="1" />
</g>
<g style="fill: black; stroke: black;">
<line x1="367.5" y1="258.38" x2="377" y2="258.38" />
<line x1="367.5" y1="170.66" x2="377" y2="170.66" />
<line x1="367.5" y1="168.38" x2="377" y2="168.38" />
<rect x="372" y="168.38" width="1" height="5" />
</g>
<g style="fill: black; stroke: black;">
<rect x="363" y="227.97" width="18" height="1" />
</g>
<g style="fill: black; stroke: black;">
<line x1="392.5" y1="245.02" x2="402" y2="245.02" />
<line x1="392.5" y1="184.05" x2="402" y2="184.05" />
<line x1="392.5" y1="178.53" x2="402" y2="178.53" />
<rect x="397" y="178.53" width="1" height="5" />
</g>
<g style="fill: black; stroke: black;">
<rect x="388" y="225.76" width="18" height="1" />
</g>
<g style="fill: black; stroke: black;">
<line x1="417.5" y1="264" x2="427" y2="264" />
<line x1="417.5" y1="193.89" x2="427" y2="193.89" />
</g>
<g style="fill: black; stroke: black;">
<rect x="413" y="218.27" width="18" height="1" />
</g>
<g style="fill: black; stroke: black;">
<line x1="442.5" y1="241.27" x2="452" y2="241.27" />
<line x1="442.5" y1="187.4" x2="452" y2="187.4" />
<line x1="442.5" y1="174.09" x2="452" y2="174.09" />
<rect x="447" y="174.09" width="1" height="5" />
</g>
<g style="fill: black; stroke: black;">
<rect x="438" y="230.7" width="18" height="1" />
</g>
<g style="fill: black; stroke: black;">
<line x1="467.5" y1="243.17" x2="477" y2="243.17" />
<line x1="467.5" y1="182.89" x2="477" y2="182.89" />
</g>
<g style="fill: black; stroke: black;">
<rect x="463" y="228.84" width="18" height="1" />
</g>
<g style="fill: black; stroke: black;">
<line x1="492.5" y1="258.51" x2="502" y2="258.51" />
<line x1="492.5" y1="147.43" x2="502" y2="147.43" />
<line x1="492.5" y1="135.78" x2="502" y2="135.78" />
<rect x="497" y="135.78" width="1" height="5" />
</g>
<g style="fill: black; stroke: black;">
<rect x="488" y="235.4" width="18" height="1" />
</g>
<g style="text-anchor: end; font-family: Ubuntu,Verdana,sans-serif; font-size: 0.9em;" >
<text x="512" y="282" >02 Aug 2020 u64q</text>
<text x="58" y="282" style="text-anchor: start;" >benchmarks game</text>
</g>
<text x="16" y="144" transform="rotate(270,16,144)" style="text-anchor: middle; font-family: Ubuntu,Verdana,sans-serif; font-size: 0.9em;" >program busy time / least busy</text>
<text x="285" y="18" style="text-anchor: middle; font-family: Ubuntu,Verdana,sans-serif; font-size: 1.2em;" >How many times slower?</text>
<g style="stroke: #333;">
<line x1="58" y1="24" x2="58" y2="264" />
<line x1="511" y1="24" x2="511" y2="264" />
<line x1="58" y1="264" x2="511" y2="264" />
</g>
</svg>

