<?xml version="1.0" encoding="UTF-8" standalone="no"?>
<!DOCTYPE svg PUBLIC "-//W3C//DTD SVG 1.1//EN" "http://www.w3.org/Graphics/SVG/1.1/DTD/svg11.dtd">
<svg xmlns="http://www.w3.org/2000/svg" version="1.1" xmlns:xlink="http://www.w3.org/1999/xlink" viewBox="0 0 512 288">

<!-- Copyright 2015 Isaac Gouy -->
<!-- http://benchmarksgame.alioth.debian.org/license.html -->

<g style="stroke: #ccc;" >
<line x1="51" y1="264" x2="511" y2="264" />
<line x1="51" y1="221.57" x2="511" y2="221.57" />
<line x1="51" y1="201.85" x2="511" y2="201.85" />
<line x1="51" y1="175.08" x2="511" y2="175.08" />
<line x1="51" y1="132.65" x2="511" y2="132.65" />
<line x1="51" y1="112.92" x2="511" y2="112.92" />
<line x1="51" y1="86.15" x2="511" y2="86.15" />
<line x1="51" y1="43.73" x2="511" y2="43.73" />
<line x1="51" y1="24" x2="511" y2="24" />
</g>
<g style="text-anchor: end; font-family: Ubuntu,Verdana,sans-serif; font-size: 0.9em;" >
<text x="51" y="262" >1</text>
<text x="51" y="219.57" >3</text>
<text x="51" y="199.85" >5</text>
<text x="51" y="173.08" >10</text>
<text x="51" y="130.65" >30</text>
<text x="51" y="110.92" >50</text>
<text x="51" y="84.15" >100</text>
<text x="51" y="41.73" >300</text>
<text x="51" y="22" ></text>
</g>
<defs>
<linearGradient id="grade" x1="0" y1="0" x2="0" y2="1">
<stop offset="0" style="stop-color: white" stop-opacity="0.6"/>
<stop offset="1" style="stop-color: white" stop-opacity="0.8"/>
</linearGradient>
<mask id="fade">
<rect x="58" y="24" width="452" height="288" fill="url(#grade)"  />
</mask>
<g id="backgroundText" style="text-anchor: end; font-family: Ubuntu,Verdana,sans-serif; font-size: 1em;">
<text x="15" y="0" transform="rotate(270,15,0)" xml:space="preserve">   C gcc   C gcc   C gcc   C gcc   C gcc   C gcc   C gcc</text>
<text x="40" y="0" transform="rotate(270,40,0)" xml:space="preserve">Rust   Rust   Rust   Rust   Rust   Rust   Rust   Rust   Rust</text>
<text x="65" y="0" transform="rotate(270,65,0)" xml:space="preserve">   C++ g++   C++ g++   C++ g++   C++ g++   C++ g++   C++ g++</text>
<br />
<b>Warning</b>:  Division by zero in <b>/home/dunham/8000-benchmarksgame/website/lib/lib_chartSVG.php</b> on line <b>289</b><br />
<br />
<b>Warning</b>:  str_repeat() expects parameter 2 to be int, float given in <b>/home/dunham/8000-benchmarksgame/website/lib/lib_chartSVG.php</b> on line <b>290</b><br />
<text x="90" y="0" transform="rotate(270,90,0)" xml:space="preserve"></text>
<text x="115" y="0" transform="rotate(270,115,0)" xml:space="preserve">da 2012 GNAT   Ada 2012 GNAT   Ada 2012 GNAT   Ada 2012 GNAT</text>
<text x="140" y="0" transform="rotate(270,140,0)" xml:space="preserve">ortran Intel   Fortran Intel   Fortran Intel   Fortran Intel</text>
<text x="165" y="0" transform="rotate(270,165,0)" xml:space="preserve">   Swift   Swift   Swift   Swift   Swift   Swift   Swift</text>
<text x="190" y="0" transform="rotate(270,190,0)" xml:space="preserve">   C# .NET Core   C# .NET Core   C# .NET Core   C# .NET Core</text>
<text x="215" y="0" transform="rotate(270,215,0)" xml:space="preserve">Java   Java   Java   Java   Java   Java   Java   Java   Java</text>
<text x="240" y="0" transform="rotate(270,240,0)" xml:space="preserve">   Free Pascal   Free Pascal   Free Pascal   Free Pascal</text>
<br />
<b>Warning</b>:  Division by zero in <b>/home/dunham/8000-benchmarksgame/website/lib/lib_chartSVG.php</b> on line <b>289</b><br />
<br />
<b>Warning</b>:  str_repeat() expects parameter 2 to be int, float given in <b>/home/dunham/8000-benchmarksgame/website/lib/lib_chartSVG.php</b> on line <b>290</b><br />
<text x="265" y="0" transform="rotate(270,265,0)" xml:space="preserve"></text>
<text x="290" y="0" transform="rotate(270,290,0)" xml:space="preserve">   Chapel   Chapel   Chapel   Chapel   Chapel   Chapel</text>
<text x="315" y="0" transform="rotate(270,315,0)" xml:space="preserve">   F# .NET Core   F# .NET Core   F# .NET Core   F# .NET Core</text>
<text x="340" y="0" transform="rotate(270,340,0)" xml:space="preserve">   Julia   Julia   Julia   Julia   Julia   Julia   Julia</text>
<text x="365" y="0" transform="rotate(270,365,0)" xml:space="preserve">   OCaml   OCaml   OCaml   OCaml   OCaml   OCaml   OCaml</text>
<text x="390" y="0" transform="rotate(270,390,0)" xml:space="preserve">   Lisp SBCL   Lisp SBCL   Lisp SBCL   Lisp SBCL   Lisp SBCL</text>
<text x="415" y="0" transform="rotate(270,415,0)" xml:space="preserve">   Go   Go   Go   Go   Go   Go   Go   Go   Go   Go   Go   Go</text>
</g>
</defs>
<use x="60" y="27" xlink:href="#backgroundText"/>
<rect x="58" y="24" width="452" height="288" fill="white" mask="url(#fade)" />
<rect x="58" y="264" width="452" height="288" style="fill: white; stroke: white;" />
<g style="fill: black; stroke: black;">
<rect x="72" y="250.44" width="1" height="13.56" />
<rect x="97" y="253.8" width="1" height="10.2" />
<rect x="122" y="244.15" width="1" height="19.85" />
<rect x="147" y="708.61" width="1" height="0" />
<rect x="172" y="215.77" width="1" height="48.15" />
<rect x="197" y="220.04" width="1" height="43.96" />
<rect x="222" y="218.29" width="1" height="43.14" />
<rect x="247" y="212.75" width="1" height="43" />
<rect x="272" y="212.43" width="1" height="41.24" />
<rect x="297" y="195.73" width="1" height="68.27" />
<rect x="322" y="708.61" width="1" height="0" />
<rect x="347" y="197.4" width="1" height="66.6" />
<rect x="372" y="187.75" width="1" height="55.77" />
<rect x="397" y="186.99" width="1" height="59.82" />
<rect x="422" y="190.08" width="1" height="51.28" />
<rect x="447" y="198.65" width="1" height="38.55" />
<rect x="472" y="187.6" width="1" height="67.91" />
</g>
<g style="fill: white; stroke: black;">
<rect x="62" y="257.39" width="20" height="6.61" />
<rect x="87" y="259.28" width="20" height="4.14" />
<rect x="112" y="254.14" width="20" height="9.77" />
<rect x="137" y="708.61" width="20" height="0" />
<rect x="162" y="234.65" width="20" height="21.07" />
<rect x="187" y="237.52" width="20" height="18.56" />
<rect x="212" y="234.48" width="20" height="16.48" />
<rect x="237" y="223.89" width="20" height="23.42" />
<rect x="262" y="225.48" width="20" height="12.05" />
<rect x="287" y="218.12" width="20" height="28.63" />
<rect x="312" y="708.61" width="20" height="0" />
<rect x="337" y="206.11" width="20" height="36.07" />
<rect x="362" y="210.17" width="20" height="28.71" />
<rect x="387" y="209.86" width="20" height="29.88" />
<rect x="412" y="210.85" width="20" height="24.87" />
<rect x="437" y="205.45" width="20" height="25.43" />
<rect x="462" y="211.15" width="20" height="31.69" />
</g>
<g style="fill: black; stroke: black;">
<line x1="67.5" y1="264" x2="77" y2="264" />
<line x1="67.5" y1="250.44" x2="77" y2="250.44" />
</g>
<g style="fill: black; stroke: black;">
<rect x="63" y="259.85" width="18" height="1" />
</g>
<g style="fill: black; stroke: black;">
<line x1="92.5" y1="264" x2="102" y2="264" />
<line x1="92.5" y1="253.8" x2="102" y2="253.8" />
<line x1="92.5" y1="243.12" x2="102" y2="243.12" />
<rect x="97" y="243.12" width="1" height="5" />
</g>
<g style="fill: black; stroke: black;">
<rect x="88" y="260.54" width="18" height="1" />
</g>
<g style="fill: black; stroke: black;">
<line x1="117.5" y1="264" x2="127" y2="264" />
<line x1="117.5" y1="244.15" x2="127" y2="244.15" />
</g>
<g style="fill: black; stroke: black;">
<rect x="113" y="257.19" width="18" height="1" />
</g>
<g style="fill: black; stroke: black;">
<line x1="142.5" y1="708.61" x2="152" y2="708.61" />
<line x1="142.5" y1="708.61" x2="152" y2="708.61" />
</g>
<g style="fill: black; stroke: black;">
<rect x="138" y="707.61" width="18" height="1" />
</g>
<g style="fill: black; stroke: black;">
<line x1="167.5" y1="263.92" x2="177" y2="263.92" />
<line x1="167.5" y1="215.77" x2="177" y2="215.77" />
<line x1="167.5" y1="213.29" x2="177" y2="213.29" />
<rect x="172" y="213.29" width="1" height="5" />
</g>
<g style="fill: black; stroke: black;">
<rect x="163" y="243.93" width="18" height="1" />
</g>
<g style="fill: black; stroke: black;">
<line x1="192.5" y1="264" x2="202" y2="264" />
<line x1="192.5" y1="220.04" x2="202" y2="220.04" />
<line x1="192.5" y1="181.34" x2="202" y2="181.34" />
<rect x="197" y="181.34" width="1" height="5" />
</g>
<g style="fill: black; stroke: black;">
<rect x="188" y="246.22" width="18" height="1" />
</g>
<g style="fill: black; stroke: black;">
<line x1="217.5" y1="261.43" x2="227" y2="261.43" />
<line x1="217.5" y1="218.29" x2="227" y2="218.29" />
<line x1="217.5" y1="187.96" x2="227" y2="187.96" />
<rect x="222" y="187.96" width="1" height="5" />
</g>
<g style="fill: black; stroke: black;">
<rect x="213" y="242.39" width="18" height="1" />
</g>
<g style="fill: black; stroke: black;">
<line x1="242.5" y1="255.76" x2="252" y2="255.76" />
<line x1="242.5" y1="212.75" x2="252" y2="212.75" />
</g>
<g style="fill: black; stroke: black;">
<rect x="238" y="234.5" width="18" height="1" />
</g>
<g style="fill: black; stroke: black;">
<line x1="267.5" y1="253.67" x2="277" y2="253.67" />
<line x1="267.5" y1="212.43" x2="277" y2="212.43" />
<line x1="267.5" y1="211.19" x2="277" y2="211.19" />
<rect x="272" y="211.19" width="1" height="5" />
</g>
<g style="fill: black; stroke: black;">
<rect x="263" y="229.97" width="18" height="1" />
</g>
<g style="fill: black; stroke: black;">
<line x1="292.5" y1="264" x2="302" y2="264" />
<line x1="292.5" y1="195.73" x2="302" y2="195.73" />
<line x1="292.5" y1="191.35" x2="302" y2="191.35" />
<rect x="297" y="191.35" width="1" height="5" />
</g>
<g style="fill: black; stroke: black;">
<rect x="288" y="221.49" width="18" height="1" />
</g>
<g style="fill: black; stroke: black;">
<line x1="317.5" y1="708.61" x2="327" y2="708.61" />
<line x1="317.5" y1="708.61" x2="327" y2="708.61" />
</g>
<g style="fill: black; stroke: black;">
<rect x="313" y="707.61" width="18" height="1" />
</g>
<g style="fill: black; stroke: black;">
<line x1="342.5" y1="264" x2="352" y2="264" />
<line x1="342.5" y1="197.4" x2="352" y2="197.4" />
</g>
<g style="fill: black; stroke: black;">
<rect x="338" y="218.88" width="18" height="1" />
</g>
<g style="fill: black; stroke: black;">
<line x1="367.5" y1="243.52" x2="377" y2="243.52" />
<line x1="367.5" y1="187.75" x2="377" y2="187.75" />
<line x1="367.5" y1="163.06" x2="377" y2="163.06" />
<rect x="372" y="163.06" width="1" height="5" />
</g>
<g style="fill: black; stroke: black;">
<rect x="363" y="230.3" width="18" height="1" />
</g>
<g style="fill: black; stroke: black;">
<line x1="392.5" y1="246.81" x2="402" y2="246.81" />
<line x1="392.5" y1="186.99" x2="402" y2="186.99" />
<line x1="392.5" y1="170.14" x2="402" y2="170.14" />
<rect x="397" y="170.14" width="1" height="5" />
</g>
<g style="fill: black; stroke: black;">
<rect x="388" y="231.77" width="18" height="1" />
</g>
<g style="fill: black; stroke: black;">
<line x1="417.5" y1="241.36" x2="427" y2="241.36" />
<line x1="417.5" y1="190.08" x2="427" y2="190.08" />
<line x1="417.5" y1="178.32" x2="427" y2="178.32" />
<rect x="422" y="178.32" width="1" height="5" />
</g>
<g style="fill: black; stroke: black;">
<rect x="413" y="223.26" width="18" height="1" />
</g>
<g style="fill: black; stroke: black;">
<line x1="442.5" y1="237.2" x2="452" y2="237.2" />
<line x1="442.5" y1="198.65" x2="452" y2="198.65" />
</g>
<g style="fill: black; stroke: black;">
<rect x="438" y="218.6" width="18" height="1" />
</g>
<g style="fill: black; stroke: black;">
<line x1="467.5" y1="255.52" x2="477" y2="255.52" />
<line x1="467.5" y1="187.6" x2="477" y2="187.6" />
<line x1="467.5" y1="152.58" x2="477" y2="152.58" />
<rect x="472" y="152.58" width="1" height="5" />
</g>
<g style="fill: black; stroke: black;">
<rect x="463" y="216.81" width="18" height="1" />
</g>
<g style="text-anchor: end; font-family: Ubuntu,Verdana,sans-serif; font-size: 0.9em;" >
<text x="512" y="282" >05 Jun 2019 u64q</text>
<text x="58" y="282" style="text-anchor: start;" >benchmarks game</text>
</g>
<text x="16" y="144" transform="rotate(270,16,144)" style="text-anchor: middle; font-family: Ubuntu,Verdana,sans-serif; font-size: 0.9em;" >program busy time / least busy</text>
<text x="285" y="18" style="text-anchor: middle; font-family: Ubuntu,Verdana,sans-serif; font-size: 1.2em;" >How many times slower?</text>
<g style="stroke: #333;">
<line x1="58" y1="24" x2="58" y2="264" />
<line x1="511" y1="24" x2="511" y2="264" />
<line x1="58" y1="264" x2="511" y2="264" />
</g>
</svg>

