<?xml version="1.0" encoding="UTF-8" standalone="no"?>
<!DOCTYPE svg PUBLIC "-//W3C//DTD SVG 1.1//EN" "http://www.w3.org/Graphics/SVG/1.1/DTD/svg11.dtd">
<svg xmlns="http://www.w3.org/2000/svg" version="1.1" xmlns:xlink="http://www.w3.org/1999/xlink" viewBox="0 0 512 288">

<!-- Copyright 2015-2020 Isaac Gouy -->
<!-- https://salsa.debian.org/benchmarksgame-team/benchmarksgame/blob/master/LICENSE.md -->

<g style="stroke: #ccc;" >
<line x1="51" y1="264" x2="511" y2="264" />
<line x1="51" y1="221.57" x2="511" y2="221.57" />
<line x1="51" y1="201.85" x2="511" y2="201.85" />
<line x1="51" y1="175.08" x2="511" y2="175.08" />
<line x1="51" y1="132.65" x2="511" y2="132.65" />
<line x1="51" y1="112.92" x2="511" y2="112.92" />
<line x1="51" y1="86.15" x2="511" y2="86.15" />
<line x1="51" y1="43.73" x2="511" y2="43.73" />
<line x1="51" y1="24" x2="511" y2="24" />
</g>
<g style="text-anchor: end; font-family: Ubuntu,Verdana,sans-serif; font-size: 0.9em;" >
<text x="51" y="262" >1</text>
<text x="51" y="219.57" >3</text>
<text x="51" y="199.85" >5</text>
<text x="51" y="173.08" >10</text>
<text x="51" y="130.65" >30</text>
<text x="51" y="110.92" >50</text>
<text x="51" y="84.15" >100</text>
<text x="51" y="41.73" >300</text>
<text x="51" y="22" ></text>
</g>
<defs>
<linearGradient id="grade" x1="0" y1="0" x2="0" y2="1">
<stop offset="0" style="stop-color: white" stop-opacity="0.6"/>
<stop offset="1" style="stop-color: white" stop-opacity="0.8"/>
</linearGradient>
<mask id="fade">
<rect x="58" y="24" width="452" height="288" fill="url(#grade)"  />
</mask>
<g id="backgroundText" style="text-anchor: end; font-family: Ubuntu,Verdana,sans-serif; font-size: 1em;">
<text x="18.5" y="0" transform="rotate(270,18.5,0)" xml:space="preserve">   C++ g++   C++ g++   C++ g++   C++ g++</text>
<text x="48.5" y="0" transform="rotate(270,48.5,0)" xml:space="preserve">   Rust   Rust   Rust   Rust   Rust   Rust</text>
<text x="78.5" y="0" transform="rotate(270,78.5,0)" xml:space="preserve">   C gcc   C gcc   C gcc   C gcc   C gcc</text>
<text x="108.5" y="0" transform="rotate(270,108.5,0)" xml:space="preserve">                                                            </text>
<text x="138.5" y="0" transform="rotate(270,138.5,0)" xml:space="preserve">   Intel Fortran   Intel Fortran   Intel Fortran</text>
<text x="168.5" y="0" transform="rotate(270,168.5,0)" xml:space="preserve">   Julia   Julia   Julia   Julia   Julia</text>
<text x="198.5" y="0" transform="rotate(270,198.5,0)" xml:space="preserve">   C# .NET Core   C# .NET Core   C# .NET Core</text>
<text x="228.5" y="0" transform="rotate(270,228.5,0)" xml:space="preserve">   Ada 2012 GNAT   Ada 2012 GNAT   Ada 2012 GNAT</text>
<text x="258.5" y="0" transform="rotate(270,258.5,0)" xml:space="preserve">                                                            </text>
<text x="288.5" y="0" transform="rotate(270,288.5,0)" xml:space="preserve">   Free Pascal   Free Pascal   Free Pascal</text>
<text x="318.5" y="0" transform="rotate(270,318.5,0)" xml:space="preserve">   F# .NET Core   F# .NET Core   F# .NET Core</text>
<text x="348.5" y="0" transform="rotate(270,348.5,0)" xml:space="preserve">   OCaml   OCaml   OCaml   OCaml   OCaml</text>
<text x="378.5" y="0" transform="rotate(270,378.5,0)" xml:space="preserve">   Java   Java   Java   Java   Java   Java</text>
<text x="408.5" y="0" transform="rotate(270,408.5,0)" xml:space="preserve">   Haskell GHC   Haskell GHC   Haskell GHC</text>
<text x="438.5" y="0" transform="rotate(270,438.5,0)" xml:space="preserve">   Go   Go   Go   Go   Go   Go   Go   Go   Go   Go</text>
<text x="468.5" y="0" transform="rotate(270,468.5,0)" xml:space="preserve">   Chapel   Chapel   Chapel   Chapel   Chapel</text>
<text x="498.5" y="0" transform="rotate(270,498.5,0)" xml:space="preserve">   Lisp SBCL   Lisp SBCL   Lisp SBCL</text>
<text x="528.5" y="0" transform="rotate(270,528.5,0)" xml:space="preserve">   Swift   Swift   Swift   Swift   Swift</text>
</g>
</defs>
<use x="60" y="27" xlink:href="#backgroundText"/>
<rect x="58" y="24" width="452" height="288" fill="white" mask="url(#fade)" />
<rect x="58" y="264" width="452" height="288" style="fill: white; stroke: white;" />
<g style="fill: black; stroke: black;">
<rect x="73" y="255.8" width="1" height="8.2" />
<rect x="103" y="237.6" width="1" height="26.4" />
<rect x="133" y="238.8" width="1" height="25.2" />
<rect x="163" y="708.61" width="1" height="0" />
<rect x="193" y="222.7" width="1" height="41.3" />
<rect x="223" y="220.61" width="1" height="35.06" />
<rect x="253" y="214.35" width="1" height="45.54" />
<rect x="283" y="206.05" width="1" height="55.27" />
<rect x="313" y="708.61" width="1" height="0" />
<rect x="343" y="196.26" width="1" height="62.68" />
<rect x="373" y="197.54" width="1" height="57.13" />
<rect x="403" y="181.32" width="1" height="77.4" />
<rect x="433" y="180.1" width="1" height="74.76" />
<rect x="463" y="170.66" width="1" height="87.72" />
<rect x="493" y="184.13" width="1" height="60.89" />
<rect x="523" y="193.89" width="1" height="70.11" />
<rect x="553" y="187.4" width="1" height="53.87" />
<rect x="583" y="147.44" width="1" height="111.07" />
</g>
<g style="fill: white; stroke: black;">
<rect x="62" y="258.73" width="23" height="5.27" />
<rect x="92" y="250.44" width="23" height="11.78" />
<rect x="122" y="249.88" width="23" height="11.62" />
<rect x="152" y="708.61" width="23" height="0" />
<rect x="182" y="240.39" width="23" height="18.91" />
<rect x="212" y="235.44" width="23" height="14.45" />
<rect x="242" y="231.99" width="23" height="18.83" />
<rect x="272" y="223.39" width="23" height="29.03" />
<rect x="302" y="708.61" width="23" height="0" />
<rect x="332" y="207.98" width="23" height="38.98" />
<rect x="362" y="215.24" width="23" height="18.94" />
<rect x="392" y="199.83" width="23" height="40.71" />
<rect x="422" y="205.42" width="23" height="37.1" />
<rect x="452" y="199.2" width="23" height="50.45" />
<rect x="482" y="207.76" width="23" height="31.95" />
<rect x="512" y="197.96" width="23" height="38.88" />
<rect x="542" y="208.61" width="23" height="25.85" />
<rect x="572" y="178.59" width="23" height="67.72" />
</g>
<g style="fill: black; stroke: black;">
<line x1="68.5" y1="264" x2="79" y2="264" />
<line x1="68.5" y1="255.8" x2="79" y2="255.8" />
</g>
<g style="fill: black; stroke: black;">
<rect x="63" y="261.46" width="21" height="1" />
</g>
<g style="fill: black; stroke: black;">
<line x1="98.5" y1="264" x2="109" y2="264" />
<line x1="98.5" y1="237.6" x2="109" y2="237.6" />
<line x1="98.5" y1="235.61" x2="109" y2="235.61" />
<rect x="103" y="235.61" width="1" height="5" />
</g>
<g style="fill: black; stroke: black;">
<rect x="93" y="259.6" width="21" height="1" />
</g>
<g style="fill: black; stroke: black;">
<line x1="128.5" y1="264" x2="139" y2="264" />
<line x1="128.5" y1="238.8" x2="139" y2="238.8" />
</g>
<g style="fill: black; stroke: black;">
<rect x="123" y="256.18" width="21" height="1" />
</g>
<g style="fill: black; stroke: black;">
<line x1="158.5" y1="708.61" x2="169" y2="708.61" />
<line x1="158.5" y1="708.61" x2="169" y2="708.61" />
</g>
<g style="fill: black; stroke: black;">
<rect x="153" y="707.61" width="21" height="1" />
</g>
<g style="fill: black; stroke: black;">
<line x1="188.5" y1="264" x2="199" y2="264" />
<line x1="188.5" y1="222.7" x2="199" y2="222.7" />
<line x1="188.5" y1="194.34" x2="199" y2="194.34" />
<rect x="193" y="194.34" width="1" height="5" />
</g>
<g style="fill: black; stroke: black;">
<rect x="183" y="244.52" width="21" height="1" />
</g>
<g style="fill: black; stroke: black;">
<line x1="218.5" y1="255.67" x2="229" y2="255.67" />
<line x1="218.5" y1="220.61" x2="229" y2="220.61" />
<line x1="218.5" y1="193.35" x2="229" y2="193.35" />
<rect x="223" y="193.35" width="1" height="5" />
</g>
<g style="fill: black; stroke: black;">
<rect x="213" y="242.4" width="21" height="1" />
</g>
<g style="fill: black; stroke: black;">
<line x1="248.5" y1="259.89" x2="259" y2="259.89" />
<line x1="248.5" y1="214.35" x2="259" y2="214.35" />
<line x1="248.5" y1="194.34" x2="259" y2="194.34" />
<rect x="253" y="194.34" width="1" height="5" />
</g>
<g style="fill: black; stroke: black;">
<rect x="243" y="238.86" width="21" height="1" />
</g>
<g style="fill: black; stroke: black;">
<line x1="278.5" y1="261.32" x2="289" y2="261.32" />
<line x1="278.5" y1="206.05" x2="289" y2="206.05" />
</g>
<g style="fill: black; stroke: black;">
<rect x="273" y="231.19" width="21" height="1" />
</g>
<g style="fill: black; stroke: black;">
<line x1="308.5" y1="708.61" x2="319" y2="708.61" />
<line x1="308.5" y1="708.61" x2="319" y2="708.61" />
</g>
<g style="fill: black; stroke: black;">
<rect x="303" y="707.61" width="21" height="1" />
</g>
<g style="fill: black; stroke: black;">
<line x1="338.5" y1="258.94" x2="349" y2="258.94" />
<line x1="338.5" y1="196.26" x2="349" y2="196.26" />
</g>
<g style="fill: black; stroke: black;">
<rect x="333" y="227.96" width="21" height="1" />
</g>
<g style="fill: black; stroke: black;">
<line x1="368.5" y1="254.67" x2="379" y2="254.67" />
<line x1="368.5" y1="197.54" x2="379" y2="197.54" />
<line x1="368.5" y1="190.96" x2="379" y2="190.96" />
<rect x="373" y="190.96" width="1" height="5" />
</g>
<g style="fill: black; stroke: black;">
<rect x="363" y="231.36" width="21" height="1" />
</g>
<g style="fill: black; stroke: black;">
<line x1="398.5" y1="258.73" x2="409" y2="258.73" />
<line x1="398.5" y1="181.32" x2="409" y2="181.32" />
</g>
<g style="fill: black; stroke: black;">
<rect x="393" y="232.63" width="21" height="1" />
</g>
<g style="fill: black; stroke: black;">
<line x1="428.5" y1="254.87" x2="439" y2="254.87" />
<line x1="428.5" y1="180.1" x2="439" y2="180.1" />
<line x1="428.5" y1="174.93" x2="439" y2="174.93" />
<rect x="433" y="174.93" width="1" height="5" />
</g>
<g style="fill: black; stroke: black;">
<rect x="423" y="230.22" width="21" height="1" />
</g>
<g style="fill: black; stroke: black;">
<line x1="458.5" y1="258.38" x2="469" y2="258.38" />
<line x1="458.5" y1="170.66" x2="469" y2="170.66" />
<line x1="458.5" y1="168.38" x2="469" y2="168.38" />
<rect x="463" y="168.38" width="1" height="5" />
</g>
<g style="fill: black; stroke: black;">
<rect x="453" y="227.97" width="21" height="1" />
</g>
<g style="fill: black; stroke: black;">
<line x1="488.5" y1="245.02" x2="499" y2="245.02" />
<line x1="488.5" y1="184.13" x2="499" y2="184.13" />
<line x1="488.5" y1="178.53" x2="499" y2="178.53" />
<rect x="493" y="178.53" width="1" height="5" />
</g>
<g style="fill: black; stroke: black;">
<rect x="483" y="225.76" width="21" height="1" />
</g>
<g style="fill: black; stroke: black;">
<line x1="518.5" y1="264" x2="529" y2="264" />
<line x1="518.5" y1="193.89" x2="529" y2="193.89" />
</g>
<g style="fill: black; stroke: black;">
<rect x="513" y="217.85" width="21" height="1" />
</g>
<g style="fill: black; stroke: black;">
<line x1="548.5" y1="241.27" x2="559" y2="241.27" />
<line x1="548.5" y1="187.4" x2="559" y2="187.4" />
<line x1="548.5" y1="174.09" x2="559" y2="174.09" />
<rect x="553" y="174.09" width="1" height="5" />
</g>
<g style="fill: black; stroke: black;">
<rect x="543" y="230.6" width="21" height="1" />
</g>
<g style="fill: black; stroke: black;">
<line x1="578.5" y1="258.51" x2="589" y2="258.51" />
<line x1="578.5" y1="147.44" x2="589" y2="147.44" />
<line x1="578.5" y1="135.07" x2="589" y2="135.07" />
<rect x="583" y="135.07" width="1" height="5" />
</g>
<g style="fill: black; stroke: black;">
<rect x="573" y="235.42" width="21" height="1" />
</g>
<g style="text-anchor: end; font-family: Ubuntu,Verdana,sans-serif; font-size: 0.9em;" >
<text x="512" y="282" >01 Sep 2020 u64q</text>
<text x="58" y="282" style="text-anchor: start;" >benchmarks game</text>
</g>
<text x="16" y="144" transform="rotate(270,16,144)" style="text-anchor: middle; font-family: Ubuntu,Verdana,sans-serif; font-size: 0.9em;" >program busy time / least busy</text>
<text x="285" y="18" style="text-anchor: middle; font-family: Ubuntu,Verdana,sans-serif; font-size: 1.2em;" >How many times slower?</text>
<g style="stroke: #333;">
<line x1="58" y1="24" x2="58" y2="264" />
<line x1="511" y1="24" x2="511" y2="264" />
<line x1="58" y1="264" x2="511" y2="264" />
</g>
</svg>

