<?xml version="1.0" encoding="UTF-8" standalone="no"?>
<!DOCTYPE svg PUBLIC "-//W3C//DTD SVG 1.1//EN" "http://www.w3.org/Graphics/SVG/1.1/DTD/svg11.dtd">
<svg xmlns="http://www.w3.org/2000/svg" version="1.1" xmlns:xlink="http://www.w3.org/1999/xlink" viewBox="0 0 512 288">

<!-- Copyright 2015-2021 Isaac Gouy -->

<!-- Box plot chart showing benchmark program performance grouped by implementation language -->

<!-- The Computer Language Benchmarks Game -->
<!-- https://benchmarksgame-team.pages.debian.net/benchmarksgame/license.html -->

<g style="stroke: #ccc;" >
<line x1="51" y1="264" x2="461" y2="264" />
<line x1="51" y1="221.57" x2="461" y2="221.57" />
<line x1="51" y1="201.85" x2="461" y2="201.85" />
<line x1="51" y1="175.08" x2="461" y2="175.08" />
<line x1="51" y1="132.65" x2="461" y2="132.65" />

<line x1="58" y1="78" x2="468" y2="78"/>
<line x1="58" y1="38" x2="468" y2="38"/>
<line x1="58" y1="24" x2="461" y2="24"/>
</g>
<g style="text-anchor: end; font-family: Ubuntu,Verdana,sans-serif; font-size: 0.9em;" >
<text x="51" y="262" >1</text>
<text x="51" y="219.57" >3</text>
<text x="51" y="199.85" >5</text>
<text x="51" y="173.08" >10</text>
<text x="51" y="130.65" >30</text>
<text x="51" y="22" ></text>
</g>
<defs>
<linearGradient id="grade" x1="0" y1="0" x2="0" y2="1">
<stop offset="0" style="stop-color: white" stop-opacity="0.6"/>
<stop offset="1" style="stop-color: white" stop-opacity="0.8"/>
</linearGradient>
<mask id="fade">
<rect x="58" y="24" width="452" height="288" fill="url(#grade)"  />
</mask>
<g id="backgroundText" style="text-anchor: end; font-family: Ubuntu,Verdana,sans-serif; font-size: 1em;">
<text x="16" y="0" transform="rotate(270,16,0)" xml:space="preserve">   C gcc   C gcc   C gcc   C gcc   C gcc</text>
<text x="43" y="0" transform="rotate(270,43,0)" xml:space="preserve">   C++ g++   C++ g++   C++ g++   C++ g++</text>
<text x="70" y="0" transform="rotate(270,70,0)" xml:space="preserve">   Rust   Rust   Rust   Rust   Rust   Rust</text>
<text x="97" y="0" transform="rotate(270,97,0)" xml:space="preserve">   Classic Fortran   Classic Fortran</text>
<text x="124" y="0" transform="rotate(270,124,0)" xml:space="preserve">   Julia   Julia   Julia   Julia   Julia</text>
<text x="151" y="0" transform="rotate(270,151,0)" xml:space="preserve">   C# .NET   C# .NET   C# .NET   C# .NET</text>
<text x="178" y="0" transform="rotate(270,178,0)" xml:space="preserve">   Ada 2012 GNAT   Ada 2012 GNAT   Ada 2012 GNAT</text>
<text x="205" y="0" transform="rotate(270,205,0)" xml:space="preserve">   Haskell GHC   Haskell GHC   Haskell GHC</text>
<text x="232" y="0" transform="rotate(270,232,0)" xml:space="preserve">   OCaml   OCaml   OCaml   OCaml   OCaml</text>
<text x="259" y="0" transform="rotate(270,259,0)" xml:space="preserve">   Chapel   Chapel   Chapel   Chapel   Chapel</text>
<text x="286" y="0" transform="rotate(270,286,0)" xml:space="preserve">   Go   Go   Go   Go   Go   Go   Go   Go   Go   Go</text>
<text x="313" y="0" transform="rotate(270,313,0)" xml:space="preserve">   Swift   Swift   Swift   Swift   Swift</text>
<text x="340" y="0" transform="rotate(270,340,0)" xml:space="preserve">   F# .NET   F# .NET   F# .NET   F# .NET</text>
<text x="367" y="0" transform="rotate(270,367,0)" xml:space="preserve">   Java   Java   Java   Java   Java   Java</text>
<text x="394" y="0" transform="rotate(270,394,0)" xml:space="preserve">   Lisp SBCL   Lisp SBCL   Lisp SBCL</text>
</g>
</defs>
<use x="60" y="27" xlink:href="#backgroundText"/>
<rect x="58" y="24" width="452" height="288" fill="white" mask="url(#fade)" />
<rect x="58" y="264" width="452" height="288" style="fill: white; stroke: white;" />
<g style="fill: black; stroke: black;">
<rect x="72" y="240.12" width="1" height="23.88" />
<rect x="99" y="237.96" width="1" height="26.04" />
<rect x="126" y="238.01" width="1" height="25.99" />
<rect x="153" y="209.46" width="1" height="53.42" />
<rect x="180" y="202.44" width="1" height="44.65" />
<rect x="207" y="190.61" width="1" height="69.96" />
<rect x="234" y="202.91" width="1" height="60.12" />
<rect x="261" y="189.35" width="1" height="66.65" />
<rect x="288" y="192.6" width="1" height="69.81" />
<rect x="315" y="187.17" width="1" height="74.16" />
<rect x="342" y="190.14" width="1" height="65.54" />
<rect x="369" y="192.44" width="1" height="69.86" />
<rect x="396" y="185.53" width="1" height="74.11" />
<rect x="423" y="181.98" width="1" height="76.51" />
<rect x="450" y="178.68" width="1" height="45.45" />
</g>
<g style="fill: white; stroke: black;">
<rect x="62" y="252.63" width="22" height="11.37" />
<rect x="89" y="246.71" width="22" height="17.29" />
<rect x="116" y="243.29" width="22" height="18.02" />
<rect x="143" y="226.23" width="22" height="17.39" />
<rect x="170" y="221.41" width="22" height="21.23" />
<rect x="197" y="203.9" width="22" height="44.54" />
<rect x="224" y="211.76" width="22" height="19.45" />
<rect x="251" y="202.98" width="22" height="27.86" />
<rect x="278" y="207.57" width="22" height="14.66" />
<rect x="305" y="206.1" width="22" height="21.15" />
<rect x="332" y="204.26" width="22" height="13.46" />
<rect x="359" y="210.04" width="22" height="18.77" />
<rect x="386" y="202.82" width="22" height="28.15" />
<rect x="413" y="202.13" width="22" height="23.54" />
<rect x="440" y="197.11" width="22" height="20.24" />
</g>
<g style="fill: black; stroke: black;">
<line x1="68.5" y1="264" x2="78" y2="264" />
<line x1="68.5" y1="240.12" x2="78" y2="240.12" />
<line x1="68.5" y1="235.79" x2="78" y2="235.79" />
<rect x="72" y="235.79" width="1" height="5" />
</g>
<g style="fill: black; stroke: black;">
<rect x="63" y="262.62" width="20" height="1" />
</g>
<g style="fill: black; stroke: black;">
<line x1="95.5" y1="264" x2="105" y2="264" />
<line x1="95.5" y1="237.96" x2="105" y2="237.96" />
</g>
<g style="fill: black; stroke: black;">
<rect x="90" y="260.26" width="20" height="1" />
</g>
<g style="fill: black; stroke: black;">
<line x1="122.5" y1="264" x2="132" y2="264" />
<line x1="122.5" y1="238.01" x2="132" y2="238.01" />
</g>
<g style="fill: black; stroke: black;">
<rect x="117" y="251.43" width="20" height="1" />
</g>
<g style="fill: black; stroke: black;">
<line x1="149.5" y1="262.88" x2="159" y2="262.88" />
<line x1="149.5" y1="209.46" x2="159" y2="209.46" />
<line x1="149.5" y1="188.22" x2="159" y2="188.22" />
<rect x="153" y="188.22" width="1" height="5" />
</g>
<g style="fill: black; stroke: black;">
<rect x="144" y="236.51" width="20" height="1" />
</g>
<g style="fill: black; stroke: black;">
<line x1="176.5" y1="247.09" x2="186" y2="247.09" />
<line x1="176.5" y1="202.44" x2="186" y2="202.44" />
<line x1="176.5" y1="188.82" x2="186" y2="188.82" />
<rect x="180" y="188.82" width="1" height="5" />
</g>
<g style="fill: black; stroke: black;">
<rect x="171" y="236" width="20" height="1" />
</g>
<g style="fill: black; stroke: black;">
<line x1="203.5" y1="260.57" x2="213" y2="260.57" />
<line x1="203.5" y1="190.61" x2="213" y2="190.61" />
</g>
<g style="fill: black; stroke: black;">
<rect x="198" y="223.3" width="20" height="1" />
</g>
<g style="fill: black; stroke: black;">
<line x1="230.5" y1="263.04" x2="240" y2="263.04" />
<line x1="230.5" y1="202.91" x2="240" y2="202.91" />
</g>
<g style="fill: black; stroke: black;">
<rect x="225" y="222.77" width="20" height="1" />
</g>
<g style="fill: black; stroke: black;">
<line x1="257.5" y1="256" x2="267" y2="256" />
<line x1="257.5" y1="189.35" x2="267" y2="189.35" />
</g>
<g style="fill: black; stroke: black;">
<rect x="252" y="216.9" width="20" height="1" />
</g>
<g style="fill: black; stroke: black;">
<line x1="284.5" y1="262.4" x2="294" y2="262.4" />
<line x1="284.5" y1="192.6" x2="294" y2="192.6" />
<line x1="284.5" y1="180.82" x2="294" y2="180.82" />
<rect x="288" y="180.82" width="1" height="5" />
</g>
<g style="fill: black; stroke: black;">
<rect x="279" y="216.41" width="20" height="1" />
</g>
<g style="fill: black; stroke: black;">
<line x1="311.5" y1="261.33" x2="321" y2="261.33" />
<line x1="311.5" y1="187.17" x2="321" y2="187.17" />
<line x1="311.5" y1="186.9" x2="321" y2="186.9" />
<rect x="315" y="186.9" width="1" height="5" />
</g>
<g style="fill: black; stroke: black;">
<rect x="306" y="214.06" width="20" height="1" />
</g>
<g style="fill: black; stroke: black;">
<line x1="338.5" y1="255.68" x2="348" y2="255.68" />
<line x1="338.5" y1="190.14" x2="348" y2="190.14" />
<line x1="338.5" y1="256.29" x2="348" y2="256.29" />
<rect x="342" y="251.29" width="1" height="5" />
<line x1="338.5" y1="180.12" x2="348" y2="180.12" />
<rect x="342" y="180.12" width="1" height="5" />
</g>
<g style="fill: black; stroke: black;">
<rect x="333" y="212.47" width="20" height="1" />
</g>
<g style="fill: black; stroke: black;">
<line x1="365.5" y1="262.3" x2="375" y2="262.3" />
<line x1="365.5" y1="192.44" x2="375" y2="192.44" />
<line x1="365.5" y1="138.62" x2="375" y2="138.62" />
<rect x="369" y="138.62" width="1" height="5" />
</g>
<g style="fill: black; stroke: black;">
<rect x="360" y="210.75" width="20" height="1" />
</g>
<g style="fill: black; stroke: black;">
<line x1="392.5" y1="259.64" x2="402" y2="259.64" />
<line x1="392.5" y1="185.53" x2="402" y2="185.53" />
</g>
<g style="fill: black; stroke: black;">
<rect x="387" y="210.73" width="20" height="1" />
</g>
<g style="fill: black; stroke: black;">
<line x1="419.5" y1="258.49" x2="429" y2="258.49" />
<line x1="419.5" y1="181.98" x2="429" y2="181.98" />
<line x1="419.5" y1="178.3" x2="429" y2="178.3" />
<rect x="423" y="178.3" width="1" height="5" />
</g>
<g style="fill: black; stroke: black;">
<rect x="414" y="209.82" width="20" height="1" />
</g>
<g style="fill: black; stroke: black;">
<line x1="446.5" y1="224.13" x2="456" y2="224.13" />
<line x1="446.5" y1="178.68" x2="456" y2="178.68" />
<line x1="446.5" y1="152.74" x2="456" y2="152.74" />
<rect x="450" y="152.74" width="1" height="5" />
</g>
<g style="fill: black; stroke: black;">
<rect x="441" y="208.81" width="20" height="1" />
</g>
<g style="fill: white; stroke: black;">
<rect x="62" y="73" width="22" height="5"/>
<rect x="89" y="78" width="22" height="6"/>
<rect x="116" y="54" width="22" height="24"/>
<rect x="143" y="78" width="22" height="6"/>
<rect x="170" y="41" width="22" height="37"/>
<rect x="197" y="67" width="22" height="11"/>
<rect x="224" y="78" width="22" height="10"/>
<rect x="251" y="74" width="22" height="4"/>
<rect x="278" y="78" width="22" height="5"/>
<rect x="305" y="78" width="22" height="0"/>
<rect x="332" y="67" width="22" height="11"/>
<rect x="359" y="78" width="22" height="0"/>
<rect x="386" y="66" width="22" height="12"/>
<rect x="413" y="78" width="22" height="7"/>
<rect x="440" y="78" width="22" height="3"/>
</g>
<g style="text-anchor: end; font-family: Ubuntu,Verdana,sans-serif; font-size: 0.9em;" >
<text x="462" y="282" >18 Mar 2022 u64q</text>
<text x="58" y="282" style="text-anchor: start;" >benchmarks game</text>
</g>
<text x="16" y="144" transform="rotate(270,16,144)" style="text-anchor: middle; font-family: Ubuntu,Verdana,sans-serif; font-size: 0.9em;" >program cpu time / lowest</text>
<rect x="58" y="0" width="452" height="23" style="fill: white; stroke: white;" />
<text x="259.5" y="18" style="text-anchor: middle; font-family: Ubuntu,Verdana,sans-serif; font-size: 1.2em;" >How many times more CPU seconds?</text>
<text x="16" y="636" transform="rotate(270,16,144)" style="text-anchor: middle; font-family: Ubuntu,Verdana,sans-serif; font-size: 0.9em;">2018:2020 programs contributed + -</text>
<g style="text-anchor: end; font-family: Ubuntu,Verdana,sans-serif; font-size: 0.9em;">
<text x="488" y="76">ave</text>
<text x="488" y="36">+40</text>
</g>
<g style="stroke: #333;">
<line x1="58" y1="24" x2="58" y2="264" />
<line x1="461" y1="24" x2="461" y2="264" />
<line x1="58" y1="264" x2="461" y2="264" />
</g>
</svg>

