<?xml version="1.0" encoding="UTF-8" standalone="no"?>
<!DOCTYPE svg PUBLIC "-//W3C//DTD SVG 1.1//EN" "http://www.w3.org/Graphics/SVG/1.1/DTD/svg11.dtd">
<svg xmlns="http://www.w3.org/2000/svg" version="1.1" xmlns:xlink="http://www.w3.org/1999/xlink" viewBox="0 0 512 288">

<!-- Copyright 2015 Isaac Gouy -->
<!-- http://benchmarksgame.alioth.debian.org/license.html -->

<g style="stroke: #ccc;" >
<line x1="51" y1="264" x2="511" y2="264" />
<line x1="51" y1="221.57" x2="511" y2="221.57" />
<line x1="51" y1="201.85" x2="511" y2="201.85" />
<line x1="51" y1="175.08" x2="511" y2="175.08" />
<line x1="51" y1="132.65" x2="511" y2="132.65" />
<line x1="51" y1="112.92" x2="511" y2="112.92" />
<line x1="51" y1="86.15" x2="511" y2="86.15" />
<line x1="51" y1="43.73" x2="511" y2="43.73" />
<line x1="51" y1="24" x2="511" y2="24" />
</g>
<g style="text-anchor: end; font-family: Ubuntu,Verdana,sans-serif; font-size: 0.9em;" >
<text x="51" y="262" >1</text>
<text x="51" y="219.57" >3</text>
<text x="51" y="199.85" >5</text>
<text x="51" y="173.08" >10</text>
<text x="51" y="130.65" >30</text>
<text x="51" y="110.92" >50</text>
<text x="51" y="84.15" >100</text>
<text x="51" y="41.73" >300</text>
<text x="51" y="22" ></text>
</g>
<defs>
<linearGradient id="grade" x1="0" y1="0" x2="0" y2="1">
<stop offset="0" style="stop-color: white" stop-opacity="0.6"/>
<stop offset="1" style="stop-color: white" stop-opacity="0.8"/>
</linearGradient>
<mask id="fade">
<rect x="58" y="24" width="452" height="288" fill="url(#grade)"  />
</mask>
<g id="backgroundText" style="text-anchor: end; font-family: Ubuntu,Verdana,sans-serif; font-size: 1em;">
<text x="13" y="0" transform="rotate(270,13,0)" xml:space="preserve">   Haskell GHC   Haskell GHC   Haskell GHC   Haskell GHC</text>
<text x="35" y="0" transform="rotate(270,35,0)" xml:space="preserve">   Java AOT   Java AOT   Java AOT   Java AOT   Java AOT</text>
<text x="57" y="0" transform="rotate(270,57,0)" xml:space="preserve">   Julia   Julia   Julia   Julia   Julia   Julia   Julia</text>
<text x="79" y="0" transform="rotate(270,79,0)" xml:space="preserve">   Node js   Node js   Node js   Node js   Node js   Node js</text>
<text x="101" y="0" transform="rotate(270,101,0)" xml:space="preserve">   TypeScript   TypeScript   TypeScript   TypeScript</text>
<text x="123" y="0" transform="rotate(270,123,0)" xml:space="preserve">Dart   Dart   Dart   Dart   Dart   Dart   Dart   Dart   Dart</text>
<text x="145" y="0" transform="rotate(270,145,0)" xml:space="preserve">   Racket   Racket   Racket   Racket   Racket   Racket</text>
<br />
<b>Warning</b>:  Division by zero in <b>/home/dunham/8000-benchmarksgame/website/lib/lib_chartSVG.php</b> on line <b>289</b><br />
<br />
<b>Warning</b>:  str_repeat() expects parameter 2 to be integer, float given in <b>/home/dunham/8000-benchmarksgame/website/lib/lib_chartSVG.php</b> on line <b>290</b><br />
<text x="167" y="0" transform="rotate(270,167,0)" xml:space="preserve"></text>
<text x="189" y="0" transform="rotate(270,189,0)" xml:space="preserve">   PHP   PHP   PHP   PHP   PHP   PHP   PHP   PHP   PHP   PHP</text>
<text x="211" y="0" transform="rotate(270,211,0)" xml:space="preserve">   Erlang HiPE   Erlang HiPE   Erlang HiPE   Erlang HiPE</text>
<br />
<b>Warning</b>:  Division by zero in <b>/home/dunham/8000-benchmarksgame/website/lib/lib_chartSVG.php</b> on line <b>289</b><br />
<br />
<b>Warning</b>:  str_repeat() expects parameter 2 to be integer, float given in <b>/home/dunham/8000-benchmarksgame/website/lib/lib_chartSVG.php</b> on line <b>290</b><br />
<text x="233" y="0" transform="rotate(270,233,0)" xml:space="preserve"></text>
<text x="255" y="0" transform="rotate(270,255,0)" xml:space="preserve">   VW Smalltalk   VW Smalltalk   VW Smalltalk   VW Smalltalk</text>
<text x="277" y="0" transform="rotate(270,277,0)" xml:space="preserve">   Truffle Ruby   Truffle Ruby   Truffle Ruby   Truffle Ruby</text>
<text x="299" y="0" transform="rotate(270,299,0)" xml:space="preserve">Perl   Perl   Perl   Perl   Perl   Perl   Perl   Perl   Perl</text>
<text x="321" y="0" transform="rotate(270,321,0)" xml:space="preserve">Ruby   Ruby   Ruby   Ruby   Ruby   Ruby   Ruby   Ruby   Ruby</text>
<text x="343" y="0" transform="rotate(270,343,0)" xml:space="preserve">   Python 3   Python 3   Python 3   Python 3   Python 3</text>
<text x="365" y="0" transform="rotate(270,365,0)" xml:space="preserve">   Lua   Lua   Lua   Lua   Lua   Lua   Lua   Lua   Lua   Lua</text>
<text x="387" y="0" transform="rotate(270,387,0)" xml:space="preserve">   JRuby   JRuby   JRuby   JRuby   JRuby   JRuby   JRuby</text>
<br />
<b>Warning</b>:  Division by zero in <b>/home/dunham/8000-benchmarksgame/website/lib/lib_chartSVG.php</b> on line <b>289</b><br />
<br />
<b>Warning</b>:  str_repeat() expects parameter 2 to be integer, float given in <b>/home/dunham/8000-benchmarksgame/website/lib/lib_chartSVG.php</b> on line <b>290</b><br />
<text x="409" y="0" transform="rotate(270,409,0)" xml:space="preserve"></text>
<text x="431" y="0" transform="rotate(270,431,0)" xml:space="preserve">   Matz's Ruby   Matz's Ruby   Matz's Ruby   Matz's Ruby</text>
</g>
</defs>
<use x="60" y="27" xlink:href="#backgroundText"/>
<rect x="58" y="24" width="452" height="288" fill="white" mask="url(#fade)" />
<rect x="58" y="264" width="452" height="288" style="fill: white; stroke: white;" />
<g style="fill: black; stroke: black;">
<rect x="71" y="173.24" width="1" height="49.5" />
<rect x="93" y="171.21" width="1" height="71.16" />
<rect x="115" y="157.87" width="1" height="72.81" />
<rect x="137" y="169.77" width="1" height="54.69" />
<rect x="159" y="176.16" width="1" height="45.7" />
<rect x="181" y="165.89" width="1" height="60.24" />
<rect x="203" y="144.3" width="1" height="101.67" />
<rect x="225" y="708.61" width="1" height="0" />
<rect x="247" y="95.57" width="1" height="168.43" />
<rect x="269" y="110.51" width="1" height="127.76" />
<rect x="291" y="708.61" width="1" height="0" />
<rect x="313" y="88.65" width="1" height="103.2" />
<rect x="335" y="98.48" width="1" height="91.89" />
<rect x="357" y="64.95" width="1" height="169.62" />
<rect x="379" y="70.61" width="1" height="138.2" />
<rect x="401" y="50.9" width="1" height="183.66" />
<rect x="423" y="79.42" width="1" height="79.99" />
<rect x="445" y="61.41" width="1" height="116.74" />
<rect x="467" y="708.61" width="1" height="0" />
<rect x="489" y="-30.41" width="1" height="190.28" />
</g>
<g style="fill: white; stroke: black;">
<rect x="62" y="184.83" width="18" height="35.35" />
<rect x="84" y="192.59" width="18" height="26.23" />
<rect x="106" y="184.52" width="18" height="41.98" />
<rect x="128" y="180.12" width="18" height="36.96" />
<rect x="150" y="189.33" width="18" height="12.2" />
<rect x="172" y="187.78" width="18" height="27.43" />
<rect x="194" y="166.45" width="18" height="33.01" />
<rect x="216" y="708.61" width="18" height="0" />
<rect x="238" y="119" width="18" height="77.85" />
<rect x="260" y="136.17" width="18" height="38.28" />
<rect x="282" y="708.61" width="18" height="0" />
<rect x="304" y="117.73" width="18" height="53.32" />
<rect x="326" y="120.43" width="18" height="27.56" />
<rect x="348" y="95.93" width="18" height="66.31" />
<rect x="370" y="98.95" width="18" height="77.01" />
<rect x="392" y="83.73" width="18" height="86.38" />
<rect x="414" y="97.64" width="18" height="47.49" />
<rect x="436" y="89.25" width="18" height="47.05" />
<rect x="458" y="708.61" width="18" height="0" />
<rect x="480" y="2.91" width="18" height="94.41" />
</g>
<g style="fill: black; stroke: black;">
<line x1="67" y1="222.74" x2="75.5" y2="222.74" />
<line x1="67" y1="173.24" x2="75.5" y2="173.24" />
</g>
<g style="fill: black; stroke: black;">
<rect x="63" y="210.45" width="16" height="1" />
</g>
<g style="fill: black; stroke: black;">
<line x1="89" y1="242.37" x2="97.5" y2="242.37" />
<line x1="89" y1="171.21" x2="97.5" y2="171.21" />
<line x1="89" y1="151.34" x2="97.5" y2="151.34" />
<rect x="93" y="151.34" width="1" height="5" />
</g>
<g style="fill: black; stroke: black;">
<rect x="85" y="200.83" width="16" height="1" />
</g>
<g style="fill: black; stroke: black;">
<line x1="111" y1="230.67" x2="119.5" y2="230.67" />
<line x1="111" y1="157.87" x2="119.5" y2="157.87" />
<line x1="111" y1="130.28" x2="119.5" y2="130.28" />
<rect x="115" y="130.28" width="1" height="5" />
</g>
<g style="fill: black; stroke: black;">
<rect x="107" y="201.58" width="16" height="1" />
</g>
<g style="fill: black; stroke: black;">
<line x1="133" y1="224.46" x2="141.5" y2="224.46" />
<line x1="133" y1="169.77" x2="141.5" y2="169.77" />
</g>
<g style="fill: black; stroke: black;">
<rect x="129" y="195.05" width="16" height="1" />
</g>
<g style="fill: black; stroke: black;">
<line x1="155" y1="221.86" x2="163.5" y2="221.86" />
<line x1="155" y1="176.16" x2="163.5" y2="176.16" />
<line x1="155" y1="162.26" x2="163.5" y2="162.26" />
<rect x="159" y="162.26" width="1" height="5" />
</g>
<g style="fill: black; stroke: black;">
<rect x="151" y="191.34" width="16" height="1" />
</g>
<g style="fill: black; stroke: black;">
<line x1="177" y1="226.13" x2="185.5" y2="226.13" />
<line x1="177" y1="165.89" x2="185.5" y2="165.89" />
<line x1="177" y1="97.96" x2="185.5" y2="97.96" />
<rect x="181" y="97.96" width="1" height="5" />
</g>
<g style="fill: black; stroke: black;">
<rect x="173" y="195.03" width="16" height="1" />
</g>
<g style="fill: black; stroke: black;">
<line x1="199" y1="245.97" x2="207.5" y2="245.97" />
<line x1="199" y1="144.3" x2="207.5" y2="144.3" />
</g>
<g style="fill: black; stroke: black;">
<rect x="195" y="186.79" width="16" height="1" />
</g>
<g style="fill: black; stroke: black;">
<line x1="221" y1="708.61" x2="229.5" y2="708.61" />
<line x1="221" y1="708.61" x2="229.5" y2="708.61" />
</g>
<g style="fill: black; stroke: black;">
<rect x="217" y="707.61" width="16" height="1" />
</g>
<g style="fill: black; stroke: black;">
<line x1="243" y1="264" x2="251.5" y2="264" />
<line x1="243" y1="95.57" x2="251.5" y2="95.57" />
</g>
<g style="fill: black; stroke: black;">
<rect x="239" y="153.1" width="16" height="1" />
</g>
<g style="fill: black; stroke: black;">
<line x1="265" y1="238.27" x2="273.5" y2="238.27" />
<line x1="265" y1="110.51" x2="273.5" y2="110.51" />
<line x1="265" y1="96.23" x2="273.5" y2="96.23" />
<rect x="269" y="96.23" width="1" height="5" />
</g>
<g style="fill: black; stroke: black;">
<rect x="261" y="142.29" width="16" height="1" />
</g>
<g style="fill: black; stroke: black;">
<line x1="287" y1="708.61" x2="295.5" y2="708.61" />
<line x1="287" y1="708.61" x2="295.5" y2="708.61" />
</g>
<g style="fill: black; stroke: black;">
<rect x="283" y="707.61" width="16" height="1" />
</g>
<g style="fill: black; stroke: black;">
<line x1="309" y1="191.85" x2="317.5" y2="191.85" />
<line x1="309" y1="88.65" x2="317.5" y2="88.65" />
<line x1="309" y1="86.9" x2="317.5" y2="86.9" />
<rect x="313" y="86.9" width="1" height="5" />
</g>
<g style="fill: black; stroke: black;">
<rect x="305" y="135.79" width="16" height="1" />
</g>
<g style="fill: black; stroke: black;">
<line x1="331" y1="190.37" x2="339.5" y2="190.37" />
<line x1="331" y1="98.48" x2="339.5" y2="98.48" />
<line x1="331" y1="66.45" x2="339.5" y2="66.45" />
<rect x="335" y="66.45" width="1" height="5" />
</g>
<g style="fill: black; stroke: black;">
<rect x="327" y="138.31" width="16" height="1" />
</g>
<g style="fill: black; stroke: black;">
<line x1="353" y1="234.57" x2="361.5" y2="234.57" />
<line x1="353" y1="64.95" x2="361.5" y2="64.95" />
<line x1="353" y1="24.89" x2="361.5" y2="24.89" />
<rect x="357" y="24.89" width="1" height="5" />
</g>
<g style="fill: black; stroke: black;">
<rect x="349" y="128" width="16" height="1" />
</g>
<g style="fill: black; stroke: black;">
<line x1="375" y1="208.81" x2="383.5" y2="208.81" />
<line x1="375" y1="70.61" x2="383.5" y2="70.61" />
</g>
<g style="fill: black; stroke: black;">
<rect x="371" y="129.53" width="16" height="1" />
</g>
<g style="fill: black; stroke: black;">
<line x1="397" y1="234.56" x2="405.5" y2="234.56" />
<line x1="397" y1="50.9" x2="405.5" y2="50.9" />
<line x1="397" y1="45.75" x2="405.5" y2="45.75" />
<rect x="401" y="45.75" width="1" height="5" />
</g>
<g style="fill: black; stroke: black;">
<rect x="393" y="132.13" width="16" height="1" />
</g>
<g style="fill: black; stroke: black;">
<line x1="419" y1="159.41" x2="427.5" y2="159.41" />
<line x1="419" y1="79.42" x2="427.5" y2="79.42" />
</g>
<g style="fill: black; stroke: black;">
<rect x="415" y="115.63" width="16" height="1" />
</g>
<g style="fill: black; stroke: black;">
<line x1="441" y1="178.15" x2="449.5" y2="178.15" />
<line x1="441" y1="61.41" x2="449.5" y2="61.41" />
<line x1="441" y1="29.86" x2="449.5" y2="29.86" />
<rect x="445" y="29.86" width="1" height="5" />
</g>
<g style="fill: black; stroke: black;">
<rect x="437" y="115.62" width="16" height="1" />
</g>
<g style="fill: black; stroke: black;">
<line x1="463" y1="708.61" x2="471.5" y2="708.61" />
<line x1="463" y1="708.61" x2="471.5" y2="708.61" />
</g>
<g style="fill: black; stroke: black;">
<rect x="459" y="707.61" width="16" height="1" />
</g>
<g style="fill: black; stroke: black;">
<line x1="485" y1="159.87" x2="493.5" y2="159.87" />
<line x1="485" y1="-30.41" x2="493.5" y2="-30.41" />
<line x1="485" y1="-36.22" x2="493.5" y2="-36.22" />
<rect x="489" y="-36.22" width="1" height="5" />
</g>
<g style="fill: black; stroke: black;">
<rect x="481" y="68.1" width="16" height="1" />
</g>
<g style="text-anchor: end; font-family: Ubuntu,Verdana,sans-serif; font-size: 0.9em;" >
<text x="512" y="282" >18 Nov 2018 u64q</text>
<text x="58" y="282" style="text-anchor: start;" >benchmarks game</text>
</g>
<text x="16" y="144" transform="rotate(270,16,144)" style="text-anchor: middle; font-family: Ubuntu,Verdana,sans-serif; font-size: 0.9em;" >program CPU time / fastest CPU time</text>
<text x="285" y="18" style="text-anchor: middle; font-family: Ubuntu,Verdana,sans-serif; font-size: 1.2em;" >How many times slower?</text>
<g style="stroke: #333;">
<line x1="58" y1="24" x2="58" y2="264" />
<line x1="511" y1="24" x2="511" y2="264" />
<line x1="58" y1="264" x2="511" y2="264" />
</g>
</svg>

