<?xml version="1.0" encoding="UTF-8" standalone="no"?>
<!DOCTYPE svg PUBLIC "-//W3C//DTD SVG 1.1//EN" "http://www.w3.org/Graphics/SVG/1.1/DTD/svg11.dtd">
<svg xmlns="http://www.w3.org/2000/svg" version="1.1" xmlns:xlink="http://www.w3.org/1999/xlink" viewBox="0 0 512 288">

<!-- Copyright 2015 Isaac Gouy -->
<!-- http://benchmarksgame.alioth.debian.org/license.html -->

<g style="stroke: #ccc;" >
<line x1="51" y1="264" x2="511" y2="264" />
<line x1="51" y1="221.57" x2="511" y2="221.57" />
<line x1="51" y1="201.85" x2="511" y2="201.85" />
<line x1="51" y1="175.08" x2="511" y2="175.08" />
<line x1="51" y1="132.65" x2="511" y2="132.65" />
<line x1="51" y1="112.92" x2="511" y2="112.92" />
<line x1="51" y1="86.15" x2="511" y2="86.15" />
<line x1="51" y1="43.73" x2="511" y2="43.73" />
<line x1="51" y1="24" x2="511" y2="24" />
</g>
<g style="text-anchor: end; font-family: Ubuntu,Verdana,sans-serif; font-size: 0.9em;" >
<text x="51" y="262" >1</text>
<text x="51" y="219.57" >3</text>
<text x="51" y="199.85" >5</text>
<text x="51" y="173.08" >10</text>
<text x="51" y="130.65" >30</text>
<text x="51" y="110.92" >50</text>
<text x="51" y="84.15" >100</text>
<text x="51" y="41.73" >300</text>
<text x="51" y="22" ></text>
</g>
<defs>
<linearGradient id="grade" x1="0" y1="0" x2="0" y2="1">
<stop offset="0" style="stop-color: white" stop-opacity="0.6"/>
<stop offset="1" style="stop-color: white" stop-opacity="0.8"/>
</linearGradient>
<mask id="fade">
<rect x="58" y="24" width="452" height="288" fill="url(#grade)"  />
</mask>
<g id="backgroundText" style="text-anchor: end; font-family: Ubuntu,Verdana,sans-serif; font-size: 1em;">
<text x="15" y="0" transform="rotate(270,15,0)" xml:space="preserve">   TypeScript   TypeScript   TypeScript   TypeScript</text>
<text x="40" y="0" transform="rotate(270,40,0)" xml:space="preserve">   Haskell GHC   Haskell GHC   Haskell GHC   Haskell GHC</text>
<text x="65" y="0" transform="rotate(270,65,0)" xml:space="preserve">Dart   Dart   Dart   Dart   Dart   Dart   Dart   Dart   Dart</text>
<text x="90" y="0" transform="rotate(270,90,0)" xml:space="preserve">   Julia   Julia   Julia   Julia   Julia   Julia   Julia</text>
<text x="115" y="0" transform="rotate(270,115,0)" xml:space="preserve">   Node js   Node js   Node js   Node js   Node js   Node js</text>
<text x="140" y="0" transform="rotate(270,140,0)" xml:space="preserve">   Racket   Racket   Racket   Racket   Racket   Racket</text>
<br />
<b>Warning</b>:  Division by zero in <b>/home/dunham/8000-benchmarksgame/website/lib/lib_chartSVG.php</b> on line <b>289</b><br />
<br />
<b>Warning</b>:  str_repeat() expects parameter 2 to be int, float given in <b>/home/dunham/8000-benchmarksgame/website/lib/lib_chartSVG.php</b> on line <b>290</b><br />
<text x="165" y="0" transform="rotate(270,165,0)" xml:space="preserve"></text>
<text x="190" y="0" transform="rotate(270,190,0)" xml:space="preserve">   PHP   PHP   PHP   PHP   PHP   PHP   PHP   PHP   PHP   PHP</text>
<br />
<b>Warning</b>:  Division by zero in <b>/home/dunham/8000-benchmarksgame/website/lib/lib_chartSVG.php</b> on line <b>289</b><br />
<br />
<b>Warning</b>:  str_repeat() expects parameter 2 to be int, float given in <b>/home/dunham/8000-benchmarksgame/website/lib/lib_chartSVG.php</b> on line <b>290</b><br />
<text x="215" y="0" transform="rotate(270,215,0)" xml:space="preserve"></text>
<text x="240" y="0" transform="rotate(270,240,0)" xml:space="preserve">   Erlang HiPE   Erlang HiPE   Erlang HiPE   Erlang HiPE</text>
<text x="265" y="0" transform="rotate(270,265,0)" xml:space="preserve">   VW Smalltalk   VW Smalltalk   VW Smalltalk   VW Smalltalk</text>
<text x="290" y="0" transform="rotate(270,290,0)" xml:space="preserve">Perl   Perl   Perl   Perl   Perl   Perl   Perl   Perl   Perl</text>
<text x="315" y="0" transform="rotate(270,315,0)" xml:space="preserve">   Truffle Ruby   Truffle Ruby   Truffle Ruby   Truffle Ruby</text>
<text x="340" y="0" transform="rotate(270,340,0)" xml:space="preserve">Ruby   Ruby   Ruby   Ruby   Ruby   Ruby   Ruby   Ruby   Ruby</text>
<text x="365" y="0" transform="rotate(270,365,0)" xml:space="preserve">   Python 3   Python 3   Python 3   Python 3   Python 3</text>
<text x="390" y="0" transform="rotate(270,390,0)" xml:space="preserve">   Lua   Lua   Lua   Lua   Lua   Lua   Lua   Lua   Lua   Lua</text>
<br />
<b>Warning</b>:  Division by zero in <b>/home/dunham/8000-benchmarksgame/website/lib/lib_chartSVG.php</b> on line <b>289</b><br />
<br />
<b>Warning</b>:  str_repeat() expects parameter 2 to be int, float given in <b>/home/dunham/8000-benchmarksgame/website/lib/lib_chartSVG.php</b> on line <b>290</b><br />
<text x="415" y="0" transform="rotate(270,415,0)" xml:space="preserve"></text>
<text x="440" y="0" transform="rotate(270,440,0)" xml:space="preserve">   Matz's Ruby   Matz's Ruby   Matz's Ruby   Matz's Ruby</text>
</g>
</defs>
<use x="60" y="27" xlink:href="#backgroundText"/>
<rect x="58" y="24" width="452" height="288" fill="white" mask="url(#fade)" />
<rect x="58" y="264" width="452" height="288" style="fill: white; stroke: white;" />
<g style="fill: black; stroke: black;">
<rect x="72" y="180.91" width="1" height="56.06" />
<rect x="97" y="159.51" width="1" height="77.69" />
<rect x="122" y="176.65" width="1" height="58.55" />
<rect x="147" y="148.85" width="1" height="90.91" />
<rect x="172" y="169.64" width="1" height="67.42" />
<rect x="197" y="143.69" width="1" height="102.03" />
<rect x="222" y="708.61" width="1" height="0" />
<rect x="247" y="95.5" width="1" height="168.5" />
<rect x="272" y="708.61" width="1" height="0" />
<rect x="297" y="100.21" width="1" height="131.96" />
<rect x="322" y="109.77" width="1" height="77.54" />
<rect x="347" y="65.43" width="1" height="168.29" />
<rect x="372" y="87.14" width="1" height="118.4" />
<rect x="397" y="70.96" width="1" height="140.4" />
<rect x="422" y="63.87" width="1" height="172.8" />
<rect x="447" y="79" width="1" height="79.27" />
<rect x="472" y="708.61" width="1" height="0" />
<rect x="497" y="-26.06" width="1" height="186.35" />
</g>
<g style="fill: white; stroke: black;">
<rect x="62" y="194.07" width="20" height="27.59" />
<rect x="87" y="184.79" width="20" height="37.01" />
<rect x="112" y="187.51" width="20" height="32.56" />
<rect x="137" y="177.51" width="20" height="51.12" />
<rect x="162" y="179.04" width="20" height="38.07" />
<rect x="187" y="166.21" width="20" height="59.94" />
<rect x="212" y="708.61" width="20" height="0" />
<rect x="237" y="122.47" width="20" height="73.49" />
<rect x="262" y="708.61" width="20" height="0" />
<rect x="287" y="127.97" width="20" height="46.64" />
<rect x="312" y="129.81" width="20" height="46.29" />
<rect x="337" y="96.2" width="20" height="64.52" />
<rect x="362" y="113.48" width="20" height="40.76" />
<rect x="387" y="97.03" width="20" height="66.29" />
<rect x="412" y="93.62" width="20" height="70.78" />
<rect x="437" y="102.73" width="20" height="45.46" />
<rect x="462" y="708.61" width="20" height="0" />
<rect x="487" y="6.95" width="20" height="89.15" />
</g>
<g style="fill: black; stroke: black;">
<line x1="67.5" y1="236.97" x2="77" y2="236.97" />
<line x1="67.5" y1="180.91" x2="77" y2="180.91" />
</g>
<g style="fill: black; stroke: black;">
<rect x="63" y="206.85" width="18" height="1" />
</g>
<g style="fill: black; stroke: black;">
<line x1="92.5" y1="237.2" x2="102" y2="237.2" />
<line x1="92.5" y1="159.51" x2="102" y2="159.51" />
<line x1="92.5" y1="158.9" x2="102" y2="158.9" />
<rect x="97" y="158.9" width="1" height="5" />
</g>
<g style="fill: black; stroke: black;">
<rect x="88" y="219.03" width="18" height="1" />
</g>
<g style="fill: black; stroke: black;">
<line x1="117.5" y1="235.2" x2="127" y2="235.2" />
<line x1="117.5" y1="176.65" x2="127" y2="176.65" />
</g>
<g style="fill: black; stroke: black;">
<rect x="113" y="200.14" width="18" height="1" />
</g>
<g style="fill: black; stroke: black;">
<line x1="142.5" y1="239.76" x2="152" y2="239.76" />
<line x1="142.5" y1="148.85" x2="152" y2="148.85" />
<line x1="142.5" y1="138.43" x2="152" y2="138.43" />
<rect x="147" y="138.43" width="1" height="5" />
</g>
<g style="fill: black; stroke: black;">
<rect x="138" y="213.31" width="18" height="1" />
</g>
<g style="fill: black; stroke: black;">
<line x1="167.5" y1="237.06" x2="177" y2="237.06" />
<line x1="167.5" y1="169.64" x2="177" y2="169.64" />
</g>
<g style="fill: black; stroke: black;">
<rect x="163" y="195.99" width="18" height="1" />
</g>
<g style="fill: black; stroke: black;">
<line x1="192.5" y1="245.72" x2="202" y2="245.72" />
<line x1="192.5" y1="143.69" x2="202" y2="143.69" />
</g>
<g style="fill: black; stroke: black;">
<rect x="188" y="186.29" width="18" height="1" />
</g>
<g style="fill: black; stroke: black;">
<line x1="217.5" y1="708.61" x2="227" y2="708.61" />
<line x1="217.5" y1="708.61" x2="227" y2="708.61" />
</g>
<g style="fill: black; stroke: black;">
<rect x="213" y="707.61" width="18" height="1" />
</g>
<g style="fill: black; stroke: black;">
<line x1="242.5" y1="264" x2="252" y2="264" />
<line x1="242.5" y1="95.5" x2="252" y2="95.5" />
</g>
<g style="fill: black; stroke: black;">
<rect x="238" y="156.23" width="18" height="1" />
</g>
<g style="fill: black; stroke: black;">
<line x1="267.5" y1="708.61" x2="277" y2="708.61" />
<line x1="267.5" y1="708.61" x2="277" y2="708.61" />
</g>
<g style="fill: black; stroke: black;">
<rect x="263" y="707.61" width="18" height="1" />
</g>
<g style="fill: black; stroke: black;">
<line x1="292.5" y1="232.17" x2="302" y2="232.17" />
<line x1="292.5" y1="100.21" x2="302" y2="100.21" />
<line x1="292.5" y1="97.64" x2="302" y2="97.64" />
<rect x="297" y="97.64" width="1" height="5" />
</g>
<g style="fill: black; stroke: black;">
<rect x="288" y="157.4" width="18" height="1" />
</g>
<g style="fill: black; stroke: black;">
<line x1="317.5" y1="187.31" x2="327" y2="187.31" />
<line x1="317.5" y1="109.77" x2="327" y2="109.77" />
</g>
<g style="fill: black; stroke: black;">
<rect x="313" y="145.59" width="18" height="1" />
</g>
<g style="fill: black; stroke: black;">
<line x1="342.5" y1="233.72" x2="352" y2="233.72" />
<line x1="342.5" y1="65.43" x2="352" y2="65.43" />
<line x1="342.5" y1="27.68" x2="352" y2="27.68" />
<rect x="347" y="27.68" width="1" height="5" />
</g>
<g style="fill: black; stroke: black;">
<rect x="338" y="141.09" width="18" height="1" />
</g>
<g style="fill: black; stroke: black;">
<line x1="367.5" y1="205.54" x2="377" y2="205.54" />
<line x1="367.5" y1="87.14" x2="377" y2="87.14" />
<line x1="367.5" y1="81.19" x2="377" y2="81.19" />
<rect x="372" y="81.19" width="1" height="5" />
</g>
<g style="fill: black; stroke: black;">
<rect x="363" y="125.31" width="18" height="1" />
</g>
<g style="fill: black; stroke: black;">
<line x1="392.5" y1="211.36" x2="402" y2="211.36" />
<line x1="392.5" y1="70.96" x2="402" y2="70.96" />
</g>
<g style="fill: black; stroke: black;">
<rect x="388" y="127.19" width="18" height="1" />
</g>
<g style="fill: black; stroke: black;">
<line x1="417.5" y1="236.67" x2="427" y2="236.67" />
<line x1="417.5" y1="63.87" x2="427" y2="63.87" />
</g>
<g style="fill: black; stroke: black;">
<rect x="413" y="133.79" width="18" height="1" />
</g>
<g style="fill: black; stroke: black;">
<line x1="442.5" y1="158.27" x2="452" y2="158.27" />
<line x1="442.5" y1="79" x2="452" y2="79" />
</g>
<g style="fill: black; stroke: black;">
<rect x="438" y="123.79" width="18" height="1" />
</g>
<g style="fill: black; stroke: black;">
<line x1="467.5" y1="708.61" x2="477" y2="708.61" />
<line x1="467.5" y1="708.61" x2="477" y2="708.61" />
</g>
<g style="fill: black; stroke: black;">
<rect x="463" y="707.61" width="18" height="1" />
</g>
<g style="fill: black; stroke: black;">
<line x1="492.5" y1="160.29" x2="502" y2="160.29" />
<line x1="492.5" y1="-26.06" x2="502" y2="-26.06" />
<line x1="492.5" y1="-36.24" x2="502" y2="-36.24" />
<rect x="497" y="-36.24" width="1" height="5" />
</g>
<g style="fill: black; stroke: black;">
<rect x="488" y="68.1" width="18" height="1" />
</g>
<g style="text-anchor: end; font-family: Ubuntu,Verdana,sans-serif; font-size: 0.9em;" >
<text x="512" y="282" >29 Apr 2019 u64q</text>
<text x="58" y="282" style="text-anchor: start;" >benchmarks game</text>
</g>
<text x="16" y="144" transform="rotate(270,16,144)" style="text-anchor: middle; font-family: Ubuntu,Verdana,sans-serif; font-size: 0.9em;" >program CPU time / fastest CPU time</text>
<text x="285" y="18" style="text-anchor: middle; font-family: Ubuntu,Verdana,sans-serif; font-size: 1.2em;" >How many times slower?</text>
<g style="stroke: #333;">
<line x1="58" y1="24" x2="58" y2="264" />
<line x1="511" y1="24" x2="511" y2="264" />
<line x1="58" y1="264" x2="511" y2="264" />
</g>
</svg>

