<?xml version="1.0" encoding="UTF-8" standalone="no"?>
<!DOCTYPE svg PUBLIC "-//W3C//DTD SVG 1.1//EN" "http://www.w3.org/Graphics/SVG/1.1/DTD/svg11.dtd">
<svg xmlns="http://www.w3.org/2000/svg" version="1.1" xmlns:xlink="http://www.w3.org/1999/xlink" viewBox="0 0 512 288">

<!-- Copyright 2015 Isaac Gouy -->
<!-- http://benchmarksgame.alioth.debian.org/license.html -->

<g style="stroke: #ccc;" >
<line x1="51" y1="264" x2="511" y2="264" />
<line x1="51" y1="221.57" x2="511" y2="221.57" />
<line x1="51" y1="201.85" x2="511" y2="201.85" />
<line x1="51" y1="175.08" x2="511" y2="175.08" />
<line x1="51" y1="132.65" x2="511" y2="132.65" />
<line x1="51" y1="112.92" x2="511" y2="112.92" />
<line x1="51" y1="86.15" x2="511" y2="86.15" />
<line x1="51" y1="43.73" x2="511" y2="43.73" />
<line x1="51" y1="24" x2="511" y2="24" />
</g>
<g style="text-anchor: end; font-family: Ubuntu,Verdana,sans-serif; font-size: 0.9em;" >
<text x="51" y="262" >1</text>
<text x="51" y="219.57" >3</text>
<text x="51" y="199.85" >5</text>
<text x="51" y="173.08" >10</text>
<text x="51" y="130.65" >30</text>
<text x="51" y="110.92" >50</text>
<text x="51" y="84.15" >100</text>
<text x="51" y="41.73" >300</text>
<text x="51" y="22" ></text>
</g>
<defs>
<linearGradient id="grade" x1="0" y1="0" x2="0" y2="1">
<stop offset="0" style="stop-color: white" stop-opacity="0.6"/>
<stop offset="1" style="stop-color: white" stop-opacity="0.8"/>
</linearGradient>
<mask id="fade">
<rect x="58" y="24" width="452" height="288" fill="url(#grade)"  />
</mask>
<g id="backgroundText" style="text-anchor: end; font-family: Ubuntu,Verdana,sans-serif; font-size: 1em;">
<text x="15" y="0" transform="rotate(270,15,0)" xml:space="preserve">   C gcc   C gcc   C gcc   C gcc   C gcc   C gcc   C gcc</text>
<text x="40" y="0" transform="rotate(270,40,0)" xml:space="preserve">Rust   Rust   Rust   Rust   Rust   Rust   Rust   Rust   Rust</text>
<text x="65" y="0" transform="rotate(270,65,0)" xml:space="preserve">   C++ g++   C++ g++   C++ g++   C++ g++   C++ g++   C++ g++</text>
<br />
<b>Warning</b>:  Division by zero in <b>/home/dunham/8000-benchmarksgame/website/lib/lib_chartSVG.php</b> on line <b>289</b><br />
<br />
<b>Warning</b>:  str_repeat() expects parameter 2 to be int, float given in <b>/home/dunham/8000-benchmarksgame/website/lib/lib_chartSVG.php</b> on line <b>290</b><br />
<text x="90" y="0" transform="rotate(270,90,0)" xml:space="preserve"></text>
<text x="115" y="0" transform="rotate(270,115,0)" xml:space="preserve">da 2012 GNAT   Ada 2012 GNAT   Ada 2012 GNAT   Ada 2012 GNAT</text>
<text x="140" y="0" transform="rotate(270,140,0)" xml:space="preserve">   C# .NET Core   C# .NET Core   C# .NET Core   C# .NET Core</text>
<text x="165" y="0" transform="rotate(270,165,0)" xml:space="preserve">ortran Intel   Fortran Intel   Fortran Intel   Fortran Intel</text>
<text x="190" y="0" transform="rotate(270,190,0)" xml:space="preserve">   Julia   Julia   Julia   Julia   Julia   Julia   Julia</text>
<text x="215" y="0" transform="rotate(270,215,0)" xml:space="preserve">   Free Pascal   Free Pascal   Free Pascal   Free Pascal</text>
<text x="240" y="0" transform="rotate(270,240,0)" xml:space="preserve">   F# .NET Core   F# .NET Core   F# .NET Core   F# .NET Core</text>
<text x="265" y="0" transform="rotate(270,265,0)" xml:space="preserve">   Go   Go   Go   Go   Go   Go   Go   Go   Go   Go   Go   Go</text>
<text x="290" y="0" transform="rotate(270,290,0)" xml:space="preserve">Java   Java   Java   Java   Java   Java   Java   Java   Java</text>
<text x="315" y="0" transform="rotate(270,315,0)" xml:space="preserve">   Haskell GHC   Haskell GHC   Haskell GHC   Haskell GHC</text>
<text x="340" y="0" transform="rotate(270,340,0)" xml:space="preserve">   Chapel   Chapel   Chapel   Chapel   Chapel   Chapel</text>
<text x="365" y="0" transform="rotate(270,365,0)" xml:space="preserve">   Lisp SBCL   Lisp SBCL   Lisp SBCL   Lisp SBCL   Lisp SBCL</text>
<text x="390" y="0" transform="rotate(270,390,0)" xml:space="preserve">   Swift   Swift   Swift   Swift   Swift   Swift   Swift</text>
<text x="415" y="0" transform="rotate(270,415,0)" xml:space="preserve">   OCaml   OCaml   OCaml   OCaml   OCaml   OCaml   OCaml</text>
</g>
</defs>
<use x="60" y="27" xlink:href="#backgroundText"/>
<rect x="58" y="24" width="452" height="288" fill="white" mask="url(#fade)" />
<rect x="58" y="264" width="452" height="288" style="fill: white; stroke: white;" />
<g style="fill: black; stroke: black;">
<rect x="72" y="251.21" width="1" height="12.79" />
<rect x="97" y="250.46" width="1" height="13.54" />
<rect x="122" y="246.19" width="1" height="17.81" />
<rect x="147" y="708.61" width="1" height="0" />
<rect x="172" y="219.58" width="1" height="44.3" />
<rect x="197" y="214.25" width="1" height="48.63" />
<rect x="222" y="222.66" width="1" height="41.34" />
<rect x="247" y="207.49" width="1" height="51.55" />
<rect x="272" y="200.53" width="1" height="63.47" />
<rect x="297" y="208.52" width="1" height="50.13" />
<rect x="322" y="191.18" width="1" height="62.78" />
<rect x="347" y="193.87" width="1" height="60.72" />
<rect x="372" y="195.47" width="1" height="60.81" />
<rect x="397" y="198.14" width="1" height="65.86" />
<rect x="422" y="186.38" width="1" height="54.05" />
<rect x="447" y="158.72" width="1" height="103.03" />
<rect x="472" y="178.5" width="1" height="62.62" />
</g>
<g style="fill: white; stroke: black;">
<rect x="62" y="257.53" width="20" height="6.46" />
<rect x="87" y="258" width="20" height="6" />
<rect x="112" y="255.81" width="20" height="8.06" />
<rect x="137" y="708.61" width="20" height="0" />
<rect x="162" y="237.05" width="20" height="18.54" />
<rect x="187" y="227.92" width="20" height="24.73" />
<rect x="212" y="237.73" width="20" height="14.8" />
<rect x="237" y="226.57" width="20" height="21.43" />
<rect x="262" y="220.5" width="20" height="23.18" />
<rect x="287" y="215.75" width="20" height="23.83" />
<rect x="312" y="214.25" width="20" height="30.41" />
<rect x="337" y="214.17" width="20" height="23.87" />
<rect x="362" y="214.89" width="20" height="22.09" />
<rect x="387" y="206.38" width="20" height="30.75" />
<rect x="412" y="205.87" width="20" height="30.42" />
<rect x="437" y="188.7" width="20" height="58.86" />
<rect x="462" y="194.33" width="20" height="41.53" />
</g>
<g style="fill: black; stroke: black;">
<line x1="67.5" y1="264" x2="77" y2="264" />
<line x1="67.5" y1="251.21" x2="77" y2="251.21" />
</g>
<g style="fill: black; stroke: black;">
<rect x="63" y="259.84" width="18" height="1" />
</g>
<g style="fill: black; stroke: black;">
<line x1="92.5" y1="264" x2="102" y2="264" />
<line x1="92.5" y1="250.46" x2="102" y2="250.46" />
<line x1="92.5" y1="246.4" x2="102" y2="246.4" />
<rect x="97" y="246.4" width="1" height="5" />
</g>
<g style="fill: black; stroke: black;">
<rect x="88" y="259.62" width="18" height="1" />
</g>
<g style="fill: black; stroke: black;">
<line x1="117.5" y1="264" x2="127" y2="264" />
<line x1="117.5" y1="246.19" x2="127" y2="246.19" />
<line x1="117.5" y1="240.3" x2="127" y2="240.3" />
<rect x="122" y="240.3" width="1" height="5" />
</g>
<g style="fill: black; stroke: black;">
<rect x="113" y="257.37" width="18" height="1" />
</g>
<g style="fill: black; stroke: black;">
<line x1="142.5" y1="708.61" x2="152" y2="708.61" />
<line x1="142.5" y1="708.61" x2="152" y2="708.61" />
</g>
<g style="fill: black; stroke: black;">
<rect x="138" y="707.61" width="18" height="1" />
</g>
<g style="fill: black; stroke: black;">
<line x1="167.5" y1="263.88" x2="177" y2="263.88" />
<line x1="167.5" y1="219.58" x2="177" y2="219.58" />
<line x1="167.5" y1="213.48" x2="177" y2="213.48" />
<rect x="172" y="213.48" width="1" height="5" />
</g>
<g style="fill: black; stroke: black;">
<rect x="163" y="245.26" width="18" height="1" />
</g>
<g style="fill: black; stroke: black;">
<line x1="192.5" y1="262.88" x2="202" y2="262.88" />
<line x1="192.5" y1="214.25" x2="202" y2="214.25" />
</g>
<g style="fill: black; stroke: black;">
<rect x="188" y="240.77" width="18" height="1" />
</g>
<g style="fill: black; stroke: black;">
<line x1="217.5" y1="264" x2="227" y2="264" />
<line x1="217.5" y1="222.66" x2="227" y2="222.66" />
<line x1="217.5" y1="182.45" x2="227" y2="182.45" />
<rect x="222" y="182.45" width="1" height="5" />
</g>
<g style="fill: black; stroke: black;">
<rect x="213" y="245.57" width="18" height="1" />
</g>
<g style="fill: black; stroke: black;">
<line x1="242.5" y1="259.05" x2="252" y2="259.05" />
<line x1="242.5" y1="207.49" x2="252" y2="207.49" />
<line x1="242.5" y1="206.34" x2="252" y2="206.34" />
<rect x="247" y="206.34" width="1" height="5" />
</g>
<g style="fill: black; stroke: black;">
<rect x="238" y="243.74" width="18" height="1" />
</g>
<g style="fill: black; stroke: black;">
<line x1="267.5" y1="264" x2="277" y2="264" />
<line x1="267.5" y1="200.53" x2="277" y2="200.53" />
<line x1="267.5" y1="197.05" x2="277" y2="197.05" />
<rect x="272" y="197.05" width="1" height="5" />
</g>
<g style="fill: black; stroke: black;">
<rect x="263" y="223.61" width="18" height="1" />
</g>
<g style="fill: black; stroke: black;">
<line x1="292.5" y1="258.65" x2="302" y2="258.65" />
<line x1="292.5" y1="208.52" x2="302" y2="208.52" />
</g>
<g style="fill: black; stroke: black;">
<rect x="288" y="231.67" width="18" height="1" />
</g>
<g style="fill: black; stroke: black;">
<line x1="317.5" y1="253.96" x2="327" y2="253.96" />
<line x1="317.5" y1="191.18" x2="327" y2="191.18" />
<line x1="317.5" y1="185.11" x2="327" y2="185.11" />
<rect x="322" y="185.11" width="1" height="5" />
</g>
<g style="fill: black; stroke: black;">
<rect x="313" y="225.69" width="18" height="1" />
</g>
<g style="fill: black; stroke: black;">
<line x1="342.5" y1="254.58" x2="352" y2="254.58" />
<line x1="342.5" y1="193.87" x2="352" y2="193.87" />
<line x1="342.5" y1="176.45" x2="352" y2="176.45" />
<rect x="347" y="176.45" width="1" height="5" />
</g>
<g style="fill: black; stroke: black;">
<rect x="338" y="230.52" width="18" height="1" />
</g>
<g style="fill: black; stroke: black;">
<line x1="367.5" y1="256.28" x2="377" y2="256.28" />
<line x1="367.5" y1="195.47" x2="377" y2="195.47" />
<line x1="367.5" y1="173.27" x2="377" y2="173.27" />
<rect x="372" y="173.27" width="1" height="5" />
</g>
<g style="fill: black; stroke: black;">
<rect x="363" y="223.15" width="18" height="1" />
</g>
<g style="fill: black; stroke: black;">
<line x1="392.5" y1="264" x2="402" y2="264" />
<line x1="392.5" y1="198.14" x2="402" y2="198.14" />
</g>
<g style="fill: black; stroke: black;">
<rect x="388" y="212.47" width="18" height="1" />
</g>
<g style="fill: black; stroke: black;">
<line x1="417.5" y1="240.43" x2="427" y2="240.43" />
<line x1="417.5" y1="186.38" x2="427" y2="186.38" />
</g>
<g style="fill: black; stroke: black;">
<rect x="413" y="222.89" width="18" height="1" />
</g>
<g style="fill: black; stroke: black;">
<line x1="442.5" y1="261.75" x2="452" y2="261.75" />
<line x1="442.5" y1="158.72" x2="452" y2="158.72" />
<line x1="442.5" y1="139.92" x2="452" y2="139.92" />
<rect x="447" y="139.92" width="1" height="5" />
</g>
<g style="fill: black; stroke: black;">
<rect x="438" y="235.08" width="18" height="1" />
</g>
<g style="fill: black; stroke: black;">
<line x1="467.5" y1="241.11" x2="477" y2="241.11" />
<line x1="467.5" y1="178.5" x2="477" y2="178.5" />
</g>
<g style="fill: black; stroke: black;">
<rect x="463" y="220.05" width="18" height="1" />
</g>
<g style="text-anchor: end; font-family: Ubuntu,Verdana,sans-serif; font-size: 0.9em;" >
<text x="512" y="282" >01 Feb 2020 u64q</text>
<text x="58" y="282" style="text-anchor: start;" >benchmarks game</text>
</g>
<text x="16" y="144" transform="rotate(270,16,144)" style="text-anchor: middle; font-family: Ubuntu,Verdana,sans-serif; font-size: 0.9em;" >program busy time / least busy</text>
<text x="285" y="18" style="text-anchor: middle; font-family: Ubuntu,Verdana,sans-serif; font-size: 1.2em;" >How many times slower?</text>
<g style="stroke: #333;">
<line x1="58" y1="24" x2="58" y2="264" />
<line x1="511" y1="24" x2="511" y2="264" />
<line x1="58" y1="264" x2="511" y2="264" />
</g>
</svg>

