<?xml version="1.0" encoding="UTF-8" standalone="no"?>
<!DOCTYPE svg PUBLIC "-//W3C//DTD SVG 1.1//EN" "http://www.w3.org/Graphics/SVG/1.1/DTD/svg11.dtd">
<svg xmlns="http://www.w3.org/2000/svg" version="1.1" xmlns:xlink="http://www.w3.org/1999/xlink" viewBox="0 0 512 288">

<!-- Copyright 2015 Isaac Gouy -->
<!-- http://benchmarksgame.alioth.debian.org/license.html -->

<g style="stroke: #ccc;" >
<line x1="51" y1="264" x2="511" y2="264" />
<line x1="51" y1="221.57" x2="511" y2="221.57" />
<line x1="51" y1="201.85" x2="511" y2="201.85" />
<line x1="51" y1="175.08" x2="511" y2="175.08" />
<line x1="51" y1="132.65" x2="511" y2="132.65" />
<line x1="51" y1="112.92" x2="511" y2="112.92" />
<line x1="51" y1="86.15" x2="511" y2="86.15" />
<line x1="51" y1="43.73" x2="511" y2="43.73" />
<line x1="51" y1="24" x2="511" y2="24" />
</g>
<g style="text-anchor: end; font-family: Ubuntu,Verdana,sans-serif; font-size: 0.9em;" >
<text x="51" y="262" >1</text>
<text x="51" y="219.57" >3</text>
<text x="51" y="199.85" >5</text>
<text x="51" y="173.08" >10</text>
<text x="51" y="130.65" >30</text>
<text x="51" y="110.92" >50</text>
<text x="51" y="84.15" >100</text>
<text x="51" y="41.73" >300</text>
<text x="51" y="22" ></text>
</g>
<defs>
<linearGradient id="grade" x1="0" y1="0" x2="0" y2="1">
<stop offset="0" style="stop-color: white" stop-opacity="0.6"/>
<stop offset="1" style="stop-color: white" stop-opacity="0.8"/>
</linearGradient>
<mask id="fade">
<rect x="58" y="24" width="452" height="288" fill="url(#grade)"  />
</mask>
<g id="backgroundText" style="text-anchor: end; font-family: Ubuntu,Verdana,sans-serif; font-size: 1em;">
<text x="17.5" y="0" transform="rotate(270,17.5,0)" xml:space="preserve">   C++ g++   C++ g++   C++ g++   C++ g++   C++ g++   C++ g++</text>
<text x="45.5" y="0" transform="rotate(270,45.5,0)" xml:space="preserve">   C gcc   C gcc   C gcc   C gcc   C gcc   C gcc   C gcc</text>
<text x="73.5" y="0" transform="rotate(270,73.5,0)" xml:space="preserve">Rust   Rust   Rust   Rust   Rust   Rust   Rust   Rust   Rust</text>
<br />
<b>Warning</b>:  Division by zero in <b>/home/dunham/8000-benchmarksgame/website/lib/lib_chartSVG.php</b> on line <b>289</b><br />
<br />
<b>Warning</b>:  str_repeat() expects parameter 2 to be int, float given in <b>/home/dunham/8000-benchmarksgame/website/lib/lib_chartSVG.php</b> on line <b>290</b><br />
<text x="101.5" y="0" transform="rotate(270,101.5,0)" xml:space="preserve"></text>
<text x="129.5" y="0" transform="rotate(270,129.5,0)" xml:space="preserve">ortran Intel   Fortran Intel   Fortran Intel   Fortran Intel</text>
<text x="157.5" y="0" transform="rotate(270,157.5,0)" xml:space="preserve">   C# .NET Core   C# .NET Core   C# .NET Core   C# .NET Core</text>
<text x="185.5" y="0" transform="rotate(270,185.5,0)" xml:space="preserve">da 2012 GNAT   Ada 2012 GNAT   Ada 2012 GNAT   Ada 2012 GNAT</text>
<text x="213.5" y="0" transform="rotate(270,213.5,0)" xml:space="preserve">Java   Java   Java   Java   Java   Java   Java   Java   Java</text>
<text x="241.5" y="0" transform="rotate(270,241.5,0)" xml:space="preserve">   Chapel   Chapel   Chapel   Chapel   Chapel   Chapel</text>
<text x="269.5" y="0" transform="rotate(270,269.5,0)" xml:space="preserve">   F# .NET Core   F# .NET Core   F# .NET Core   F# .NET Core</text>
<text x="297.5" y="0" transform="rotate(270,297.5,0)" xml:space="preserve">   Swift   Swift   Swift   Swift   Swift   Swift   Swift</text>
<text x="325.5" y="0" transform="rotate(270,325.5,0)" xml:space="preserve">   Free Pascal   Free Pascal   Free Pascal   Free Pascal</text>
<text x="353.5" y="0" transform="rotate(270,353.5,0)" xml:space="preserve">   Go   Go   Go   Go   Go   Go   Go   Go   Go   Go   Go   Go</text>
<text x="381.5" y="0" transform="rotate(270,381.5,0)" xml:space="preserve">   Lisp SBCL   Lisp SBCL   Lisp SBCL   Lisp SBCL   Lisp SBCL</text>
<text x="409.5" y="0" transform="rotate(270,409.5,0)" xml:space="preserve">   OCaml   OCaml   OCaml   OCaml   OCaml   OCaml   OCaml</text>
</g>
</defs>
<use x="60" y="27" xlink:href="#backgroundText"/>
<rect x="58" y="24" width="452" height="288" fill="white" mask="url(#fade)" />
<rect x="58" y="264" width="452" height="288" style="fill: white; stroke: white;" />
<g style="fill: black; stroke: black;">
<rect x="72" y="241.18" width="1" height="22.82" />
<rect x="100" y="237.65" width="1" height="26.35" />
<rect x="128" y="230.71" width="1" height="33.29" />
<rect x="156" y="708.61" width="1" height="0" />
<rect x="184" y="194.99" width="1" height="69.01" />
<rect x="212" y="191.82" width="1" height="63.07" />
<rect x="240" y="190.22" width="1" height="65.62" />
<rect x="268" y="183.04" width="1" height="74.98" />
<rect x="296" y="189.41" width="1" height="74.59" />
<rect x="324" y="185.18" width="1" height="55.7" />
<rect x="352" y="163.29" width="1" height="92.88" />
<rect x="380" y="182.21" width="1" height="52.01" />
<rect x="408" y="164" width="1" height="82.57" />
<rect x="436" y="170.25" width="1" height="66.14" />
<rect x="464" y="174.05" width="1" height="67.11" />
</g>
<g style="fill: white; stroke: black;">
<rect x="62" y="245.44" width="21" height="18.56" />
<rect x="90" y="251.24" width="21" height="12.76" />
<rect x="118" y="246.58" width="21" height="15.97" />
<rect x="146" y="708.61" width="21" height="0" />
<rect x="174" y="218.96" width="21" height="32.92" />
<rect x="202" y="214.39" width="21" height="31.07" />
<rect x="230" y="213.3" width="21" height="30.43" />
<rect x="258" y="206.01" width="21" height="30.13" />
<rect x="286" y="197.8" width="21" height="40.83" />
<rect x="314" y="207.08" width="21" height="27.44" />
<rect x="342" y="192.16" width="21" height="52.18" />
<rect x="370" y="200.67" width="21" height="20.29" />
<rect x="398" y="192.19" width="21" height="48.72" />
<rect x="426" y="195.33" width="21" height="36.32" />
<rect x="454" y="192.2" width="21" height="21.31" />
</g>
<g style="fill: black; stroke: black;">
<line x1="68" y1="264" x2="77.5" y2="264" />
<line x1="68" y1="241.18" x2="77.5" y2="241.18" />
</g>
<g style="fill: black; stroke: black;">
<rect x="63" y="259.41" width="19" height="1" />
</g>
<g style="fill: black; stroke: black;">
<line x1="96" y1="264" x2="105.5" y2="264" />
<line x1="96" y1="237.65" x2="105.5" y2="237.65" />
<line x1="96" y1="218.88" x2="105.5" y2="218.88" />
<rect x="100" y="218.88" width="1" height="5" />
</g>
<g style="fill: black; stroke: black;">
<rect x="91" y="256.97" width="19" height="1" />
</g>
<g style="fill: black; stroke: black;">
<line x1="124" y1="264" x2="133.5" y2="264" />
<line x1="124" y1="230.71" x2="133.5" y2="230.71" />
<line x1="124" y1="218.91" x2="133.5" y2="218.91" />
<rect x="128" y="218.91" width="1" height="5" />
</g>
<g style="fill: black; stroke: black;">
<rect x="119" y="255.79" width="19" height="1" />
</g>
<g style="fill: black; stroke: black;">
<line x1="152" y1="708.61" x2="161.5" y2="708.61" />
<line x1="152" y1="708.61" x2="161.5" y2="708.61" />
</g>
<g style="fill: black; stroke: black;">
<rect x="147" y="707.61" width="19" height="1" />
</g>
<g style="fill: black; stroke: black;">
<line x1="180" y1="264" x2="189.5" y2="264" />
<line x1="180" y1="194.99" x2="189.5" y2="194.99" />
<line x1="180" y1="181.98" x2="189.5" y2="181.98" />
<rect x="184" y="181.98" width="1" height="5" />
</g>
<g style="fill: black; stroke: black;">
<rect x="175" y="240.24" width="19" height="1" />
</g>
<g style="fill: black; stroke: black;">
<line x1="208" y1="254.89" x2="217.5" y2="254.89" />
<line x1="208" y1="191.82" x2="217.5" y2="191.82" />
</g>
<g style="fill: black; stroke: black;">
<rect x="203" y="231.14" width="19" height="1" />
</g>
<g style="fill: black; stroke: black;">
<line x1="236" y1="255.84" x2="245.5" y2="255.84" />
<line x1="236" y1="190.22" x2="245.5" y2="190.22" />
<line x1="236" y1="184.31" x2="245.5" y2="184.31" />
<rect x="240" y="184.31" width="1" height="5" />
</g>
<g style="fill: black; stroke: black;">
<rect x="231" y="228.25" width="19" height="1" />
</g>
<g style="fill: black; stroke: black;">
<line x1="264" y1="258.02" x2="273.5" y2="258.02" />
<line x1="264" y1="183.04" x2="273.5" y2="183.04" />
<line x1="264" y1="165.54" x2="273.5" y2="165.54" />
<rect x="268" y="165.54" width="1" height="5" />
</g>
<g style="fill: black; stroke: black;">
<rect x="259" y="222.46" width="19" height="1" />
</g>
<g style="fill: black; stroke: black;">
<line x1="292" y1="264" x2="301.5" y2="264" />
<line x1="292" y1="189.41" x2="301.5" y2="189.41" />
</g>
<g style="fill: black; stroke: black;">
<rect x="287" y="210.39" width="19" height="1" />
</g>
<g style="fill: black; stroke: black;">
<line x1="320" y1="240.87" x2="329.5" y2="240.87" />
<line x1="320" y1="185.18" x2="329.5" y2="185.18" />
<line x1="320" y1="150.01" x2="329.5" y2="150.01" />
<rect x="324" y="150.01" width="1" height="5" />
</g>
<g style="fill: black; stroke: black;">
<rect x="315" y="221.27" width="19" height="1" />
</g>
<g style="fill: black; stroke: black;">
<line x1="348" y1="256.17" x2="357.5" y2="256.17" />
<line x1="348" y1="163.29" x2="357.5" y2="163.29" />
<line x1="348" y1="121.46" x2="357.5" y2="121.46" />
<rect x="352" y="121.46" width="1" height="5" />
</g>
<g style="fill: black; stroke: black;">
<rect x="343" y="232.82" width="19" height="1" />
</g>
<g style="fill: black; stroke: black;">
<line x1="376" y1="234.21" x2="385.5" y2="234.21" />
<line x1="376" y1="182.21" x2="385.5" y2="182.21" />
<line x1="376" y1="177.45" x2="385.5" y2="177.45" />
<rect x="380" y="177.45" width="1" height="5" />
</g>
<g style="fill: black; stroke: black;">
<rect x="371" y="217.9" width="19" height="1" />
</g>
<g style="fill: black; stroke: black;">
<line x1="404" y1="246.56" x2="413.5" y2="246.56" />
<line x1="404" y1="164" x2="413.5" y2="164" />
<line x1="404" y1="139.85" x2="413.5" y2="139.85" />
<rect x="408" y="139.85" width="1" height="5" />
</g>
<g style="fill: black; stroke: black;">
<rect x="399" y="213.35" width="19" height="1" />
</g>
<g style="fill: black; stroke: black;">
<line x1="432" y1="236.39" x2="441.5" y2="236.39" />
<line x1="432" y1="170.25" x2="441.5" y2="170.25" />
<line x1="432" y1="163.45" x2="441.5" y2="163.45" />
<rect x="436" y="163.45" width="1" height="5" />
</g>
<g style="fill: black; stroke: black;">
<rect x="427" y="211.03" width="19" height="1" />
</g>
<g style="fill: black; stroke: black;">
<line x1="460" y1="241.16" x2="469.5" y2="241.16" />
<line x1="460" y1="174.05" x2="469.5" y2="174.05" />
</g>
<g style="fill: black; stroke: black;">
<rect x="455" y="208.43" width="19" height="1" />
</g>
<g style="text-anchor: end; font-family: Ubuntu,Verdana,sans-serif; font-size: 0.9em;" >
<text x="512" y="282" >03 Feb 2019 u64q</text>
<text x="58" y="282" style="text-anchor: start;" >benchmarks game</text>
</g>
<text x="16" y="144" transform="rotate(270,16,144)" style="text-anchor: middle; font-family: Ubuntu,Verdana,sans-serif; font-size: 0.9em;" >program CPU time / fastest CPU time</text>
<text x="285" y="18" style="text-anchor: middle; font-family: Ubuntu,Verdana,sans-serif; font-size: 1.2em;" >How many times slower?</text>
<g style="stroke: #333;">
<line x1="58" y1="24" x2="58" y2="264" />
<line x1="511" y1="24" x2="511" y2="264" />
<line x1="58" y1="264" x2="511" y2="264" />
</g>
</svg>

