<?xml version="1.0" encoding="UTF-8" standalone="no"?>
<!DOCTYPE svg PUBLIC "-//W3C//DTD SVG 1.1//EN" "http://www.w3.org/Graphics/SVG/1.1/DTD/svg11.dtd">
<svg xmlns="http://www.w3.org/2000/svg" version="1.1" xmlns:xlink="http://www.w3.org/1999/xlink" viewBox="0 0 512 288">

<!-- Copyright 2015 Isaac Gouy -->
<!-- http://benchmarksgame.alioth.debian.org/license.html -->

<g style="stroke: #ccc;" >
<line x1="51" y1="264" x2="511" y2="264" />
<line x1="51" y1="221.57" x2="511" y2="221.57" />
<line x1="51" y1="201.85" x2="511" y2="201.85" />
<line x1="51" y1="175.08" x2="511" y2="175.08" />
<line x1="51" y1="132.65" x2="511" y2="132.65" />
<line x1="51" y1="112.92" x2="511" y2="112.92" />
<line x1="51" y1="86.15" x2="511" y2="86.15" />
<line x1="51" y1="43.73" x2="511" y2="43.73" />
<line x1="51" y1="24" x2="511" y2="24" />
</g>
<g style="text-anchor: end; font-family: Ubuntu,Verdana,sans-serif; font-size: 0.9em;" >
<text x="51" y="262" >1</text>
<text x="51" y="219.57" >3</text>
<text x="51" y="199.85" >5</text>
<text x="51" y="173.08" >10</text>
<text x="51" y="130.65" >30</text>
<text x="51" y="110.92" >50</text>
<text x="51" y="84.15" >100</text>
<text x="51" y="41.73" >300</text>
<text x="51" y="22" ></text>
</g>
<defs>
<linearGradient id="grade" x1="0" y1="0" x2="0" y2="1">
<stop offset="0" style="stop-color: white" stop-opacity="0.6"/>
<stop offset="1" style="stop-color: white" stop-opacity="0.8"/>
</linearGradient>
<mask id="fade">
<rect x="58" y="24" width="452" height="288" fill="url(#grade)"  />
</mask>
<g id="backgroundText" style="text-anchor: end; font-family: Ubuntu,Verdana,sans-serif; font-size: 1em;">
<text x="15" y="0" transform="rotate(270,15,0)" xml:space="preserve">   Haskell GHC   Haskell GHC   Haskell GHC   Haskell GHC</text>
<text x="40" y="0" transform="rotate(270,40,0)" xml:space="preserve">Dart   Dart   Dart   Dart   Dart   Dart   Dart   Dart   Dart</text>
<text x="65" y="0" transform="rotate(270,65,0)" xml:space="preserve">   Julia   Julia   Julia   Julia   Julia   Julia   Julia</text>
<text x="90" y="0" transform="rotate(270,90,0)" xml:space="preserve">   TypeScript   TypeScript   TypeScript   TypeScript</text>
<text x="115" y="0" transform="rotate(270,115,0)" xml:space="preserve">   Node js   Node js   Node js   Node js   Node js   Node js</text>
<text x="140" y="0" transform="rotate(270,140,0)" xml:space="preserve">   Racket   Racket   Racket   Racket   Racket   Racket</text>
<br />
<b>Warning</b>:  Division by zero in <b>/home/dunham/8000-benchmarksgame/website/lib/lib_chartSVG.php</b> on line <b>289</b><br />
<br />
<b>Warning</b>:  str_repeat() expects parameter 2 to be int, float given in <b>/home/dunham/8000-benchmarksgame/website/lib/lib_chartSVG.php</b> on line <b>290</b><br />
<text x="165" y="0" transform="rotate(270,165,0)" xml:space="preserve"></text>
<text x="190" y="0" transform="rotate(270,190,0)" xml:space="preserve">   PHP   PHP   PHP   PHP   PHP   PHP   PHP   PHP   PHP   PHP</text>
<br />
<b>Warning</b>:  Division by zero in <b>/home/dunham/8000-benchmarksgame/website/lib/lib_chartSVG.php</b> on line <b>289</b><br />
<br />
<b>Warning</b>:  str_repeat() expects parameter 2 to be int, float given in <b>/home/dunham/8000-benchmarksgame/website/lib/lib_chartSVG.php</b> on line <b>290</b><br />
<text x="215" y="0" transform="rotate(270,215,0)" xml:space="preserve"></text>
<text x="240" y="0" transform="rotate(270,240,0)" xml:space="preserve">   Erlang HiPE   Erlang HiPE   Erlang HiPE   Erlang HiPE</text>
<text x="265" y="0" transform="rotate(270,265,0)" xml:space="preserve">   VW Smalltalk   VW Smalltalk   VW Smalltalk   VW Smalltalk</text>
<text x="290" y="0" transform="rotate(270,290,0)" xml:space="preserve">   Truffle Ruby   Truffle Ruby   Truffle Ruby   Truffle Ruby</text>
<text x="315" y="0" transform="rotate(270,315,0)" xml:space="preserve">Perl   Perl   Perl   Perl   Perl   Perl   Perl   Perl   Perl</text>
<text x="340" y="0" transform="rotate(270,340,0)" xml:space="preserve">Ruby   Ruby   Ruby   Ruby   Ruby   Ruby   Ruby   Ruby   Ruby</text>
<text x="365" y="0" transform="rotate(270,365,0)" xml:space="preserve">   Python 3   Python 3   Python 3   Python 3   Python 3</text>
<text x="390" y="0" transform="rotate(270,390,0)" xml:space="preserve">   Lua   Lua   Lua   Lua   Lua   Lua   Lua   Lua   Lua   Lua</text>
<br />
<b>Warning</b>:  Division by zero in <b>/home/dunham/8000-benchmarksgame/website/lib/lib_chartSVG.php</b> on line <b>289</b><br />
<br />
<b>Warning</b>:  str_repeat() expects parameter 2 to be int, float given in <b>/home/dunham/8000-benchmarksgame/website/lib/lib_chartSVG.php</b> on line <b>290</b><br />
<text x="415" y="0" transform="rotate(270,415,0)" xml:space="preserve"></text>
<text x="440" y="0" transform="rotate(270,440,0)" xml:space="preserve">   Matz's Ruby   Matz's Ruby   Matz's Ruby   Matz's Ruby</text>
</g>
</defs>
<use x="60" y="27" xlink:href="#backgroundText"/>
<rect x="58" y="24" width="452" height="288" fill="white" mask="url(#fade)" />
<rect x="58" y="264" width="452" height="288" style="fill: white; stroke: white;" />
<g style="fill: black; stroke: black;">
<rect x="72" y="159.79" width="1" height="77.41" />
<rect x="97" y="176.86" width="1" height="58.33" />
<rect x="122" y="148.91" width="1" height="90.86" />
<rect x="147" y="165.15" width="1" height="71.78" />
<rect x="172" y="168.36" width="1" height="68.61" />
<rect x="197" y="143.69" width="1" height="102.03" />
<rect x="222" y="708.61" width="1" height="0" />
<rect x="247" y="95.72" width="1" height="168.28" />
<rect x="272" y="708.61" width="1" height="0" />
<rect x="297" y="100.26" width="1" height="131.96" />
<rect x="322" y="109.69" width="1" height="77.67" />
<rect x="347" y="99.29" width="1" height="114.29" />
<rect x="372" y="65.44" width="1" height="168.28" />
<rect x="397" y="71.17" width="1" height="140.19" />
<rect x="422" y="64.08" width="1" height="172.59" />
<rect x="447" y="79.21" width="1" height="79.03" />
<rect x="472" y="708.61" width="1" height="0" />
<rect x="497" y="-26.01" width="1" height="186.21" />
</g>
<g style="fill: white; stroke: black;">
<rect x="62" y="185" width="20" height="36.77" />
<rect x="87" y="187.51" width="20" height="32.61" />
<rect x="112" y="177.57" width="20" height="51.07" />
<rect x="137" y="187.35" width="20" height="28.19" />
<rect x="162" y="178.91" width="20" height="36.69" />
<rect x="187" y="166.43" width="20" height="59.72" />
<rect x="212" y="708.61" width="20" height="0" />
<rect x="237" y="122.48" width="20" height="73.39" />
<rect x="262" y="708.61" width="20" height="0" />
<rect x="287" y="128.01" width="20" height="46.6" />
<rect x="312" y="129.83" width="20" height="46.26" />
<rect x="337" y="127.11" width="20" height="46.95" />
<rect x="362" y="96.2" width="20" height="64.51" />
<rect x="387" y="97.04" width="20" height="66.33" />
<rect x="412" y="93.63" width="20" height="70.77" />
<rect x="437" y="102.75" width="20" height="45.4" />
<rect x="462" y="708.61" width="20" height="0" />
<rect x="487" y="6.99" width="20" height="89.02" />
</g>
<g style="fill: black; stroke: black;">
<line x1="67.5" y1="237.2" x2="77" y2="237.2" />
<line x1="67.5" y1="159.79" x2="77" y2="159.79" />
<line x1="67.5" y1="158.94" x2="77" y2="158.94" />
<rect x="72" y="158.94" width="1" height="5" />
</g>
<g style="fill: black; stroke: black;">
<rect x="63" y="219.03" width="18" height="1" />
</g>
<g style="fill: black; stroke: black;">
<line x1="92.5" y1="235.2" x2="102" y2="235.2" />
<line x1="92.5" y1="176.86" x2="102" y2="176.86" />
</g>
<g style="fill: black; stroke: black;">
<rect x="88" y="200.18" width="18" height="1" />
</g>
<g style="fill: black; stroke: black;">
<line x1="117.5" y1="239.77" x2="127" y2="239.77" />
<line x1="117.5" y1="148.91" x2="127" y2="148.91" />
<line x1="117.5" y1="138.34" x2="127" y2="138.34" />
<rect x="122" y="138.34" width="1" height="5" />
</g>
<g style="fill: black; stroke: black;">
<rect x="113" y="213.33" width="18" height="1" />
</g>
<g style="fill: black; stroke: black;">
<line x1="142.5" y1="236.93" x2="152" y2="236.93" />
<line x1="142.5" y1="165.15" x2="152" y2="165.15" />
<line x1="142.5" y1="161.14" x2="152" y2="161.14" />
<rect x="147" y="161.14" width="1" height="5" />
</g>
<g style="fill: black; stroke: black;">
<rect x="138" y="199.11" width="18" height="1" />
</g>
<g style="fill: black; stroke: black;">
<line x1="167.5" y1="236.96" x2="177" y2="236.96" />
<line x1="167.5" y1="168.36" x2="177" y2="168.36" />
</g>
<g style="fill: black; stroke: black;">
<rect x="163" y="193.41" width="18" height="1" />
</g>
<g style="fill: black; stroke: black;">
<line x1="192.5" y1="245.72" x2="202" y2="245.72" />
<line x1="192.5" y1="143.69" x2="202" y2="143.69" />
</g>
<g style="fill: black; stroke: black;">
<rect x="188" y="186.21" width="18" height="1" />
</g>
<g style="fill: black; stroke: black;">
<line x1="217.5" y1="708.61" x2="227" y2="708.61" />
<line x1="217.5" y1="708.61" x2="227" y2="708.61" />
</g>
<g style="fill: black; stroke: black;">
<rect x="213" y="707.61" width="18" height="1" />
</g>
<g style="fill: black; stroke: black;">
<line x1="242.5" y1="264" x2="252" y2="264" />
<line x1="242.5" y1="95.72" x2="252" y2="95.72" />
</g>
<g style="fill: black; stroke: black;">
<rect x="238" y="156.24" width="18" height="1" />
</g>
<g style="fill: black; stroke: black;">
<line x1="267.5" y1="708.61" x2="277" y2="708.61" />
<line x1="267.5" y1="708.61" x2="277" y2="708.61" />
</g>
<g style="fill: black; stroke: black;">
<rect x="263" y="707.61" width="18" height="1" />
</g>
<g style="fill: black; stroke: black;">
<line x1="292.5" y1="232.22" x2="302" y2="232.22" />
<line x1="292.5" y1="100.26" x2="302" y2="100.26" />
<line x1="292.5" y1="97.85" x2="302" y2="97.85" />
<rect x="297" y="97.85" width="1" height="5" />
</g>
<g style="fill: black; stroke: black;">
<rect x="288" y="157.41" width="18" height="1" />
</g>
<g style="fill: black; stroke: black;">
<line x1="317.5" y1="187.36" x2="327" y2="187.36" />
<line x1="317.5" y1="109.69" x2="327" y2="109.69" />
</g>
<g style="fill: black; stroke: black;">
<rect x="313" y="145.72" width="18" height="1" />
</g>
<g style="fill: black; stroke: black;">
<line x1="342.5" y1="213.57" x2="352" y2="213.57" />
<line x1="342.5" y1="99.29" x2="352" y2="99.29" />
<line x1="342.5" y1="71.38" x2="352" y2="71.38" />
<rect x="347" y="71.38" width="1" height="5" />
</g>
<g style="fill: black; stroke: black;">
<rect x="338" y="147.05" width="18" height="1" />
</g>
<g style="fill: black; stroke: black;">
<line x1="367.5" y1="233.72" x2="377" y2="233.72" />
<line x1="367.5" y1="65.44" x2="377" y2="65.44" />
<line x1="367.5" y1="27.89" x2="377" y2="27.89" />
<rect x="372" y="27.89" width="1" height="5" />
</g>
<g style="fill: black; stroke: black;">
<rect x="363" y="141.08" width="18" height="1" />
</g>
<g style="fill: black; stroke: black;">
<line x1="392.5" y1="211.36" x2="402" y2="211.36" />
<line x1="392.5" y1="71.17" x2="402" y2="71.17" />
</g>
<g style="fill: black; stroke: black;">
<rect x="388" y="127.13" width="18" height="1" />
</g>
<g style="fill: black; stroke: black;">
<line x1="417.5" y1="236.67" x2="427" y2="236.67" />
<line x1="417.5" y1="64.08" x2="427" y2="64.08" />
</g>
<g style="fill: black; stroke: black;">
<rect x="413" y="133.8" width="18" height="1" />
</g>
<g style="fill: black; stroke: black;">
<line x1="442.5" y1="158.24" x2="452" y2="158.24" />
<line x1="442.5" y1="79.21" x2="452" y2="79.21" />
</g>
<g style="fill: black; stroke: black;">
<rect x="438" y="123.79" width="18" height="1" />
</g>
<g style="fill: black; stroke: black;">
<line x1="467.5" y1="708.61" x2="477" y2="708.61" />
<line x1="467.5" y1="708.61" x2="477" y2="708.61" />
</g>
<g style="fill: black; stroke: black;">
<rect x="463" y="707.61" width="18" height="1" />
</g>
<g style="fill: black; stroke: black;">
<line x1="492.5" y1="160.2" x2="502" y2="160.2" />
<line x1="492.5" y1="-26.01" x2="502" y2="-26.01" />
<line x1="492.5" y1="-36.03" x2="502" y2="-36.03" />
<rect x="497" y="-36.03" width="1" height="5" />
</g>
<g style="fill: black; stroke: black;">
<rect x="488" y="68.08" width="18" height="1" />
</g>
<g style="text-anchor: end; font-family: Ubuntu,Verdana,sans-serif; font-size: 0.9em;" >
<text x="512" y="282" >10 Apr 2019 u64q</text>
<text x="58" y="282" style="text-anchor: start;" >benchmarks game</text>
</g>
<text x="16" y="144" transform="rotate(270,16,144)" style="text-anchor: middle; font-family: Ubuntu,Verdana,sans-serif; font-size: 0.9em;" >program CPU time / fastest CPU time</text>
<text x="285" y="18" style="text-anchor: middle; font-family: Ubuntu,Verdana,sans-serif; font-size: 1.2em;" >How many times slower?</text>
<g style="stroke: #333;">
<line x1="58" y1="24" x2="58" y2="264" />
<line x1="511" y1="24" x2="511" y2="264" />
<line x1="58" y1="264" x2="511" y2="264" />
</g>
</svg>

