<?xml version="1.0" encoding="UTF-8" standalone="no"?>
<!DOCTYPE svg PUBLIC "-//W3C//DTD SVG 1.1//EN" "http://www.w3.org/Graphics/SVG/1.1/DTD/svg11.dtd">
<svg xmlns="http://www.w3.org/2000/svg" version="1.1" xmlns:xlink="http://www.w3.org/1999/xlink" viewBox="0 0 512 288">

<!-- Copyright 2015-2022 Isaac Gouy -->

<!-- Box plot chart showing benchmark program performance grouped by implementation language -->

<!-- The Computer Language Benchmarks Game -->
<!-- https://benchmarksgame-team.pages.debian.net/benchmarksgame/license.html -->

<g style="stroke: #ccc;" >
<line x1="51" y1="264" x2="461" y2="264" />
<line x1="51" y1="221.57" x2="461" y2="221.57" />
<line x1="51" y1="201.85" x2="461" y2="201.85" />
<line x1="51" y1="175.08" x2="461" y2="175.08" />
<line x1="51" y1="132.65" x2="461" y2="132.65" />
<line x1="51" y1="112.92" x2="461" y2="112.92" />
<line x1="51" y1="86.15" x2="461" y2="86.15" />
<line x1="51" y1="43.73" x2="461" y2="43.73" />
<line x1="51" y1="24" x2="461" y2="24" />
</g>
<g style="text-anchor: end; font-family: Ubuntu,Verdana,sans-serif; font-size: 0.9em;" >
<text x="51" y="262" >1</text>
<text x="51" y="219.57" >3</text>
<text x="51" y="199.85" >5</text>
<text x="51" y="173.08" >10</text>
<text x="51" y="130.65" >30</text>
<text x="51" y="110.92" >50</text>
<text x="51" y="84.15" >100</text>
<text x="51" y="41.73" >300</text>
<text x="51" y="22" ></text>
</g>
<defs>
<linearGradient id="grade" x1="0" y1="0" x2="0" y2="1">
<stop offset="0" style="stop-color: white" stop-opacity="0.6"/>
<stop offset="1" style="stop-color: white" stop-opacity="0.8"/>
</linearGradient>
<mask id="fade">
<rect x="58" y="24" width="452" height="288" fill="url(#grade)"  />
</mask>
<g id="backgroundText" style="text-anchor: end; font-family: Ubuntu,Verdana,sans-serif; font-size: 1em;">
<text x="16" y="0" transform="rotate(270,16,0)" xml:space="preserve">   Java   Java   Java   Java   Java   Java</text>
<text x="43" y="0" transform="rotate(270,43,0)" xml:space="preserve">   Go   Go   Go   Go   Go   Go   Go   Go   Go   Go</text>
<text x="70" y="0" transform="rotate(270,70,0)" xml:space="preserve">   Swift   Swift   Swift   Swift   Swift</text>
<text x="97" y="0" transform="rotate(270,97,0)" xml:space="preserve">   Node js   Node js   Node js   Node js</text>
<text x="124" y="0" transform="rotate(270,124,0)" xml:space="preserve">   Lisp SBCL   Lisp SBCL   Lisp SBCL</text>
<text x="151" y="0" transform="rotate(270,151,0)" xml:space="preserve">   Dart   Dart   Dart   Dart   Dart   Dart</text>
<text x="178" y="0" transform="rotate(270,178,0)" xml:space="preserve">   Racket   Racket   Racket   Racket   Racket</text>
<text x="205" y="0" transform="rotate(270,205,0)" xml:space="preserve">   PHP   PHP   PHP   PHP   PHP   PHP   PHP   PHP</text>
<text x="232" y="0" transform="rotate(270,232,0)" xml:space="preserve">   Erlang   Erlang   Erlang   Erlang   Erlang</text>
<text x="259" y="0" transform="rotate(270,259,0)" xml:space="preserve">   Python 3   Python 3   Python 3   Python 3</text>
<text x="286" y="0" transform="rotate(270,286,0)" xml:space="preserve">   VW Smalltalk   VW Smalltalk   VW Smalltalk</text>
<text x="313" y="0" transform="rotate(270,313,0)" xml:space="preserve">   Ruby   Ruby   Ruby   Ruby   Ruby   Ruby</text>
<text x="340" y="0" transform="rotate(270,340,0)" xml:space="preserve">   Lua   Lua   Lua   Lua   Lua   Lua   Lua   Lua</text>
<text x="367" y="0" transform="rotate(270,367,0)" xml:space="preserve">   Perl   Perl   Perl   Perl   Perl   Perl</text>
<text x="394" y="0" transform="rotate(270,394,0)" xml:space="preserve">   Matz's Ruby   Matz's Ruby   Matz's Ruby</text>
</g>
</defs>
<use x="60" y="27" xlink:href="#backgroundText"/>
<rect x="58" y="24" width="452" height="288" fill="white" mask="url(#fade)" />
<rect x="58" y="264" width="452" height="288" style="fill: white; stroke: white;" />
<g style="fill: black; stroke: black;">
<rect x="72" y="182.25" width="1" height="75.81" />
<rect x="99" y="186" width="1" height="69.86" />
<rect x="126" y="192.38" width="1" height="69.48" />
<rect x="153" y="180.71" width="1" height="64.18" />
<rect x="180" y="176.48" width="1" height="54.53" />
<rect x="207" y="150.92" width="1" height="68.78" />
<rect x="234" y="158.34" width="1" height="91.1" />
<rect x="261" y="131.5" width="1" height="122.32" />
<rect x="288" y="91.38" width="1" height="122.17" />
<rect x="315" y="61.69" width="1" height="187.35" />
<rect x="342" y="86.91" width="1" height="87.29" />
<rect x="369" y="65.63" width="1" height="169.86" />
<rect x="396" y="84.14" width="1" height="165.83" />
<rect x="423" y="58.72" width="1" height="168.12" />
<rect x="450" y="-29.68" width="1" height="179.07" />
</g>
<g style="fill: white; stroke: black;">
<rect x="62" y="202.46" width="22" height="23.68" />
<rect x="89" y="203.32" width="22" height="18.29" />
<rect x="116" y="210.09" width="22" height="18.96" />
<rect x="143" y="186.42" width="22" height="29.89" />
<rect x="170" y="197.16" width="22" height="24.68" />
<rect x="197" y="176.45" width="22" height="37.84" />
<rect x="224" y="170.63" width="22" height="20.41" />
<rect x="251" y="137.36" width="22" height="32.9" />
<rect x="278" y="114.12" width="22" height="29.52" />
<rect x="305" y="92.59" width="22" height="65.63" />
<rect x="332" y="105.88" width="22" height="39.89" />
<rect x="359" y="94.99" width="22" height="55.04" />
<rect x="386" y="96.8" width="22" height="30.75" />
<rect x="413" y="88.17" width="22" height="55.52" />
<rect x="440" y="3.55" width="22" height="92.79" />
</g>
<g style="fill: black; stroke: black;">
<line x1="68.5" y1="258.06" x2="78" y2="258.06" />
<line x1="68.5" y1="182.25" x2="78" y2="182.25" />
<line x1="68.5" y1="177.58" x2="78" y2="177.58" />
<rect x="72" y="177.58" width="1" height="5" />
</g>
<g style="fill: black; stroke: black;">
<rect x="63" y="214.95" width="20" height="1" />
</g>
<g style="fill: black; stroke: black;">
<line x1="95.5" y1="255.86" x2="105" y2="255.86" />
<line x1="95.5" y1="186" x2="105" y2="186" />
<line x1="95.5" y1="179.83" x2="105" y2="179.83" />
<rect x="99" y="179.83" width="1" height="5" />
</g>
<g style="fill: black; stroke: black;">
<rect x="90" y="215.6" width="20" height="1" />
</g>
<g style="fill: black; stroke: black;">
<line x1="122.5" y1="261.86" x2="132" y2="261.86" />
<line x1="122.5" y1="192.38" x2="132" y2="192.38" />
<line x1="122.5" y1="137.91" x2="132" y2="137.91" />
<rect x="126" y="137.91" width="1" height="5" />
</g>
<g style="fill: black; stroke: black;">
<rect x="117" y="216.19" width="20" height="1" />
</g>
<g style="fill: black; stroke: black;">
<line x1="149.5" y1="244.89" x2="159" y2="244.89" />
<line x1="149.5" y1="180.71" x2="159" y2="180.71" />
</g>
<g style="fill: black; stroke: black;">
<rect x="144" y="205.72" width="20" height="1" />
</g>
<g style="fill: black; stroke: black;">
<line x1="176.5" y1="231.01" x2="186" y2="231.01" />
<line x1="176.5" y1="176.48" x2="186" y2="176.48" />
<line x1="176.5" y1="152.02" x2="186" y2="152.02" />
<rect x="180" y="152.02" width="1" height="5" />
</g>
<g style="fill: black; stroke: black;">
<rect x="171" y="208.78" width="20" height="1" />
</g>
<g style="fill: black; stroke: black;">
<line x1="203.5" y1="219.7" x2="213" y2="219.7" />
<line x1="203.5" y1="150.92" x2="213" y2="150.92" />
<line x1="203.5" y1="149.61" x2="213" y2="149.61" />
<rect x="207" y="149.61" width="1" height="5" />
</g>
<g style="fill: black; stroke: black;">
<rect x="198" y="198.43" width="20" height="1" />
</g>
<g style="fill: black; stroke: black;">
<line x1="230.5" y1="249.44" x2="240" y2="249.44" />
<line x1="230.5" y1="158.34" x2="240" y2="158.34" />
</g>
<g style="fill: black; stroke: black;">
<rect x="225" y="174.93" width="20" height="1" />
</g>
<g style="fill: black; stroke: black;">
<line x1="257.5" y1="253.82" x2="267" y2="253.82" />
<line x1="257.5" y1="131.5" x2="267" y2="131.5" />
</g>
<g style="fill: black; stroke: black;">
<rect x="252" y="155.06" width="20" height="1" />
</g>
<g style="fill: black; stroke: black;">
<line x1="284.5" y1="213.55" x2="294" y2="213.55" />
<line x1="284.5" y1="91.38" x2="294" y2="91.38" />
<line x1="284.5" y1="78.8" x2="294" y2="78.8" />
<rect x="288" y="78.8" width="1" height="5" />
</g>
<g style="fill: black; stroke: black;">
<rect x="279" y="129.93" width="20" height="1" />
</g>
<g style="fill: black; stroke: black;">
<line x1="311.5" y1="249.04" x2="321" y2="249.04" />
<line x1="311.5" y1="61.69" x2="321" y2="61.69" />
<line x1="311.5" y1="50.06" x2="321" y2="50.06" />
<rect x="315" y="50.06" width="1" height="5" />
</g>
<g style="fill: black; stroke: black;">
<rect x="306" y="118.64" width="20" height="1" />
</g>
<g style="fill: black; stroke: black;">
<line x1="338.5" y1="174.2" x2="348" y2="174.2" />
<line x1="338.5" y1="86.91" x2="348" y2="86.91" />
</g>
<g style="fill: black; stroke: black;">
<rect x="333" y="124.67" width="20" height="1" />
</g>
<g style="fill: black; stroke: black;">
<line x1="365.5" y1="235.49" x2="375" y2="235.49" />
<line x1="365.5" y1="65.63" x2="375" y2="65.63" />
<line x1="365.5" y1="55.76" x2="375" y2="55.76" />
<rect x="369" y="55.76" width="1" height="5" />
</g>
<g style="fill: black; stroke: black;">
<rect x="360" y="123.02" width="20" height="1" />
</g>
<g style="fill: black; stroke: black;">
<line x1="392.5" y1="249.97" x2="402" y2="249.97" />
<line x1="392.5" y1="84.14" x2="402" y2="84.14" />
</g>
<g style="fill: black; stroke: black;">
<rect x="387" y="111.29" width="20" height="1" />
</g>
<g style="fill: black; stroke: black;">
<line x1="419.5" y1="226.84" x2="429" y2="226.84" />
<line x1="419.5" y1="58.72" x2="429" y2="58.72" />
<line x1="419.5" y1="18.72" x2="429" y2="18.72" />
<rect x="423" y="18.72" width="1" height="5" />
</g>
<g style="fill: black; stroke: black;">
<rect x="414" y="104.3" width="20" height="1" />
</g>
<g style="fill: black; stroke: black;">
<line x1="446.5" y1="149.39" x2="456" y2="149.39" />
<line x1="446.5" y1="-29.68" x2="456" y2="-29.68" />
<line x1="446.5" y1="-34.31" x2="456" y2="-34.31" />
<rect x="450" y="-34.31" width="1" height="5" />
</g>
<g style="fill: black; stroke: black;">
<rect x="441" y="37.46" width="20" height="1" />
</g>
<g style="text-anchor: end; font-family: Ubuntu,Verdana,sans-serif; font-size: 0.9em;" >
<text x="462" y="282" >14 Feb 2022 u64q</text>
<text x="58" y="282" style="text-anchor: start;" >benchmarks game</text>
</g>
<text x="16" y="144" transform="rotate(270,16,144)" style="text-anchor: middle; font-family: Ubuntu,Verdana,sans-serif; font-size: 0.9em;" >program cpu time / lowest</text>
<rect x="58" y="-37" width="452" height="60" style="fill: white; stroke: white;" />
<text x="259.5" y="18" style="text-anchor: middle; font-family: Ubuntu,Verdana,sans-serif; font-size: 1.2em;" >How many times more?</text>
<g style="stroke: #333;">
<line x1="58" y1="24" x2="58" y2="264" />
<line x1="461" y1="24" x2="461" y2="264" />
<line x1="58" y1="264" x2="461" y2="264" />
</g>
</svg>

