<?xml version="1.0" encoding="UTF-8" standalone="no"?>
<!DOCTYPE svg PUBLIC "-//W3C//DTD SVG 1.1//EN" "http://www.w3.org/Graphics/SVG/1.1/DTD/svg11.dtd">
<svg xmlns="http://www.w3.org/2000/svg" version="1.1" xmlns:xlink="http://www.w3.org/1999/xlink" viewBox="0 0 512 288">

<!-- Copyright 2015 Isaac Gouy -->
<!-- http://benchmarksgame.alioth.debian.org/license.html -->

<g style="stroke: #ccc;" >
<line x1="51" y1="264" x2="511" y2="264" />
<line x1="51" y1="221.57" x2="511" y2="221.57" />
<line x1="51" y1="201.85" x2="511" y2="201.85" />
<line x1="51" y1="175.08" x2="511" y2="175.08" />
<line x1="51" y1="132.65" x2="511" y2="132.65" />
<line x1="51" y1="112.92" x2="511" y2="112.92" />
<line x1="51" y1="86.15" x2="511" y2="86.15" />
<line x1="51" y1="43.73" x2="511" y2="43.73" />
<line x1="51" y1="24" x2="511" y2="24" />
</g>
<g style="text-anchor: end; font-family: Ubuntu,Verdana,sans-serif; font-size: 0.9em;" >
<text x="51" y="262" >1</text>
<text x="51" y="219.57" >3</text>
<text x="51" y="199.85" >5</text>
<text x="51" y="173.08" >10</text>
<text x="51" y="130.65" >30</text>
<text x="51" y="110.92" >50</text>
<text x="51" y="84.15" >100</text>
<text x="51" y="41.73" >300</text>
<text x="51" y="22" ></text>
</g>
<defs>
<linearGradient id="grade" x1="0" y1="0" x2="0" y2="1">
<stop offset="0" style="stop-color: white" stop-opacity="0.6"/>
<stop offset="1" style="stop-color: white" stop-opacity="0.8"/>
</linearGradient>
<mask id="fade">
<rect x="58" y="24" width="452" height="288" fill="url(#grade)"  />
</mask>
<g id="backgroundText" style="text-anchor: end; font-family: Ubuntu,Verdana,sans-serif; font-size: 1em;">
<text x="17.5" y="0" transform="rotate(270,17.5,0)" xml:space="preserve">   TypeScript   TypeScript   TypeScript   TypeScript</text>
<text x="45.5" y="0" transform="rotate(270,45.5,0)" xml:space="preserve">   Node js   Node js   Node js   Node js   Node js   Node js</text>
<br />
<b>Warning</b>:  Division by zero in <b>/home/dunham/8000-benchmarksgame/website/lib/lib_chartSVG.php</b> on line <b>289</b><br />
<br />
<b>Warning</b>:  str_repeat() expects parameter 2 to be int, float given in <b>/home/dunham/8000-benchmarksgame/website/lib/lib_chartSVG.php</b> on line <b>290</b><br />
<text x="73.5" y="0" transform="rotate(270,73.5,0)" xml:space="preserve"></text>
<text x="101.5" y="0" transform="rotate(270,101.5,0)" xml:space="preserve">   Racket   Racket   Racket   Racket   Racket   Racket</text>
<text x="129.5" y="0" transform="rotate(270,129.5,0)" xml:space="preserve">Dart   Dart   Dart   Dart   Dart   Dart   Dart   Dart   Dart</text>
<br />
<b>Warning</b>:  Division by zero in <b>/home/dunham/8000-benchmarksgame/website/lib/lib_chartSVG.php</b> on line <b>289</b><br />
<br />
<b>Warning</b>:  str_repeat() expects parameter 2 to be int, float given in <b>/home/dunham/8000-benchmarksgame/website/lib/lib_chartSVG.php</b> on line <b>290</b><br />
<text x="157.5" y="0" transform="rotate(270,157.5,0)" xml:space="preserve"></text>
<text x="185.5" y="0" transform="rotate(270,185.5,0)" xml:space="preserve">   PHP   PHP   PHP   PHP   PHP   PHP   PHP   PHP   PHP   PHP</text>
<text x="213.5" y="0" transform="rotate(270,213.5,0)" xml:space="preserve">Ruby   Ruby   Ruby   Ruby   Ruby   Ruby   Ruby   Ruby   Ruby</text>
<text x="241.5" y="0" transform="rotate(270,241.5,0)" xml:space="preserve">   Erlang HiPE   Erlang HiPE   Erlang HiPE   Erlang HiPE</text>
<text x="269.5" y="0" transform="rotate(270,269.5,0)" xml:space="preserve">   VW Smalltalk   VW Smalltalk   VW Smalltalk   VW Smalltalk</text>
<text x="297.5" y="0" transform="rotate(270,297.5,0)" xml:space="preserve">   Python 3   Python 3   Python 3   Python 3   Python 3</text>
<text x="325.5" y="0" transform="rotate(270,325.5,0)" xml:space="preserve">Perl   Perl   Perl   Perl   Perl   Perl   Perl   Perl   Perl</text>
<text x="353.5" y="0" transform="rotate(270,353.5,0)" xml:space="preserve">   Lua   Lua   Lua   Lua   Lua   Lua   Lua   Lua   Lua   Lua</text>
<br />
<b>Warning</b>:  Division by zero in <b>/home/dunham/8000-benchmarksgame/website/lib/lib_chartSVG.php</b> on line <b>289</b><br />
<br />
<b>Warning</b>:  str_repeat() expects parameter 2 to be int, float given in <b>/home/dunham/8000-benchmarksgame/website/lib/lib_chartSVG.php</b> on line <b>290</b><br />
<text x="381.5" y="0" transform="rotate(270,381.5,0)" xml:space="preserve"></text>
<text x="409.5" y="0" transform="rotate(270,409.5,0)" xml:space="preserve">   Matz's Ruby   Matz's Ruby   Matz's Ruby   Matz's Ruby</text>
</g>
</defs>
<use x="60" y="27" xlink:href="#backgroundText"/>
<rect x="58" y="24" width="452" height="288" fill="white" mask="url(#fade)" />
<rect x="58" y="264" width="452" height="288" style="fill: white; stroke: white;" />
<g style="fill: black; stroke: black;">
<rect x="72" y="181.5" width="1" height="55.15" />
<rect x="100" y="185.84" width="1" height="51.01" />
<rect x="128" y="708.61" width="1" height="0" />
<rect x="156" y="153.59" width="1" height="97.72" />
<rect x="184" y="152.41" width="1" height="83" />
<rect x="212" y="708.61" width="1" height="0" />
<rect x="240" y="106.43" width="1" height="146.63" />
<rect x="268" y="104.61" width="1" height="117.66" />
<rect x="296" y="101.25" width="1" height="129.63" />
<rect x="324" y="88.27" width="1" height="98.57" />
<rect x="352" y="64.95" width="1" height="169.89" />
<rect x="380" y="71.4" width="1" height="137.75" />
<rect x="408" y="80" width="1" height="78.62" />
<rect x="436" y="708.61" width="1" height="0" />
<rect x="464" y="6.99" width="1" height="88.22" />
</g>
<g style="fill: white; stroke: black;">
<rect x="62" y="197.11" width="21" height="25.99" />
<rect x="90" y="191.46" width="21" height="31.13" />
<rect x="118" y="708.61" width="21" height="0" />
<rect x="146" y="169.63" width="21" height="55.17" />
<rect x="174" y="179.42" width="21" height="43.39" />
<rect x="202" y="708.61" width="21" height="0" />
<rect x="230" y="132.09" width="21" height="38.31" />
<rect x="258" y="131.07" width="21" height="41.2" />
<rect x="286" y="128.46" width="21" height="44.26" />
<rect x="314" y="117.72" width="21" height="55.55" />
<rect x="342" y="94.2" width="21" height="75.16" />
<rect x="370" y="100.86" width="21" height="55.59" />
<rect x="398" y="106.27" width="21" height="40.51" />
<rect x="426" y="708.61" width="21" height="0" />
<rect x="454" y="9.93" width="21" height="67.93" />
</g>
<g style="fill: black; stroke: black;">
<line x1="68" y1="236.64" x2="77.5" y2="236.64" />
<line x1="68" y1="181.5" x2="77.5" y2="181.5" />
</g>
<g style="fill: black; stroke: black;">
<rect x="63" y="209.98" width="19" height="1" />
</g>
<g style="fill: black; stroke: black;">
<line x1="96" y1="236.85" x2="105.5" y2="236.85" />
<line x1="96" y1="185.84" x2="105.5" y2="185.84" />
</g>
<g style="fill: black; stroke: black;">
<rect x="91" y="208.96" width="19" height="1" />
</g>
<g style="fill: black; stroke: black;">
<line x1="124" y1="708.61" x2="133.5" y2="708.61" />
<line x1="124" y1="708.61" x2="133.5" y2="708.61" />
</g>
<g style="fill: black; stroke: black;">
<rect x="119" y="707.61" width="19" height="1" />
</g>
<g style="fill: black; stroke: black;">
<line x1="152" y1="251.3" x2="161.5" y2="251.3" />
<line x1="152" y1="153.59" x2="161.5" y2="153.59" />
</g>
<g style="fill: black; stroke: black;">
<rect x="147" y="184.48" width="19" height="1" />
</g>
<g style="fill: black; stroke: black;">
<line x1="180" y1="235.42" x2="189.5" y2="235.42" />
<line x1="180" y1="152.41" x2="189.5" y2="152.41" />
<line x1="180" y1="79.8" x2="189.5" y2="79.8" />
<rect x="184" y="79.8" width="1" height="5" />
</g>
<g style="fill: black; stroke: black;">
<rect x="175" y="205.93" width="19" height="1" />
</g>
<g style="fill: black; stroke: black;">
<line x1="208" y1="708.61" x2="217.5" y2="708.61" />
<line x1="208" y1="708.61" x2="217.5" y2="708.61" />
</g>
<g style="fill: black; stroke: black;">
<rect x="203" y="707.61" width="19" height="1" />
</g>
<g style="fill: black; stroke: black;">
<line x1="236" y1="253.05" x2="245.5" y2="253.05" />
<line x1="236" y1="106.43" x2="245.5" y2="106.43" />
<line x1="236" y1="99.57" x2="245.5" y2="99.57" />
<rect x="240" y="99.57" width="1" height="5" />
</g>
<g style="fill: black; stroke: black;">
<rect x="231" y="155.64" width="19" height="1" />
</g>
<g style="fill: black; stroke: black;">
<line x1="264" y1="222.27" x2="273.5" y2="222.27" />
<line x1="264" y1="104.61" x2="273.5" y2="104.61" />
<line x1="264" y1="103.98" x2="273.5" y2="103.98" />
<rect x="268" y="103.98" width="1" height="5" />
</g>
<g style="fill: black; stroke: black;">
<rect x="259" y="155.3" width="19" height="1" />
</g>
<g style="fill: black; stroke: black;">
<line x1="292" y1="230.88" x2="301.5" y2="230.88" />
<line x1="292" y1="101.25" x2="301.5" y2="101.25" />
<line x1="292" y1="98.03" x2="301.5" y2="98.03" />
<rect x="296" y="98.03" width="1" height="5" />
</g>
<g style="fill: black; stroke: black;">
<rect x="287" y="145.06" width="19" height="1" />
</g>
<g style="fill: black; stroke: black;">
<line x1="320" y1="186.84" x2="329.5" y2="186.84" />
<line x1="320" y1="88.27" x2="329.5" y2="88.27" />
<line x1="320" y1="87.4" x2="329.5" y2="87.4" />
<rect x="324" y="87.4" width="1" height="5" />
</g>
<g style="fill: black; stroke: black;">
<rect x="315" y="145.1" width="19" height="1" />
</g>
<g style="fill: black; stroke: black;">
<line x1="348" y1="234.84" x2="357.5" y2="234.84" />
<line x1="348" y1="64.95" x2="357.5" y2="64.95" />
</g>
<g style="fill: black; stroke: black;">
<rect x="343" y="136.5" width="19" height="1" />
</g>
<g style="fill: black; stroke: black;">
<line x1="376" y1="209.15" x2="385.5" y2="209.15" />
<line x1="376" y1="71.4" x2="385.5" y2="71.4" />
<line x1="376" y1="27.29" x2="385.5" y2="27.29" />
<rect x="380" y="27.29" width="1" height="5" />
</g>
<g style="fill: black; stroke: black;">
<rect x="371" y="135.55" width="19" height="1" />
</g>
<g style="fill: black; stroke: black;">
<line x1="404" y1="158.62" x2="413.5" y2="158.62" />
<line x1="404" y1="80" x2="413.5" y2="80" />
<line x1="404" y1="78.88" x2="413.5" y2="78.88" />
<rect x="408" y="78.88" width="1" height="5" />
</g>
<g style="fill: black; stroke: black;">
<rect x="399" y="122.22" width="19" height="1" />
</g>
<g style="fill: black; stroke: black;">
<line x1="432" y1="708.61" x2="441.5" y2="708.61" />
<line x1="432" y1="708.61" x2="441.5" y2="708.61" />
</g>
<g style="fill: black; stroke: black;">
<rect x="427" y="707.61" width="19" height="1" />
</g>
<g style="fill: black; stroke: black;">
<line x1="460" y1="95.22" x2="469.5" y2="95.22" />
<line x1="460" y1="6.99" x2="469.5" y2="6.99" />
</g>
<g style="fill: black; stroke: black;">
<rect x="455" y="52.55" width="19" height="1" />
</g>
<g style="text-anchor: end; font-family: Ubuntu,Verdana,sans-serif; font-size: 0.9em;" >
<text x="512" y="282" >01 Jan 2020 u64q</text>
<text x="58" y="282" style="text-anchor: start;" >benchmarks game</text>
</g>
<text x="16" y="144" transform="rotate(270,16,144)" style="text-anchor: middle; font-family: Ubuntu,Verdana,sans-serif; font-size: 0.9em;" >program busy time / least busy</text>
<text x="285" y="18" style="text-anchor: middle; font-family: Ubuntu,Verdana,sans-serif; font-size: 1.2em;" >How many times slower?</text>
<g style="stroke: #333;">
<line x1="58" y1="24" x2="58" y2="264" />
<line x1="511" y1="24" x2="511" y2="264" />
<line x1="58" y1="264" x2="511" y2="264" />
</g>
</svg>

