<?xml version="1.0" encoding="UTF-8" standalone="no"?>
<!DOCTYPE svg PUBLIC "-//W3C//DTD SVG 1.1//EN" "http://www.w3.org/Graphics/SVG/1.1/DTD/svg11.dtd">
<svg xmlns="http://www.w3.org/2000/svg" version="1.1" xmlns:xlink="http://www.w3.org/1999/xlink" viewBox="0 0 512 288">

<!-- Copyright 2015-2020 Isaac Gouy -->
<!-- https://salsa.debian.org/benchmarksgame-team/benchmarksgame/blob/master/LICENSE.md -->

<g style="stroke: #ccc;" >
<line x1="51" y1="264" x2="511" y2="264" />
<line x1="51" y1="221.57" x2="511" y2="221.57" />
<line x1="51" y1="201.85" x2="511" y2="201.85" />
<line x1="51" y1="175.08" x2="511" y2="175.08" />
<line x1="51" y1="132.65" x2="511" y2="132.65" />
<line x1="51" y1="112.92" x2="511" y2="112.92" />
<line x1="51" y1="86.15" x2="511" y2="86.15" />
<line x1="51" y1="43.73" x2="511" y2="43.73" />
<line x1="51" y1="24" x2="511" y2="24" />
</g>
<g style="text-anchor: end; font-family: Ubuntu,Verdana,sans-serif; font-size: 0.9em;" >
<text x="51" y="262" >1</text>
<text x="51" y="219.57" >3</text>
<text x="51" y="199.85" >5</text>
<text x="51" y="173.08" >10</text>
<text x="51" y="130.65" >30</text>
<text x="51" y="110.92" >50</text>
<text x="51" y="84.15" >100</text>
<text x="51" y="41.73" >300</text>
<text x="51" y="22" ></text>
</g>
<defs>
<linearGradient id="grade" x1="0" y1="0" x2="0" y2="1">
<stop offset="0" style="stop-color: white" stop-opacity="0.6"/>
<stop offset="1" style="stop-color: white" stop-opacity="0.8"/>
</linearGradient>
<mask id="fade">
<rect x="58" y="24" width="452" height="288" fill="url(#grade)"  />
</mask>
<g id="backgroundText" style="text-anchor: end; font-family: Ubuntu,Verdana,sans-serif; font-size: 1em;">
<text x="17" y="0" transform="rotate(270,17,0)" xml:space="preserve">   Swift   Swift   Swift   Swift   Swift</text>
<text x="45" y="0" transform="rotate(270,45,0)" xml:space="preserve">   Node js   Node js   Node js   Node js</text>
<text x="73" y="0" transform="rotate(270,73,0)" xml:space="preserve">                                                            </text>
<text x="101" y="0" transform="rotate(270,101,0)" xml:space="preserve">   Dart   Dart   Dart   Dart   Dart   Dart</text>
<text x="129" y="0" transform="rotate(270,129,0)" xml:space="preserve">   Racket   Racket   Racket   Racket   Racket</text>
<text x="157" y="0" transform="rotate(270,157,0)" xml:space="preserve">                                                            </text>
<text x="185" y="0" transform="rotate(270,185,0)" xml:space="preserve">   PHP   PHP   PHP   PHP   PHP   PHP   PHP   PHP</text>
<text x="213" y="0" transform="rotate(270,213,0)" xml:space="preserve">                                                            </text>
<text x="241" y="0" transform="rotate(270,241,0)" xml:space="preserve">   Python 3   Python 3   Python 3   Python 3</text>
<text x="269" y="0" transform="rotate(270,269,0)" xml:space="preserve">   Erlang HiPE   Erlang HiPE   Erlang HiPE</text>
<text x="297" y="0" transform="rotate(270,297,0)" xml:space="preserve">   VW Smalltalk   VW Smalltalk   VW Smalltalk</text>
<text x="325" y="0" transform="rotate(270,325,0)" xml:space="preserve">   Ruby   Ruby   Ruby   Ruby   Ruby   Ruby</text>
<text x="353" y="0" transform="rotate(270,353,0)" xml:space="preserve">   Perl   Perl   Perl   Perl   Perl   Perl</text>
<text x="381" y="0" transform="rotate(270,381,0)" xml:space="preserve">   Lua   Lua   Lua   Lua   Lua   Lua   Lua   Lua</text>
<text x="409" y="0" transform="rotate(270,409,0)" xml:space="preserve">                                                            </text>
<text x="437" y="0" transform="rotate(270,437,0)" xml:space="preserve">   Matz's Ruby   Matz's Ruby   Matz's Ruby</text>
</g>
</defs>
<use x="60" y="27" xlink:href="#backgroundText"/>
<rect x="58" y="24" width="452" height="288" fill="white" mask="url(#fade)" />
<rect x="58" y="264" width="452" height="288" style="fill: white; stroke: white;" />
<g style="fill: black; stroke: black;">
<rect x="72" y="147.95" width="1" height="113.84" />
<rect x="100" y="187.83" width="1" height="57.03" />
<rect x="128" y="708.61" width="1" height="0" />
<rect x="156" y="150.52" width="1" height="84.74" />
<rect x="184" y="146.87" width="1" height="103.7" />
<rect x="212" y="708.61" width="1" height="0" />
<rect x="240" y="137.69" width="1" height="101.62" />
<rect x="268" y="708.61" width="1" height="0" />
<rect x="296" y="63.99" width="1" height="184.18" />
<rect x="324" y="88.58" width="1" height="146.89" />
<rect x="352" y="86.18" width="1" height="88.73" />
<rect x="380" y="91.86" width="1" height="105.1" />
<rect x="408" y="58.09" width="1" height="167.4" />
<rect x="436" y="97.07" width="1" height="54.37" />
<rect x="464" y="708.61" width="1" height="0" />
<rect x="492" y="13.42" width="1" height="122.66" />
</g>
<g style="fill: white; stroke: black;">
<rect x="62" y="178.43" width="22" height="62.36" />
<rect x="90" y="194.71" width="22" height="33.6" />
<rect x="118" y="708.61" width="22" height="0" />
<rect x="146" y="176.21" width="22" height="38.38" />
<rect x="174" y="158.95" width="22" height="50.8" />
<rect x="202" y="708.61" width="22" height="0" />
<rect x="230" y="154.21" width="22" height="16.99" />
<rect x="258" y="708.61" width="22" height="0" />
<rect x="286" y="89.22" width="22" height="69.35" />
<rect x="314" y="114.93" width="22" height="40.76" />
<rect x="342" y="110.81" width="22" height="48.73" />
<rect x="370" y="117.21" width="22" height="37.2" />
<rect x="398" y="90.08" width="22" height="75.9" />
<rect x="426" y="101.03" width="22" height="36.45" />
<rect x="454" y="708.61" width="22" height="0" />
<rect x="482" y="42.57" width="22" height="53.8" />
</g>
<g style="fill: black; stroke: black;">
<line x1="68.5" y1="261.79" x2="78" y2="261.79" />
<line x1="68.5" y1="147.95" x2="78" y2="147.95" />
<line x1="68.5" y1="135.71" x2="78" y2="135.71" />
<rect x="72" y="135.71" width="1" height="5" />
</g>
<g style="fill: black; stroke: black;">
<rect x="63" y="232.74" width="20" height="1" />
</g>
<g style="fill: black; stroke: black;">
<line x1="96.5" y1="244.85" x2="106" y2="244.85" />
<line x1="96.5" y1="187.83" x2="106" y2="187.83" />
</g>
<g style="fill: black; stroke: black;">
<rect x="91" y="212.53" width="20" height="1" />
</g>
<g style="fill: black; stroke: black;">
<line x1="124.5" y1="708.61" x2="134" y2="708.61" />
<line x1="124.5" y1="708.61" x2="134" y2="708.61" />
</g>
<g style="fill: black; stroke: black;">
<rect x="119" y="707.61" width="20" height="1" />
</g>
<g style="fill: black; stroke: black;">
<line x1="152.5" y1="235.26" x2="162" y2="235.26" />
<line x1="152.5" y1="150.52" x2="162" y2="150.52" />
<line x1="152.5" y1="96.47" x2="162" y2="96.47" />
<rect x="156" y="96.47" width="1" height="5" />
</g>
<g style="fill: black; stroke: black;">
<rect x="147" y="203.78" width="20" height="1" />
</g>
<g style="fill: black; stroke: black;">
<line x1="180.5" y1="250.57" x2="190" y2="250.57" />
<line x1="180.5" y1="146.87" x2="190" y2="146.87" />
</g>
<g style="fill: black; stroke: black;">
<rect x="175" y="180.87" width="20" height="1" />
</g>
<g style="fill: black; stroke: black;">
<line x1="208.5" y1="708.61" x2="218" y2="708.61" />
<line x1="208.5" y1="708.61" x2="218" y2="708.61" />
</g>
<g style="fill: black; stroke: black;">
<rect x="203" y="707.61" width="20" height="1" />
</g>
<g style="fill: black; stroke: black;">
<line x1="236.5" y1="239.31" x2="246" y2="239.31" />
<line x1="236.5" y1="137.69" x2="246" y2="137.69" />
<line x1="236.5" y1="253.03" x2="246" y2="253.03" />
<rect x="240" y="248.03" width="1" height="5" />
<line x1="236.5" y1="134.8" x2="246" y2="134.8" />
<rect x="240" y="134.8" width="1" height="5" />
</g>
<g style="fill: black; stroke: black;">
<rect x="231" y="157.26" width="20" height="1" />
</g>
<g style="fill: black; stroke: black;">
<line x1="264.5" y1="708.61" x2="274" y2="708.61" />
<line x1="264.5" y1="708.61" x2="274" y2="708.61" />
</g>
<g style="fill: black; stroke: black;">
<rect x="259" y="707.61" width="20" height="1" />
</g>
<g style="fill: black; stroke: black;">
<line x1="292.5" y1="248.17" x2="302" y2="248.17" />
<line x1="292.5" y1="63.99" x2="302" y2="63.99" />
</g>
<g style="fill: black; stroke: black;">
<rect x="287" y="121.2" width="20" height="1" />
</g>
<g style="fill: black; stroke: black;">
<line x1="320.5" y1="235.48" x2="330" y2="235.48" />
<line x1="320.5" y1="88.58" x2="330" y2="88.58" />
<line x1="320.5" y1="83" x2="330" y2="83" />
<rect x="324" y="83" width="1" height="5" />
</g>
<g style="fill: black; stroke: black;">
<rect x="315" y="122.8" width="20" height="1" />
</g>
<g style="fill: black; stroke: black;">
<line x1="348.5" y1="174.91" x2="358" y2="174.91" />
<line x1="348.5" y1="86.18" x2="358" y2="86.18" />
</g>
<g style="fill: black; stroke: black;">
<rect x="343" y="137.32" width="20" height="1" />
</g>
<g style="fill: black; stroke: black;">
<line x1="376.5" y1="196.96" x2="386" y2="196.96" />
<line x1="376.5" y1="91.86" x2="386" y2="91.86" />
<line x1="376.5" y1="57.11" x2="386" y2="57.11" />
<rect x="380" y="57.11" width="1" height="5" />
</g>
<g style="fill: black; stroke: black;">
<rect x="371" y="129.47" width="20" height="1" />
</g>
<g style="fill: black; stroke: black;">
<line x1="404.5" y1="225.49" x2="414" y2="225.49" />
<line x1="404.5" y1="58.09" x2="414" y2="58.09" />
<line x1="404.5" y1="13.25" x2="414" y2="13.25" />
<rect x="408" y="13.25" width="1" height="5" />
</g>
<g style="fill: black; stroke: black;">
<rect x="399" y="123.26" width="20" height="1" />
</g>
<g style="fill: black; stroke: black;">
<line x1="432.5" y1="151.44" x2="442" y2="151.44" />
<line x1="432.5" y1="97.07" x2="442" y2="97.07" />
</g>
<g style="fill: black; stroke: black;">
<rect x="427" y="115.03" width="20" height="1" />
</g>
<g style="fill: black; stroke: black;">
<line x1="460.5" y1="708.61" x2="470" y2="708.61" />
<line x1="460.5" y1="708.61" x2="470" y2="708.61" />
</g>
<g style="fill: black; stroke: black;">
<rect x="455" y="707.61" width="20" height="1" />
</g>
<g style="fill: black; stroke: black;">
<line x1="488.5" y1="136.08" x2="498" y2="136.08" />
<line x1="488.5" y1="13.42" x2="498" y2="13.42" />
<line x1="488.5" y1="-16.13" x2="498" y2="-16.13" />
<rect x="492" y="-16.13" width="1" height="5" />
</g>
<g style="fill: black; stroke: black;">
<rect x="483" y="67.86" width="20" height="1" />
</g>
<g style="text-anchor: end; font-family: Ubuntu,Verdana,sans-serif; font-size: 0.9em;" >
<text x="512" y="282" >01 Dec 2020 u64q</text>
<text x="58" y="282" style="text-anchor: start;" >benchmarks game</text>
</g>
<text x="16" y="144" transform="rotate(270,16,144)" style="text-anchor: middle; font-family: Ubuntu,Verdana,sans-serif; font-size: 0.9em;" >program busy time / least busy</text>
<text x="285" y="18" style="text-anchor: middle; font-family: Ubuntu,Verdana,sans-serif; font-size: 1.2em;" >How many times slower?</text>
<g style="stroke: #333;">
<line x1="58" y1="24" x2="58" y2="264" />
<line x1="511" y1="24" x2="511" y2="264" />
<line x1="58" y1="264" x2="511" y2="264" />
</g>
</svg>

