<?xml version="1.0" encoding="UTF-8" standalone="no"?>
<!DOCTYPE svg PUBLIC "-//W3C//DTD SVG 1.1//EN" "http://www.w3.org/Graphics/SVG/1.1/DTD/svg11.dtd">
<svg xmlns="http://www.w3.org/2000/svg" version="1.1" xmlns:xlink="http://www.w3.org/1999/xlink" viewBox="0 0 512 288">

<!-- Copyright 2015-2020 Isaac Gouy -->
<!-- https://salsa.debian.org/benchmarksgame-team/benchmarksgame/blob/master/LICENSE.md -->

<g style="stroke: #ccc;" >
<line x1="51" y1="264" x2="511" y2="264" />
<line x1="51" y1="221.57" x2="511" y2="221.57" />
<line x1="51" y1="201.85" x2="511" y2="201.85" />
<line x1="51" y1="175.08" x2="511" y2="175.08" />
<line x1="51" y1="132.65" x2="511" y2="132.65" />
<line x1="51" y1="112.92" x2="511" y2="112.92" />
<line x1="51" y1="86.15" x2="511" y2="86.15" />
<line x1="51" y1="43.73" x2="511" y2="43.73" />
<line x1="51" y1="24" x2="511" y2="24" />
</g>
<g style="text-anchor: end; font-family: Ubuntu,Verdana,sans-serif; font-size: 0.9em;" >
<text x="51" y="262" >1</text>
<text x="51" y="219.57" >3</text>
<text x="51" y="199.85" >5</text>
<text x="51" y="173.08" >10</text>
<text x="51" y="130.65" >30</text>
<text x="51" y="110.92" >50</text>
<text x="51" y="84.15" >100</text>
<text x="51" y="41.73" >300</text>
<text x="51" y="22" ></text>
</g>
<defs>
<linearGradient id="grade" x1="0" y1="0" x2="0" y2="1">
<stop offset="0" style="stop-color: white" stop-opacity="0.6"/>
<stop offset="1" style="stop-color: white" stop-opacity="0.8"/>
</linearGradient>
<mask id="fade">
<rect x="58" y="24" width="452" height="288" fill="url(#grade)"  />
</mask>
<g id="backgroundText" style="text-anchor: end; font-family: Ubuntu,Verdana,sans-serif; font-size: 1em;">
<text x="18.5" y="0" transform="rotate(270,18.5,0)" xml:space="preserve">   C++ g++   C++ g++   C++ g++   C++ g++</text>
<text x="48.5" y="0" transform="rotate(270,48.5,0)" xml:space="preserve">   C gcc   C gcc   C gcc   C gcc   C gcc</text>
<text x="78.5" y="0" transform="rotate(270,78.5,0)" xml:space="preserve">   Rust   Rust   Rust   Rust   Rust   Rust</text>
<text x="108.5" y="0" transform="rotate(270,108.5,0)" xml:space="preserve">   Intel Fortran   Intel Fortran   Intel Fortran</text>
<text x="138.5" y="0" transform="rotate(270,138.5,0)" xml:space="preserve">   Julia   Julia   Julia   Julia   Julia</text>
<text x="168.5" y="0" transform="rotate(270,168.5,0)" xml:space="preserve">   Ada 2012 GNAT   Ada 2012 GNAT   Ada 2012 GNAT</text>
<text x="198.5" y="0" transform="rotate(270,198.5,0)" xml:space="preserve">   C# .NET Core   C# .NET Core   C# .NET Core</text>
<text x="228.5" y="0" transform="rotate(270,228.5,0)" xml:space="preserve">   Free Pascal   Free Pascal   Free Pascal</text>
<text x="258.5" y="0" transform="rotate(270,258.5,0)" xml:space="preserve">   F# .NET Core   F# .NET Core   F# .NET Core</text>
<text x="288.5" y="0" transform="rotate(270,288.5,0)" xml:space="preserve">   Java   Java   Java   Java   Java   Java</text>
<text x="318.5" y="0" transform="rotate(270,318.5,0)" xml:space="preserve">   Haskell GHC   Haskell GHC   Haskell GHC</text>
<text x="348.5" y="0" transform="rotate(270,348.5,0)" xml:space="preserve">   Chapel   Chapel   Chapel   Chapel   Chapel</text>
<text x="378.5" y="0" transform="rotate(270,378.5,0)" xml:space="preserve">   Lisp SBCL   Lisp SBCL   Lisp SBCL</text>
<text x="408.5" y="0" transform="rotate(270,408.5,0)" xml:space="preserve">   Swift   Swift   Swift   Swift   Swift</text>
<text x="438.5" y="0" transform="rotate(270,438.5,0)" xml:space="preserve">   Go   Go   Go   Go   Go   Go   Go   Go   Go   Go</text>
</g>
</defs>
<use x="60" y="27" xlink:href="#backgroundText"/>
<rect x="58" y="24" width="452" height="288" fill="white" mask="url(#fade)" />
<rect x="58" y="264" width="452" height="288" style="fill: white; stroke: white;" />
<g style="fill: black; stroke: black;">
<rect x="73" y="254.21" width="1" height="9.79" />
<rect x="103" y="251.21" width="1" height="12.79" />
<rect x="133" y="243.86" width="1" height="20.14" />
<rect x="163" y="226.31" width="1" height="37.69" />
<rect x="193" y="235" width="1" height="23.5" />
<rect x="223" y="213.48" width="1" height="50.42" />
<rect x="253" y="213.99" width="1" height="48.91" />
<rect x="283" y="197.05" width="1" height="66.95" />
<rect x="313" y="208.41" width="1" height="49.77" />
<rect x="343" y="191.05" width="1" height="61.67" />
<rect x="373" y="192.53" width="1" height="63.76" />
<rect x="403" y="194.96" width="1" height="69.04" />
<rect x="433" y="186.38" width="1" height="54.05" />
<rect x="463" y="158.72" width="1" height="103.03" />
<rect x="493" y="190.11" width="1" height="65.13" />
</g>
<g style="fill: white; stroke: black;">
<rect x="62" y="255.99" width="23" height="8.01" />
<rect x="92" y="256.53" width="23" height="5.22" />
<rect x="122" y="252.31" width="23" height="11.66" />
<rect x="152" y="234.05" width="23" height="23.17" />
<rect x="182" y="242.99" width="23" height="6.42" />
<rect x="212" y="230.18" width="23" height="25.4" />
<rect x="242" y="216.44" width="23" height="35.85" />
<rect x="272" y="213.31" width="23" height="30.11" />
<rect x="302" y="213.26" width="23" height="26.67" />
<rect x="332" y="212.39" width="23" height="26.14" />
<rect x="362" y="212.92" width="23" height="24.07" />
<rect x="392" y="200.25" width="23" height="36.89" />
<rect x="422" y="198.84" width="23" height="37.45" />
<rect x="452" y="188.7" width="23" height="58.86" />
<rect x="482" y="211.34" width="23" height="25.9" />
</g>
<g style="fill: black; stroke: black;">
<line x1="68.5" y1="264" x2="79" y2="264" />
<line x1="68.5" y1="254.21" x2="79" y2="254.21" />
</g>
<g style="fill: black; stroke: black;">
<rect x="63" y="259.6" width="21" height="1" />
</g>
<g style="fill: black; stroke: black;">
<line x1="98.5" y1="264" x2="109" y2="264" />
<line x1="98.5" y1="251.21" x2="109" y2="251.21" />
</g>
<g style="fill: black; stroke: black;">
<rect x="93" y="259.01" width="21" height="1" />
</g>
<g style="fill: black; stroke: black;">
<line x1="128.5" y1="264" x2="139" y2="264" />
<line x1="128.5" y1="243.86" x2="139" y2="243.86" />
</g>
<g style="fill: black; stroke: black;">
<rect x="123" y="259.38" width="21" height="1" />
</g>
<g style="fill: black; stroke: black;">
<line x1="158.5" y1="264" x2="169" y2="264" />
<line x1="158.5" y1="226.31" x2="169" y2="226.31" />
</g>
<g style="fill: black; stroke: black;">
<rect x="153" y="245.89" width="21" height="1" />
</g>
<g style="fill: black; stroke: black;">
<line x1="188.5" y1="258.5" x2="199" y2="258.5" />
<line x1="188.5" y1="235" x2="199" y2="235" />
<line x1="188.5" y1="214.6" x2="199" y2="214.6" />
<rect x="193" y="214.6" width="1" height="5" />
</g>
<g style="fill: black; stroke: black;">
<rect x="183" y="245.56" width="21" height="1" />
</g>
<g style="fill: black; stroke: black;">
<line x1="218.5" y1="263.89" x2="229" y2="263.89" />
<line x1="218.5" y1="213.48" x2="229" y2="213.48" />
</g>
<g style="fill: black; stroke: black;">
<rect x="213" y="245.26" width="21" height="1" />
</g>
<g style="fill: black; stroke: black;">
<line x1="248.5" y1="262.91" x2="259" y2="262.91" />
<line x1="248.5" y1="213.99" x2="259" y2="213.99" />
</g>
<g style="fill: black; stroke: black;">
<rect x="243" y="241.61" width="21" height="1" />
</g>
<g style="fill: black; stroke: black;">
<line x1="278.5" y1="264" x2="289" y2="264" />
<line x1="278.5" y1="197.05" x2="289" y2="197.05" />
</g>
<g style="fill: black; stroke: black;">
<rect x="273" y="223.61" width="21" height="1" />
</g>
<g style="fill: black; stroke: black;">
<line x1="308.5" y1="258.19" x2="319" y2="258.19" />
<line x1="308.5" y1="208.41" x2="319" y2="208.41" />
</g>
<g style="fill: black; stroke: black;">
<rect x="303" y="230.51" width="21" height="1" />
</g>
<g style="fill: black; stroke: black;">
<line x1="338.5" y1="252.73" x2="349" y2="252.73" />
<line x1="338.5" y1="191.05" x2="349" y2="191.05" />
<line x1="338.5" y1="177.28" x2="349" y2="177.28" />
<rect x="343" y="177.28" width="1" height="5" />
</g>
<g style="fill: black; stroke: black;">
<rect x="333" y="228.59" width="21" height="1" />
</g>
<g style="fill: black; stroke: black;">
<line x1="368.5" y1="256.28" x2="379" y2="256.28" />
<line x1="368.5" y1="192.53" x2="379" y2="192.53" />
<line x1="368.5" y1="173.27" x2="379" y2="173.27" />
<rect x="373" y="173.27" width="1" height="5" />
</g>
<g style="fill: black; stroke: black;">
<rect x="363" y="217.73" width="21" height="1" />
</g>
<g style="fill: black; stroke: black;">
<line x1="398.5" y1="264" x2="409" y2="264" />
<line x1="398.5" y1="194.96" x2="409" y2="194.96" />
</g>
<g style="fill: black; stroke: black;">
<rect x="393" y="212.06" width="21" height="1" />
</g>
<g style="fill: black; stroke: black;">
<line x1="428.5" y1="240.43" x2="439" y2="240.43" />
<line x1="428.5" y1="186.38" x2="439" y2="186.38" />
</g>
<g style="fill: black; stroke: black;">
<rect x="423" y="222.89" width="21" height="1" />
</g>
<g style="fill: black; stroke: black;">
<line x1="458.5" y1="261.75" x2="469" y2="261.75" />
<line x1="458.5" y1="158.72" x2="469" y2="158.72" />
<line x1="458.5" y1="139.65" x2="469" y2="139.65" />
<rect x="463" y="139.65" width="1" height="5" />
</g>
<g style="fill: black; stroke: black;">
<rect x="453" y="231.23" width="21" height="1" />
</g>
<g style="fill: black; stroke: black;">
<line x1="488.5" y1="255.23" x2="499" y2="255.23" />
<line x1="488.5" y1="190.11" x2="499" y2="190.11" />
<line x1="488.5" y1="127.82" x2="499" y2="127.82" />
<rect x="493" y="127.82" width="1" height="5" />
</g>
<g style="fill: black; stroke: black;">
<rect x="483" y="221.73" width="21" height="1" />
</g>
<g style="text-anchor: end; font-family: Ubuntu,Verdana,sans-serif; font-size: 0.9em;" >
<text x="512" y="282" >02 Apr 2020 u64q</text>
<text x="58" y="282" style="text-anchor: start;" >benchmarks game</text>
</g>
<text x="16" y="144" transform="rotate(270,16,144)" style="text-anchor: middle; font-family: Ubuntu,Verdana,sans-serif; font-size: 0.9em;" >program busy time / least busy</text>
<text x="285" y="18" style="text-anchor: middle; font-family: Ubuntu,Verdana,sans-serif; font-size: 1.2em;" >How many times slower?</text>
<g style="stroke: #333;">
<line x1="58" y1="24" x2="58" y2="264" />
<line x1="511" y1="24" x2="511" y2="264" />
<line x1="58" y1="264" x2="511" y2="264" />
</g>
</svg>

