<?xml version="1.0" encoding="UTF-8" standalone="no"?>
<!DOCTYPE svg PUBLIC "-//W3C//DTD SVG 1.1//EN" "http://www.w3.org/Graphics/SVG/1.1/DTD/svg11.dtd">
<svg xmlns="http://www.w3.org/2000/svg" version="1.1" xmlns:xlink="http://www.w3.org/1999/xlink" viewBox="0 0 512 288">

<!-- Copyright 2015-2020 Isaac Gouy -->
<!-- https://salsa.debian.org/benchmarksgame-team/benchmarksgame/blob/master/LICENSE.md -->

<g style="stroke: #ccc;" >
<line x1="51" y1="264" x2="511" y2="264" />
<line x1="51" y1="221.57" x2="511" y2="221.57" />
<line x1="51" y1="201.85" x2="511" y2="201.85" />
<line x1="51" y1="175.08" x2="511" y2="175.08" />
<line x1="51" y1="132.65" x2="511" y2="132.65" />
<line x1="51" y1="112.92" x2="511" y2="112.92" />
<line x1="51" y1="86.15" x2="511" y2="86.15" />
<line x1="51" y1="43.73" x2="511" y2="43.73" />
<line x1="51" y1="24" x2="511" y2="24" />
</g>
<g style="text-anchor: end; font-family: Ubuntu,Verdana,sans-serif; font-size: 0.9em;" >
<text x="51" y="262" >1</text>
<text x="51" y="219.57" >3</text>
<text x="51" y="199.85" >5</text>
<text x="51" y="173.08" >10</text>
<text x="51" y="130.65" >30</text>
<text x="51" y="110.92" >50</text>
<text x="51" y="84.15" >100</text>
<text x="51" y="41.73" >300</text>
<text x="51" y="22" ></text>
</g>
<defs>
<linearGradient id="grade" x1="0" y1="0" x2="0" y2="1">
<stop offset="0" style="stop-color: white" stop-opacity="0.6"/>
<stop offset="1" style="stop-color: white" stop-opacity="0.8"/>
</linearGradient>
<mask id="fade">
<rect x="58" y="24" width="452" height="288" fill="url(#grade)"  />
</mask>
<g id="backgroundText" style="text-anchor: end; font-family: Ubuntu,Verdana,sans-serif; font-size: 1em;">
<text x="18.5" y="0" transform="rotate(270,18.5,0)" xml:space="preserve">   Node js   Node js   Node js   Node js</text>
<text x="48.5" y="0" transform="rotate(270,48.5,0)" xml:space="preserve">                                                            </text>
<text x="78.5" y="0" transform="rotate(270,78.5,0)" xml:space="preserve">   Dart   Dart   Dart   Dart   Dart   Dart</text>
<text x="108.5" y="0" transform="rotate(270,108.5,0)" xml:space="preserve">   Racket   Racket   Racket   Racket   Racket</text>
<text x="138.5" y="0" transform="rotate(270,138.5,0)" xml:space="preserve">                                                            </text>
<text x="168.5" y="0" transform="rotate(270,168.5,0)" xml:space="preserve">   PHP   PHP   PHP   PHP   PHP   PHP   PHP   PHP</text>
<text x="198.5" y="0" transform="rotate(270,198.5,0)" xml:space="preserve">                                                            </text>
<text x="228.5" y="0" transform="rotate(270,228.5,0)" xml:space="preserve">   Erlang HiPE   Erlang HiPE   Erlang HiPE</text>
<text x="258.5" y="0" transform="rotate(270,258.5,0)" xml:space="preserve">   VW Smalltalk   VW Smalltalk   VW Smalltalk</text>
<text x="288.5" y="0" transform="rotate(270,288.5,0)" xml:space="preserve">   Ruby   Ruby   Ruby   Ruby   Ruby   Ruby</text>
<text x="318.5" y="0" transform="rotate(270,318.5,0)" xml:space="preserve">   Python 3   Python 3   Python 3   Python 3</text>
<text x="348.5" y="0" transform="rotate(270,348.5,0)" xml:space="preserve">   Perl   Perl   Perl   Perl   Perl   Perl</text>
<text x="378.5" y="0" transform="rotate(270,378.5,0)" xml:space="preserve">   Lua   Lua   Lua   Lua   Lua   Lua   Lua   Lua</text>
<text x="408.5" y="0" transform="rotate(270,408.5,0)" xml:space="preserve">                                                            </text>
<text x="438.5" y="0" transform="rotate(270,438.5,0)" xml:space="preserve">   Matz's Ruby   Matz's Ruby   Matz's Ruby</text>
</g>
</defs>
<use x="60" y="27" xlink:href="#backgroundText"/>
<rect x="58" y="24" width="452" height="288" fill="white" mask="url(#fade)" />
<rect x="58" y="264" width="452" height="288" style="fill: white; stroke: white;" />
<g style="fill: black; stroke: black;">
<rect x="73" y="183.19" width="1" height="53.67" />
<rect x="103" y="708.61" width="1" height="0" />
<rect x="133" y="150.63" width="1" height="84.38" />
<rect x="163" y="151.61" width="1" height="96.57" />
<rect x="193" y="708.61" width="1" height="0" />
<rect x="223" y="104.76" width="1" height="149.72" />
<rect x="253" y="708.61" width="1" height="0" />
<rect x="283" y="94.31" width="1" height="132.65" />
<rect x="313" y="88.63" width="1" height="89.01" />
<rect x="343" y="97.27" width="1" height="73.27" />
<rect x="373" y="60.11" width="1" height="188.3" />
<rect x="403" y="58.71" width="1" height="170.53" />
<rect x="433" y="98.52" width="1" height="61.33" />
<rect x="463" y="708.61" width="1" height="0" />
<rect x="493" y="25.88" width="1" height="110.55" />
</g>
<g style="fill: white; stroke: black;">
<rect x="62" y="189.29" width="23" height="31.5" />
<rect x="92" y="708.61" width="23" height="0" />
<rect x="122" y="177.95" width="23" height="44.7" />
<rect x="152" y="161.62" width="23" height="47.97" />
<rect x="182" y="708.61" width="23" height="0" />
<rect x="212" y="128.27" width="23" height="31.62" />
<rect x="242" y="708.61" width="23" height="0" />
<rect x="272" y="119.44" width="23" height="36.49" />
<rect x="302" y="111.61" width="23" height="43" />
<rect x="332" y="108.71" width="23" height="49.59" />
<rect x="362" y="66.8" width="23" height="92.58" />
<rect x="392" y="90.74" width="23" height="76.33" />
<rect x="422" y="103.19" width="23" height="34.28" />
<rect x="452" y="708.61" width="23" height="0" />
<rect x="482" y="54.45" width="23" height="50.62" />
</g>
<g style="fill: black; stroke: black;">
<line x1="68.5" y1="236.86" x2="79" y2="236.86" />
<line x1="68.5" y1="183.19" x2="79" y2="183.19" />
</g>
<g style="fill: black; stroke: black;">
<rect x="63" y="210.05" width="21" height="1" />
</g>
<g style="fill: black; stroke: black;">
<line x1="98.5" y1="708.61" x2="109" y2="708.61" />
<line x1="98.5" y1="708.61" x2="109" y2="708.61" />
</g>
<g style="fill: black; stroke: black;">
<rect x="93" y="707.61" width="21" height="1" />
</g>
<g style="fill: black; stroke: black;">
<line x1="128.5" y1="235.01" x2="139" y2="235.01" />
<line x1="128.5" y1="150.63" x2="139" y2="150.63" />
<line x1="128.5" y1="97.61" x2="139" y2="97.61" />
<rect x="133" y="97.61" width="1" height="5" />
</g>
<g style="fill: black; stroke: black;">
<rect x="123" y="206.21" width="21" height="1" />
</g>
<g style="fill: black; stroke: black;">
<line x1="158.5" y1="248.18" x2="169" y2="248.18" />
<line x1="158.5" y1="151.61" x2="169" y2="151.61" />
</g>
<g style="fill: black; stroke: black;">
<rect x="153" y="181.07" width="21" height="1" />
</g>
<g style="fill: black; stroke: black;">
<line x1="188.5" y1="708.61" x2="199" y2="708.61" />
<line x1="188.5" y1="708.61" x2="199" y2="708.61" />
</g>
<g style="fill: black; stroke: black;">
<rect x="183" y="707.61" width="21" height="1" />
</g>
<g style="fill: black; stroke: black;">
<line x1="218.5" y1="254.47" x2="229" y2="254.47" />
<line x1="218.5" y1="104.76" x2="229" y2="104.76" />
<line x1="218.5" y1="94.47" x2="229" y2="94.47" />
<rect x="223" y="94.47" width="1" height="5" />
</g>
<g style="fill: black; stroke: black;">
<rect x="213" y="148.97" width="21" height="1" />
</g>
<g style="fill: black; stroke: black;">
<line x1="248.5" y1="708.61" x2="259" y2="708.61" />
<line x1="248.5" y1="708.61" x2="259" y2="708.61" />
</g>
<g style="fill: black; stroke: black;">
<rect x="243" y="707.61" width="21" height="1" />
</g>
<g style="fill: black; stroke: black;">
<line x1="278.5" y1="226.95" x2="289" y2="226.95" />
<line x1="278.5" y1="94.31" x2="289" y2="94.31" />
<line x1="278.5" y1="83.48" x2="289" y2="83.48" />
<rect x="283" y="83.48" width="1" height="5" />
</g>
<g style="fill: black; stroke: black;">
<rect x="273" y="124.78" width="21" height="1" />
</g>
<g style="fill: black; stroke: black;">
<line x1="308.5" y1="177.64" x2="319" y2="177.64" />
<line x1="308.5" y1="88.63" x2="319" y2="88.63" />
</g>
<g style="fill: black; stroke: black;">
<rect x="303" y="129.01" width="21" height="1" />
</g>
<g style="fill: black; stroke: black;">
<line x1="338.5" y1="170.54" x2="349" y2="170.54" />
<line x1="338.5" y1="97.27" x2="349" y2="97.27" />
</g>
<g style="fill: black; stroke: black;">
<rect x="333" y="128.53" width="21" height="1" />
</g>
<g style="fill: black; stroke: black;">
<line x1="368.5" y1="248.41" x2="379" y2="248.41" />
<line x1="368.5" y1="60.11" x2="379" y2="60.11" />
</g>
<g style="fill: black; stroke: black;">
<rect x="363" y="125.35" width="21" height="1" />
</g>
<g style="fill: black; stroke: black;">
<line x1="398.5" y1="229.24" x2="409" y2="229.24" />
<line x1="398.5" y1="58.71" x2="409" y2="58.71" />
<line x1="398.5" y1="16.01" x2="409" y2="16.01" />
<rect x="403" y="16.01" width="1" height="5" />
</g>
<g style="fill: black; stroke: black;">
<rect x="393" y="125.6" width="21" height="1" />
</g>
<g style="fill: black; stroke: black;">
<line x1="428.5" y1="159.85" x2="439" y2="159.85" />
<line x1="428.5" y1="98.52" x2="439" y2="98.52" />
</g>
<g style="fill: black; stroke: black;">
<rect x="423" y="117.43" width="21" height="1" />
</g>
<g style="fill: black; stroke: black;">
<line x1="458.5" y1="708.61" x2="469" y2="708.61" />
<line x1="458.5" y1="708.61" x2="469" y2="708.61" />
</g>
<g style="fill: black; stroke: black;">
<rect x="453" y="707.61" width="21" height="1" />
</g>
<g style="fill: black; stroke: black;">
<line x1="488.5" y1="136.43" x2="499" y2="136.43" />
<line x1="488.5" y1="25.88" x2="499" y2="25.88" />
<line x1="488.5" y1="-15.4" x2="499" y2="-15.4" />
<rect x="493" y="-15.4" width="1" height="5" />
</g>
<g style="fill: black; stroke: black;">
<rect x="483" y="73.86" width="21" height="1" />
</g>
<g style="text-anchor: end; font-family: Ubuntu,Verdana,sans-serif; font-size: 0.9em;" >
<text x="512" y="282" >06 Jul 2020 i5-3330</text>
<text x="58" y="282" style="text-anchor: start;" >benchmarks game</text>
</g>
<text x="16" y="144" transform="rotate(270,16,144)" style="text-anchor: middle; font-family: Ubuntu,Verdana,sans-serif; font-size: 0.9em;" >program busy time / least busy</text>
<text x="285" y="18" style="text-anchor: middle; font-family: Ubuntu,Verdana,sans-serif; font-size: 1.2em;" >How many times slower?</text>
<g style="stroke: #333;">
<line x1="58" y1="24" x2="58" y2="264" />
<line x1="511" y1="24" x2="511" y2="264" />
<line x1="58" y1="264" x2="511" y2="264" />
</g>
</svg>

