<?xml version="1.0" encoding="UTF-8" standalone="no"?>
<!DOCTYPE svg PUBLIC "-//W3C//DTD SVG 1.1//EN" "http://www.w3.org/Graphics/SVG/1.1/DTD/svg11.dtd">
<svg xmlns="http://www.w3.org/2000/svg" version="1.1" xmlns:xlink="http://www.w3.org/1999/xlink" viewBox="0 0 512 288">

<!-- Copyright 2015 Isaac Gouy -->
<!-- http://benchmarksgame.alioth.debian.org/license.html -->

<g style="stroke: #ccc;" >
<line x1="51" y1="264" x2="511" y2="264" />
<line x1="51" y1="221.57" x2="511" y2="221.57" />
<line x1="51" y1="201.85" x2="511" y2="201.85" />
<line x1="51" y1="175.08" x2="511" y2="175.08" />
<line x1="51" y1="132.65" x2="511" y2="132.65" />
<line x1="51" y1="112.92" x2="511" y2="112.92" />
<line x1="51" y1="86.15" x2="511" y2="86.15" />
<line x1="51" y1="43.73" x2="511" y2="43.73" />
<line x1="51" y1="24" x2="511" y2="24" />
</g>
<g style="text-anchor: end; font-family: Ubuntu,Verdana,sans-serif; font-size: 0.9em;" >
<text x="51" y="262" >1</text>
<text x="51" y="219.57" >3</text>
<text x="51" y="199.85" >5</text>
<text x="51" y="173.08" >10</text>
<text x="51" y="130.65" >30</text>
<text x="51" y="110.92" >50</text>
<text x="51" y="84.15" >100</text>
<text x="51" y="41.73" >300</text>
<text x="51" y="22" ></text>
</g>
<defs>
<linearGradient id="grade" x1="0" y1="0" x2="0" y2="1">
<stop offset="0" style="stop-color: white" stop-opacity="0.6"/>
<stop offset="1" style="stop-color: white" stop-opacity="0.8"/>
</linearGradient>
<mask id="fade">
<rect x="58" y="24" width="452" height="288" fill="url(#grade)"  />
</mask>
<g id="backgroundText" style="text-anchor: end; font-family: Ubuntu,Verdana,sans-serif; font-size: 1em;">
<text x="15" y="0" transform="rotate(270,15,0)" xml:space="preserve">   Haskell GHC   Haskell GHC   Haskell GHC   Haskell GHC</text>
<text x="40" y="0" transform="rotate(270,40,0)" xml:space="preserve">   Julia   Julia   Julia   Julia   Julia   Julia   Julia</text>
<text x="65" y="0" transform="rotate(270,65,0)" xml:space="preserve">   Node js   Node js   Node js   Node js   Node js   Node js</text>
<text x="90" y="0" transform="rotate(270,90,0)" xml:space="preserve">   TypeScript   TypeScript   TypeScript   TypeScript</text>
<text x="115" y="0" transform="rotate(270,115,0)" xml:space="preserve">Dart   Dart   Dart   Dart   Dart   Dart   Dart   Dart   Dart</text>
<text x="140" y="0" transform="rotate(270,140,0)" xml:space="preserve">   Racket   Racket   Racket   Racket   Racket   Racket</text>
<br />
<b>Warning</b>:  Division by zero in <b>/home/dunham/8000-benchmarksgame/website/lib/lib_chartSVG.php</b> on line <b>289</b><br />
<br />
<b>Warning</b>:  str_repeat() expects parameter 2 to be integer, float given in <b>/home/dunham/8000-benchmarksgame/website/lib/lib_chartSVG.php</b> on line <b>290</b><br />
<text x="165" y="0" transform="rotate(270,165,0)" xml:space="preserve"></text>
<text x="190" y="0" transform="rotate(270,190,0)" xml:space="preserve">   PHP   PHP   PHP   PHP   PHP   PHP   PHP   PHP   PHP   PHP</text>
<text x="215" y="0" transform="rotate(270,215,0)" xml:space="preserve">   Erlang HiPE   Erlang HiPE   Erlang HiPE   Erlang HiPE</text>
<text x="240" y="0" transform="rotate(270,240,0)" xml:space="preserve">   VW Smalltalk   VW Smalltalk   VW Smalltalk   VW Smalltalk</text>
<br />
<b>Warning</b>:  Division by zero in <b>/home/dunham/8000-benchmarksgame/website/lib/lib_chartSVG.php</b> on line <b>289</b><br />
<br />
<b>Warning</b>:  str_repeat() expects parameter 2 to be integer, float given in <b>/home/dunham/8000-benchmarksgame/website/lib/lib_chartSVG.php</b> on line <b>290</b><br />
<text x="265" y="0" transform="rotate(270,265,0)" xml:space="preserve"></text>
<text x="290" y="0" transform="rotate(270,290,0)" xml:space="preserve">   Truffle Ruby   Truffle Ruby   Truffle Ruby   Truffle Ruby</text>
<text x="315" y="0" transform="rotate(270,315,0)" xml:space="preserve">Ruby   Ruby   Ruby   Ruby   Ruby   Ruby   Ruby   Ruby   Ruby</text>
<text x="340" y="0" transform="rotate(270,340,0)" xml:space="preserve">Perl   Perl   Perl   Perl   Perl   Perl   Perl   Perl   Perl</text>
<text x="365" y="0" transform="rotate(270,365,0)" xml:space="preserve">   Python 3   Python 3   Python 3   Python 3   Python 3</text>
<text x="390" y="0" transform="rotate(270,390,0)" xml:space="preserve">   Lua   Lua   Lua   Lua   Lua   Lua   Lua   Lua   Lua   Lua</text>
<br />
<b>Warning</b>:  Division by zero in <b>/home/dunham/8000-benchmarksgame/website/lib/lib_chartSVG.php</b> on line <b>289</b><br />
<br />
<b>Warning</b>:  str_repeat() expects parameter 2 to be integer, float given in <b>/home/dunham/8000-benchmarksgame/website/lib/lib_chartSVG.php</b> on line <b>290</b><br />
<text x="415" y="0" transform="rotate(270,415,0)" xml:space="preserve"></text>
<text x="440" y="0" transform="rotate(270,440,0)" xml:space="preserve">   Matz's Ruby   Matz's Ruby   Matz's Ruby   Matz's Ruby</text>
</g>
</defs>
<use x="60" y="27" xlink:href="#backgroundText"/>
<rect x="58" y="24" width="452" height="288" fill="white" mask="url(#fade)" />
<rect x="58" y="264" width="452" height="288" style="fill: white; stroke: white;" />
<g style="fill: black; stroke: black;">
<rect x="72" y="172.91" width="1" height="50.54" />
<rect x="97" y="157.75" width="1" height="72.94" />
<rect x="122" y="168.52" width="1" height="55.94" />
<rect x="147" y="176.04" width="1" height="46.33" />
<rect x="172" y="165.87" width="1" height="60.53" />
<rect x="197" y="144.33" width="1" height="101.69" />
<rect x="222" y="708.61" width="1" height="0" />
<rect x="247" y="95.58" width="1" height="168.42" />
<rect x="272" y="105.68" width="1" height="131.62" />
<rect x="297" y="109.81" width="1" height="81.53" />
<rect x="322" y="708.61" width="1" height="0" />
<rect x="347" y="84.78" width="1" height="106.42" />
<rect x="372" y="70.62" width="1" height="138.17" />
<rect x="397" y="65.41" width="1" height="168.11" />
<rect x="422" y="52.75" width="1" height="182.11" />
<rect x="447" y="79.03" width="1" height="79.22" />
<rect x="472" y="708.61" width="1" height="0" />
<rect x="497" y="-30.33" width="1" height="190.53" />
</g>
<g style="fill: white; stroke: black;">
<rect x="62" y="184.82" width="20" height="36.14" />
<rect x="87" y="184.42" width="20" height="42.07" />
<rect x="112" y="180.09" width="20" height="37.13" />
<rect x="137" y="189.25" width="20" height="12.25" />
<rect x="162" y="187.78" width="20" height="27.46" />
<rect x="187" y="166.29" width="20" height="33.2" />
<rect x="212" y="708.61" width="20" height="0" />
<rect x="237" y="118.99" width="20" height="78.19" />
<rect x="262" y="131.86" width="20" height="40.14" />
<rect x="287" y="127.02" width="20" height="43.25" />
<rect x="312" y="708.61" width="20" height="0" />
<rect x="337" y="114.05" width="20" height="54.48" />
<rect x="362" y="98.95" width="20" height="76.81" />
<rect x="387" y="96.2" width="20" height="64.78" />
<rect x="412" y="85.14" width="20" height="80.45" />
<rect x="437" y="99.97" width="20" height="44.98" />
<rect x="462" y="708.61" width="20" height="0" />
<rect x="487" y="2.92" width="20" height="93.09" />
</g>
<g style="fill: black; stroke: black;">
<line x1="67.5" y1="223.45" x2="77" y2="223.45" />
<line x1="67.5" y1="172.91" x2="77" y2="172.91" />
</g>
<g style="fill: black; stroke: black;">
<rect x="63" y="208.02" width="18" height="1" />
</g>
<g style="fill: black; stroke: black;">
<line x1="92.5" y1="230.68" x2="102" y2="230.68" />
<line x1="92.5" y1="157.75" x2="102" y2="157.75" />
<line x1="92.5" y1="128.98" x2="102" y2="128.98" />
<rect x="97" y="128.98" width="1" height="5" />
</g>
<g style="fill: black; stroke: black;">
<rect x="88" y="218.77" width="18" height="1" />
</g>
<g style="fill: black; stroke: black;">
<line x1="117.5" y1="224.46" x2="127" y2="224.46" />
<line x1="117.5" y1="168.52" x2="127" y2="168.52" />
</g>
<g style="fill: black; stroke: black;">
<rect x="113" y="194.86" width="18" height="1" />
</g>
<g style="fill: black; stroke: black;">
<line x1="142.5" y1="222.37" x2="152" y2="222.37" />
<line x1="142.5" y1="176.04" x2="152" y2="176.04" />
<line x1="142.5" y1="161.14" x2="152" y2="161.14" />
<rect x="147" y="161.14" width="1" height="5" />
</g>
<g style="fill: black; stroke: black;">
<rect x="138" y="191.41" width="18" height="1" />
</g>
<g style="fill: black; stroke: black;">
<line x1="167.5" y1="226.4" x2="177" y2="226.4" />
<line x1="167.5" y1="165.87" x2="177" y2="165.87" />
<line x1="167.5" y1="95.89" x2="177" y2="95.89" />
<rect x="172" y="95.89" width="1" height="5" />
</g>
<g style="fill: black; stroke: black;">
<rect x="163" y="195.52" width="18" height="1" />
</g>
<g style="fill: black; stroke: black;">
<line x1="192.5" y1="246.02" x2="202" y2="246.02" />
<line x1="192.5" y1="144.33" x2="202" y2="144.33" />
</g>
<g style="fill: black; stroke: black;">
<rect x="188" y="186.3" width="18" height="1" />
</g>
<g style="fill: black; stroke: black;">
<line x1="217.5" y1="708.61" x2="227" y2="708.61" />
<line x1="217.5" y1="708.61" x2="227" y2="708.61" />
</g>
<g style="fill: black; stroke: black;">
<rect x="213" y="707.61" width="18" height="1" />
</g>
<g style="fill: black; stroke: black;">
<line x1="242.5" y1="264" x2="252" y2="264" />
<line x1="242.5" y1="95.58" x2="252" y2="95.58" />
</g>
<g style="fill: black; stroke: black;">
<rect x="238" y="153" width="18" height="1" />
</g>
<g style="fill: black; stroke: black;">
<line x1="267.5" y1="237.3" x2="277" y2="237.3" />
<line x1="267.5" y1="105.68" x2="277" y2="105.68" />
<line x1="267.5" y1="97.67" x2="277" y2="97.67" />
<rect x="272" y="97.67" width="1" height="5" />
</g>
<g style="fill: black; stroke: black;">
<rect x="263" y="141.33" width="18" height="1" />
</g>
<g style="fill: black; stroke: black;">
<line x1="292.5" y1="191.34" x2="302" y2="191.34" />
<line x1="292.5" y1="109.81" x2="302" y2="109.81" />
</g>
<g style="fill: black; stroke: black;">
<rect x="288" y="135.87" width="18" height="1" />
</g>
<g style="fill: black; stroke: black;">
<line x1="317.5" y1="708.61" x2="327" y2="708.61" />
<line x1="317.5" y1="708.61" x2="327" y2="708.61" />
</g>
<g style="fill: black; stroke: black;">
<rect x="313" y="707.61" width="18" height="1" />
</g>
<g style="fill: black; stroke: black;">
<line x1="342.5" y1="191.19" x2="352" y2="191.19" />
<line x1="342.5" y1="84.78" x2="352" y2="84.78" />
<line x1="342.5" y1="71.38" x2="352" y2="71.38" />
<rect x="347" y="71.38" width="1" height="5" />
</g>
<g style="fill: black; stroke: black;">
<rect x="338" y="140.33" width="18" height="1" />
</g>
<g style="fill: black; stroke: black;">
<line x1="367.5" y1="208.79" x2="377" y2="208.79" />
<line x1="367.5" y1="70.62" x2="377" y2="70.62" />
</g>
<g style="fill: black; stroke: black;">
<rect x="363" y="128.87" width="18" height="1" />
</g>
<g style="fill: black; stroke: black;">
<line x1="392.5" y1="233.53" x2="402" y2="233.53" />
<line x1="392.5" y1="65.41" x2="402" y2="65.41" />
<line x1="392.5" y1="27.71" x2="402" y2="27.71" />
<rect x="397" y="27.71" width="1" height="5" />
</g>
<g style="fill: black; stroke: black;">
<rect x="388" y="129.62" width="18" height="1" />
</g>
<g style="fill: black; stroke: black;">
<line x1="417.5" y1="234.86" x2="427" y2="234.86" />
<line x1="417.5" y1="52.75" x2="427" y2="52.75" />
<line x1="417.5" y1="51.1" x2="427" y2="51.1" />
<rect x="422" y="51.1" width="1" height="5" />
</g>
<g style="fill: black; stroke: black;">
<rect x="413" y="133.4" width="18" height="1" />
</g>
<g style="fill: black; stroke: black;">
<line x1="442.5" y1="158.26" x2="452" y2="158.26" />
<line x1="442.5" y1="79.03" x2="452" y2="79.03" />
</g>
<g style="fill: black; stroke: black;">
<rect x="438" y="117.04" width="18" height="1" />
</g>
<g style="fill: black; stroke: black;">
<line x1="467.5" y1="708.61" x2="477" y2="708.61" />
<line x1="467.5" y1="708.61" x2="477" y2="708.61" />
</g>
<g style="fill: black; stroke: black;">
<rect x="463" y="707.61" width="18" height="1" />
</g>
<g style="fill: black; stroke: black;">
<line x1="492.5" y1="160.2" x2="502" y2="160.2" />
<line x1="492.5" y1="-30.33" x2="502" y2="-30.33" />
<line x1="492.5" y1="-36.21" x2="502" y2="-36.21" />
<rect x="497" y="-36.21" width="1" height="5" />
</g>
<g style="fill: black; stroke: black;">
<rect x="488" y="68.09" width="18" height="1" />
</g>
<g style="text-anchor: end; font-family: Ubuntu,Verdana,sans-serif; font-size: 0.9em;" >
<text x="512" y="282" >01 Dec 2018 u64q</text>
<text x="58" y="282" style="text-anchor: start;" >benchmarks game</text>
</g>
<text x="16" y="144" transform="rotate(270,16,144)" style="text-anchor: middle; font-family: Ubuntu,Verdana,sans-serif; font-size: 0.9em;" >program CPU time / fastest CPU time</text>
<text x="285" y="18" style="text-anchor: middle; font-family: Ubuntu,Verdana,sans-serif; font-size: 1.2em;" >How many times slower?</text>
<g style="stroke: #333;">
<line x1="58" y1="24" x2="58" y2="264" />
<line x1="511" y1="24" x2="511" y2="264" />
<line x1="58" y1="264" x2="511" y2="264" />
</g>
</svg>

