<?xml version="1.0" encoding="UTF-8" standalone="no"?>
<!DOCTYPE svg PUBLIC "-//W3C//DTD SVG 1.1//EN" "http://www.w3.org/Graphics/SVG/1.1/DTD/svg11.dtd">
<svg xmlns="http://www.w3.org/2000/svg" version="1.1" xmlns:xlink="http://www.w3.org/1999/xlink" viewBox="0 0 512 288">

<!-- Copyright 2015-2021 Isaac Gouy -->
<!-- https://salsa.debian.org/benchmarksgame-team/benchmarksgame/blob/master/LICENSE.md -->

<g style="stroke: #ccc;" >
<line x1="51" y1="264" x2="461" y2="264" />
<line x1="51" y1="221.57" x2="461" y2="221.57" />
<line x1="51" y1="201.85" x2="461" y2="201.85" />
<line x1="51" y1="175.08" x2="461" y2="175.08" />
<line x1="51" y1="132.65" x2="461" y2="132.65" />
<line x1="51" y1="112.92" x2="461" y2="112.92" />
<line x1="51" y1="86.15" x2="461" y2="86.15" />
<line x1="51" y1="43.73" x2="461" y2="43.73" />
<line x1="51" y1="24" x2="461" y2="24" />
</g>
<g style="text-anchor: end; font-family: Ubuntu,Verdana,sans-serif; font-size: 0.9em;" >
<text x="51" y="262" >1</text>
<text x="51" y="219.57" >3</text>
<text x="51" y="199.85" >5</text>
<text x="51" y="173.08" >10</text>
<text x="51" y="130.65" >30</text>
<text x="51" y="110.92" >50</text>
<text x="51" y="84.15" >100</text>
<text x="51" y="41.73" >300</text>
<text x="51" y="22" ></text>
</g>
<defs>
<linearGradient id="grade" x1="0" y1="0" x2="0" y2="1">
<stop offset="0" style="stop-color: white" stop-opacity="0.6"/>
<stop offset="1" style="stop-color: white" stop-opacity="0.8"/>
</linearGradient>
<mask id="fade">
<rect x="58" y="24" width="452" height="288" fill="url(#grade)"  />
</mask>
<g id="backgroundText" style="text-anchor: end; font-family: Ubuntu,Verdana,sans-serif; font-size: 1em;">
<text x="22.5" y="0" transform="rotate(270,22.5,0)" xml:space="preserve">   Node js   Node js   Node js   Node js</text>
<text x="56.5" y="0" transform="rotate(270,56.5,0)" xml:space="preserve">   Swift   Swift   Swift   Swift   Swift</text>
<text x="90.5" y="0" transform="rotate(270,90.5,0)" xml:space="preserve">   Dart   Dart   Dart   Dart   Dart   Dart</text>
<text x="124.5" y="0" transform="rotate(270,124.5,0)" xml:space="preserve">   Racket   Racket   Racket   Racket   Racket</text>
<text x="158.5" y="0" transform="rotate(270,158.5,0)" xml:space="preserve">   PHP   PHP   PHP   PHP   PHP   PHP   PHP   PHP</text>
<text x="192.5" y="0" transform="rotate(270,192.5,0)" xml:space="preserve">   Erlang   Erlang   Erlang   Erlang   Erlang</text>
<text x="226.5" y="0" transform="rotate(270,226.5,0)" xml:space="preserve">   Python 3   Python 3   Python 3   Python 3</text>
<text x="260.5" y="0" transform="rotate(270,260.5,0)" xml:space="preserve">   Lua   Lua   Lua   Lua   Lua   Lua   Lua   Lua</text>
<text x="294.5" y="0" transform="rotate(270,294.5,0)" xml:space="preserve">   VW Smalltalk   VW Smalltalk   VW Smalltalk</text>
<text x="328.5" y="0" transform="rotate(270,328.5,0)" xml:space="preserve">   Ruby   Ruby   Ruby   Ruby   Ruby   Ruby</text>
<text x="362.5" y="0" transform="rotate(270,362.5,0)" xml:space="preserve">   Perl   Perl   Perl   Perl   Perl   Perl</text>
<text x="396.5" y="0" transform="rotate(270,396.5,0)" xml:space="preserve">   Matz's Ruby   Matz's Ruby   Matz's Ruby</text>
</g>
</defs>
<use x="60" y="27" xlink:href="#backgroundText"/>
<rect x="58" y="24" width="452" height="288" fill="white" mask="url(#fade)" />
<rect x="58" y="264" width="452" height="288" style="fill: white; stroke: white;" />
<g style="fill: black; stroke: black;">
<rect x="73" y="183.97" width="1" height="56.99" />
<rect x="107" y="152.54" width="1" height="102.93" />
<rect x="141" y="170.23" width="1" height="49.06" />
<rect x="175" y="157.42" width="1" height="87.01" />
<rect x="209" y="126.46" width="1" height="126.56" />
<rect x="243" y="93.37" width="1" height="125.23" />
<rect x="277" y="56.05" width="1" height="193.79" />
<rect x="311" y="87.83" width="1" height="162.75" />
<rect x="345" y="86.18" width="1" height="88.73" />
<rect x="379" y="66.19" width="1" height="128.63" />
<rect x="413" y="57.18" width="1" height="168.31" />
<rect x="447" y="-5.85" width="1" height="156.27" />
</g>
<g style="fill: white; stroke: black;">
<rect x="62" y="186.76" width="23" height="29.67" />
<rect x="96" y="180.74" width="23" height="48.76" />
<rect x="130" y="176.07" width="23" height="37.79" />
<rect x="164" y="172.86" width="23" height="18.61" />
<rect x="198" y="134.8" width="23" height="34.52" />
<rect x="232" y="115.8" width="23" height="28.73" />
<rect x="266" y="87.1" width="23" height="66.82" />
<rect x="300" y="98.47" width="23" height="30.92" />
<rect x="334" y="104.99" width="23" height="40.47" />
<rect x="368" y="96.44" width="23" height="60.71" />
<rect x="402" y="87.57" width="23" height="61.69" />
<rect x="436" y="-1.24" width="23" height="81.79" />
</g>
<g style="fill: black; stroke: black;">
<line x1="68.5" y1="240.96" x2="79" y2="240.96" />
<line x1="68.5" y1="183.97" x2="79" y2="183.97" />
</g>
<g style="fill: black; stroke: black;">
<rect x="63" y="205.77" width="21" height="1" />
</g>
<g style="fill: black; stroke: black;">
<line x1="102.5" y1="255.47" x2="113" y2="255.47" />
<line x1="102.5" y1="152.54" x2="113" y2="152.54" />
<line x1="102.5" y1="139.92" x2="113" y2="139.92" />
<rect x="107" y="139.92" width="1" height="5" />
</g>
<g style="fill: black; stroke: black;">
<rect x="97" y="211.8" width="21" height="1" />
</g>
<g style="fill: black; stroke: black;">
<line x1="136.5" y1="219.29" x2="147" y2="219.29" />
<line x1="136.5" y1="170.23" x2="147" y2="170.23" />
</g>
<g style="fill: black; stroke: black;">
<rect x="131" y="196.35" width="21" height="1" />
</g>
<g style="fill: black; stroke: black;">
<line x1="170.5" y1="244.43" x2="181" y2="244.43" />
<line x1="170.5" y1="157.42" x2="181" y2="157.42" />
</g>
<g style="fill: black; stroke: black;">
<rect x="165" y="175.18" width="21" height="1" />
</g>
<g style="fill: black; stroke: black;">
<line x1="204.5" y1="253.03" x2="215" y2="253.03" />
<line x1="204.5" y1="126.46" x2="215" y2="126.46" />
</g>
<g style="fill: black; stroke: black;">
<rect x="199" y="152.29" width="21" height="1" />
</g>
<g style="fill: black; stroke: black;">
<line x1="238.5" y1="218.61" x2="249" y2="218.61" />
<line x1="238.5" y1="93.37" x2="249" y2="93.37" />
<line x1="238.5" y1="42.12" x2="249" y2="42.12" />
<rect x="243" y="42.12" width="1" height="5" />
</g>
<g style="fill: black; stroke: black;">
<rect x="233" y="132.08" width="21" height="1" />
</g>
<g style="fill: black; stroke: black;">
<line x1="272.5" y1="249.84" x2="283" y2="249.84" />
<line x1="272.5" y1="56.05" x2="283" y2="56.05" />
<line x1="272.5" y1="44.84" x2="283" y2="44.84" />
<rect x="277" y="44.84" width="1" height="5" />
</g>
<g style="fill: black; stroke: black;">
<rect x="267" y="120.41" width="21" height="1" />
</g>
<g style="fill: black; stroke: black;">
<line x1="306.5" y1="250.58" x2="317" y2="250.58" />
<line x1="306.5" y1="87.83" x2="317" y2="87.83" />
</g>
<g style="fill: black; stroke: black;">
<rect x="301" y="119.67" width="21" height="1" />
</g>
<g style="fill: black; stroke: black;">
<line x1="340.5" y1="174.91" x2="351" y2="174.91" />
<line x1="340.5" y1="86.18" x2="351" y2="86.18" />
</g>
<g style="fill: black; stroke: black;">
<rect x="335" y="124.52" width="21" height="1" />
</g>
<g style="fill: black; stroke: black;">
<line x1="374.5" y1="194.82" x2="385" y2="194.82" />
<line x1="374.5" y1="66.19" x2="385" y2="66.19" />
<line x1="374.5" y1="56.8" x2="385" y2="56.8" />
<rect x="379" y="56.8" width="1" height="5" />
</g>
<g style="fill: black; stroke: black;">
<rect x="369" y="121.77" width="21" height="1" />
</g>
<g style="fill: black; stroke: black;">
<line x1="408.5" y1="225.49" x2="419" y2="225.49" />
<line x1="408.5" y1="57.18" x2="419" y2="57.18" />
<line x1="408.5" y1="13.25" x2="419" y2="13.25" />
<rect x="413" y="13.25" width="1" height="5" />
</g>
<g style="fill: black; stroke: black;">
<rect x="403" y="103.79" width="21" height="1" />
</g>
<g style="fill: black; stroke: black;">
<line x1="442.5" y1="150.42" x2="453" y2="150.42" />
<line x1="442.5" y1="-5.85" x2="453" y2="-5.85" />
</g>
<g style="fill: black; stroke: black;">
<rect x="437" y="37.86" width="21" height="1" />
</g>
<g style="text-anchor: end; font-family: Ubuntu,Verdana,sans-serif; font-size: 0.9em;" >
<text x="462" y="282" >01 Jun 2021 u64q</text>
<text x="58" y="282" style="text-anchor: start;" >benchmarks game</text>
</g>
<text x="16" y="144" transform="rotate(270,16,144)" style="text-anchor: middle; font-family: Ubuntu,Verdana,sans-serif; font-size: 0.9em;" >program busy time / least busy</text>
<text x="259.5" y="18" style="text-anchor: middle; font-family: Ubuntu,Verdana,sans-serif; font-size: 1.2em;" >How many times slower?</text>
<g style="stroke: #333;">
<line x1="58" y1="24" x2="58" y2="264" />
<line x1="461" y1="24" x2="461" y2="264" />
<line x1="58" y1="264" x2="461" y2="264" />
</g>
</svg>

