<?xml version="1.0" encoding="UTF-8" standalone="no"?>
<!DOCTYPE svg PUBLIC "-//W3C//DTD SVG 1.1//EN" "http://www.w3.org/Graphics/SVG/1.1/DTD/svg11.dtd">
<svg xmlns="http://www.w3.org/2000/svg" version="1.1" xmlns:xlink="http://www.w3.org/1999/xlink" viewBox="0 0 512 288">

<!-- Copyright 2015 Isaac Gouy -->
<!-- http://benchmarksgame.alioth.debian.org/license.html -->

<g style="stroke: #ccc;" >
<line x1="51" y1="264" x2="511" y2="264" />
<line x1="51" y1="221.57" x2="511" y2="221.57" />
<line x1="51" y1="201.85" x2="511" y2="201.85" />
<line x1="51" y1="175.08" x2="511" y2="175.08" />
<line x1="51" y1="132.65" x2="511" y2="132.65" />
<line x1="51" y1="112.92" x2="511" y2="112.92" />
<line x1="51" y1="86.15" x2="511" y2="86.15" />
<line x1="51" y1="43.73" x2="511" y2="43.73" />
<line x1="51" y1="24" x2="511" y2="24" />
</g>
<g style="text-anchor: end; font-family: Ubuntu,Verdana,sans-serif; font-size: 0.9em;" >
<text x="51" y="262" >1</text>
<text x="51" y="219.57" >3</text>
<text x="51" y="199.85" >5</text>
<text x="51" y="173.08" >10</text>
<text x="51" y="130.65" >30</text>
<text x="51" y="110.92" >50</text>
<text x="51" y="84.15" >100</text>
<text x="51" y="41.73" >300</text>
<text x="51" y="22" ></text>
</g>
<defs>
<linearGradient id="grade" x1="0" y1="0" x2="0" y2="1">
<stop offset="0" style="stop-color: white" stop-opacity="0.6"/>
<stop offset="1" style="stop-color: white" stop-opacity="0.8"/>
</linearGradient>
<mask id="fade">
<rect x="58" y="24" width="452" height="288" fill="url(#grade)"  />
</mask>
<g id="backgroundText" style="text-anchor: end; font-family: Ubuntu,Verdana,sans-serif; font-size: 1em;">
<text x="17.5" y="0" transform="rotate(270,17.5,0)" xml:space="preserve">   C++ g++   C++ g++   C++ g++   C++ g++   C++ g++   C++ g++</text>
<text x="45.5" y="0" transform="rotate(270,45.5,0)" xml:space="preserve">   C gcc   C gcc   C gcc   C gcc   C gcc   C gcc   C gcc</text>
<text x="73.5" y="0" transform="rotate(270,73.5,0)" xml:space="preserve">Rust   Rust   Rust   Rust   Rust   Rust   Rust   Rust   Rust</text>
<br />
<b>Warning</b>:  Division by zero in <b>/home/dunham/8000-benchmarksgame/website/lib/lib_chartSVG.php</b> on line <b>289</b><br />
<br />
<b>Warning</b>:  str_repeat() expects parameter 2 to be int, float given in <b>/home/dunham/8000-benchmarksgame/website/lib/lib_chartSVG.php</b> on line <b>290</b><br />
<text x="101.5" y="0" transform="rotate(270,101.5,0)" xml:space="preserve"></text>
<text x="129.5" y="0" transform="rotate(270,129.5,0)" xml:space="preserve">da 2012 GNAT   Ada 2012 GNAT   Ada 2012 GNAT   Ada 2012 GNAT</text>
<text x="157.5" y="0" transform="rotate(270,157.5,0)" xml:space="preserve">ortran Intel   Fortran Intel   Fortran Intel   Fortran Intel</text>
<text x="185.5" y="0" transform="rotate(270,185.5,0)" xml:space="preserve">   C# .NET Core   C# .NET Core   C# .NET Core   C# .NET Core</text>
<text x="213.5" y="0" transform="rotate(270,213.5,0)" xml:space="preserve">   Julia   Julia   Julia   Julia   Julia   Julia   Julia</text>
<text x="241.5" y="0" transform="rotate(270,241.5,0)" xml:space="preserve">Java   Java   Java   Java   Java   Java   Java   Java   Java</text>
<text x="269.5" y="0" transform="rotate(270,269.5,0)" xml:space="preserve">   Free Pascal   Free Pascal   Free Pascal   Free Pascal</text>
<text x="297.5" y="0" transform="rotate(270,297.5,0)" xml:space="preserve">   F# .NET Core   F# .NET Core   F# .NET Core   F# .NET Core</text>
<text x="325.5" y="0" transform="rotate(270,325.5,0)" xml:space="preserve">   Swift   Swift   Swift   Swift   Swift   Swift   Swift</text>
<text x="353.5" y="0" transform="rotate(270,353.5,0)" xml:space="preserve">   Chapel   Chapel   Chapel   Chapel   Chapel   Chapel</text>
<text x="381.5" y="0" transform="rotate(270,381.5,0)" xml:space="preserve">   OCaml   OCaml   OCaml   OCaml   OCaml   OCaml   OCaml</text>
<text x="409.5" y="0" transform="rotate(270,409.5,0)" xml:space="preserve">   Go   Go   Go   Go   Go   Go   Go   Go   Go   Go   Go   Go</text>
<text x="437.5" y="0" transform="rotate(270,437.5,0)" xml:space="preserve">   Haskell GHC   Haskell GHC   Haskell GHC   Haskell GHC</text>
</g>
</defs>
<use x="60" y="27" xlink:href="#backgroundText"/>
<rect x="58" y="24" width="452" height="288" fill="white" mask="url(#fade)" />
<rect x="58" y="264" width="452" height="288" style="fill: white; stroke: white;" />
<g style="fill: black; stroke: black;">
<rect x="72" y="253.89" width="1" height="10.11" />
<rect x="100" y="249.52" width="1" height="14.48" />
<rect x="128" y="240.39" width="1" height="23.61" />
<rect x="156" y="708.61" width="1" height="0" />
<rect x="184" y="211.05" width="1" height="52.86" />
<rect x="212" y="182.09" width="1" height="81.91" />
<rect x="240" y="197.13" width="1" height="55.73" />
<rect x="268" y="193.58" width="1" height="53" />
<rect x="296" y="194.14" width="1" height="60.45" />
<rect x="324" y="191.14" width="1" height="72.86" />
<rect x="352" y="200.18" width="1" height="58.21" />
<rect x="380" y="185.98" width="1" height="75.36" />
<rect x="408" y="196.18" width="1" height="67.82" />
<rect x="436" y="191.16" width="1" height="49.56" />
<rect x="464" y="192.04" width="1" height="61.67" />
<rect x="492" y="175.52" width="1" height="80.46" />
</g>
<g style="fill: white; stroke: black;">
<rect x="62" y="255.45" width="21" height="8.55" />
<rect x="90" y="256.37" width="21" height="5.35" />
<rect x="118" y="252.69" width="21" height="11.12" />
<rect x="146" y="708.61" width="21" height="0" />
<rect x="174" y="219.77" width="21" height="35.65" />
<rect x="202" y="208.02" width="21" height="55.83" />
<rect x="230" y="214.72" width="21" height="32.37" />
<rect x="258" y="215.75" width="21" height="28.09" />
<rect x="286" y="214.27" width="21" height="23.52" />
<rect x="314" y="213.9" width="21" height="29.6" />
<rect x="342" y="213.16" width="21" height="26.11" />
<rect x="370" y="210.98" width="21" height="36.07" />
<rect x="398" y="207.67" width="21" height="29.32" />
<rect x="426" y="211.63" width="21" height="24.22" />
<rect x="454" y="212.68" width="21" height="24.59" />
<rect x="482" y="198.87" width="21" height="31.18" />
</g>
<g style="fill: black; stroke: black;">
<line x1="68" y1="264" x2="77.5" y2="264" />
<line x1="68" y1="253.89" x2="77.5" y2="253.89" />
</g>
<g style="fill: black; stroke: black;">
<rect x="63" y="259.45" width="19" height="1" />
</g>
<g style="fill: black; stroke: black;">
<line x1="96" y1="264" x2="105.5" y2="264" />
<line x1="96" y1="249.52" x2="105.5" y2="249.52" />
<line x1="96" y1="233.29" x2="105.5" y2="233.29" />
<rect x="100" y="233.29" width="1" height="5" />
</g>
<g style="fill: black; stroke: black;">
<rect x="91" y="258.78" width="19" height="1" />
</g>
<g style="fill: black; stroke: black;">
<line x1="124" y1="264" x2="133.5" y2="264" />
<line x1="124" y1="240.39" x2="133.5" y2="240.39" />
<line x1="124" y1="229.44" x2="133.5" y2="229.44" />
<rect x="128" y="229.44" width="1" height="5" />
</g>
<g style="fill: black; stroke: black;">
<rect x="119" y="260.43" width="19" height="1" />
</g>
<g style="fill: black; stroke: black;">
<line x1="152" y1="708.61" x2="161.5" y2="708.61" />
<line x1="152" y1="708.61" x2="161.5" y2="708.61" />
</g>
<g style="fill: black; stroke: black;">
<rect x="147" y="707.61" width="19" height="1" />
</g>
<g style="fill: black; stroke: black;">
<line x1="180" y1="263.91" x2="189.5" y2="263.91" />
<line x1="180" y1="211.05" x2="189.5" y2="211.05" />
</g>
<g style="fill: black; stroke: black;">
<rect x="175" y="244.69" width="19" height="1" />
</g>
<g style="fill: black; stroke: black;">
<line x1="208" y1="264" x2="217.5" y2="264" />
<line x1="208" y1="182.09" x2="217.5" y2="182.09" />
</g>
<g style="fill: black; stroke: black;">
<rect x="203" y="243.64" width="19" height="1" />
</g>
<g style="fill: black; stroke: black;">
<line x1="236" y1="252.86" x2="245.5" y2="252.86" />
<line x1="236" y1="197.13" x2="245.5" y2="197.13" />
</g>
<g style="fill: black; stroke: black;">
<rect x="231" y="235.66" width="19" height="1" />
</g>
<g style="fill: black; stroke: black;">
<line x1="264" y1="246.59" x2="273.5" y2="246.59" />
<line x1="264" y1="193.58" x2="273.5" y2="193.58" />
<line x1="264" y1="191.92" x2="273.5" y2="191.92" />
<rect x="268" y="191.92" width="1" height="5" />
</g>
<g style="fill: black; stroke: black;">
<rect x="259" y="234.15" width="19" height="1" />
</g>
<g style="fill: black; stroke: black;">
<line x1="292" y1="254.58" x2="301.5" y2="254.58" />
<line x1="292" y1="194.14" x2="301.5" y2="194.14" />
<line x1="292" y1="194.06" x2="301.5" y2="194.06" />
<rect x="296" y="194.06" width="1" height="5" />
</g>
<g style="fill: black; stroke: black;">
<rect x="287" y="232.78" width="19" height="1" />
</g>
<g style="fill: black; stroke: black;">
<line x1="320" y1="264" x2="329.5" y2="264" />
<line x1="320" y1="191.14" x2="329.5" y2="191.14" />
<line x1="320" y1="189.71" x2="329.5" y2="189.71" />
<rect x="324" y="189.71" width="1" height="5" />
</g>
<g style="fill: black; stroke: black;">
<rect x="315" y="223.63" width="19" height="1" />
</g>
<g style="fill: black; stroke: black;">
<line x1="348" y1="258.39" x2="357.5" y2="258.39" />
<line x1="348" y1="200.18" x2="357.5" y2="200.18" />
</g>
<g style="fill: black; stroke: black;">
<rect x="343" y="228.65" width="19" height="1" />
</g>
<g style="fill: black; stroke: black;">
<line x1="376" y1="261.34" x2="385.5" y2="261.34" />
<line x1="376" y1="185.98" x2="385.5" y2="185.98" />
<line x1="376" y1="165.27" x2="385.5" y2="165.27" />
<rect x="380" y="165.27" width="1" height="5" />
</g>
<g style="fill: black; stroke: black;">
<rect x="371" y="233.99" width="19" height="1" />
</g>
<g style="fill: black; stroke: black;">
<line x1="404" y1="264" x2="413.5" y2="264" />
<line x1="404" y1="196.18" x2="413.5" y2="196.18" />
</g>
<g style="fill: black; stroke: black;">
<rect x="399" y="212.26" width="19" height="1" />
</g>
<g style="fill: black; stroke: black;">
<line x1="432" y1="240.72" x2="441.5" y2="240.72" />
<line x1="432" y1="191.16" x2="441.5" y2="191.16" />
<line x1="432" y1="178.2" x2="441.5" y2="178.2" />
<rect x="436" y="178.2" width="1" height="5" />
</g>
<g style="fill: black; stroke: black;">
<rect x="427" y="227.11" width="19" height="1" />
</g>
<g style="fill: black; stroke: black;">
<line x1="460" y1="253.71" x2="469.5" y2="253.71" />
<line x1="460" y1="192.04" x2="469.5" y2="192.04" />
<line x1="460" y1="148.48" x2="469.5" y2="148.48" />
<rect x="464" y="148.48" width="1" height="5" />
</g>
<g style="fill: black; stroke: black;">
<rect x="455" y="214.61" width="19" height="1" />
</g>
<g style="fill: black; stroke: black;">
<line x1="488" y1="255.98" x2="497.5" y2="255.98" />
<line x1="488" y1="175.52" x2="497.5" y2="175.52" />
<line x1="488" y1="172.49" x2="497.5" y2="172.49" />
<rect x="492" y="172.49" width="1" height="5" />
</g>
<g style="fill: black; stroke: black;">
<rect x="483" y="215.58" width="19" height="1" />
</g>
<g style="text-anchor: end; font-family: Ubuntu,Verdana,sans-serif; font-size: 0.9em;" >
<text x="512" y="282" >01 Nov 2019 u64q</text>
<text x="58" y="282" style="text-anchor: start;" >benchmarks game</text>
</g>
<text x="16" y="144" transform="rotate(270,16,144)" style="text-anchor: middle; font-family: Ubuntu,Verdana,sans-serif; font-size: 0.9em;" >program busy time / least busy</text>
<text x="285" y="18" style="text-anchor: middle; font-family: Ubuntu,Verdana,sans-serif; font-size: 1.2em;" >How many times slower?</text>
<g style="stroke: #333;">
<line x1="58" y1="24" x2="58" y2="264" />
<line x1="511" y1="24" x2="511" y2="264" />
<line x1="58" y1="264" x2="511" y2="264" />
</g>
</svg>

