<?xml version="1.0" encoding="UTF-8" standalone="no"?>
<!DOCTYPE svg PUBLIC "-//W3C//DTD SVG 1.1//EN" "http://www.w3.org/Graphics/SVG/1.1/DTD/svg11.dtd">
<svg xmlns="http://www.w3.org/2000/svg" version="1.1" xmlns:xlink="http://www.w3.org/1999/xlink" viewBox="0 0 512 288">

<!-- Copyright 2015-2021 Isaac Gouy -->

<!-- Box plot chart showing benchmark program performance grouped by implementation language -->

<!-- The Computer Language Benchmarks Game -->
<!-- https://benchmarksgame-team.pages.debian.net/benchmarksgame/license.html -->

<g style="stroke: #ccc;" >
<line x1="51" y1="264" x2="461" y2="264" />
<line x1="51" y1="221.57" x2="461" y2="221.57" />
<line x1="51" y1="201.85" x2="461" y2="201.85" />
<line x1="51" y1="175.08" x2="461" y2="175.08" />
<line x1="51" y1="132.65" x2="461" y2="132.65" />
<line x1="51" y1="112.92" x2="461" y2="112.92" />
<line x1="51" y1="86.15" x2="461" y2="86.15" />
<line x1="51" y1="43.73" x2="461" y2="43.73" />
<line x1="51" y1="24" x2="461" y2="24" />
</g>
<g style="text-anchor: end; font-family: Ubuntu,Verdana,sans-serif; font-size: 0.9em;" >
<text x="51" y="262" >1</text>
<text x="51" y="219.57" >3</text>
<text x="51" y="199.85" >5</text>
<text x="51" y="173.08" >10</text>
<text x="51" y="130.65" >30</text>
<text x="51" y="110.92" >50</text>
<text x="51" y="84.15" >100</text>
<text x="51" y="41.73" >300</text>
<text x="51" y="22" ></text>
</g>
<defs>
<linearGradient id="grade" x1="0" y1="0" x2="0" y2="1">
<stop offset="0" style="stop-color: white" stop-opacity="0.6"/>
<stop offset="1" style="stop-color: white" stop-opacity="0.8"/>
</linearGradient>
<mask id="fade">
<rect x="58" y="24" width="452" height="288" fill="url(#grade)"  />
</mask>
<g id="backgroundText" style="text-anchor: end; font-family: Ubuntu,Verdana,sans-serif; font-size: 1em;">
<text x="16" y="0" transform="rotate(270,16,0)" xml:space="preserve">   Go   Go   Go   Go   Go   Go   Go   Go   Go   Go</text>
<text x="43" y="0" transform="rotate(270,43,0)" xml:space="preserve">   Chapel   Chapel   Chapel   Chapel   Chapel</text>
<text x="70" y="0" transform="rotate(270,70,0)" xml:space="preserve">   Lisp SBCL   Lisp SBCL   Lisp SBCL</text>
<text x="97" y="0" transform="rotate(270,97,0)" xml:space="preserve">   Swift   Swift   Swift   Swift   Swift</text>
<text x="124" y="0" transform="rotate(270,124,0)" xml:space="preserve">   Node js   Node js   Node js   Node js</text>
<text x="151" y="0" transform="rotate(270,151,0)" xml:space="preserve">   Dart   Dart   Dart   Dart   Dart   Dart</text>
<text x="178" y="0" transform="rotate(270,178,0)" xml:space="preserve">   Racket   Racket   Racket   Racket   Racket</text>
<text x="205" y="0" transform="rotate(270,205,0)" xml:space="preserve">   PHP   PHP   PHP   PHP   PHP   PHP   PHP   PHP</text>
<text x="232" y="0" transform="rotate(270,232,0)" xml:space="preserve">   Erlang   Erlang   Erlang   Erlang   Erlang</text>
<text x="259" y="0" transform="rotate(270,259,0)" xml:space="preserve">   Python 3   Python 3   Python 3   Python 3</text>
<text x="286" y="0" transform="rotate(270,286,0)" xml:space="preserve">   Lua   Lua   Lua   Lua   Lua   Lua   Lua   Lua</text>
<text x="313" y="0" transform="rotate(270,313,0)" xml:space="preserve">   VW Smalltalk   VW Smalltalk   VW Smalltalk</text>
<text x="340" y="0" transform="rotate(270,340,0)" xml:space="preserve">   Ruby   Ruby   Ruby   Ruby   Ruby   Ruby</text>
<text x="367" y="0" transform="rotate(270,367,0)" xml:space="preserve">   Perl   Perl   Perl   Perl   Perl   Perl</text>
<text x="394" y="0" transform="rotate(270,394,0)" xml:space="preserve">   Matz's Ruby   Matz's Ruby   Matz's Ruby</text>
</g>
</defs>
<use x="60" y="27" xlink:href="#backgroundText"/>
<rect x="58" y="24" width="452" height="288" fill="white" mask="url(#fade)" />
<rect x="58" y="264" width="452" height="288" style="fill: white; stroke: white;" />
<g style="fill: black; stroke: black;">
<rect x="72" y="184.94" width="1" height="66.02" />
<rect x="99" y="186.38" width="1" height="74.54" />
<rect x="126" y="182.86" width="1" height="52.61" />
<rect x="153" y="151.26" width="1" height="104.44" />
<rect x="180" y="180.4" width="1" height="60.3" />
<rect x="207" y="149.8" width="1" height="70.01" />
<rect x="234" y="154.91" width="1" height="89.76" />
<rect x="261" y="126" width="1" height="127.57" />
<rect x="288" y="92.74" width="1" height="122.24" />
<rect x="315" y="56.31" width="1" height="193.99" />
<rect x="342" y="87.37" width="1" height="163.67" />
<rect x="369" y="85.98" width="1" height="85.29" />
<rect x="396" y="66.74" width="1" height="129.89" />
<rect x="423" y="57.2" width="1" height="168.83" />
<rect x="450" y="-5.89" width="1" height="156.77" />
</g>
<g style="fill: white; stroke: black;">
<rect x="62" y="202.75" width="22" height="19.14" />
<rect x="89" y="190.58" width="22" height="32.79" />
<rect x="116" y="202.19" width="22" height="21.91" />
<rect x="143" y="179.57" width="22" height="49.31" />
<rect x="170" y="185.83" width="22" height="30.37" />
<rect x="197" y="176.08" width="22" height="40.53" />
<rect x="224" y="169.86" width="22" height="20.86" />
<rect x="251" y="134.6" width="22" height="34.3" />
<rect x="278" y="115.33" width="22" height="29.16" />
<rect x="305" y="87.06" width="22" height="64.48" />
<rect x="332" y="98.27" width="22" height="30.58" />
<rect x="359" y="104.55" width="22" height="41.04" />
<rect x="386" y="96.44" width="22" height="57.07" />
<rect x="413" y="87.54" width="22" height="61.31" />
<rect x="440" y="-1.49" width="22" height="79.45" />
</g>
<g style="fill: black; stroke: black;">
<line x1="68.5" y1="250.96" x2="78" y2="250.96" />
<line x1="68.5" y1="184.94" x2="78" y2="184.94" />
<line x1="68.5" y1="180.29" x2="78" y2="180.29" />
<rect x="72" y="180.29" width="1" height="5" />
</g>
<g style="fill: black; stroke: black;">
<rect x="63" y="213.49" width="20" height="1" />
</g>
<g style="fill: black; stroke: black;">
<line x1="95.5" y1="260.92" x2="105" y2="260.92" />
<line x1="95.5" y1="186.38" x2="105" y2="186.38" />
</g>
<g style="fill: black; stroke: black;">
<rect x="90" y="210.55" width="20" height="1" />
</g>
<g style="fill: black; stroke: black;">
<line x1="122.5" y1="235.47" x2="132" y2="235.47" />
<line x1="122.5" y1="182.86" x2="132" y2="182.86" />
<line x1="122.5" y1="154" x2="132" y2="154" />
<rect x="126" y="154" width="1" height="5" />
</g>
<g style="fill: black; stroke: black;">
<rect x="117" y="213.06" width="20" height="1" />
</g>
<g style="fill: black; stroke: black;">
<line x1="149.5" y1="255.71" x2="159" y2="255.71" />
<line x1="149.5" y1="151.26" x2="159" y2="151.26" />
<line x1="149.5" y1="140.74" x2="159" y2="140.74" />
<rect x="153" y="140.74" width="1" height="5" />
</g>
<g style="fill: black; stroke: black;">
<rect x="144" y="210.42" width="20" height="1" />
</g>
<g style="fill: black; stroke: black;">
<line x1="176.5" y1="240.7" x2="186" y2="240.7" />
<line x1="176.5" y1="180.4" x2="186" y2="180.4" />
</g>
<g style="fill: black; stroke: black;">
<rect x="171" y="205.48" width="20" height="1" />
</g>
<g style="fill: black; stroke: black;">
<line x1="203.5" y1="219.81" x2="213" y2="219.81" />
<line x1="203.5" y1="149.8" x2="213" y2="149.8" />
<line x1="203.5" y1="143.58" x2="213" y2="143.58" />
<rect x="207" y="143.58" width="1" height="5" />
</g>
<g style="fill: black; stroke: black;">
<rect x="198" y="191.79" width="20" height="1" />
</g>
<g style="fill: black; stroke: black;">
<line x1="230.5" y1="244.67" x2="240" y2="244.67" />
<line x1="230.5" y1="154.91" x2="240" y2="154.91" />
</g>
<g style="fill: black; stroke: black;">
<rect x="225" y="174.67" width="20" height="1" />
</g>
<g style="fill: black; stroke: black;">
<line x1="257.5" y1="253.56" x2="267" y2="253.56" />
<line x1="257.5" y1="126" x2="267" y2="126" />
</g>
<g style="fill: black; stroke: black;">
<rect x="252" y="149.92" width="20" height="1" />
</g>
<g style="fill: black; stroke: black;">
<line x1="284.5" y1="214.98" x2="294" y2="214.98" />
<line x1="284.5" y1="92.74" x2="294" y2="92.74" />
<line x1="284.5" y1="39.74" x2="294" y2="39.74" />
<rect x="288" y="39.74" width="1" height="5" />
</g>
<g style="fill: black; stroke: black;">
<rect x="279" y="132.32" width="20" height="1" />
</g>
<g style="fill: black; stroke: black;">
<line x1="311.5" y1="250.3" x2="321" y2="250.3" />
<line x1="311.5" y1="56.31" x2="321" y2="56.31" />
<line x1="311.5" y1="44.84" x2="321" y2="44.84" />
<rect x="315" y="44.84" width="1" height="5" />
</g>
<g style="fill: black; stroke: black;">
<rect x="306" y="116.78" width="20" height="1" />
</g>
<g style="fill: black; stroke: black;">
<line x1="338.5" y1="251.04" x2="348" y2="251.04" />
<line x1="338.5" y1="87.37" x2="348" y2="87.37" />
</g>
<g style="fill: black; stroke: black;">
<rect x="333" y="116.89" width="20" height="1" />
</g>
<g style="fill: black; stroke: black;">
<line x1="365.5" y1="171.28" x2="375" y2="171.28" />
<line x1="365.5" y1="85.98" x2="375" y2="85.98" />
</g>
<g style="fill: black; stroke: black;">
<rect x="360" y="124.22" width="20" height="1" />
</g>
<g style="fill: black; stroke: black;">
<line x1="392.5" y1="196.63" x2="402" y2="196.63" />
<line x1="392.5" y1="66.74" x2="402" y2="66.74" />
<line x1="392.5" y1="56.6" x2="402" y2="56.6" />
<rect x="396" y="56.6" width="1" height="5" />
</g>
<g style="fill: black; stroke: black;">
<rect x="387" y="121.29" width="20" height="1" />
</g>
<g style="fill: black; stroke: black;">
<line x1="419.5" y1="226.03" x2="429" y2="226.03" />
<line x1="419.5" y1="57.2" x2="429" y2="57.2" />
<line x1="419.5" y1="13.05" x2="429" y2="13.05" />
<rect x="423" y="13.05" width="1" height="5" />
</g>
<g style="fill: black; stroke: black;">
<rect x="414" y="103.79" width="20" height="1" />
</g>
<g style="fill: black; stroke: black;">
<line x1="446.5" y1="150.88" x2="456" y2="150.88" />
<line x1="446.5" y1="-5.89" x2="456" y2="-5.89" />
</g>
<g style="fill: black; stroke: black;">
<rect x="441" y="33.59" width="20" height="1" />
</g>
<g style="text-anchor: end; font-family: Ubuntu,Verdana,sans-serif; font-size: 0.9em;" >
<text x="462" y="282" >14 Sep 2021 u64q</text>
<text x="58" y="282" style="text-anchor: start;" >benchmarks game</text>
</g>
<text x="16" y="144" transform="rotate(270,16,144)" style="text-anchor: middle; font-family: Ubuntu,Verdana,sans-serif; font-size: 0.9em;" >program busy time / least busy</text>
<rect x="58" y="0" width="452" height="23" style="fill: white; stroke: white;" />
<text x="259.5" y="18" style="text-anchor: middle; font-family: Ubuntu,Verdana,sans-serif; font-size: 1.2em;" >How many times slower?</text>
<g style="stroke: #333;">
<line x1="58" y1="24" x2="58" y2="264" />
<line x1="461" y1="24" x2="461" y2="264" />
<line x1="58" y1="264" x2="461" y2="264" />
</g>
</svg>

