<?xml version="1.0" encoding="UTF-8" standalone="no"?>
<!DOCTYPE svg PUBLIC "-//W3C//DTD SVG 1.1//EN" "http://www.w3.org/Graphics/SVG/1.1/DTD/svg11.dtd">
<svg xmlns="http://www.w3.org/2000/svg" version="1.1" xmlns:xlink="http://www.w3.org/1999/xlink" viewBox="0 0 512 288">

<!-- Copyright 2015 Isaac Gouy -->
<!-- http://benchmarksgame.alioth.debian.org/license.html -->

<g style="stroke: #ccc;" >
<line x1="51" y1="264" x2="511" y2="264" />
<line x1="51" y1="221.57" x2="511" y2="221.57" />
<line x1="51" y1="201.85" x2="511" y2="201.85" />
<line x1="51" y1="175.08" x2="511" y2="175.08" />
<line x1="51" y1="132.65" x2="511" y2="132.65" />
<line x1="51" y1="112.92" x2="511" y2="112.92" />
<line x1="51" y1="86.15" x2="511" y2="86.15" />
<line x1="51" y1="43.73" x2="511" y2="43.73" />
<line x1="51" y1="24" x2="511" y2="24" />
</g>
<g style="text-anchor: end; font-family: Ubuntu,Verdana,sans-serif; font-size: 0.9em;" >
<text x="51" y="262" >1</text>
<text x="51" y="219.57" >3</text>
<text x="51" y="199.85" >5</text>
<text x="51" y="173.08" >10</text>
<text x="51" y="130.65" >30</text>
<text x="51" y="110.92" >50</text>
<text x="51" y="84.15" >100</text>
<text x="51" y="41.73" >300</text>
<text x="51" y="22" ></text>
</g>
<defs>
<linearGradient id="grade" x1="0" y1="0" x2="0" y2="1">
<stop offset="0" style="stop-color: white" stop-opacity="0.6"/>
<stop offset="1" style="stop-color: white" stop-opacity="0.8"/>
</linearGradient>
<mask id="fade">
<rect x="58" y="24" width="452" height="288" fill="url(#grade)"  />
</mask>
<g id="backgroundText" style="text-anchor: end; font-family: Ubuntu,Verdana,sans-serif; font-size: 1em;">
<text x="14" y="0" transform="rotate(270,14,0)" xml:space="preserve">   Haskell GHC   Haskell GHC   Haskell GHC   Haskell GHC</text>
<text x="37" y="0" transform="rotate(270,37,0)" xml:space="preserve">Dart   Dart   Dart   Dart   Dart   Dart   Dart   Dart   Dart</text>
<text x="60" y="0" transform="rotate(270,60,0)" xml:space="preserve">   Julia   Julia   Julia   Julia   Julia   Julia   Julia</text>
<text x="83" y="0" transform="rotate(270,83,0)" xml:space="preserve">   Node js   Node js   Node js   Node js   Node js   Node js</text>
<text x="106" y="0" transform="rotate(270,106,0)" xml:space="preserve">   TypeScript   TypeScript   TypeScript   TypeScript</text>
<br />
<b>Warning</b>:  Division by zero in <b>/home/dunham/8000-benchmarksgame/website/lib/lib_chartSVG.php</b> on line <b>289</b><br />
<br />
<b>Warning</b>:  str_repeat() expects parameter 2 to be int, float given in <b>/home/dunham/8000-benchmarksgame/website/lib/lib_chartSVG.php</b> on line <b>290</b><br />
<text x="129" y="0" transform="rotate(270,129,0)" xml:space="preserve"></text>
<text x="152" y="0" transform="rotate(270,152,0)" xml:space="preserve">   Racket   Racket   Racket   Racket   Racket   Racket</text>
<br />
<b>Warning</b>:  Division by zero in <b>/home/dunham/8000-benchmarksgame/website/lib/lib_chartSVG.php</b> on line <b>289</b><br />
<br />
<b>Warning</b>:  str_repeat() expects parameter 2 to be int, float given in <b>/home/dunham/8000-benchmarksgame/website/lib/lib_chartSVG.php</b> on line <b>290</b><br />
<text x="175" y="0" transform="rotate(270,175,0)" xml:space="preserve"></text>
<text x="198" y="0" transform="rotate(270,198,0)" xml:space="preserve">   PHP   PHP   PHP   PHP   PHP   PHP   PHP   PHP   PHP   PHP</text>
<br />
<b>Warning</b>:  Division by zero in <b>/home/dunham/8000-benchmarksgame/website/lib/lib_chartSVG.php</b> on line <b>289</b><br />
<br />
<b>Warning</b>:  str_repeat() expects parameter 2 to be int, float given in <b>/home/dunham/8000-benchmarksgame/website/lib/lib_chartSVG.php</b> on line <b>290</b><br />
<text x="221" y="0" transform="rotate(270,221,0)" xml:space="preserve"></text>
<text x="244" y="0" transform="rotate(270,244,0)" xml:space="preserve">   Erlang HiPE   Erlang HiPE   Erlang HiPE   Erlang HiPE</text>
<text x="267" y="0" transform="rotate(270,267,0)" xml:space="preserve">   VW Smalltalk   VW Smalltalk   VW Smalltalk   VW Smalltalk</text>
<text x="290" y="0" transform="rotate(270,290,0)" xml:space="preserve">   Truffle Ruby   Truffle Ruby   Truffle Ruby   Truffle Ruby</text>
<text x="313" y="0" transform="rotate(270,313,0)" xml:space="preserve">Perl   Perl   Perl   Perl   Perl   Perl   Perl   Perl   Perl</text>
<text x="336" y="0" transform="rotate(270,336,0)" xml:space="preserve">Ruby   Ruby   Ruby   Ruby   Ruby   Ruby   Ruby   Ruby   Ruby</text>
<text x="359" y="0" transform="rotate(270,359,0)" xml:space="preserve">   Python 3   Python 3   Python 3   Python 3   Python 3</text>
<text x="382" y="0" transform="rotate(270,382,0)" xml:space="preserve">   Lua   Lua   Lua   Lua   Lua   Lua   Lua   Lua   Lua   Lua</text>
<br />
<b>Warning</b>:  Division by zero in <b>/home/dunham/8000-benchmarksgame/website/lib/lib_chartSVG.php</b> on line <b>289</b><br />
<br />
<b>Warning</b>:  str_repeat() expects parameter 2 to be int, float given in <b>/home/dunham/8000-benchmarksgame/website/lib/lib_chartSVG.php</b> on line <b>290</b><br />
<text x="405" y="0" transform="rotate(270,405,0)" xml:space="preserve"></text>
<text x="428" y="0" transform="rotate(270,428,0)" xml:space="preserve">   Matz's Ruby   Matz's Ruby   Matz's Ruby   Matz's Ruby</text>
</g>
</defs>
<use x="60" y="27" xlink:href="#backgroundText"/>
<rect x="58" y="24" width="452" height="288" fill="white" mask="url(#fade)" />
<rect x="58" y="264" width="452" height="288" style="fill: white; stroke: white;" />
<g style="fill: black; stroke: black;">
<rect x="71" y="160.27" width="1" height="63.18" />
<rect x="94" y="176.86" width="1" height="45.64" />
<rect x="117" y="150.08" width="1" height="89.69" />
<rect x="140" y="168.36" width="1" height="56.25" />
<rect x="163" y="173.76" width="1" height="47.18" />
<rect x="186" y="708.61" width="1" height="0" />
<rect x="209" y="143.69" width="1" height="102.03" />
<rect x="232" y="708.61" width="1" height="0" />
<rect x="255" y="95.72" width="1" height="168.28" />
<rect x="278" y="708.61" width="1" height="0" />
<rect x="301" y="100.86" width="1" height="131.36" />
<rect x="324" y="109.69" width="1" height="77.67" />
<rect x="347" y="100.59" width="1" height="90.6" />
<rect x="370" y="65.44" width="1" height="168.28" />
<rect x="393" y="71.17" width="1" height="140.19" />
<rect x="416" y="51.02" width="1" height="185.65" />
<rect x="439" y="79.21" width="1" height="79.04" />
<rect x="462" y="708.61" width="1" height="0" />
<rect x="485" y="-30.33" width="1" height="190.53" />
</g>
<g style="fill: white; stroke: black;">
<rect x="62" y="185" width="18" height="35.23" />
<rect x="85" y="187.51" width="18" height="20.72" />
<rect x="108" y="177.57" width="18" height="45.43" />
<rect x="131" y="178.91" width="18" height="26.13" />
<rect x="154" y="187.35" width="18" height="12.76" />
<rect x="177" y="708.61" width="18" height="0" />
<rect x="200" y="166.43" width="18" height="33.26" />
<rect x="223" y="708.61" width="18" height="0" />
<rect x="246" y="106.93" width="18" height="88.94" />
<rect x="269" y="708.61" width="18" height="0" />
<rect x="292" y="128.01" width="18" height="43.99" />
<rect x="315" y="126.15" width="18" height="44.7" />
<rect x="338" y="127.11" width="18" height="41.43" />
<rect x="361" y="96.2" width="18" height="64.51" />
<rect x="384" y="96.85" width="18" height="66.52" />
<rect x="407" y="72.24" width="18" height="92.16" />
<rect x="430" y="97.82" width="18" height="47.14" />
<rect x="453" y="708.61" width="18" height="0" />
<rect x="476" y="2.92" width="18" height="93.09" />
</g>
<g style="fill: black; stroke: black;">
<line x1="67" y1="223.45" x2="75.5" y2="223.45" />
<line x1="67" y1="160.27" x2="75.5" y2="160.27" />
<line x1="67" y1="158.94" x2="75.5" y2="158.94" />
<rect x="71" y="158.94" width="1" height="5" />
</g>
<g style="fill: black; stroke: black;">
<rect x="63" y="202.94" width="16" height="1" />
</g>
<g style="fill: black; stroke: black;">
<line x1="90" y1="222.5" x2="98.5" y2="222.5" />
<line x1="90" y1="176.86" x2="98.5" y2="176.86" />
</g>
<g style="fill: black; stroke: black;">
<rect x="86" y="197.61" width="16" height="1" />
</g>
<g style="fill: black; stroke: black;">
<line x1="113" y1="239.77" x2="121.5" y2="239.77" />
<line x1="113" y1="150.08" x2="121.5" y2="150.08" />
<line x1="113" y1="138.34" x2="121.5" y2="138.34" />
<rect x="117" y="138.34" width="1" height="5" />
</g>
<g style="fill: black; stroke: black;">
<rect x="109" y="197.13" width="16" height="1" />
</g>
<g style="fill: black; stroke: black;">
<line x1="136" y1="224.61" x2="144.5" y2="224.61" />
<line x1="136" y1="168.36" x2="144.5" y2="168.36" />
</g>
<g style="fill: black; stroke: black;">
<rect x="132" y="189.41" width="16" height="1" />
</g>
<g style="fill: black; stroke: black;">
<line x1="159" y1="220.93" x2="167.5" y2="220.93" />
<line x1="159" y1="173.76" x2="167.5" y2="173.76" />
<line x1="159" y1="161.14" x2="167.5" y2="161.14" />
<rect x="163" y="161.14" width="1" height="5" />
</g>
<g style="fill: black; stroke: black;">
<rect x="155" y="190.9" width="16" height="1" />
</g>
<g style="fill: black; stroke: black;">
<line x1="182" y1="708.61" x2="190.5" y2="708.61" />
<line x1="182" y1="708.61" x2="190.5" y2="708.61" />
</g>
<g style="fill: black; stroke: black;">
<rect x="178" y="707.61" width="16" height="1" />
</g>
<g style="fill: black; stroke: black;">
<line x1="205" y1="245.72" x2="213.5" y2="245.72" />
<line x1="205" y1="143.69" x2="213.5" y2="143.69" />
</g>
<g style="fill: black; stroke: black;">
<rect x="201" y="181.33" width="16" height="1" />
</g>
<g style="fill: black; stroke: black;">
<line x1="228" y1="708.61" x2="236.5" y2="708.61" />
<line x1="228" y1="708.61" x2="236.5" y2="708.61" />
</g>
<g style="fill: black; stroke: black;">
<rect x="224" y="707.61" width="16" height="1" />
</g>
<g style="fill: black; stroke: black;">
<line x1="251" y1="264" x2="259.5" y2="264" />
<line x1="251" y1="95.72" x2="259.5" y2="95.72" />
</g>
<g style="fill: black; stroke: black;">
<rect x="247" y="156.25" width="16" height="1" />
</g>
<g style="fill: black; stroke: black;">
<line x1="274" y1="708.61" x2="282.5" y2="708.61" />
<line x1="274" y1="708.61" x2="282.5" y2="708.61" />
</g>
<g style="fill: black; stroke: black;">
<rect x="270" y="707.61" width="16" height="1" />
</g>
<g style="fill: black; stroke: black;">
<line x1="297" y1="232.22" x2="305.5" y2="232.22" />
<line x1="297" y1="100.86" x2="305.5" y2="100.86" />
<line x1="297" y1="97.85" x2="305.5" y2="97.85" />
<rect x="301" y="97.85" width="1" height="5" />
</g>
<g style="fill: black; stroke: black;">
<rect x="293" y="138.39" width="16" height="1" />
</g>
<g style="fill: black; stroke: black;">
<line x1="320" y1="187.36" x2="328.5" y2="187.36" />
<line x1="320" y1="109.69" x2="328.5" y2="109.69" />
</g>
<g style="fill: black; stroke: black;">
<rect x="316" y="132.94" width="16" height="1" />
</g>
<g style="fill: black; stroke: black;">
<line x1="343" y1="191.19" x2="351.5" y2="191.19" />
<line x1="343" y1="100.59" x2="351.5" y2="100.59" />
<line x1="343" y1="71.38" x2="351.5" y2="71.38" />
<rect x="347" y="71.38" width="1" height="5" />
</g>
<g style="fill: black; stroke: black;">
<rect x="339" y="147.05" width="16" height="1" />
</g>
<g style="fill: black; stroke: black;">
<line x1="366" y1="233.72" x2="374.5" y2="233.72" />
<line x1="366" y1="65.44" x2="374.5" y2="65.44" />
<line x1="366" y1="27.89" x2="374.5" y2="27.89" />
<rect x="370" y="27.89" width="1" height="5" />
</g>
<g style="fill: black; stroke: black;">
<rect x="362" y="126.63" width="16" height="1" />
</g>
<g style="fill: black; stroke: black;">
<line x1="389" y1="211.36" x2="397.5" y2="211.36" />
<line x1="389" y1="71.17" x2="397.5" y2="71.17" />
</g>
<g style="fill: black; stroke: black;">
<rect x="385" y="127.14" width="16" height="1" />
</g>
<g style="fill: black; stroke: black;">
<line x1="412" y1="236.67" x2="420.5" y2="236.67" />
<line x1="412" y1="51.02" x2="420.5" y2="51.02" />
</g>
<g style="fill: black; stroke: black;">
<rect x="408" y="133.81" width="16" height="1" />
</g>
<g style="fill: black; stroke: black;">
<line x1="435" y1="158.26" x2="443.5" y2="158.26" />
<line x1="435" y1="79.21" x2="443.5" y2="79.21" />
</g>
<g style="fill: black; stroke: black;">
<rect x="431" y="109.46" width="16" height="1" />
</g>
<g style="fill: black; stroke: black;">
<line x1="458" y1="708.61" x2="466.5" y2="708.61" />
<line x1="458" y1="708.61" x2="466.5" y2="708.61" />
</g>
<g style="fill: black; stroke: black;">
<rect x="454" y="707.61" width="16" height="1" />
</g>
<g style="fill: black; stroke: black;">
<line x1="481" y1="160.2" x2="489.5" y2="160.2" />
<line x1="481" y1="-30.33" x2="489.5" y2="-30.33" />
<line x1="481" y1="-36.03" x2="489.5" y2="-36.03" />
<rect x="485" y="-36.03" width="1" height="5" />
</g>
<g style="fill: black; stroke: black;">
<rect x="477" y="68.09" width="16" height="1" />
</g>
<g style="text-anchor: end; font-family: Ubuntu,Verdana,sans-serif; font-size: 0.9em;" >
<text x="512" y="282" >24 Mar 2019 u64q</text>
<text x="58" y="282" style="text-anchor: start;" >benchmarks game</text>
</g>
<text x="16" y="144" transform="rotate(270,16,144)" style="text-anchor: middle; font-family: Ubuntu,Verdana,sans-serif; font-size: 0.9em;" >program CPU time / fastest CPU time</text>
<text x="285" y="18" style="text-anchor: middle; font-family: Ubuntu,Verdana,sans-serif; font-size: 1.2em;" >How many times slower?</text>
<g style="stroke: #333;">
<line x1="58" y1="24" x2="58" y2="264" />
<line x1="511" y1="24" x2="511" y2="264" />
<line x1="58" y1="264" x2="511" y2="264" />
</g>
</svg>

