<?xml version="1.0" encoding="UTF-8" standalone="no"?>
<!DOCTYPE svg PUBLIC "-//W3C//DTD SVG 1.1//EN" "http://www.w3.org/Graphics/SVG/1.1/DTD/svg11.dtd">
<svg xmlns="http://www.w3.org/2000/svg" version="1.1" xmlns:xlink="http://www.w3.org/1999/xlink" viewBox="0 0 512 288">

<!-- Copyright 2015 Isaac Gouy -->
<!-- http://benchmarksgame.alioth.debian.org/license.html -->

<g style="stroke: #ccc;" >
<line x1="51" y1="264" x2="511" y2="264" />
<line x1="51" y1="221.57" x2="511" y2="221.57" />
<line x1="51" y1="201.85" x2="511" y2="201.85" />
<line x1="51" y1="175.08" x2="511" y2="175.08" />
<line x1="51" y1="132.65" x2="511" y2="132.65" />
<line x1="51" y1="112.92" x2="511" y2="112.92" />
<line x1="51" y1="86.15" x2="511" y2="86.15" />
<line x1="51" y1="43.73" x2="511" y2="43.73" />
<line x1="51" y1="24" x2="511" y2="24" />
</g>
<g style="text-anchor: end; font-family: Ubuntu,Verdana,sans-serif; font-size: 0.9em;" >
<text x="51" y="262" >1</text>
<text x="51" y="219.57" >3</text>
<text x="51" y="199.85" >5</text>
<text x="51" y="173.08" >10</text>
<text x="51" y="130.65" >30</text>
<text x="51" y="110.92" >50</text>
<text x="51" y="84.15" >100</text>
<text x="51" y="41.73" >300</text>
<text x="51" y="22" ></text>
</g>
<defs>
<linearGradient id="grade" x1="0" y1="0" x2="0" y2="1">
<stop offset="0" style="stop-color: white" stop-opacity="0.6"/>
<stop offset="1" style="stop-color: white" stop-opacity="0.8"/>
</linearGradient>
<mask id="fade">
<rect x="58" y="24" width="452" height="288" fill="url(#grade)"  />
</mask>
<g id="backgroundText" style="text-anchor: end; font-family: Ubuntu,Verdana,sans-serif; font-size: 1em;">
<text x="15" y="0" transform="rotate(270,15,0)" xml:space="preserve">   C++ g++   C++ g++   C++ g++   C++ g++   C++ g++   C++ g++</text>
<text x="40" y="0" transform="rotate(270,40,0)" xml:space="preserve">   C gcc   C gcc   C gcc   C gcc   C gcc   C gcc   C gcc</text>
<text x="65" y="0" transform="rotate(270,65,0)" xml:space="preserve">Rust   Rust   Rust   Rust   Rust   Rust   Rust   Rust   Rust</text>
<br />
<b>Warning</b>:  Division by zero in <b>/home/dunham/8000-benchmarksgame/website/lib/lib_chartSVG.php</b> on line <b>289</b><br />
<br />
<b>Warning</b>:  str_repeat() expects parameter 2 to be integer, float given in <b>/home/dunham/8000-benchmarksgame/website/lib/lib_chartSVG.php</b> on line <b>290</b><br />
<text x="90" y="0" transform="rotate(270,90,0)" xml:space="preserve"></text>
<text x="115" y="0" transform="rotate(270,115,0)" xml:space="preserve">da 2012 GNAT   Ada 2012 GNAT   Ada 2012 GNAT   Ada 2012 GNAT</text>
<text x="140" y="0" transform="rotate(270,140,0)" xml:space="preserve">ortran Intel   Fortran Intel   Fortran Intel   Fortran Intel</text>
<br />
<b>Warning</b>:  Division by zero in <b>/home/dunham/8000-benchmarksgame/website/lib/lib_chartSVG.php</b> on line <b>289</b><br />
<br />
<b>Warning</b>:  str_repeat() expects parameter 2 to be integer, float given in <b>/home/dunham/8000-benchmarksgame/website/lib/lib_chartSVG.php</b> on line <b>290</b><br />
<text x="165" y="0" transform="rotate(270,165,0)" xml:space="preserve"></text>
<text x="190" y="0" transform="rotate(270,190,0)" xml:space="preserve">   Chapel   Chapel   Chapel   Chapel   Chapel   Chapel</text>
<text x="215" y="0" transform="rotate(270,215,0)" xml:space="preserve">   Lisp SBCL   Lisp SBCL   Lisp SBCL   Lisp SBCL   Lisp SBCL</text>
<text x="240" y="0" transform="rotate(270,240,0)" xml:space="preserve">   Swift   Swift   Swift   Swift   Swift   Swift   Swift</text>
<text x="265" y="0" transform="rotate(270,265,0)" xml:space="preserve">Java   Java   Java   Java   Java   Java   Java   Java   Java</text>
<text x="290" y="0" transform="rotate(270,290,0)" xml:space="preserve">   C# .NET Core   C# .NET Core   C# .NET Core   C# .NET Core</text>
<text x="315" y="0" transform="rotate(270,315,0)" xml:space="preserve">   Free Pascal   Free Pascal   Free Pascal   Free Pascal</text>
<text x="340" y="0" transform="rotate(270,340,0)" xml:space="preserve">   F# .NET Core   F# .NET Core   F# .NET Core   F# .NET Core</text>
<br />
<b>Warning</b>:  Division by zero in <b>/home/dunham/8000-benchmarksgame/website/lib/lib_chartSVG.php</b> on line <b>289</b><br />
<br />
<b>Warning</b>:  str_repeat() expects parameter 2 to be integer, float given in <b>/home/dunham/8000-benchmarksgame/website/lib/lib_chartSVG.php</b> on line <b>290</b><br />
<text x="365" y="0" transform="rotate(270,365,0)" xml:space="preserve"></text>
<text x="390" y="0" transform="rotate(270,390,0)" xml:space="preserve">   Go   Go   Go   Go   Go   Go   Go   Go   Go   Go   Go   Go</text>
<text x="415" y="0" transform="rotate(270,415,0)" xml:space="preserve">   OCaml   OCaml   OCaml   OCaml   OCaml   OCaml   OCaml</text>
<text x="440" y="0" transform="rotate(270,440,0)" xml:space="preserve">   Haskell GHC   Haskell GHC   Haskell GHC   Haskell GHC</text>
</g>
</defs>
<use x="60" y="27" xlink:href="#backgroundText"/>
<rect x="58" y="24" width="452" height="288" fill="white" mask="url(#fade)" />
<rect x="58" y="264" width="452" height="288" style="fill: white; stroke: white;" />
<g style="fill: black; stroke: black;">
<rect x="72" y="243.09" width="1" height="20.91" />
<rect x="97" y="238.9" width="1" height="25.1" />
<rect x="122" y="229.51" width="1" height="33.19" />
<rect x="147" y="708.61" width="1" height="0" />
<rect x="172" y="193.25" width="1" height="68" />
<rect x="197" y="193.64" width="1" height="70.36" />
<rect x="222" y="708.61" width="1" height="0" />
<rect x="247" y="192.28" width="1" height="71.72" />
<rect x="272" y="192.14" width="1" height="68.18" />
<rect x="297" y="163.84" width="1" height="97.15" />
<rect x="322" y="193.22" width="1" height="44.31" />
<rect x="347" y="196.22" width="1" height="47.61" />
<rect x="372" y="185.78" width="1" height="76.01" />
<rect x="397" y="186.82" width="1" height="52.39" />
<rect x="422" y="708.61" width="1" height="0" />
<rect x="447" y="166.48" width="1" height="88.75" />
<rect x="472" y="174.19" width="1" height="56.34" />
<rect x="497" y="165.83" width="1" height="60.01" />
</g>
<g style="fill: white; stroke: black;">
<rect x="62" y="245.13" width="20" height="18.87" />
<rect x="87" y="251.95" width="20" height="12.05" />
<rect x="112" y="244.33" width="20" height="14.43" />
<rect x="137" y="708.61" width="20" height="0" />
<rect x="162" y="216" width="20" height="29.56" />
<rect x="187" y="217.58" width="20" height="32.85" />
<rect x="212" y="708.61" width="20" height="0" />
<rect x="237" y="195.53" width="20" height="38.96" />
<rect x="262" y="207.67" width="20" height="17.45" />
<rect x="287" y="192.43" width="20" height="50.75" />
<rect x="312" y="212.97" width="20" height="22.75" />
<rect x="337" y="212.04" width="20" height="15.91" />
<rect x="362" y="204.43" width="20" height="20.63" />
<rect x="387" y="206.95" width="20" height="23.53" />
<rect x="412" y="708.61" width="20" height="0" />
<rect x="437" y="192.46" width="20" height="39.42" />
<rect x="462" y="192.47" width="20" height="30.98" />
<rect x="487" y="188.43" width="20" height="35.35" />
</g>
<g style="fill: black; stroke: black;">
<line x1="67.5" y1="264" x2="77" y2="264" />
<line x1="67.5" y1="243.09" x2="77" y2="243.09" />
</g>
<g style="fill: black; stroke: black;">
<rect x="63" y="260.36" width="18" height="1" />
</g>
<g style="fill: black; stroke: black;">
<line x1="92.5" y1="264" x2="102" y2="264" />
<line x1="92.5" y1="238.9" x2="102" y2="238.9" />
<line x1="92.5" y1="219.03" x2="102" y2="219.03" />
<rect x="97" y="219.03" width="1" height="5" />
</g>
<g style="fill: black; stroke: black;">
<rect x="88" y="259.71" width="18" height="1" />
</g>
<g style="fill: black; stroke: black;">
<line x1="117.5" y1="262.7" x2="127" y2="262.7" />
<line x1="117.5" y1="229.51" x2="127" y2="229.51" />
<line x1="117.5" y1="219.16" x2="127" y2="219.16" />
<rect x="122" y="219.16" width="1" height="5" />
</g>
<g style="fill: black; stroke: black;">
<rect x="113" y="245.74" width="18" height="1" />
</g>
<g style="fill: black; stroke: black;">
<line x1="142.5" y1="708.61" x2="152" y2="708.61" />
<line x1="142.5" y1="708.61" x2="152" y2="708.61" />
</g>
<g style="fill: black; stroke: black;">
<rect x="138" y="707.61" width="18" height="1" />
</g>
<g style="fill: black; stroke: black;">
<line x1="167.5" y1="261.25" x2="177" y2="261.25" />
<line x1="167.5" y1="193.25" x2="177" y2="193.25" />
<line x1="167.5" y1="183.97" x2="177" y2="183.97" />
<rect x="172" y="183.97" width="1" height="5" />
</g>
<g style="fill: black; stroke: black;">
<rect x="163" y="235.53" width="18" height="1" />
</g>
<g style="fill: black; stroke: black;">
<line x1="192.5" y1="264" x2="202" y2="264" />
<line x1="192.5" y1="193.64" x2="202" y2="193.64" />
<line x1="192.5" y1="180.97" x2="202" y2="180.97" />
<rect x="197" y="180.97" width="1" height="5" />
</g>
<g style="fill: black; stroke: black;">
<rect x="188" y="227.3" width="18" height="1" />
</g>
<g style="fill: black; stroke: black;">
<line x1="217.5" y1="708.61" x2="227" y2="708.61" />
<line x1="217.5" y1="708.61" x2="227" y2="708.61" />
</g>
<g style="fill: black; stroke: black;">
<rect x="213" y="707.61" width="18" height="1" />
</g>
<g style="fill: black; stroke: black;">
<line x1="242.5" y1="264" x2="252" y2="264" />
<line x1="242.5" y1="192.28" x2="252" y2="192.28" />
</g>
<g style="fill: black; stroke: black;">
<rect x="238" y="221.68" width="18" height="1" />
</g>
<g style="fill: black; stroke: black;">
<line x1="267.5" y1="260.32" x2="277" y2="260.32" />
<line x1="267.5" y1="192.14" x2="277" y2="192.14" />
</g>
<g style="fill: black; stroke: black;">
<rect x="263" y="215.77" width="18" height="1" />
</g>
<g style="fill: black; stroke: black;">
<line x1="292.5" y1="260.99" x2="302" y2="260.99" />
<line x1="292.5" y1="163.84" x2="302" y2="163.84" />
<line x1="292.5" y1="121.47" x2="302" y2="121.47" />
<rect x="297" y="121.47" width="1" height="5" />
</g>
<g style="fill: black; stroke: black;">
<rect x="288" y="236.06" width="18" height="1" />
</g>
<g style="fill: black; stroke: black;">
<line x1="317.5" y1="237.53" x2="327" y2="237.53" />
<line x1="317.5" y1="193.22" x2="327" y2="193.22" />
<line x1="317.5" y1="165.61" x2="327" y2="165.61" />
<rect x="322" y="165.61" width="1" height="5" />
</g>
<g style="fill: black; stroke: black;">
<rect x="313" y="224.24" width="18" height="1" />
</g>
<g style="fill: black; stroke: black;">
<line x1="342.5" y1="243.83" x2="352" y2="243.83" />
<line x1="342.5" y1="196.22" x2="352" y2="196.22" />
<line x1="342.5" y1="150.75" x2="352" y2="150.75" />
<rect x="347" y="150.75" width="1" height="5" />
</g>
<g style="fill: black; stroke: black;">
<rect x="338" y="225.28" width="18" height="1" />
</g>
<g style="fill: black; stroke: black;">
<line x1="367.5" y1="261.79" x2="377" y2="261.79" />
<line x1="367.5" y1="185.78" x2="377" y2="185.78" />
<line x1="367.5" y1="177.45" x2="377" y2="177.45" />
<rect x="372" y="177.45" width="1" height="5" />
</g>
<g style="fill: black; stroke: black;">
<rect x="363" y="218.52" width="18" height="1" />
</g>
<g style="fill: black; stroke: black;">
<line x1="392.5" y1="239.22" x2="402" y2="239.22" />
<line x1="392.5" y1="186.82" x2="402" y2="186.82" />
<line x1="392.5" y1="150.61" x2="402" y2="150.61" />
<rect x="397" y="150.61" width="1" height="5" />
</g>
<g style="fill: black; stroke: black;">
<rect x="388" y="220.5" width="18" height="1" />
</g>
<g style="fill: black; stroke: black;">
<line x1="417.5" y1="708.61" x2="427" y2="708.61" />
<line x1="417.5" y1="708.61" x2="427" y2="708.61" />
</g>
<g style="fill: black; stroke: black;">
<rect x="413" y="707.61" width="18" height="1" />
</g>
<g style="fill: black; stroke: black;">
<line x1="442.5" y1="255.23" x2="452" y2="255.23" />
<line x1="442.5" y1="166.48" x2="452" y2="166.48" />
<line x1="442.5" y1="140.36" x2="452" y2="140.36" />
<rect x="447" y="140.36" width="1" height="5" />
</g>
<g style="fill: black; stroke: black;">
<rect x="438" y="215.93" width="18" height="1" />
</g>
<g style="fill: black; stroke: black;">
<line x1="467.5" y1="230.52" x2="477" y2="230.52" />
<line x1="467.5" y1="174.19" x2="477" y2="174.19" />
</g>
<g style="fill: black; stroke: black;">
<rect x="463" y="208.32" width="18" height="1" />
</g>
<g style="fill: black; stroke: black;">
<line x1="492.5" y1="225.83" x2="502" y2="225.83" />
<line x1="492.5" y1="165.83" x2="502" y2="165.83" />
</g>
<g style="fill: black; stroke: black;">
<rect x="488" y="209.95" width="18" height="1" />
</g>
<g style="text-anchor: end; font-family: Ubuntu,Verdana,sans-serif; font-size: 0.9em;" >
<text x="512" y="282" >19 Sep 2018 u64q</text>
<text x="58" y="282" style="text-anchor: start;" >benchmarks game</text>
</g>
<text x="16" y="144" transform="rotate(270,16,144)" style="text-anchor: middle; font-family: Ubuntu,Verdana,sans-serif; font-size: 0.9em;" >program CPU time / fastest CPU time</text>
<text x="285" y="18" style="text-anchor: middle; font-family: Ubuntu,Verdana,sans-serif; font-size: 1.2em;" >How many times slower?</text>
<g style="stroke: #333;">
<line x1="58" y1="24" x2="58" y2="264" />
<line x1="511" y1="24" x2="511" y2="264" />
<line x1="58" y1="264" x2="511" y2="264" />
</g>
</svg>

