<?xml version="1.0" encoding="UTF-8" standalone="no"?>
<!DOCTYPE svg PUBLIC "-//W3C//DTD SVG 1.1//EN" "http://www.w3.org/Graphics/SVG/1.1/DTD/svg11.dtd">
<svg xmlns="http://www.w3.org/2000/svg" version="1.1" xmlns:xlink="http://www.w3.org/1999/xlink" viewBox="0 0 512 288">

<!-- Copyright 2015 Isaac Gouy -->
<!-- http://benchmarksgame.alioth.debian.org/license.html -->

<g style="stroke: #ccc;" >
<line x1="51" y1="264" x2="511" y2="264" />
<line x1="51" y1="221.57" x2="511" y2="221.57" />
<line x1="51" y1="201.85" x2="511" y2="201.85" />
<line x1="51" y1="175.08" x2="511" y2="175.08" />
<line x1="51" y1="132.65" x2="511" y2="132.65" />
<line x1="51" y1="112.92" x2="511" y2="112.92" />
<line x1="51" y1="86.15" x2="511" y2="86.15" />
<line x1="51" y1="43.73" x2="511" y2="43.73" />
<line x1="51" y1="24" x2="511" y2="24" />
</g>
<g style="text-anchor: end; font-family: Ubuntu,Verdana,sans-serif; font-size: 0.9em;" >
<text x="51" y="262" >1</text>
<text x="51" y="219.57" >3</text>
<text x="51" y="199.85" >5</text>
<text x="51" y="173.08" >10</text>
<text x="51" y="130.65" >30</text>
<text x="51" y="110.92" >50</text>
<text x="51" y="84.15" >100</text>
<text x="51" y="41.73" >300</text>
<text x="51" y="22" ></text>
</g>
<defs>
<linearGradient id="grade" x1="0" y1="0" x2="0" y2="1">
<stop offset="0" style="stop-color: white" stop-opacity="0.6"/>
<stop offset="1" style="stop-color: white" stop-opacity="0.8"/>
</linearGradient>
<mask id="fade">
<rect x="58" y="24" width="452" height="288" fill="url(#grade)"  />
</mask>
<g id="backgroundText" style="text-anchor: end; font-family: Ubuntu,Verdana,sans-serif; font-size: 1em;">
<text x="15" y="0" transform="rotate(270,15,0)" xml:space="preserve">   Java AOT   Java AOT   Java AOT   Java AOT   Java AOT</text>
<text x="40" y="0" transform="rotate(270,40,0)" xml:space="preserve">   Node js   Node js   Node js   Node js   Node js   Node js</text>
<text x="65" y="0" transform="rotate(270,65,0)" xml:space="preserve">   TypeScript   TypeScript   TypeScript   TypeScript</text>
<text x="90" y="0" transform="rotate(270,90,0)" xml:space="preserve">   Racket   Racket   Racket   Racket   Racket   Racket</text>
<text x="115" y="0" transform="rotate(270,115,0)" xml:space="preserve">Dart   Dart   Dart   Dart   Dart   Dart   Dart   Dart   Dart</text>
<br />
<b>Warning</b>:  Division by zero in <b>/home/dunham/8000-benchmarksgame/website/lib/lib_chartSVG.php</b> on line <b>289</b><br />
<br />
<b>Warning</b>:  str_repeat() expects parameter 2 to be integer, float given in <b>/home/dunham/8000-benchmarksgame/website/lib/lib_chartSVG.php</b> on line <b>290</b><br />
<text x="140" y="0" transform="rotate(270,140,0)" xml:space="preserve"></text>
<text x="165" y="0" transform="rotate(270,165,0)" xml:space="preserve">   PHP   PHP   PHP   PHP   PHP   PHP   PHP   PHP   PHP   PHP</text>
<text x="190" y="0" transform="rotate(270,190,0)" xml:space="preserve">Hack   Hack   Hack   Hack   Hack   Hack   Hack   Hack   Hack</text>
<text x="215" y="0" transform="rotate(270,215,0)" xml:space="preserve">   Erlang HiPE   Erlang HiPE   Erlang HiPE   Erlang HiPE</text>
<text x="240" y="0" transform="rotate(270,240,0)" xml:space="preserve">   VW Smalltalk   VW Smalltalk   VW Smalltalk   VW Smalltalk</text>
<text x="265" y="0" transform="rotate(270,265,0)" xml:space="preserve">   Truffle Ruby   Truffle Ruby   Truffle Ruby   Truffle Ruby</text>
<text x="290" y="0" transform="rotate(270,290,0)" xml:space="preserve">Perl   Perl   Perl   Perl   Perl   Perl   Perl   Perl   Perl</text>
<text x="315" y="0" transform="rotate(270,315,0)" xml:space="preserve">   Python 3   Python 3   Python 3   Python 3   Python 3</text>
<text x="340" y="0" transform="rotate(270,340,0)" xml:space="preserve">Ruby   Ruby   Ruby   Ruby   Ruby   Ruby   Ruby   Ruby   Ruby</text>
<text x="365" y="0" transform="rotate(270,365,0)" xml:space="preserve">   Lua   Lua   Lua   Lua   Lua   Lua   Lua   Lua   Lua   Lua</text>
<text x="390" y="0" transform="rotate(270,390,0)" xml:space="preserve">   JRuby   JRuby   JRuby   JRuby   JRuby   JRuby   JRuby</text>
<br />
<b>Warning</b>:  Division by zero in <b>/home/dunham/8000-benchmarksgame/website/lib/lib_chartSVG.php</b> on line <b>289</b><br />
<br />
<b>Warning</b>:  str_repeat() expects parameter 2 to be integer, float given in <b>/home/dunham/8000-benchmarksgame/website/lib/lib_chartSVG.php</b> on line <b>290</b><br />
<text x="415" y="0" transform="rotate(270,415,0)" xml:space="preserve"></text>
<text x="440" y="0" transform="rotate(270,440,0)" xml:space="preserve">   Matz's Ruby   Matz's Ruby   Matz's Ruby   Matz's Ruby</text>
</g>
</defs>
<use x="60" y="27" xlink:href="#backgroundText"/>
<rect x="58" y="24" width="452" height="288" fill="white" mask="url(#fade)" />
<rect x="58" y="264" width="452" height="288" style="fill: white; stroke: white;" />
<g style="fill: black; stroke: black;">
<rect x="72" y="171.29" width="1" height="54.93" />
<rect x="97" y="168.21" width="1" height="50.5" />
<rect x="122" y="161.86" width="1" height="55.96" />
<rect x="147" y="146.48" width="1" height="106.17" />
<rect x="172" y="168.34" width="1" height="46.83" />
<rect x="197" y="708.61" width="1" height="0" />
<rect x="222" y="95.74" width="1" height="168.26" />
<rect x="247" y="96.21" width="1" height="154.93" />
<rect x="272" y="108.9" width="1" height="113.22" />
<rect x="297" y="88.61" width="1" height="96.31" />
<rect x="322" y="98.33" width="1" height="91.37" />
<rect x="347" y="64.2" width="1" height="170.23" />
<rect x="372" y="50.27" width="1" height="184.15" />
<rect x="397" y="72.19" width="1" height="112.82" />
<rect x="422" y="87.14" width="1" height="68.79" />
<rect x="447" y="61.42" width="1" height="100.57" />
<rect x="472" y="708.61" width="1" height="0" />
<rect x="497" y="-30.96" width="1" height="190.84" />
</g>
<g style="fill: white; stroke: black;">
<rect x="62" y="192.46" width="20" height="25.77" />
<rect x="87" y="179.48" width="20" height="33.87" />
<rect x="112" y="180.62" width="20" height="20.84" />
<rect x="137" y="167.12" width="20" height="24.59" />
<rect x="162" y="185.18" width="20" height="17.51" />
<rect x="187" y="708.61" width="20" height="0" />
<rect x="212" y="118.41" width="20" height="78.46" />
<rect x="237" y="116.37" width="20" height="57.87" />
<rect x="262" y="133.35" width="20" height="34.33" />
<rect x="287" y="116.01" width="20" height="45.06" />
<rect x="312" y="120.29" width="20" height="27.58" />
<rect x="337" y="95.26" width="20" height="66.99" />
<rect x="362" y="83.14" width="20" height="86.97" />
<rect x="387" y="98.19" width="20" height="43.13" />
<rect x="412" y="100.06" width="20" height="41.05" />
<rect x="437" y="89.26" width="20" height="47.03" />
<rect x="462" y="708.61" width="20" height="0" />
<rect x="487" y="2.24" width="20" height="92.27" />
</g>
<g style="fill: black; stroke: black;">
<line x1="67.5" y1="226.22" x2="77" y2="226.22" />
<line x1="67.5" y1="171.29" x2="77" y2="171.29" />
<line x1="67.5" y1="151.2" x2="77" y2="151.2" />
<rect x="72" y="151.2" width="1" height="5" />
</g>
<g style="fill: black; stroke: black;">
<rect x="63" y="200.57" width="18" height="1" />
</g>
<g style="fill: black; stroke: black;">
<line x1="92.5" y1="218.7" x2="102" y2="218.7" />
<line x1="92.5" y1="168.21" x2="102" y2="168.21" />
</g>
<g style="fill: black; stroke: black;">
<rect x="88" y="195.2" width="18" height="1" />
</g>
<g style="fill: black; stroke: black;">
<line x1="117.5" y1="217.83" x2="127" y2="217.83" />
<line x1="117.5" y1="161.86" x2="127" y2="161.86" />
<line x1="117.5" y1="160.3" x2="127" y2="160.3" />
<rect x="122" y="160.3" width="1" height="5" />
</g>
<g style="fill: black; stroke: black;">
<rect x="113" y="191.22" width="18" height="1" />
</g>
<g style="fill: black; stroke: black;">
<line x1="142.5" y1="252.65" x2="152" y2="252.65" />
<line x1="142.5" y1="146.48" x2="152" y2="146.48" />
<line x1="142.5" y1="144.63" x2="152" y2="144.63" />
<rect x="147" y="144.63" width="1" height="5" />
</g>
<g style="fill: black; stroke: black;">
<rect x="138" y="185.9" width="18" height="1" />
</g>
<g style="fill: black; stroke: black;">
<line x1="167.5" y1="215.17" x2="177" y2="215.17" />
<line x1="167.5" y1="168.34" x2="177" y2="168.34" />
<line x1="167.5" y1="90.79" x2="177" y2="90.79" />
<rect x="172" y="90.79" width="1" height="5" />
</g>
<g style="fill: black; stroke: black;">
<rect x="163" y="191.72" width="18" height="1" />
</g>
<g style="fill: black; stroke: black;">
<line x1="192.5" y1="708.61" x2="202" y2="708.61" />
<line x1="192.5" y1="708.61" x2="202" y2="708.61" />
</g>
<g style="fill: black; stroke: black;">
<rect x="188" y="707.61" width="18" height="1" />
</g>
<g style="fill: black; stroke: black;">
<line x1="217.5" y1="264" x2="227" y2="264" />
<line x1="217.5" y1="95.74" x2="227" y2="95.74" />
</g>
<g style="fill: black; stroke: black;">
<rect x="213" y="139.85" width="18" height="1" />
</g>
<g style="fill: black; stroke: black;">
<line x1="242.5" y1="251.14" x2="252" y2="251.14" />
<line x1="242.5" y1="96.21" x2="252" y2="96.21" />
</g>
<g style="fill: black; stroke: black;">
<rect x="238" y="134.82" width="18" height="1" />
</g>
<g style="fill: black; stroke: black;">
<line x1="267.5" y1="222.12" x2="277" y2="222.12" />
<line x1="267.5" y1="108.9" x2="277" y2="108.9" />
<line x1="267.5" y1="96.4" x2="277" y2="96.4" />
<rect x="272" y="96.4" width="1" height="5" />
</g>
<g style="fill: black; stroke: black;">
<rect x="263" y="141.7" width="18" height="1" />
</g>
<g style="fill: black; stroke: black;">
<line x1="292.5" y1="184.91" x2="302" y2="184.91" />
<line x1="292.5" y1="88.61" x2="302" y2="88.61" />
<line x1="292.5" y1="87.07" x2="302" y2="87.07" />
<rect x="297" y="87.07" width="1" height="5" />
</g>
<g style="fill: black; stroke: black;">
<rect x="288" y="135.15" width="18" height="1" />
</g>
<g style="fill: black; stroke: black;">
<line x1="317.5" y1="189.7" x2="327" y2="189.7" />
<line x1="317.5" y1="98.33" x2="327" y2="98.33" />
<line x1="317.5" y1="66.46" x2="327" y2="66.46" />
<rect x="322" y="66.46" width="1" height="5" />
</g>
<g style="fill: black; stroke: black;">
<rect x="313" y="128.01" width="18" height="1" />
</g>
<g style="fill: black; stroke: black;">
<line x1="342.5" y1="234.43" x2="352" y2="234.43" />
<line x1="342.5" y1="64.2" x2="352" y2="64.2" />
<line x1="342.5" y1="25.06" x2="352" y2="25.06" />
<rect x="347" y="25.06" width="1" height="5" />
</g>
<g style="fill: black; stroke: black;">
<rect x="338" y="114.39" width="18" height="1" />
</g>
<g style="fill: black; stroke: black;">
<line x1="367.5" y1="234.42" x2="377" y2="234.42" />
<line x1="367.5" y1="50.27" x2="377" y2="50.27" />
<line x1="367.5" y1="45.63" x2="377" y2="45.63" />
<rect x="372" y="45.63" width="1" height="5" />
</g>
<g style="fill: black; stroke: black;">
<rect x="363" y="119.73" width="18" height="1" />
</g>
<g style="fill: black; stroke: black;">
<line x1="392.5" y1="185.01" x2="402" y2="185.01" />
<line x1="392.5" y1="72.19" x2="402" y2="72.19" />
</g>
<g style="fill: black; stroke: black;">
<rect x="388" y="121.9" width="18" height="1" />
</g>
<g style="fill: black; stroke: black;">
<line x1="417.5" y1="155.93" x2="427" y2="155.93" />
<line x1="417.5" y1="87.14" x2="427" y2="87.14" />
</g>
<g style="fill: black; stroke: black;">
<rect x="413" y="109.02" width="18" height="1" />
</g>
<g style="fill: black; stroke: black;">
<line x1="442.5" y1="162" x2="452" y2="162" />
<line x1="442.5" y1="61.42" x2="452" y2="61.42" />
<line x1="442.5" y1="30.03" x2="452" y2="30.03" />
<rect x="447" y="30.03" width="1" height="5" />
</g>
<g style="fill: black; stroke: black;">
<rect x="438" y="108.56" width="18" height="1" />
</g>
<g style="fill: black; stroke: black;">
<line x1="467.5" y1="708.61" x2="477" y2="708.61" />
<line x1="467.5" y1="708.61" x2="477" y2="708.61" />
</g>
<g style="fill: black; stroke: black;">
<rect x="463" y="707.61" width="18" height="1" />
</g>
<g style="fill: black; stroke: black;">
<line x1="492.5" y1="159.88" x2="502" y2="159.88" />
<line x1="492.5" y1="-30.96" x2="502" y2="-30.96" />
<line x1="492.5" y1="-36.05" x2="502" y2="-36.05" />
<rect x="497" y="-36.05" width="1" height="5" />
</g>
<g style="fill: black; stroke: black;">
<rect x="488" y="57.8" width="18" height="1" />
</g>
<g style="text-anchor: end; font-family: Ubuntu,Verdana,sans-serif; font-size: 0.9em;" >
<text x="512" y="282" >14 Sep 2018 u64q</text>
<text x="58" y="282" style="text-anchor: start;" >benchmarks game</text>
</g>
<text x="16" y="144" transform="rotate(270,16,144)" style="text-anchor: middle; font-family: Ubuntu,Verdana,sans-serif; font-size: 0.9em;" >program CPU time / fastest CPU time</text>
<text x="285" y="18" style="text-anchor: middle; font-family: Ubuntu,Verdana,sans-serif; font-size: 1.2em;" >How many times slower?</text>
<g style="stroke: #333;">
<line x1="58" y1="24" x2="58" y2="264" />
<line x1="511" y1="24" x2="511" y2="264" />
<line x1="58" y1="264" x2="511" y2="264" />
</g>
</svg>

