<?xml version="1.0" encoding="UTF-8" standalone="no"?>
<!DOCTYPE svg PUBLIC "-//W3C//DTD SVG 1.1//EN" "http://www.w3.org/Graphics/SVG/1.1/DTD/svg11.dtd">
<svg xmlns="http://www.w3.org/2000/svg" version="1.1" xmlns:xlink="http://www.w3.org/1999/xlink" viewBox="0 0 512 288">

<!-- Copyright 2015-2021 Isaac Gouy -->
<!-- https://salsa.debian.org/benchmarksgame-team/benchmarksgame/blob/master/LICENSE.md -->

<g style="stroke: #ccc;" >
<line x1="51" y1="264" x2="461" y2="264" />
<line x1="51" y1="221.57" x2="461" y2="221.57" />
<line x1="51" y1="201.85" x2="461" y2="201.85" />
<line x1="51" y1="175.08" x2="461" y2="175.08" />
<line x1="51" y1="132.65" x2="461" y2="132.65" />
<line x1="51" y1="112.92" x2="461" y2="112.92" />
<line x1="51" y1="86.15" x2="461" y2="86.15" />
<line x1="51" y1="43.73" x2="461" y2="43.73" />
<line x1="51" y1="24" x2="461" y2="24" />
</g>
<g style="text-anchor: end; font-family: Ubuntu,Verdana,sans-serif; font-size: 0.9em;" >
<text x="51" y="262" >1</text>
<text x="51" y="219.57" >3</text>
<text x="51" y="199.85" >5</text>
<text x="51" y="173.08" >10</text>
<text x="51" y="130.65" >30</text>
<text x="51" y="110.92" >50</text>
<text x="51" y="84.15" >100</text>
<text x="51" y="41.73" >300</text>
<text x="51" y="22" ></text>
</g>
<defs>
<linearGradient id="grade" x1="0" y1="0" x2="0" y2="1">
<stop offset="0" style="stop-color: white" stop-opacity="0.6"/>
<stop offset="1" style="stop-color: white" stop-opacity="0.8"/>
</linearGradient>
<mask id="fade">
<rect x="58" y="24" width="452" height="288" fill="url(#grade)"  />
</mask>
<g id="backgroundText" style="text-anchor: end; font-family: Ubuntu,Verdana,sans-serif; font-size: 1em;">
<text x="15" y="0" transform="rotate(270,15,0)" xml:space="preserve">   Node js   Node js   Node js   Node js</text>
<text x="40" y="0" transform="rotate(270,40,0)" xml:space="preserve">   Swift   Swift   Swift   Swift   Swift</text>
<text x="65" y="0" transform="rotate(270,65,0)" xml:space="preserve">                                                            </text>
<text x="90" y="0" transform="rotate(270,90,0)" xml:space="preserve">   Dart   Dart   Dart   Dart   Dart   Dart</text>
<text x="115" y="0" transform="rotate(270,115,0)" xml:space="preserve">   Racket   Racket   Racket   Racket   Racket</text>
<text x="140" y="0" transform="rotate(270,140,0)" xml:space="preserve">                                                            </text>
<text x="165" y="0" transform="rotate(270,165,0)" xml:space="preserve">   PHP   PHP   PHP   PHP   PHP   PHP   PHP   PHP</text>
<text x="190" y="0" transform="rotate(270,190,0)" xml:space="preserve">                                                            </text>
<text x="215" y="0" transform="rotate(270,215,0)" xml:space="preserve">   Erlang HiPE   Erlang HiPE   Erlang HiPE</text>
<text x="240" y="0" transform="rotate(270,240,0)" xml:space="preserve">   Python 3   Python 3   Python 3   Python 3</text>
<text x="265" y="0" transform="rotate(270,265,0)" xml:space="preserve">   Lua   Lua   Lua   Lua   Lua   Lua   Lua   Lua</text>
<text x="290" y="0" transform="rotate(270,290,0)" xml:space="preserve">   VW Smalltalk   VW Smalltalk   VW Smalltalk</text>
<text x="315" y="0" transform="rotate(270,315,0)" xml:space="preserve">   Ruby   Ruby   Ruby   Ruby   Ruby   Ruby</text>
<text x="340" y="0" transform="rotate(270,340,0)" xml:space="preserve">   Perl   Perl   Perl   Perl   Perl   Perl</text>
<text x="365" y="0" transform="rotate(270,365,0)" xml:space="preserve">                                                            </text>
<text x="390" y="0" transform="rotate(270,390,0)" xml:space="preserve">   Matz's Ruby   Matz's Ruby   Matz's Ruby</text>
</g>
</defs>
<use x="60" y="27" xlink:href="#backgroundText"/>
<rect x="58" y="24" width="452" height="288" fill="white" mask="url(#fade)" />
<rect x="58" y="264" width="452" height="288" style="fill: white; stroke: white;" />
<g style="fill: black; stroke: black;">
<rect x="72" y="184.47" width="1" height="56.49" />
<rect x="97" y="152.54" width="1" height="102.93" />
<rect x="122" y="708.61" width="1" height="0" />
<rect x="147" y="150.55" width="1" height="68.36" />
<rect x="172" y="161.75" width="1" height="79.86" />
<rect x="197" y="708.61" width="1" height="0" />
<rect x="222" y="126.46" width="1" height="126.56" />
<rect x="247" y="708.61" width="1" height="0" />
<rect x="272" y="83" width="1" height="152.48" />
<rect x="297" y="55.47" width="1" height="193.36" />
<rect x="322" y="87.83" width="1" height="161.74" />
<rect x="347" y="86.18" width="1" height="88.73" />
<rect x="372" y="66.19" width="1" height="128.63" />
<rect x="397" y="57.18" width="1" height="168.31" />
<rect x="422" y="708.61" width="1" height="0" />
<rect x="447" y="-5.85" width="1" height="155.26" />
</g>
<g style="fill: white; stroke: black;">
<rect x="62" y="189.51" width="20" height="26.9" />
<rect x="87" y="180.74" width="20" height="48.76" />
<rect x="112" y="708.61" width="20" height="0" />
<rect x="137" y="176.07" width="20" height="37.79" />
<rect x="162" y="171.5" width="20" height="15.75" />
<rect x="187" y="708.61" width="20" height="0" />
<rect x="212" y="134.8" width="20" height="34.52" />
<rect x="237" y="708.61" width="20" height="0" />
<rect x="262" y="102.94" width="20" height="49.59" />
<rect x="287" y="87.1" width="20" height="72.1" />
<rect x="312" y="102.98" width="20" height="26.41" />
<rect x="337" y="104.99" width="20" height="40.47" />
<rect x="362" y="96.44" width="20" height="60.71" />
<rect x="387" y="87.57" width="20" height="61.69" />
<rect x="412" y="708.61" width="20" height="0" />
<rect x="437" y="-1.24" width="20" height="81.79" />
</g>
<g style="fill: black; stroke: black;">
<line x1="67.5" y1="240.96" x2="77" y2="240.96" />
<line x1="67.5" y1="184.47" x2="77" y2="184.47" />
</g>
<g style="fill: black; stroke: black;">
<rect x="63" y="205.77" width="18" height="1" />
</g>
<g style="fill: black; stroke: black;">
<line x1="92.5" y1="255.47" x2="102" y2="255.47" />
<line x1="92.5" y1="152.54" x2="102" y2="152.54" />
<line x1="92.5" y1="138.91" x2="102" y2="138.91" />
<rect x="97" y="138.91" width="1" height="5" />
</g>
<g style="fill: black; stroke: black;">
<rect x="88" y="214.6" width="18" height="1" />
</g>
<g style="fill: black; stroke: black;">
<line x1="117.5" y1="708.61" x2="127" y2="708.61" />
<line x1="117.5" y1="708.61" x2="127" y2="708.61" />
</g>
<g style="fill: black; stroke: black;">
<rect x="113" y="707.61" width="18" height="1" />
</g>
<g style="fill: black; stroke: black;">
<line x1="142.5" y1="218.92" x2="152" y2="218.92" />
<line x1="142.5" y1="150.55" x2="152" y2="150.55" />
<line x1="142.5" y1="97.03" x2="152" y2="97.03" />
<rect x="147" y="97.03" width="1" height="5" />
</g>
<g style="fill: black; stroke: black;">
<rect x="138" y="196.35" width="18" height="1" />
</g>
<g style="fill: black; stroke: black;">
<line x1="167.5" y1="241.61" x2="177" y2="241.61" />
<line x1="167.5" y1="161.75" x2="177" y2="161.75" />
<line x1="167.5" y1="244.52" x2="177" y2="244.52" />
<rect x="172" y="239.52" width="1" height="5" />
</g>
<g style="fill: black; stroke: black;">
<rect x="163" y="175.12" width="18" height="1" />
</g>
<g style="fill: black; stroke: black;">
<line x1="192.5" y1="708.61" x2="202" y2="708.61" />
<line x1="192.5" y1="708.61" x2="202" y2="708.61" />
</g>
<g style="fill: black; stroke: black;">
<rect x="188" y="707.61" width="18" height="1" />
</g>
<g style="fill: black; stroke: black;">
<line x1="217.5" y1="253.03" x2="227" y2="253.03" />
<line x1="217.5" y1="126.46" x2="227" y2="126.46" />
</g>
<g style="fill: black; stroke: black;">
<rect x="213" y="152.77" width="18" height="1" />
</g>
<g style="fill: black; stroke: black;">
<line x1="242.5" y1="708.61" x2="252" y2="708.61" />
<line x1="242.5" y1="708.61" x2="252" y2="708.61" />
</g>
<g style="fill: black; stroke: black;">
<rect x="238" y="707.61" width="18" height="1" />
</g>
<g style="fill: black; stroke: black;">
<line x1="267.5" y1="235.48" x2="277" y2="235.48" />
<line x1="267.5" y1="83" x2="277" y2="83" />
</g>
<g style="fill: black; stroke: black;">
<rect x="263" y="126.08" width="18" height="1" />
</g>
<g style="fill: black; stroke: black;">
<line x1="292.5" y1="248.83" x2="302" y2="248.83" />
<line x1="292.5" y1="55.47" x2="302" y2="55.47" />
<line x1="292.5" y1="44.84" x2="302" y2="44.84" />
<rect x="297" y="44.84" width="1" height="5" />
</g>
<g style="fill: black; stroke: black;">
<rect x="288" y="120.41" width="18" height="1" />
</g>
<g style="fill: black; stroke: black;">
<line x1="317.5" y1="249.57" x2="327" y2="249.57" />
<line x1="317.5" y1="87.83" x2="327" y2="87.83" />
</g>
<g style="fill: black; stroke: black;">
<rect x="313" y="119.67" width="18" height="1" />
</g>
<g style="fill: black; stroke: black;">
<line x1="342.5" y1="174.91" x2="352" y2="174.91" />
<line x1="342.5" y1="86.18" x2="352" y2="86.18" />
</g>
<g style="fill: black; stroke: black;">
<rect x="338" y="124.52" width="18" height="1" />
</g>
<g style="fill: black; stroke: black;">
<line x1="367.5" y1="194.82" x2="377" y2="194.82" />
<line x1="367.5" y1="66.19" x2="377" y2="66.19" />
<line x1="367.5" y1="56.8" x2="377" y2="56.8" />
<rect x="372" y="56.8" width="1" height="5" />
</g>
<g style="fill: black; stroke: black;">
<rect x="363" y="121.77" width="18" height="1" />
</g>
<g style="fill: black; stroke: black;">
<line x1="392.5" y1="225.49" x2="402" y2="225.49" />
<line x1="392.5" y1="57.18" x2="402" y2="57.18" />
<line x1="392.5" y1="13.25" x2="402" y2="13.25" />
<rect x="397" y="13.25" width="1" height="5" />
</g>
<g style="fill: black; stroke: black;">
<rect x="388" y="103.79" width="18" height="1" />
</g>
<g style="fill: black; stroke: black;">
<line x1="417.5" y1="708.61" x2="427" y2="708.61" />
<line x1="417.5" y1="708.61" x2="427" y2="708.61" />
</g>
<g style="fill: black; stroke: black;">
<rect x="413" y="707.61" width="18" height="1" />
</g>
<g style="fill: black; stroke: black;">
<line x1="442.5" y1="149.41" x2="452" y2="149.41" />
<line x1="442.5" y1="-5.85" x2="452" y2="-5.85" />
</g>
<g style="fill: black; stroke: black;">
<rect x="438" y="37.86" width="18" height="1" />
</g>
<g style="text-anchor: end; font-family: Ubuntu,Verdana,sans-serif; font-size: 0.9em;" >
<text x="462" y="282" >01 May 2021 u64q</text>
<text x="58" y="282" style="text-anchor: start;" >benchmarks game</text>
</g>
<text x="16" y="144" transform="rotate(270,16,144)" style="text-anchor: middle; font-family: Ubuntu,Verdana,sans-serif; font-size: 0.9em;" >program busy time / least busy</text>
<text x="259.5" y="18" style="text-anchor: middle; font-family: Ubuntu,Verdana,sans-serif; font-size: 1.2em;" >How many times slower?</text>
<g style="stroke: #333;">
<line x1="58" y1="24" x2="58" y2="264" />
<line x1="461" y1="24" x2="461" y2="264" />
<line x1="58" y1="264" x2="461" y2="264" />
</g>
</svg>

