<?xml version="1.0" encoding="UTF-8" standalone="no"?>
<!DOCTYPE svg PUBLIC "-//W3C//DTD SVG 1.1//EN" "http://www.w3.org/Graphics/SVG/1.1/DTD/svg11.dtd">
<svg xmlns="http://www.w3.org/2000/svg" version="1.1" xmlns:xlink="http://www.w3.org/1999/xlink" viewBox="0 0 512 288">

<!-- Copyright 2015 Isaac Gouy -->
<!-- http://benchmarksgame.alioth.debian.org/license.html -->

<g style="stroke: #ccc;" >
<line x1="51" y1="264" x2="511" y2="264" />
<line x1="51" y1="221.57" x2="511" y2="221.57" />
<line x1="51" y1="201.85" x2="511" y2="201.85" />
<line x1="51" y1="175.08" x2="511" y2="175.08" />
<line x1="51" y1="132.65" x2="511" y2="132.65" />
<line x1="51" y1="112.92" x2="511" y2="112.92" />
<line x1="51" y1="86.15" x2="511" y2="86.15" />
<line x1="51" y1="43.73" x2="511" y2="43.73" />
<line x1="51" y1="24" x2="511" y2="24" />
</g>
<g style="text-anchor: end; font-family: Ubuntu,Verdana,sans-serif; font-size: 0.9em;" >
<text x="51" y="262" >1</text>
<text x="51" y="219.57" >3</text>
<text x="51" y="199.85" >5</text>
<text x="51" y="173.08" >10</text>
<text x="51" y="130.65" >30</text>
<text x="51" y="110.92" >50</text>
<text x="51" y="84.15" >100</text>
<text x="51" y="41.73" >300</text>
<text x="51" y="22" ></text>
</g>
<defs>
<linearGradient id="grade" x1="0" y1="0" x2="0" y2="1">
<stop offset="0" style="stop-color: white" stop-opacity="0.6"/>
<stop offset="1" style="stop-color: white" stop-opacity="0.8"/>
</linearGradient>
<mask id="fade">
<rect x="58" y="24" width="452" height="288" fill="url(#grade)"  />
</mask>
<g id="backgroundText" style="text-anchor: end; font-family: Ubuntu,Verdana,sans-serif; font-size: 1em;">
<text x="17.5" y="0" transform="rotate(270,17.5,0)" xml:space="preserve">   Haskell GHC   Haskell GHC   Haskell GHC   Haskell GHC</text>
<text x="45.5" y="0" transform="rotate(270,45.5,0)" xml:space="preserve">   TypeScript   TypeScript   TypeScript   TypeScript</text>
<text x="73.5" y="0" transform="rotate(270,73.5,0)" xml:space="preserve">   Node js   Node js   Node js   Node js   Node js   Node js</text>
<br />
<b>Warning</b>:  Division by zero in <b>/home/dunham/8000-benchmarksgame/website/lib/lib_chartSVG.php</b> on line <b>289</b><br />
<br />
<b>Warning</b>:  str_repeat() expects parameter 2 to be int, float given in <b>/home/dunham/8000-benchmarksgame/website/lib/lib_chartSVG.php</b> on line <b>290</b><br />
<text x="101.5" y="0" transform="rotate(270,101.5,0)" xml:space="preserve"></text>
<text x="129.5" y="0" transform="rotate(270,129.5,0)" xml:space="preserve">Dart   Dart   Dart   Dart   Dart   Dart   Dart   Dart   Dart</text>
<text x="157.5" y="0" transform="rotate(270,157.5,0)" xml:space="preserve">   Racket   Racket   Racket   Racket   Racket   Racket</text>
<br />
<b>Warning</b>:  Division by zero in <b>/home/dunham/8000-benchmarksgame/website/lib/lib_chartSVG.php</b> on line <b>289</b><br />
<br />
<b>Warning</b>:  str_repeat() expects parameter 2 to be int, float given in <b>/home/dunham/8000-benchmarksgame/website/lib/lib_chartSVG.php</b> on line <b>290</b><br />
<text x="185.5" y="0" transform="rotate(270,185.5,0)" xml:space="preserve"></text>
<text x="213.5" y="0" transform="rotate(270,213.5,0)" xml:space="preserve">   PHP   PHP   PHP   PHP   PHP   PHP   PHP   PHP   PHP   PHP</text>
<text x="241.5" y="0" transform="rotate(270,241.5,0)" xml:space="preserve">   Erlang HiPE   Erlang HiPE   Erlang HiPE   Erlang HiPE</text>
<text x="269.5" y="0" transform="rotate(270,269.5,0)" xml:space="preserve">   VW Smalltalk   VW Smalltalk   VW Smalltalk   VW Smalltalk</text>
<text x="297.5" y="0" transform="rotate(270,297.5,0)" xml:space="preserve">   Python 3   Python 3   Python 3   Python 3   Python 3</text>
<text x="325.5" y="0" transform="rotate(270,325.5,0)" xml:space="preserve">Ruby   Ruby   Ruby   Ruby   Ruby   Ruby   Ruby   Ruby   Ruby</text>
<text x="353.5" y="0" transform="rotate(270,353.5,0)" xml:space="preserve">Perl   Perl   Perl   Perl   Perl   Perl   Perl   Perl   Perl</text>
<text x="381.5" y="0" transform="rotate(270,381.5,0)" xml:space="preserve">   Lua   Lua   Lua   Lua   Lua   Lua   Lua   Lua   Lua   Lua</text>
<br />
<b>Warning</b>:  Division by zero in <b>/home/dunham/8000-benchmarksgame/website/lib/lib_chartSVG.php</b> on line <b>289</b><br />
<br />
<b>Warning</b>:  str_repeat() expects parameter 2 to be int, float given in <b>/home/dunham/8000-benchmarksgame/website/lib/lib_chartSVG.php</b> on line <b>290</b><br />
<text x="409.5" y="0" transform="rotate(270,409.5,0)" xml:space="preserve"></text>
<text x="437.5" y="0" transform="rotate(270,437.5,0)" xml:space="preserve">   Matz's Ruby   Matz's Ruby   Matz's Ruby   Matz's Ruby</text>
</g>
</defs>
<use x="60" y="27" xlink:href="#backgroundText"/>
<rect x="58" y="24" width="452" height="288" fill="white" mask="url(#fade)" />
<rect x="58" y="264" width="452" height="288" style="fill: white; stroke: white;" />
<g style="fill: black; stroke: black;">
<rect x="72" y="169.86" width="1" height="85.31" />
<rect x="100" y="181.37" width="1" height="55.29" />
<rect x="128" y="186.12" width="1" height="50.75" />
<rect x="156" y="708.61" width="1" height="0" />
<rect x="184" y="151.66" width="1" height="83.36" />
<rect x="212" y="152.65" width="1" height="93.7" />
<rect x="240" y="708.61" width="1" height="0" />
<rect x="268" y="95.53" width="1" height="158.28" />
<rect x="296" y="102.34" width="1" height="130.14" />
<rect x="324" y="87.43" width="1" height="98.03" />
<rect x="352" y="61.83" width="1" height="173.41" />
<rect x="380" y="70.73" width="1" height="138.97" />
<rect x="408" y="63.92" width="1" height="147.32" />
<rect x="436" y="78.76" width="1" height="79.75" />
<rect x="464" y="708.61" width="1" height="0" />
<rect x="492" y="2.8" width="1" height="91.79" />
</g>
<g style="fill: white; stroke: black;">
<rect x="62" y="193" width="21" height="34.55" />
<rect x="90" y="197.08" width="21" height="23.8" />
<rect x="118" y="190.83" width="21" height="27.57" />
<rect x="146" y="708.61" width="21" height="0" />
<rect x="174" y="178.87" width="21" height="44.26" />
<rect x="202" y="166.36" width="21" height="36.19" />
<rect x="230" y="708.61" width="21" height="0" />
<rect x="258" y="122.64" width="21" height="46.55" />
<rect x="286" y="129.87" width="21" height="45.67" />
<rect x="314" y="116.76" width="21" height="56.59" />
<rect x="342" y="94.12" width="21" height="79.29" />
<rect x="370" y="99.98" width="21" height="54.33" />
<rect x="398" y="94.27" width="21" height="61.48" />
<rect x="426" y="104.34" width="21" height="42.2" />
<rect x="454" y="708.61" width="21" height="0" />
<rect x="482" y="9.85" width="21" height="68.01" />
</g>
<g style="fill: black; stroke: black;">
<line x1="68" y1="255.17" x2="77.5" y2="255.17" />
<line x1="68" y1="169.86" x2="77.5" y2="169.86" />
</g>
<g style="fill: black; stroke: black;">
<rect x="63" y="214.04" width="19" height="1" />
</g>
<g style="fill: black; stroke: black;">
<line x1="96" y1="236.66" x2="105.5" y2="236.66" />
<line x1="96" y1="181.37" x2="105.5" y2="181.37" />
</g>
<g style="fill: black; stroke: black;">
<rect x="91" y="210.12" width="19" height="1" />
</g>
<g style="fill: black; stroke: black;">
<line x1="124" y1="236.87" x2="133.5" y2="236.87" />
<line x1="124" y1="186.12" x2="133.5" y2="186.12" />
</g>
<g style="fill: black; stroke: black;">
<rect x="119" y="209.63" width="19" height="1" />
</g>
<g style="fill: black; stroke: black;">
<line x1="152" y1="708.61" x2="161.5" y2="708.61" />
<line x1="152" y1="708.61" x2="161.5" y2="708.61" />
</g>
<g style="fill: black; stroke: black;">
<rect x="147" y="707.61" width="19" height="1" />
</g>
<g style="fill: black; stroke: black;">
<line x1="180" y1="235.02" x2="189.5" y2="235.02" />
<line x1="180" y1="151.66" x2="189.5" y2="151.66" />
<line x1="180" y1="81.99" x2="189.5" y2="81.99" />
<rect x="184" y="81.99" width="1" height="5" />
</g>
<g style="fill: black; stroke: black;">
<rect x="175" y="205.47" width="19" height="1" />
</g>
<g style="fill: black; stroke: black;">
<line x1="208" y1="246.35" x2="217.5" y2="246.35" />
<line x1="208" y1="152.65" x2="217.5" y2="152.65" />
</g>
<g style="fill: black; stroke: black;">
<rect x="203" y="179.97" width="19" height="1" />
</g>
<g style="fill: black; stroke: black;">
<line x1="236" y1="708.61" x2="245.5" y2="708.61" />
<line x1="236" y1="708.61" x2="245.5" y2="708.61" />
</g>
<g style="fill: black; stroke: black;">
<rect x="231" y="707.61" width="19" height="1" />
</g>
<g style="fill: black; stroke: black;">
<line x1="264" y1="253.81" x2="273.5" y2="253.81" />
<line x1="264" y1="95.53" x2="273.5" y2="95.53" />
</g>
<g style="fill: black; stroke: black;">
<rect x="259" y="154.11" width="19" height="1" />
</g>
<g style="fill: black; stroke: black;">
<line x1="292" y1="232.47" x2="301.5" y2="232.47" />
<line x1="292" y1="102.34" x2="301.5" y2="102.34" />
<line x1="292" y1="97.76" x2="301.5" y2="97.76" />
<rect x="296" y="97.76" width="1" height="5" />
</g>
<g style="fill: black; stroke: black;">
<rect x="287" y="150.54" width="19" height="1" />
</g>
<g style="fill: black; stroke: black;">
<line x1="320" y1="185.46" x2="329.5" y2="185.46" />
<line x1="320" y1="87.43" x2="329.5" y2="87.43" />
</g>
<g style="fill: black; stroke: black;">
<rect x="315" y="142.22" width="19" height="1" />
</g>
<g style="fill: black; stroke: black;">
<line x1="348" y1="235.24" x2="357.5" y2="235.24" />
<line x1="348" y1="61.83" x2="357.5" y2="61.83" />
<line x1="348" y1="61.26" x2="357.5" y2="61.26" />
<rect x="352" y="61.26" width="1" height="5" />
</g>
<g style="fill: black; stroke: black;">
<rect x="343" y="134.15" width="19" height="1" />
</g>
<g style="fill: black; stroke: black;">
<line x1="376" y1="209.7" x2="385.5" y2="209.7" />
<line x1="376" y1="70.73" x2="385.5" y2="70.73" />
<line x1="376" y1="70.4" x2="385.5" y2="70.4" />
<rect x="380" y="70.4" width="1" height="5" />
</g>
<g style="fill: black; stroke: black;">
<rect x="371" y="127.69" width="19" height="1" />
</g>
<g style="fill: black; stroke: black;">
<line x1="404" y1="211.23" x2="413.5" y2="211.23" />
<line x1="404" y1="63.92" x2="413.5" y2="63.92" />
<line x1="404" y1="28.57" x2="413.5" y2="28.57" />
<rect x="408" y="28.57" width="1" height="5" />
</g>
<g style="fill: black; stroke: black;">
<rect x="399" y="137.5" width="19" height="1" />
</g>
<g style="fill: black; stroke: black;">
<line x1="432" y1="158.51" x2="441.5" y2="158.51" />
<line x1="432" y1="78.76" x2="441.5" y2="78.76" />
</g>
<g style="fill: black; stroke: black;">
<rect x="427" y="122.75" width="19" height="1" />
</g>
<g style="fill: black; stroke: black;">
<line x1="460" y1="708.61" x2="469.5" y2="708.61" />
<line x1="460" y1="708.61" x2="469.5" y2="708.61" />
</g>
<g style="fill: black; stroke: black;">
<rect x="455" y="707.61" width="19" height="1" />
</g>
<g style="fill: black; stroke: black;">
<line x1="488" y1="94.58" x2="497.5" y2="94.58" />
<line x1="488" y1="2.8" x2="497.5" y2="2.8" />
</g>
<g style="fill: black; stroke: black;">
<rect x="483" y="52.52" width="19" height="1" />
</g>
<g style="text-anchor: end; font-family: Ubuntu,Verdana,sans-serif; font-size: 0.9em;" >
<text x="512" y="282" >01 Oct 2019 u64q</text>
<text x="58" y="282" style="text-anchor: start;" >benchmarks game</text>
</g>
<text x="16" y="144" transform="rotate(270,16,144)" style="text-anchor: middle; font-family: Ubuntu,Verdana,sans-serif; font-size: 0.9em;" >program busy time / least busy</text>
<text x="285" y="18" style="text-anchor: middle; font-family: Ubuntu,Verdana,sans-serif; font-size: 1.2em;" >How many times slower?</text>
<g style="stroke: #333;">
<line x1="58" y1="24" x2="58" y2="264" />
<line x1="511" y1="24" x2="511" y2="264" />
<line x1="58" y1="264" x2="511" y2="264" />
</g>
</svg>

