<?xml version="1.0" encoding="UTF-8" standalone="no"?>
<!DOCTYPE svg PUBLIC "-//W3C//DTD SVG 1.1//EN" "http://www.w3.org/Graphics/SVG/1.1/DTD/svg11.dtd">
<svg xmlns="http://www.w3.org/2000/svg" version="1.1" xmlns:xlink="http://www.w3.org/1999/xlink" viewBox="0 0 512 288">

<!-- Copyright 2015 Isaac Gouy -->
<!-- http://benchmarksgame.alioth.debian.org/license.html -->

<g style="stroke: #ccc;" >
<line x1="51" y1="264" x2="511" y2="264" />
<line x1="51" y1="221.57" x2="511" y2="221.57" />
<line x1="51" y1="201.85" x2="511" y2="201.85" />
<line x1="51" y1="175.08" x2="511" y2="175.08" />
<line x1="51" y1="132.65" x2="511" y2="132.65" />
<line x1="51" y1="112.92" x2="511" y2="112.92" />
<line x1="51" y1="86.15" x2="511" y2="86.15" />
<line x1="51" y1="43.73" x2="511" y2="43.73" />
<line x1="51" y1="24" x2="511" y2="24" />
</g>
<g style="text-anchor: end; font-family: Ubuntu,Verdana,sans-serif; font-size: 0.9em;" >
<text x="51" y="262" >1</text>
<text x="51" y="219.57" >3</text>
<text x="51" y="199.85" >5</text>
<text x="51" y="173.08" >10</text>
<text x="51" y="130.65" >30</text>
<text x="51" y="110.92" >50</text>
<text x="51" y="84.15" >100</text>
<text x="51" y="41.73" >300</text>
<text x="51" y="22" ></text>
</g>
<defs>
<linearGradient id="grade" x1="0" y1="0" x2="0" y2="1">
<stop offset="0" style="stop-color: white" stop-opacity="0.6"/>
<stop offset="1" style="stop-color: white" stop-opacity="0.8"/>
</linearGradient>
<mask id="fade">
<rect x="58" y="24" width="452" height="288" fill="url(#grade)"  />
</mask>
<g id="backgroundText" style="text-anchor: end; font-family: Ubuntu,Verdana,sans-serif; font-size: 1em;">
<text x="17.5" y="0" transform="rotate(270,17.5,0)" xml:space="preserve">   C gcc   C gcc   C gcc   C gcc   C gcc   C gcc   C gcc</text>
<text x="45.5" y="0" transform="rotate(270,45.5,0)" xml:space="preserve">Rust   Rust   Rust   Rust   Rust   Rust   Rust   Rust   Rust</text>
<text x="73.5" y="0" transform="rotate(270,73.5,0)" xml:space="preserve">   C++ g++   C++ g++   C++ g++   C++ g++   C++ g++   C++ g++</text>
<br />
<b>Warning</b>:  Division by zero in <b>/home/dunham/8000-benchmarksgame/website/lib/lib_chartSVG.php</b> on line <b>289</b><br />
<br />
<b>Warning</b>:  str_repeat() expects parameter 2 to be int, float given in <b>/home/dunham/8000-benchmarksgame/website/lib/lib_chartSVG.php</b> on line <b>290</b><br />
<text x="101.5" y="0" transform="rotate(270,101.5,0)" xml:space="preserve"></text>
<text x="129.5" y="0" transform="rotate(270,129.5,0)" xml:space="preserve">ortran Intel   Fortran Intel   Fortran Intel   Fortran Intel</text>
<text x="157.5" y="0" transform="rotate(270,157.5,0)" xml:space="preserve">da 2012 GNAT   Ada 2012 GNAT   Ada 2012 GNAT   Ada 2012 GNAT</text>
<text x="185.5" y="0" transform="rotate(270,185.5,0)" xml:space="preserve">   C# .NET Core   C# .NET Core   C# .NET Core   C# .NET Core</text>
<text x="213.5" y="0" transform="rotate(270,213.5,0)" xml:space="preserve">   Free Pascal   Free Pascal   Free Pascal   Free Pascal</text>
<text x="241.5" y="0" transform="rotate(270,241.5,0)" xml:space="preserve">   Swift   Swift   Swift   Swift   Swift   Swift   Swift</text>
<text x="269.5" y="0" transform="rotate(270,269.5,0)" xml:space="preserve">Java   Java   Java   Java   Java   Java   Java   Java   Java</text>
<text x="297.5" y="0" transform="rotate(270,297.5,0)" xml:space="preserve">   Chapel   Chapel   Chapel   Chapel   Chapel   Chapel</text>
<text x="325.5" y="0" transform="rotate(270,325.5,0)" xml:space="preserve">   F# .NET Core   F# .NET Core   F# .NET Core   F# .NET Core</text>
<text x="353.5" y="0" transform="rotate(270,353.5,0)" xml:space="preserve">   Lisp SBCL   Lisp SBCL   Lisp SBCL   Lisp SBCL   Lisp SBCL</text>
<text x="381.5" y="0" transform="rotate(270,381.5,0)" xml:space="preserve">   Go   Go   Go   Go   Go   Go   Go   Go   Go   Go   Go   Go</text>
<text x="409.5" y="0" transform="rotate(270,409.5,0)" xml:space="preserve">   OCaml   OCaml   OCaml   OCaml   OCaml   OCaml   OCaml</text>
</g>
</defs>
<use x="60" y="27" xlink:href="#backgroundText"/>
<rect x="58" y="24" width="452" height="288" fill="white" mask="url(#fade)" />
<rect x="58" y="264" width="452" height="288" style="fill: white; stroke: white;" />
<g style="fill: black; stroke: black;">
<rect x="72" y="250.09" width="1" height="13.91" />
<rect x="100" y="242.88" width="1" height="21.12" />
<rect x="128" y="241.25" width="1" height="22.75" />
<rect x="156" y="708.61" width="1" height="0" />
<rect x="184" y="212.13" width="1" height="51.87" />
<rect x="212" y="193.65" width="1" height="70.27" />
<rect x="240" y="212.96" width="1" height="42.06" />
<rect x="268" y="200.39" width="1" height="63.61" />
<rect x="296" y="186.6" width="1" height="74.84" />
<rect x="324" y="190.87" width="1" height="62.87" />
<rect x="352" y="188.62" width="1" height="75.38" />
<rect x="380" y="187.74" width="1" height="55.99" />
<rect x="408" y="186.16" width="1" height="51" />
<rect x="436" y="188" width="1" height="67.62" />
<rect x="464" y="178.54" width="1" height="62.64" />
</g>
<g style="fill: white; stroke: black;">
<rect x="62" y="253.62" width="21" height="10.31" />
<rect x="90" y="249.16" width="21" height="13.79" />
<rect x="118" y="250.13" width="21" height="13.73" />
<rect x="146" y="708.61" width="21" height="0" />
<rect x="174" y="234.05" width="21" height="27.5" />
<rect x="202" y="218.93" width="21" height="37.01" />
<rect x="230" y="224.18" width="21" height="19.23" />
<rect x="258" y="218.06" width="21" height="18.88" />
<rect x="286" y="212.32" width="21" height="38.5" />
<rect x="314" y="211.93" width="21" height="25.51" />
<rect x="342" y="206.14" width="21" height="35.7" />
<rect x="370" y="210.36" width="21" height="29.21" />
<rect x="398" y="201.73" width="21" height="29.35" />
<rect x="426" y="211.35" width="21" height="31.18" />
<rect x="454" y="202.48" width="21" height="32.83" />
</g>
<g style="fill: black; stroke: black;">
<line x1="68" y1="264" x2="77.5" y2="264" />
<line x1="68" y1="250.09" x2="77.5" y2="250.09" />
</g>
<g style="fill: black; stroke: black;">
<rect x="63" y="259.24" width="19" height="1" />
</g>
<g style="fill: black; stroke: black;">
<line x1="96" y1="264" x2="105.5" y2="264" />
<line x1="96" y1="242.88" x2="105.5" y2="242.88" />
</g>
<g style="fill: black; stroke: black;">
<rect x="91" y="260.3" width="19" height="1" />
</g>
<g style="fill: black; stroke: black;">
<line x1="124" y1="264" x2="133.5" y2="264" />
<line x1="124" y1="241.25" x2="133.5" y2="241.25" />
</g>
<g style="fill: black; stroke: black;">
<rect x="119" y="257.14" width="19" height="1" />
</g>
<g style="fill: black; stroke: black;">
<line x1="152" y1="708.61" x2="161.5" y2="708.61" />
<line x1="152" y1="708.61" x2="161.5" y2="708.61" />
</g>
<g style="fill: black; stroke: black;">
<rect x="147" y="707.61" width="19" height="1" />
</g>
<g style="fill: black; stroke: black;">
<line x1="180" y1="264" x2="189.5" y2="264" />
<line x1="180" y1="212.13" x2="189.5" y2="212.13" />
<line x1="180" y1="181.96" x2="189.5" y2="181.96" />
<rect x="184" y="181.96" width="1" height="5" />
</g>
<g style="fill: black; stroke: black;">
<rect x="175" y="246.33" width="19" height="1" />
</g>
<g style="fill: black; stroke: black;">
<line x1="208" y1="263.91" x2="217.5" y2="263.91" />
<line x1="208" y1="193.65" x2="217.5" y2="193.65" />
<line x1="208" y1="180.8" x2="217.5" y2="180.8" />
<rect x="212" y="180.8" width="1" height="5" />
</g>
<g style="fill: black; stroke: black;">
<rect x="203" y="243.16" width="19" height="1" />
</g>
<g style="fill: black; stroke: black;">
<line x1="236" y1="255.02" x2="245.5" y2="255.02" />
<line x1="236" y1="212.96" x2="245.5" y2="212.96" />
</g>
<g style="fill: black; stroke: black;">
<rect x="231" y="235.5" width="19" height="1" />
</g>
<g style="fill: black; stroke: black;">
<line x1="264" y1="264" x2="273.5" y2="264" />
<line x1="264" y1="200.39" x2="273.5" y2="200.39" />
<line x1="264" y1="191.75" x2="273.5" y2="191.75" />
<rect x="268" y="191.75" width="1" height="5" />
</g>
<g style="fill: black; stroke: black;">
<rect x="259" y="221.16" width="19" height="1" />
</g>
<g style="fill: black; stroke: black;">
<line x1="292" y1="261.44" x2="301.5" y2="261.44" />
<line x1="292" y1="186.6" x2="301.5" y2="186.6" />
<line x1="292" y1="132.5" x2="301.5" y2="132.5" />
<rect x="296" y="132.5" width="1" height="5" />
</g>
<g style="fill: black; stroke: black;">
<rect x="287" y="239.08" width="19" height="1" />
</g>
<g style="fill: black; stroke: black;">
<line x1="320" y1="253.74" x2="329.5" y2="253.74" />
<line x1="320" y1="190.87" x2="329.5" y2="190.87" />
<line x1="320" y1="167.75" x2="329.5" y2="167.75" />
<rect x="324" y="167.75" width="1" height="5" />
</g>
<g style="fill: black; stroke: black;">
<rect x="315" y="229.2" width="19" height="1" />
</g>
<g style="fill: black; stroke: black;">
<line x1="348" y1="264" x2="357.5" y2="264" />
<line x1="348" y1="188.62" x2="357.5" y2="188.62" />
</g>
<g style="fill: black; stroke: black;">
<rect x="343" y="218.73" width="19" height="1" />
</g>
<g style="fill: black; stroke: black;">
<line x1="376" y1="243.73" x2="385.5" y2="243.73" />
<line x1="376" y1="187.74" x2="385.5" y2="187.74" />
<line x1="376" y1="149.92" x2="385.5" y2="149.92" />
<rect x="380" y="149.92" width="1" height="5" />
</g>
<g style="fill: black; stroke: black;">
<rect x="371" y="230.53" width="19" height="1" />
</g>
<g style="fill: black; stroke: black;">
<line x1="404" y1="237.16" x2="413.5" y2="237.16" />
<line x1="404" y1="186.16" x2="413.5" y2="186.16" />
</g>
<g style="fill: black; stroke: black;">
<rect x="399" y="223.8" width="19" height="1" />
</g>
<g style="fill: black; stroke: black;">
<line x1="432" y1="255.62" x2="441.5" y2="255.62" />
<line x1="432" y1="188" x2="441.5" y2="188" />
<line x1="432" y1="139.66" x2="441.5" y2="139.66" />
<rect x="436" y="139.66" width="1" height="5" />
</g>
<g style="fill: black; stroke: black;">
<rect x="427" y="216.67" width="19" height="1" />
</g>
<g style="fill: black; stroke: black;">
<line x1="460" y1="241.17" x2="469.5" y2="241.17" />
<line x1="460" y1="178.54" x2="469.5" y2="178.54" />
<line x1="460" y1="174.05" x2="469.5" y2="174.05" />
<rect x="464" y="174.05" width="1" height="5" />
</g>
<g style="fill: black; stroke: black;">
<rect x="455" y="211.47" width="19" height="1" />
</g>
<g style="text-anchor: end; font-family: Ubuntu,Verdana,sans-serif; font-size: 0.9em;" >
<text x="512" y="282" >01 May 2019 u64q</text>
<text x="58" y="282" style="text-anchor: start;" >benchmarks game</text>
</g>
<text x="16" y="144" transform="rotate(270,16,144)" style="text-anchor: middle; font-family: Ubuntu,Verdana,sans-serif; font-size: 0.9em;" >program CPU time / fastest CPU time</text>
<text x="285" y="18" style="text-anchor: middle; font-family: Ubuntu,Verdana,sans-serif; font-size: 1.2em;" >How many times slower?</text>
<g style="stroke: #333;">
<line x1="58" y1="24" x2="58" y2="264" />
<line x1="511" y1="24" x2="511" y2="264" />
<line x1="58" y1="264" x2="511" y2="264" />
</g>
</svg>

