<?xml version="1.0" encoding="UTF-8" standalone="no"?>
<!DOCTYPE svg PUBLIC "-//W3C//DTD SVG 1.1//EN" "http://www.w3.org/Graphics/SVG/1.1/DTD/svg11.dtd">
<svg xmlns="http://www.w3.org/2000/svg" version="1.1" xmlns:xlink="http://www.w3.org/1999/xlink" viewBox="0 0 512 288">

<!-- Copyright 2015-2021 Isaac Gouy -->
<!-- https://salsa.debian.org/benchmarksgame-team/benchmarksgame/blob/master/LICENSE.md -->

<g style="stroke: #ccc;" >
<line x1="51" y1="264" x2="461" y2="264" />
<line x1="51" y1="221.57" x2="461" y2="221.57" />
<line x1="51" y1="201.85" x2="461" y2="201.85" />
<line x1="51" y1="175.08" x2="461" y2="175.08" />
<line x1="51" y1="132.65" x2="461" y2="132.65" />
<line x1="51" y1="112.92" x2="461" y2="112.92" />
<line x1="51" y1="86.15" x2="461" y2="86.15" />
<line x1="51" y1="43.73" x2="461" y2="43.73" />
<line x1="51" y1="24" x2="461" y2="24" />
</g>
<g style="text-anchor: end; font-family: Ubuntu,Verdana,sans-serif; font-size: 0.9em;" >
<text x="51" y="262" >1</text>
<text x="51" y="219.57" >3</text>
<text x="51" y="199.85" >5</text>
<text x="51" y="173.08" >10</text>
<text x="51" y="130.65" >30</text>
<text x="51" y="110.92" >50</text>
<text x="51" y="84.15" >100</text>
<text x="51" y="41.73" >300</text>
<text x="51" y="22" ></text>
</g>
<defs>
<linearGradient id="grade" x1="0" y1="0" x2="0" y2="1">
<stop offset="0" style="stop-color: white" stop-opacity="0.6"/>
<stop offset="1" style="stop-color: white" stop-opacity="0.8"/>
</linearGradient>
<mask id="fade">
<rect x="58" y="24" width="452" height="288" fill="url(#grade)"  />
</mask>
<g id="backgroundText" style="text-anchor: end; font-family: Ubuntu,Verdana,sans-serif; font-size: 1em;">
<text x="15" y="0" transform="rotate(270,15,0)" xml:space="preserve">   Node js   Node js   Node js   Node js</text>
<text x="40" y="0" transform="rotate(270,40,0)" xml:space="preserve">   Swift   Swift   Swift   Swift   Swift</text>
<text x="65" y="0" transform="rotate(270,65,0)" xml:space="preserve">                                                            </text>
<text x="90" y="0" transform="rotate(270,90,0)" xml:space="preserve">   Racket   Racket   Racket   Racket   Racket</text>
<text x="115" y="0" transform="rotate(270,115,0)" xml:space="preserve">   Dart   Dart   Dart   Dart   Dart   Dart</text>
<text x="140" y="0" transform="rotate(270,140,0)" xml:space="preserve">                                                            </text>
<text x="165" y="0" transform="rotate(270,165,0)" xml:space="preserve">   PHP   PHP   PHP   PHP   PHP   PHP   PHP   PHP</text>
<text x="190" y="0" transform="rotate(270,190,0)" xml:space="preserve">                                                            </text>
<text x="215" y="0" transform="rotate(270,215,0)" xml:space="preserve">   Erlang HiPE   Erlang HiPE   Erlang HiPE</text>
<text x="240" y="0" transform="rotate(270,240,0)" xml:space="preserve">   Ruby   Ruby   Ruby   Ruby   Ruby   Ruby</text>
<text x="265" y="0" transform="rotate(270,265,0)" xml:space="preserve">   Python 3   Python 3   Python 3   Python 3</text>
<text x="290" y="0" transform="rotate(270,290,0)" xml:space="preserve">   VW Smalltalk   VW Smalltalk   VW Smalltalk</text>
<text x="315" y="0" transform="rotate(270,315,0)" xml:space="preserve">   Perl   Perl   Perl   Perl   Perl   Perl</text>
<text x="340" y="0" transform="rotate(270,340,0)" xml:space="preserve">   Lua   Lua   Lua   Lua   Lua   Lua   Lua   Lua</text>
<text x="365" y="0" transform="rotate(270,365,0)" xml:space="preserve">                                                            </text>
<text x="390" y="0" transform="rotate(270,390,0)" xml:space="preserve">   Matz's Ruby   Matz's Ruby   Matz's Ruby</text>
</g>
</defs>
<use x="60" y="27" xlink:href="#backgroundText"/>
<rect x="58" y="24" width="452" height="288" fill="white" mask="url(#fade)" />
<rect x="58" y="264" width="452" height="288" style="fill: white; stroke: white;" />
<g style="fill: black; stroke: black;">
<rect x="72" y="183.78" width="1" height="56.38" />
<rect x="97" y="151.12" width="1" height="104.35" />
<rect x="122" y="708.61" width="1" height="0" />
<rect x="147" y="161.75" width="1" height="82.77" />
<rect x="172" y="152.25" width="1" height="83.01" />
<rect x="197" y="708.61" width="1" height="0" />
<rect x="222" y="132.12" width="1" height="120.9" />
<rect x="247" y="708.61" width="1" height="0" />
<rect x="272" y="93.95" width="1" height="141.37" />
<rect x="297" y="91.66" width="1" height="103.31" />
<rect x="322" y="63.9" width="1" height="183.96" />
<rect x="347" y="86.18" width="1" height="88.57" />
<rect x="372" y="58.12" width="1" height="167.37" />
<rect x="397" y="97.07" width="1" height="50.92" />
<rect x="422" y="708.61" width="1" height="0" />
<rect x="447" y="-8.95" width="1" height="144.72" />
</g>
<g style="fill: white; stroke: black;">
<rect x="62" y="189.79" width="20" height="38.4" />
<rect x="87" y="180.74" width="20" height="56.56" />
<rect x="112" y="708.61" width="20" height="0" />
<rect x="137" y="170.62" width="20" height="32.8" />
<rect x="162" y="176.21" width="20" height="32.87" />
<rect x="187" y="708.61" width="20" height="0" />
<rect x="212" y="142.63" width="20" height="28.56" />
<rect x="237" y="708.61" width="20" height="0" />
<rect x="262" y="119.11" width="20" height="36.58" />
<rect x="287" y="117.38" width="20" height="39.29" />
<rect x="312" y="89.22" width="20" height="69.35" />
<rect x="337" y="109.24" width="20" height="50.3" />
<rect x="362" y="90.08" width="20" height="75.59" />
<rect x="387" y="100.98" width="20" height="26.4" />
<rect x="412" y="708.61" width="20" height="0" />
<rect x="437" y="21.2" width="20" height="60.05" />
</g>
<g style="fill: black; stroke: black;">
<line x1="67.5" y1="240.16" x2="77" y2="240.16" />
<line x1="67.5" y1="183.78" x2="77" y2="183.78" />
</g>
<g style="fill: black; stroke: black;">
<rect x="63" y="208.52" width="18" height="1" />
</g>
<g style="fill: black; stroke: black;">
<line x1="92.5" y1="255.47" x2="102" y2="255.47" />
<line x1="92.5" y1="151.12" x2="102" y2="151.12" />
<line x1="92.5" y1="138.03" x2="102" y2="138.03" />
<rect x="97" y="138.03" width="1" height="5" />
</g>
<g style="fill: black; stroke: black;">
<rect x="88" y="219.38" width="18" height="1" />
</g>
<g style="fill: black; stroke: black;">
<line x1="117.5" y1="708.61" x2="127" y2="708.61" />
<line x1="117.5" y1="708.61" x2="127" y2="708.61" />
</g>
<g style="fill: black; stroke: black;">
<rect x="113" y="707.61" width="18" height="1" />
</g>
<g style="fill: black; stroke: black;">
<line x1="142.5" y1="244.52" x2="152" y2="244.52" />
<line x1="142.5" y1="161.75" x2="152" y2="161.75" />
</g>
<g style="fill: black; stroke: black;">
<rect x="138" y="176.31" width="18" height="1" />
</g>
<g style="fill: black; stroke: black;">
<line x1="167.5" y1="235.26" x2="177" y2="235.26" />
<line x1="167.5" y1="152.25" x2="177" y2="152.25" />
<line x1="167.5" y1="96.47" x2="177" y2="96.47" />
<rect x="172" y="96.47" width="1" height="5" />
</g>
<g style="fill: black; stroke: black;">
<rect x="163" y="196.26" width="18" height="1" />
</g>
<g style="fill: black; stroke: black;">
<line x1="192.5" y1="708.61" x2="202" y2="708.61" />
<line x1="192.5" y1="708.61" x2="202" y2="708.61" />
</g>
<g style="fill: black; stroke: black;">
<rect x="188" y="707.61" width="18" height="1" />
</g>
<g style="fill: black; stroke: black;">
<line x1="217.5" y1="253.03" x2="227" y2="253.03" />
<line x1="217.5" y1="132.12" x2="227" y2="132.12" />
</g>
<g style="fill: black; stroke: black;">
<rect x="213" y="157.57" width="18" height="1" />
</g>
<g style="fill: black; stroke: black;">
<line x1="242.5" y1="708.61" x2="252" y2="708.61" />
<line x1="242.5" y1="708.61" x2="252" y2="708.61" />
</g>
<g style="fill: black; stroke: black;">
<rect x="238" y="707.61" width="18" height="1" />
</g>
<g style="fill: black; stroke: black;">
<line x1="267.5" y1="235.32" x2="277" y2="235.32" />
<line x1="267.5" y1="93.95" x2="277" y2="93.95" />
<line x1="267.5" y1="83" x2="277" y2="83" />
<rect x="272" y="83" width="1" height="5" />
</g>
<g style="fill: black; stroke: black;">
<rect x="263" y="125.2" width="18" height="1" />
</g>
<g style="fill: black; stroke: black;">
<line x1="292.5" y1="194.97" x2="302" y2="194.97" />
<line x1="292.5" y1="91.66" x2="302" y2="91.66" />
</g>
<g style="fill: black; stroke: black;">
<rect x="288" y="124.95" width="18" height="1" />
</g>
<g style="fill: black; stroke: black;">
<line x1="317.5" y1="247.86" x2="327" y2="247.86" />
<line x1="317.5" y1="63.9" x2="327" y2="63.9" />
</g>
<g style="fill: black; stroke: black;">
<rect x="313" y="121.05" width="18" height="1" />
</g>
<g style="fill: black; stroke: black;">
<line x1="342.5" y1="174.75" x2="352" y2="174.75" />
<line x1="342.5" y1="86.18" x2="352" y2="86.18" />
</g>
<g style="fill: black; stroke: black;">
<rect x="338" y="128.18" width="18" height="1" />
</g>
<g style="fill: black; stroke: black;">
<line x1="367.5" y1="225.49" x2="377" y2="225.49" />
<line x1="367.5" y1="58.12" x2="377" y2="58.12" />
<line x1="367.5" y1="13.25" x2="377" y2="13.25" />
<rect x="372" y="13.25" width="1" height="5" />
</g>
<g style="fill: black; stroke: black;">
<rect x="363" y="116.44" width="18" height="1" />
</g>
<g style="fill: black; stroke: black;">
<line x1="392.5" y1="147.99" x2="402" y2="147.99" />
<line x1="392.5" y1="97.07" x2="402" y2="97.07" />
</g>
<g style="fill: black; stroke: black;">
<rect x="388" y="114.96" width="18" height="1" />
</g>
<g style="fill: black; stroke: black;">
<line x1="417.5" y1="708.61" x2="427" y2="708.61" />
<line x1="417.5" y1="708.61" x2="427" y2="708.61" />
</g>
<g style="fill: black; stroke: black;">
<rect x="413" y="707.61" width="18" height="1" />
</g>
<g style="fill: black; stroke: black;">
<line x1="442.5" y1="135.77" x2="452" y2="135.77" />
<line x1="442.5" y1="-8.95" x2="452" y2="-8.95" />
<line x1="442.5" y1="-16.22" x2="452" y2="-16.22" />
<rect x="447" y="-16.22" width="1" height="5" />
</g>
<g style="fill: black; stroke: black;">
<rect x="438" y="41.57" width="18" height="1" />
</g>
<g style="text-anchor: end; font-family: Ubuntu,Verdana,sans-serif; font-size: 0.9em;" >
<text x="462" y="282" >21 Feb 2021 u64q</text>
<text x="58" y="282" style="text-anchor: start;" >benchmarks game</text>
</g>
<text x="16" y="144" transform="rotate(270,16,144)" style="text-anchor: middle; font-family: Ubuntu,Verdana,sans-serif; font-size: 0.9em;" >program busy time / least busy</text>
<text x="259.5" y="18" style="text-anchor: middle; font-family: Ubuntu,Verdana,sans-serif; font-size: 1.2em;" >How many times slower?</text>
<g style="stroke: #333;">
<line x1="58" y1="24" x2="58" y2="264" />
<line x1="461" y1="24" x2="461" y2="264" />
<line x1="58" y1="264" x2="461" y2="264" />
</g>
</svg>

