<?xml version="1.0" encoding="UTF-8" standalone="no"?>
<!DOCTYPE svg PUBLIC "-//W3C//DTD SVG 1.1//EN" "http://www.w3.org/Graphics/SVG/1.1/DTD/svg11.dtd">
<svg xmlns="http://www.w3.org/2000/svg" version="1.1" xmlns:xlink="http://www.w3.org/1999/xlink" viewBox="0 0 512 288">

<!-- Copyright 2015 Isaac Gouy -->
<!-- http://benchmarksgame.alioth.debian.org/license.html -->

<g style="stroke: #ccc;" >
<line x1="51" y1="264" x2="511" y2="264" />
<line x1="51" y1="221.57" x2="511" y2="221.57" />
<line x1="51" y1="201.85" x2="511" y2="201.85" />
<line x1="51" y1="175.08" x2="511" y2="175.08" />
<line x1="51" y1="132.65" x2="511" y2="132.65" />
<line x1="51" y1="112.92" x2="511" y2="112.92" />
<line x1="51" y1="86.15" x2="511" y2="86.15" />
<line x1="51" y1="43.73" x2="511" y2="43.73" />
<line x1="51" y1="24" x2="511" y2="24" />
</g>
<g style="text-anchor: end; font-family: Ubuntu,Verdana,sans-serif; font-size: 0.9em;" >
<text x="51" y="262" >1</text>
<text x="51" y="219.57" >3</text>
<text x="51" y="199.85" >5</text>
<text x="51" y="173.08" >10</text>
<text x="51" y="130.65" >30</text>
<text x="51" y="110.92" >50</text>
<text x="51" y="84.15" >100</text>
<text x="51" y="41.73" >300</text>
<text x="51" y="22" ></text>
</g>
<defs>
<linearGradient id="grade" x1="0" y1="0" x2="0" y2="1">
<stop offset="0" style="stop-color: white" stop-opacity="0.6"/>
<stop offset="1" style="stop-color: white" stop-opacity="0.8"/>
</linearGradient>
<mask id="fade">
<rect x="58" y="24" width="452" height="288" fill="url(#grade)"  />
</mask>
<g id="backgroundText" style="text-anchor: end; font-family: Ubuntu,Verdana,sans-serif; font-size: 1em;">
<text x="15.5" y="0" transform="rotate(270,15.5,0)" xml:space="preserve">   C++ g++   C++ g++   C++ g++   C++ g++   C++ g++   C++ g++</text>
<text x="41.5" y="0" transform="rotate(270,41.5,0)" xml:space="preserve">   C gcc   C gcc   C gcc   C gcc   C gcc   C gcc   C gcc</text>
<text x="67.5" y="0" transform="rotate(270,67.5,0)" xml:space="preserve">Rust   Rust   Rust   Rust   Rust   Rust   Rust   Rust   Rust</text>
<text x="93.5" y="0" transform="rotate(270,93.5,0)" xml:space="preserve">da 2012 GNAT   Ada 2012 GNAT   Ada 2012 GNAT   Ada 2012 GNAT</text>
<br />
<b>Warning</b>:  Division by zero in <b>/home/dunham/8000-benchmarksgame/website/lib/lib_chartSVG.php</b> on line <b>289</b><br />
<br />
<b>Warning</b>:  str_repeat() expects parameter 2 to be integer, float given in <b>/home/dunham/8000-benchmarksgame/website/lib/lib_chartSVG.php</b> on line <b>290</b><br />
<text x="119.5" y="0" transform="rotate(270,119.5,0)" xml:space="preserve"></text>
<text x="145.5" y="0" transform="rotate(270,145.5,0)" xml:space="preserve">ortran Intel   Fortran Intel   Fortran Intel   Fortran Intel</text>
<br />
<b>Warning</b>:  Division by zero in <b>/home/dunham/8000-benchmarksgame/website/lib/lib_chartSVG.php</b> on line <b>289</b><br />
<br />
<b>Warning</b>:  str_repeat() expects parameter 2 to be integer, float given in <b>/home/dunham/8000-benchmarksgame/website/lib/lib_chartSVG.php</b> on line <b>290</b><br />
<text x="171.5" y="0" transform="rotate(270,171.5,0)" xml:space="preserve"></text>
<text x="197.5" y="0" transform="rotate(270,197.5,0)" xml:space="preserve">   Lisp SBCL   Lisp SBCL   Lisp SBCL   Lisp SBCL   Lisp SBCL</text>
<text x="223.5" y="0" transform="rotate(270,223.5,0)" xml:space="preserve">   Chapel   Chapel   Chapel   Chapel   Chapel   Chapel</text>
<text x="249.5" y="0" transform="rotate(270,249.5,0)" xml:space="preserve">   Swift   Swift   Swift   Swift   Swift   Swift   Swift</text>
<text x="275.5" y="0" transform="rotate(270,275.5,0)" xml:space="preserve">Java   Java   Java   Java   Java   Java   Java   Java   Java</text>
<text x="301.5" y="0" transform="rotate(270,301.5,0)" xml:space="preserve">   C# .NET Core   C# .NET Core   C# .NET Core   C# .NET Core</text>
<text x="327.5" y="0" transform="rotate(270,327.5,0)" xml:space="preserve">   Free Pascal   Free Pascal   Free Pascal   Free Pascal</text>
<text x="353.5" y="0" transform="rotate(270,353.5,0)" xml:space="preserve">   F# .NET Core   F# .NET Core   F# .NET Core   F# .NET Core</text>
<text x="379.5" y="0" transform="rotate(270,379.5,0)" xml:space="preserve">   Go   Go   Go   Go   Go   Go   Go   Go   Go   Go   Go   Go</text>
<text x="405.5" y="0" transform="rotate(270,405.5,0)" xml:space="preserve">   OCaml   OCaml   OCaml   OCaml   OCaml   OCaml   OCaml</text>
<text x="431.5" y="0" transform="rotate(270,431.5,0)" xml:space="preserve">   Haskell GHC   Haskell GHC   Haskell GHC   Haskell GHC</text>
</g>
</defs>
<use x="60" y="27" xlink:href="#backgroundText"/>
<rect x="58" y="24" width="452" height="288" fill="white" mask="url(#fade)" />
<rect x="58" y="264" width="452" height="288" style="fill: white; stroke: white;" />
<g style="fill: black; stroke: black;">
<rect x="72" y="246.23" width="1" height="17.77" />
<rect x="98" y="238.28" width="1" height="25.72" />
<rect x="124" y="230.19" width="1" height="32.98" />
<rect x="150" y="194.04" width="1" height="67.51" />
<rect x="176" y="708.61" width="1" height="0" />
<rect x="202" y="191.61" width="1" height="72.39" />
<rect x="228" y="708.61" width="1" height="0" />
<rect x="254" y="192.31" width="1" height="68.05" />
<rect x="280" y="190.15" width="1" height="73.85" />
<rect x="306" y="162.28" width="1" height="98.76" />
<rect x="332" y="183.01" width="1" height="75" />
<rect x="358" y="189.84" width="1" height="56.8" />
<rect x="384" y="209.9" width="1" height="29.66" />
<rect x="410" y="184.59" width="1" height="56.31" />
<rect x="436" y="164.23" width="1" height="91.07" />
<rect x="462" y="174.19" width="1" height="66.76" />
<rect x="488" y="168.64" width="1" height="57.8" />
</g>
<g style="fill: white; stroke: black;">
<rect x="62" y="255.89" width="21" height="8.11" />
<rect x="88" y="251.6" width="21" height="12.4" />
<rect x="114" y="245.86" width="21" height="15.68" />
<rect x="140" y="219.29" width="21" height="36.88" />
<rect x="166" y="708.61" width="21" height="0" />
<rect x="192" y="217.58" width="21" height="39.39" />
<rect x="218" y="708.61" width="21" height="0" />
<rect x="244" y="207.66" width="21" height="24.37" />
<rect x="270" y="194.87" width="21" height="43.47" />
<rect x="296" y="192.6" width="21" height="61.22" />
<rect x="322" y="206" width="21" height="30.19" />
<rect x="348" y="211.88" width="21" height="27.76" />
<rect x="374" y="218.56" width="21" height="7.09" />
<rect x="400" y="206.79" width="21" height="28.16" />
<rect x="426" y="192.63" width="21" height="49.76" />
<rect x="452" y="192.65" width="21" height="34.21" />
<rect x="478" y="188.41" width="21" height="35.67" />
</g>
<g style="fill: black; stroke: black;">
<line x1="68" y1="264" x2="77.5" y2="264" />
<line x1="68" y1="246.23" x2="77.5" y2="246.23" />
<line x1="68" y1="241.59" x2="77.5" y2="241.59" />
<rect x="72" y="241.59" width="1" height="5" />
</g>
<g style="fill: black; stroke: black;">
<rect x="63" y="259.73" width="19" height="1" />
</g>
<g style="fill: black; stroke: black;">
<line x1="94" y1="264" x2="103.5" y2="264" />
<line x1="94" y1="238.28" x2="103.5" y2="238.28" />
<line x1="94" y1="219.35" x2="103.5" y2="219.35" />
<rect x="98" y="219.35" width="1" height="5" />
</g>
<g style="fill: black; stroke: black;">
<rect x="89" y="258.86" width="19" height="1" />
</g>
<g style="fill: black; stroke: black;">
<line x1="120" y1="263.17" x2="129.5" y2="263.17" />
<line x1="120" y1="230.19" x2="129.5" y2="230.19" />
<line x1="120" y1="219.34" x2="129.5" y2="219.34" />
<rect x="124" y="219.34" width="1" height="5" />
</g>
<g style="fill: black; stroke: black;">
<rect x="115" y="250.21" width="19" height="1" />
</g>
<g style="fill: black; stroke: black;">
<line x1="146" y1="261.55" x2="155.5" y2="261.55" />
<line x1="146" y1="194.04" x2="155.5" y2="194.04" />
<line x1="146" y1="184.07" x2="155.5" y2="184.07" />
<rect x="150" y="184.07" width="1" height="5" />
</g>
<g style="fill: black; stroke: black;">
<rect x="141" y="237.49" width="19" height="1" />
</g>
<g style="fill: black; stroke: black;">
<line x1="172" y1="708.61" x2="181.5" y2="708.61" />
<line x1="172" y1="708.61" x2="181.5" y2="708.61" />
</g>
<g style="fill: black; stroke: black;">
<rect x="167" y="707.61" width="19" height="1" />
</g>
<g style="fill: black; stroke: black;">
<line x1="198" y1="264" x2="207.5" y2="264" />
<line x1="198" y1="191.61" x2="207.5" y2="191.61" />
<line x1="198" y1="183.68" x2="207.5" y2="183.68" />
<rect x="202" y="183.68" width="1" height="5" />
</g>
<g style="fill: black; stroke: black;">
<rect x="193" y="233.13" width="19" height="1" />
</g>
<g style="fill: black; stroke: black;">
<line x1="224" y1="708.61" x2="233.5" y2="708.61" />
<line x1="224" y1="708.61" x2="233.5" y2="708.61" />
</g>
<g style="fill: black; stroke: black;">
<rect x="219" y="707.61" width="19" height="1" />
</g>
<g style="fill: black; stroke: black;">
<line x1="250" y1="260.36" x2="259.5" y2="260.36" />
<line x1="250" y1="192.31" x2="259.5" y2="192.31" />
</g>
<g style="fill: black; stroke: black;">
<rect x="245" y="218.58" width="19" height="1" />
</g>
<g style="fill: black; stroke: black;">
<line x1="276" y1="264" x2="285.5" y2="264" />
<line x1="276" y1="190.15" x2="285.5" y2="190.15" />
</g>
<g style="fill: black; stroke: black;">
<rect x="271" y="221.49" width="19" height="1" />
</g>
<g style="fill: black; stroke: black;">
<line x1="302" y1="261.04" x2="311.5" y2="261.04" />
<line x1="302" y1="162.28" x2="311.5" y2="162.28" />
<line x1="302" y1="121.72" x2="311.5" y2="121.72" />
<rect x="306" y="121.72" width="1" height="5" />
</g>
<g style="fill: black; stroke: black;">
<rect x="297" y="236.83" width="19" height="1" />
</g>
<g style="fill: black; stroke: black;">
<line x1="328" y1="258.01" x2="337.5" y2="258.01" />
<line x1="328" y1="183.01" x2="337.5" y2="183.01" />
<line x1="328" y1="166.23" x2="337.5" y2="166.23" />
<rect x="332" y="166.23" width="1" height="5" />
</g>
<g style="fill: black; stroke: black;">
<rect x="323" y="224.62" width="19" height="1" />
</g>
<g style="fill: black; stroke: black;">
<line x1="354" y1="246.64" x2="363.5" y2="246.64" />
<line x1="354" y1="189.84" x2="363.5" y2="189.84" />
<line x1="354" y1="150.75" x2="363.5" y2="150.75" />
<rect x="358" y="150.75" width="1" height="5" />
</g>
<g style="fill: black; stroke: black;">
<rect x="349" y="226.63" width="19" height="1" />
</g>
<g style="fill: black; stroke: black;">
<line x1="380" y1="239.56" x2="389.5" y2="239.56" />
<line x1="380" y1="209.9" x2="389.5" y2="209.9" />
<line x1="380" y1="261.84" x2="389.5" y2="261.84" />
<rect x="384" y="256.84" width="1" height="5" />
<line x1="380" y1="177.28" x2="389.5" y2="177.28" />
<rect x="384" y="177.28" width="1" height="5" />
</g>
<g style="fill: black; stroke: black;">
<rect x="375" y="219.34" width="19" height="1" />
</g>
<g style="fill: black; stroke: black;">
<line x1="406" y1="240.9" x2="415.5" y2="240.9" />
<line x1="406" y1="184.59" x2="415.5" y2="184.59" />
<line x1="406" y1="150.61" x2="415.5" y2="150.61" />
<rect x="410" y="150.61" width="1" height="5" />
</g>
<g style="fill: black; stroke: black;">
<rect x="401" y="223.2" width="19" height="1" />
</g>
<g style="fill: black; stroke: black;">
<line x1="432" y1="255.3" x2="441.5" y2="255.3" />
<line x1="432" y1="164.23" x2="441.5" y2="164.23" />
<line x1="432" y1="140.18" x2="441.5" y2="140.18" />
<rect x="436" y="140.18" width="1" height="5" />
</g>
<g style="fill: black; stroke: black;">
<rect x="427" y="216.15" width="19" height="1" />
</g>
<g style="fill: black; stroke: black;">
<line x1="458" y1="240.94" x2="467.5" y2="240.94" />
<line x1="458" y1="174.19" x2="467.5" y2="174.19" />
</g>
<g style="fill: black; stroke: black;">
<rect x="453" y="208.37" width="19" height="1" />
</g>
<g style="fill: black; stroke: black;">
<line x1="484" y1="226.44" x2="493.5" y2="226.44" />
<line x1="484" y1="168.64" x2="493.5" y2="168.64" />
</g>
<g style="fill: black; stroke: black;">
<rect x="479" y="220.37" width="19" height="1" />
</g>
<g style="text-anchor: end; font-family: Ubuntu,Verdana,sans-serif; font-size: 0.9em;" >
<text x="512" y="282" >01 Nov 2018 u64q</text>
<text x="58" y="282" style="text-anchor: start;" >benchmarks game</text>
</g>
<text x="16" y="144" transform="rotate(270,16,144)" style="text-anchor: middle; font-family: Ubuntu,Verdana,sans-serif; font-size: 0.9em;" >program CPU time / fastest CPU time</text>
<text x="285" y="18" style="text-anchor: middle; font-family: Ubuntu,Verdana,sans-serif; font-size: 1.2em;" >How many times slower?</text>
<g style="stroke: #333;">
<line x1="58" y1="24" x2="58" y2="264" />
<line x1="511" y1="24" x2="511" y2="264" />
<line x1="58" y1="264" x2="511" y2="264" />
</g>
</svg>

