<?xml version="1.0" encoding="UTF-8" standalone="no"?>
<!DOCTYPE svg PUBLIC "-//W3C//DTD SVG 1.1//EN" "http://www.w3.org/Graphics/SVG/1.1/DTD/svg11.dtd">
<svg xmlns="http://www.w3.org/2000/svg" version="1.1" xmlns:xlink="http://www.w3.org/1999/xlink" viewBox="0 0 512 288">

<!-- Copyright 2015-2021 Isaac Gouy -->
<!-- https://salsa.debian.org/benchmarksgame-team/benchmarksgame/blob/master/LICENSE.md -->

<g style="stroke: #ccc;" >
<line x1="51" y1="264" x2="461" y2="264" />
<line x1="51" y1="221.57" x2="461" y2="221.57" />
<line x1="51" y1="201.85" x2="461" y2="201.85" />
<line x1="51" y1="175.08" x2="461" y2="175.08" />
<line x1="51" y1="132.65" x2="461" y2="132.65" />

<line x1="58" y1="78" x2="468" y2="78" />
<line x1="58" y1="38" x2="468" y2="38" />
<line x1="58" y1="24" x2="461" y2="24" />
</g>
<g style="text-anchor: end; font-family: Ubuntu,Verdana,sans-serif; font-size: 0.9em;" >
<text x="51" y="262" >1</text>
<text x="51" y="219.57" >3</text>
<text x="51" y="199.85" >5</text>
<text x="51" y="173.08" >10</text>
<text x="51" y="130.65" >30</text>
</g>
<defs>
<linearGradient id="grade" x1="0" y1="0" x2="0" y2="1">
<stop offset="0" style="stop-color: white" stop-opacity="0.6"/>
<stop offset="1" style="stop-color: white" stop-opacity="0.8"/>
</linearGradient>
<mask id="fade">
<rect x="58" y="24" width="452" height="288" fill="url(#grade)"  />
</mask>
<g id="backgroundText" style="text-anchor: end; font-family: Ubuntu,Verdana,sans-serif; font-size: 1em;">
<text x="15" y="0" transform="rotate(270,15,0)" xml:space="preserve">   C++ g++   C++ g++   C++ g++   C++ g++</text>
<text x="40" y="0" transform="rotate(270,40,0)" xml:space="preserve">   Rust   Rust   Rust   Rust   Rust   Rust</text>
<text x="65" y="0" transform="rotate(270,65,0)" xml:space="preserve">   C gcc   C gcc   C gcc   C gcc   C gcc</text>
<text x="90" y="0" transform="rotate(270,90,0)" xml:space="preserve">                                                            </text>
<text x="115" y="0" transform="rotate(270,115,0)" xml:space="preserve">   Intel Fortran   Intel Fortran   Intel Fortran</text>
<text x="140" y="0" transform="rotate(270,140,0)" xml:space="preserve">   Julia   Julia   Julia   Julia   Julia</text>
<text x="165" y="0" transform="rotate(270,165,0)" xml:space="preserve">   C# .NET   C# .NET   C# .NET   C# .NET</text>
<text x="190" y="0" transform="rotate(270,190,0)" xml:space="preserve">   Ada 2012 GNAT   Ada 2012 GNAT   Ada 2012 GNAT</text>
<text x="215" y="0" transform="rotate(270,215,0)" xml:space="preserve">   Free Pascal   Free Pascal   Free Pascal</text>
<text x="240" y="0" transform="rotate(270,240,0)" xml:space="preserve">   F# .NET   F# .NET   F# .NET   F# .NET</text>
<text x="265" y="0" transform="rotate(270,265,0)" xml:space="preserve">   Java   Java   Java   Java   Java   Java</text>
<text x="290" y="0" transform="rotate(270,290,0)" xml:space="preserve">   Haskell GHC   Haskell GHC   Haskell GHC</text>
<text x="315" y="0" transform="rotate(270,315,0)" xml:space="preserve">   OCaml   OCaml   OCaml   OCaml   OCaml</text>
<text x="340" y="0" transform="rotate(270,340,0)" xml:space="preserve">   Go   Go   Go   Go   Go   Go   Go   Go   Go   Go</text>
<text x="365" y="0" transform="rotate(270,365,0)" xml:space="preserve">   Chapel   Chapel   Chapel   Chapel   Chapel</text>
<text x="390" y="0" transform="rotate(270,390,0)" xml:space="preserve">   Lisp SBCL   Lisp SBCL   Lisp SBCL</text>
</g>
</defs>
<use x="60" y="27" xlink:href="#backgroundText"/>
<rect x="58" y="24" width="452" height="288" fill="white" mask="url(#fade)" />
<rect x="58" y="264" width="452" height="288" style="fill: white; stroke: white;" />
<g style="fill: black; stroke: black;">
<rect x="72" y="246.15" width="1" height="17.85" />
<rect x="97" y="236.96" width="1" height="27.04" />
<rect x="122" y="236.28" width="1" height="27.72" />
<rect x="147" y="708.61" width="1" height="0" />
<rect x="172" y="205.13" width="1" height="58.87" />
<rect x="197" y="203.53" width="1" height="50.46" />
<rect x="222" y="195.06" width="1" height="64.68" />
<rect x="247" y="186.19" width="1" height="76.53" />
<rect x="272" y="188.31" width="1" height="74.51" />
<rect x="297" y="191.05" width="1" height="66.84" />
<rect x="322" y="179.35" width="1" height="78.49" />
<rect x="347" y="185.79" width="1" height="67.55" />
<rect x="372" y="180.89" width="1" height="81.83" />
<rect x="397" y="188.26" width="1" height="62.31" />
<rect x="422" y="191.56" width="1" height="70.39" />
<rect x="447" y="178.95" width="1" height="60" />
</g>
<g style="fill: white; stroke: black;">
<rect x="62" y="255.85" width="20" height="8.15" />
<rect x="87" y="243.12" width="20" height="20.88" />
<rect x="112" y="247.15" width="20" height="16" />
<rect x="137" y="708.61" width="20" height="0" />
<rect x="162" y="226.92" width="20" height="27.18" />
<rect x="187" y="224.44" width="20" height="25.18" />
<rect x="212" y="213.1" width="20" height="35.94" />
<rect x="237" y="211.11" width="20" height="35.81" />
<rect x="262" y="199.93" width="20" height="46.33" />
<rect x="287" y="206.03" width="20" height="29.23" />
<rect x="312" y="203.31" width="20" height="32.85" />
<rect x="337" y="208.55" width="20" height="29.6" />
<rect x="362" y="192.47" width="20" height="44.41" />
<rect x="387" y="205.07" width="20" height="32.1" />
<rect x="412" y="198.12" width="20" height="36.04" />
<rect x="437" y="202.39" width="20" height="31.43" />
</g>
<g style="fill: black; stroke: black;">
<line x1="67.5" y1="264" x2="77" y2="264" />
<line x1="67.5" y1="246.15" x2="77" y2="246.15" />
<line x1="67.5" y1="236.46" x2="77" y2="236.46" />
<rect x="72" y="236.46" width="1" height="5" />
</g>
<g style="fill: black; stroke: black;">
<rect x="63" y="262.33" width="18" height="1" />
</g>
<g style="fill: black; stroke: black;">
<line x1="92.5" y1="264" x2="102" y2="264" />
<line x1="92.5" y1="236.96" x2="102" y2="236.96" />
</g>
<g style="fill: black; stroke: black;">
<rect x="88" y="257.64" width="18" height="1" />
</g>
<g style="fill: black; stroke: black;">
<line x1="117.5" y1="264" x2="127" y2="264" />
<line x1="117.5" y1="236.28" x2="127" y2="236.28" />
</g>
<g style="fill: black; stroke: black;">
<rect x="113" y="255.11" width="18" height="1" />
</g>
<g style="fill: black; stroke: black;">
<line x1="142.5" y1="708.61" x2="152" y2="708.61" />
<line x1="142.5" y1="708.61" x2="152" y2="708.61" />
</g>
<g style="fill: black; stroke: black;">
<rect x="138" y="707.61" width="18" height="1" />
</g>
<g style="fill: black; stroke: black;">
<line x1="167.5" y1="264" x2="177" y2="264" />
<line x1="167.5" y1="205.13" x2="177" y2="205.13" />
<line x1="167.5" y1="192.16" x2="177" y2="192.16" />
<rect x="172" y="192.16" width="1" height="5" />
</g>
<g style="fill: black; stroke: black;">
<rect x="163" y="241.21" width="18" height="1" />
</g>
<g style="fill: black; stroke: black;">
<line x1="192.5" y1="253.99" x2="202" y2="253.99" />
<line x1="192.5" y1="203.53" x2="202" y2="203.53" />
<line x1="192.5" y1="190.11" x2="202" y2="190.11" />
<rect x="197" y="190.11" width="1" height="5" />
</g>
<g style="fill: black; stroke: black;">
<rect x="188" y="240.47" width="18" height="1" />
</g>
<g style="fill: black; stroke: black;">
<line x1="217.5" y1="259.74" x2="227" y2="259.74" />
<line x1="217.5" y1="195.06" x2="227" y2="195.06" />
</g>
<g style="fill: black; stroke: black;">
<rect x="213" y="236.82" width="18" height="1" />
</g>
<g style="fill: black; stroke: black;">
<line x1="242.5" y1="262.72" x2="252" y2="262.72" />
<line x1="242.5" y1="186.19" x2="252" y2="186.19" />
<line x1="242.5" y1="184.23" x2="252" y2="184.23" />
<rect x="247" y="184.23" width="1" height="5" />
</g>
<g style="fill: black; stroke: black;">
<rect x="238" y="223.64" width="18" height="1" />
</g>
<g style="fill: black; stroke: black;">
<line x1="267.5" y1="262.83" x2="277" y2="262.83" />
<line x1="267.5" y1="188.31" x2="277" y2="188.31" />
</g>
<g style="fill: black; stroke: black;">
<rect x="263" y="226.42" width="18" height="1" />
</g>
<g style="fill: black; stroke: black;">
<line x1="292.5" y1="257.89" x2="302" y2="257.89" />
<line x1="292.5" y1="191.05" x2="302" y2="191.05" />
</g>
<g style="fill: black; stroke: black;">
<rect x="288" y="228.22" width="18" height="1" />
</g>
<g style="fill: black; stroke: black;">
<line x1="317.5" y1="257.85" x2="327" y2="257.85" />
<line x1="317.5" y1="179.35" x2="327" y2="179.35" />
<line x1="317.5" y1="174.59" x2="327" y2="174.59" />
<rect x="322" y="174.59" width="1" height="5" />
</g>
<g style="fill: black; stroke: black;">
<rect x="313" y="222.16" width="18" height="1" />
</g>
<g style="fill: black; stroke: black;">
<line x1="342.5" y1="253.34" x2="352" y2="253.34" />
<line x1="342.5" y1="185.79" x2="352" y2="185.79" />
<line x1="342.5" y1="160.89" x2="352" y2="160.89" />
<rect x="347" y="160.89" width="1" height="5" />
</g>
<g style="fill: black; stroke: black;">
<rect x="338" y="223.09" width="18" height="1" />
</g>
<g style="fill: black; stroke: black;">
<line x1="367.5" y1="262.72" x2="377" y2="262.72" />
<line x1="367.5" y1="180.89" x2="377" y2="180.89" />
</g>
<g style="fill: black; stroke: black;">
<rect x="363" y="227.6" width="18" height="1" />
</g>
<g style="fill: black; stroke: black;">
<line x1="392.5" y1="250.57" x2="402" y2="250.57" />
<line x1="392.5" y1="188.26" x2="402" y2="188.26" />
</g>
<g style="fill: black; stroke: black;">
<rect x="388" y="217.9" width="18" height="1" />
</g>
<g style="fill: black; stroke: black;">
<line x1="417.5" y1="261.94" x2="427" y2="261.94" />
<line x1="417.5" y1="191.56" x2="427" y2="191.56" />
</g>
<g style="fill: black; stroke: black;">
<rect x="413" y="209.89" width="18" height="1" />
</g>
<g style="fill: black; stroke: black;">
<line x1="442.5" y1="238.95" x2="452" y2="238.95" />
<line x1="442.5" y1="178.95" x2="452" y2="178.95" />
<line x1="442.5" y1="151.65" x2="452" y2="151.65" />
<rect x="447" y="151.65" width="1" height="5" />
</g>
<g style="fill: black; stroke: black;">
<rect x="438" y="223.52" width="18" height="1" />
</g>

<g style="fill: white; stroke: black;">
<rect x="62" y="73" width="20" height="5" />
<rect x="87" y="54" width="20" height="24" />
<rect x="112" y="78" width="20" height="6" />
<rect x="162" y="78" width="20" height="6" />
<rect x="187" y="41" width="20" height="37" />
<rect x="212" y="66" width="20" height="11" />
<rect x="237" y="78" width="20" height="10" />
<rect x="262" y="75" width="20" height="3" />
<rect x="287" y="66" width="20" height="12" />
<rect x="312" y="78" width="20" height="7" />
<rect x="337" y="74" width="20" height="4" />
<rect x="362" y="78" width="20" height="5" />
<rect x="387" y="66" width="20" height="11" />
<rect x="412" y="78" width="20" height="0" />
<rect x="437" y="78" width="20" height="2" />
</g>


<g style="text-anchor: end; font-family: Ubuntu,Verdana,sans-serif; font-size: 0.9em;" >
<text x="462" y="282" >01 Mar 2021 u64q</text>
<text x="58" y="282" style="text-anchor: start;" >benchmarks game</text>
</g>
<text x="16" y="144" transform="rotate(270,16,144)" style="text-anchor: middle; font-family: Ubuntu,Verdana,sans-serif; font-size: 0.9em;" >program busy time / least busy</text>
<text x="259.5" y="18" style="text-anchor: middle; font-family: Ubuntu,Verdana,sans-serif; font-size: 1.2em;" >How many times slower?</text>

<text x="16" y="636" transform="rotate(270,16,144)" style="text-anchor: middle; font-family: Ubuntu,Verdana,sans-serif; font-size: 0.9em;" >2018:2020 programs contributed + -</text>
<g style="text-anchor: end; font-family: Ubuntu,Verdana,sans-serif; font-size: 0.9em;" >
<text x="488" y="76" >ave</text>
<text x="488" y="36" >+40</text>
</g>

<g style="stroke: #333;">
<line x1="58" y1="24" x2="58" y2="264" />
<line x1="461" y1="24" x2="461" y2="264" />
<line x1="58" y1="264" x2="461" y2="264" />
</g>
</svg>

