<?xml version="1.0" encoding="UTF-8" standalone="no"?>
<!DOCTYPE svg PUBLIC "-//W3C//DTD SVG 1.1//EN" "http://www.w3.org/Graphics/SVG/1.1/DTD/svg11.dtd">
<svg xmlns="http://www.w3.org/2000/svg" version="1.1" xmlns:xlink="http://www.w3.org/1999/xlink" viewBox="0 0 512 288">

<!-- Copyright 2015-2020 Isaac Gouy -->
<!-- https://salsa.debian.org/benchmarksgame-team/benchmarksgame/blob/master/LICENSE.md -->

<g style="stroke: #ccc;" >
<line x1="51" y1="264" x2="511" y2="264" />
<line x1="51" y1="221.57" x2="511" y2="221.57" />
<line x1="51" y1="201.85" x2="511" y2="201.85" />
<line x1="51" y1="175.08" x2="511" y2="175.08" />
<line x1="51" y1="132.65" x2="511" y2="132.65" />
<line x1="51" y1="112.92" x2="511" y2="112.92" />
<line x1="51" y1="86.15" x2="511" y2="86.15" />
<line x1="51" y1="43.73" x2="511" y2="43.73" />
<line x1="51" y1="24" x2="511" y2="24" />
</g>
<g style="text-anchor: end; font-family: Ubuntu,Verdana,sans-serif; font-size: 0.9em;" >
<text x="51" y="262" >1</text>
<text x="51" y="219.57" >3</text>
<text x="51" y="199.85" >5</text>
<text x="51" y="173.08" >10</text>
<text x="51" y="130.65" >30</text>
<text x="51" y="110.92" >50</text>
<text x="51" y="84.15" >100</text>
<text x="51" y="41.73" >300</text>
<text x="51" y="22" ></text>
</g>
<defs>
<linearGradient id="grade" x1="0" y1="0" x2="0" y2="1">
<stop offset="0" style="stop-color: white" stop-opacity="0.6"/>
<stop offset="1" style="stop-color: white" stop-opacity="0.8"/>
</linearGradient>
<mask id="fade">
<rect x="58" y="24" width="452" height="288" fill="url(#grade)"  />
</mask>
<g id="backgroundText" style="text-anchor: end; font-family: Ubuntu,Verdana,sans-serif; font-size: 1em;">
<text x="17" y="0" transform="rotate(270,17,0)" xml:space="preserve">   C++ g++   C++ g++   C++ g++   C++ g++</text>
<text x="45" y="0" transform="rotate(270,45,0)" xml:space="preserve">   Rust   Rust   Rust   Rust   Rust   Rust</text>
<text x="73" y="0" transform="rotate(270,73,0)" xml:space="preserve">   C gcc   C gcc   C gcc   C gcc   C gcc</text>
<text x="101" y="0" transform="rotate(270,101,0)" xml:space="preserve">   Julia   Julia   Julia   Julia   Julia</text>
<text x="129" y="0" transform="rotate(270,129,0)" xml:space="preserve">   Ada 2012 GNAT   Ada 2012 GNAT   Ada 2012 GNAT</text>
<text x="157" y="0" transform="rotate(270,157,0)" xml:space="preserve">   C# .NET Core   C# .NET Core   C# .NET Core</text>
<text x="185" y="0" transform="rotate(270,185,0)" xml:space="preserve">   Free Pascal   Free Pascal   Free Pascal</text>
<text x="213" y="0" transform="rotate(270,213,0)" xml:space="preserve">   F# .NET Core   F# .NET Core   F# .NET Core</text>
<text x="241" y="0" transform="rotate(270,241,0)" xml:space="preserve">   Java   Java   Java   Java   Java   Java</text>
<text x="269" y="0" transform="rotate(270,269,0)" xml:space="preserve">   Go   Go   Go   Go   Go   Go   Go   Go   Go   Go</text>
<text x="297" y="0" transform="rotate(270,297,0)" xml:space="preserve">   Chapel   Chapel   Chapel   Chapel   Chapel</text>
<text x="325" y="0" transform="rotate(270,325,0)" xml:space="preserve">   Swift   Swift   Swift   Swift   Swift</text>
<text x="353" y="0" transform="rotate(270,353,0)" xml:space="preserve">   Haskell GHC   Haskell GHC   Haskell GHC</text>
<text x="381" y="0" transform="rotate(270,381,0)" xml:space="preserve">   Lisp SBCL   Lisp SBCL   Lisp SBCL</text>
<text x="409" y="0" transform="rotate(270,409,0)" xml:space="preserve">   OCaml   OCaml   OCaml   OCaml   OCaml</text>
</g>
</defs>
<use x="60" y="27" xlink:href="#backgroundText"/>
<rect x="58" y="24" width="452" height="288" fill="white" mask="url(#fade)" />
<rect x="58" y="264" width="452" height="288" style="fill: white; stroke: white;" />
<g style="fill: black; stroke: black;">
<rect x="72" y="257.92" width="1" height="6.08" />
<rect x="100" y="235.61" width="1" height="28.39" />
<rect x="128" y="238.8" width="1" height="25.2" />
<rect x="156" y="220.17" width="1" height="34.2" />
<rect x="184" y="206.02" width="1" height="57.6" />
<rect x="212" y="216.19" width="1" height="45.99" />
<rect x="240" y="196.26" width="1" height="62.68" />
<rect x="268" y="196.5" width="1" height="58.17" />
<rect x="296" y="180.06" width="1" height="74.81" />
<rect x="324" y="184.18" width="1" height="60.84" />
<rect x="352" y="193.89" width="1" height="70.11" />
<rect x="380" y="192.72" width="1" height="65.79" />
<rect x="408" y="170.66" width="1" height="87.72" />
<rect x="436" y="187.4" width="1" height="53.87" />
<rect x="464" y="182.16" width="1" height="61.02" />
</g>
<g style="fill: white; stroke: black;">
<rect x="62" y="260.78" width="22" height="3.22" />
<rect x="90" y="245.51" width="22" height="18.49" />
<rect x="118" y="249.85" width="22" height="13.95" />
<rect x="146" y="233.88" width="22" height="12.92" />
<rect x="174" y="223.39" width="22" height="29.03" />
<rect x="202" y="232.04" width="22" height="15.95" />
<rect x="230" y="207.95" width="22" height="39.37" />
<rect x="258" y="215.21" width="22" height="20.75" />
<rect x="286" y="205.38" width="22" height="37.14" />
<rect x="314" y="207.73" width="22" height="31.7" />
<rect x="342" y="197.96" width="22" height="38.41" />
<rect x="370" y="215.69" width="22" height="30.14" />
<rect x="398" y="199.2" width="22" height="50.45" />
<rect x="426" y="208.61" width="22" height="25.85" />
<rect x="454" y="199.51" width="22" height="38.78" />
</g>
<g style="fill: black; stroke: black;">
<line x1="68.5" y1="264" x2="78" y2="264" />
<line x1="68.5" y1="257.92" x2="78" y2="257.92" />
</g>
<g style="fill: black; stroke: black;">
<rect x="63" y="262.89" width="20" height="1" />
</g>
<g style="fill: black; stroke: black;">
<line x1="96.5" y1="264" x2="106" y2="264" />
<line x1="96.5" y1="235.61" x2="106" y2="235.61" />
</g>
<g style="fill: black; stroke: black;">
<rect x="91" y="258.3" width="20" height="1" />
</g>
<g style="fill: black; stroke: black;">
<line x1="124.5" y1="264" x2="134" y2="264" />
<line x1="124.5" y1="238.8" x2="134" y2="238.8" />
</g>
<g style="fill: black; stroke: black;">
<rect x="119" y="255.92" width="20" height="1" />
</g>
<g style="fill: black; stroke: black;">
<line x1="152.5" y1="254.37" x2="162" y2="254.37" />
<line x1="152.5" y1="220.17" x2="162" y2="220.17" />
<line x1="152.5" y1="207.13" x2="162" y2="207.13" />
<rect x="156" y="207.13" width="1" height="5" />
</g>
<g style="fill: black; stroke: black;">
<rect x="147" y="240.14" width="20" height="1" />
</g>
<g style="fill: black; stroke: black;">
<line x1="180.5" y1="263.62" x2="190" y2="263.62" />
<line x1="180.5" y1="206.02" x2="190" y2="206.02" />
</g>
<g style="fill: black; stroke: black;">
<rect x="175" y="231.19" width="20" height="1" />
</g>
<g style="fill: black; stroke: black;">
<line x1="208.5" y1="262.18" x2="218" y2="262.18" />
<line x1="208.5" y1="216.19" x2="218" y2="216.19" />
<line x1="208.5" y1="194.6" x2="218" y2="194.6" />
<rect x="212" y="194.6" width="1" height="5" />
</g>
<g style="fill: black; stroke: black;">
<rect x="203" y="236.88" width="20" height="1" />
</g>
<g style="fill: black; stroke: black;">
<line x1="236.5" y1="258.94" x2="246" y2="258.94" />
<line x1="236.5" y1="196.26" x2="246" y2="196.26" />
</g>
<g style="fill: black; stroke: black;">
<rect x="231" y="228.45" width="20" height="1" />
</g>
<g style="fill: black; stroke: black;">
<line x1="264.5" y1="254.67" x2="274" y2="254.67" />
<line x1="264.5" y1="196.5" x2="274" y2="196.5" />
<line x1="264.5" y1="190.96" x2="274" y2="190.96" />
<rect x="268" y="190.96" width="1" height="5" />
</g>
<g style="fill: black; stroke: black;">
<rect x="259" y="232.26" width="20" height="1" />
</g>
<g style="fill: black; stroke: black;">
<line x1="292.5" y1="254.87" x2="302" y2="254.87" />
<line x1="292.5" y1="180.06" x2="302" y2="180.06" />
<line x1="292.5" y1="174.91" x2="302" y2="174.91" />
<rect x="296" y="174.91" width="1" height="5" />
</g>
<g style="fill: black; stroke: black;">
<rect x="287" y="227.75" width="20" height="1" />
</g>
<g style="fill: black; stroke: black;">
<line x1="320.5" y1="245.02" x2="330" y2="245.02" />
<line x1="320.5" y1="184.18" x2="330" y2="184.18" />
<line x1="320.5" y1="178.53" x2="330" y2="178.53" />
<rect x="324" y="178.53" width="1" height="5" />
</g>
<g style="fill: black; stroke: black;">
<rect x="315" y="225.76" width="20" height="1" />
</g>
<g style="fill: black; stroke: black;">
<line x1="348.5" y1="264" x2="358" y2="264" />
<line x1="348.5" y1="193.89" x2="358" y2="193.89" />
</g>
<g style="fill: black; stroke: black;">
<rect x="343" y="217.84" width="20" height="1" />
</g>
<g style="fill: black; stroke: black;">
<line x1="376.5" y1="258.51" x2="386" y2="258.51" />
<line x1="376.5" y1="192.72" x2="386" y2="192.72" />
<line x1="376.5" y1="135.05" x2="386" y2="135.05" />
<rect x="380" y="135.05" width="1" height="5" />
</g>
<g style="fill: black; stroke: black;">
<rect x="371" y="235.85" width="20" height="1" />
</g>
<g style="fill: black; stroke: black;">
<line x1="404.5" y1="258.38" x2="414" y2="258.38" />
<line x1="404.5" y1="170.66" x2="414" y2="170.66" />
<line x1="404.5" y1="159.56" x2="414" y2="159.56" />
<rect x="408" y="159.56" width="1" height="5" />
</g>
<g style="fill: black; stroke: black;">
<rect x="399" y="228.95" width="20" height="1" />
</g>
<g style="fill: black; stroke: black;">
<line x1="432.5" y1="241.27" x2="442" y2="241.27" />
<line x1="432.5" y1="187.4" x2="442" y2="187.4" />
<line x1="432.5" y1="174.09" x2="442" y2="174.09" />
<rect x="436" y="174.09" width="1" height="5" />
</g>
<g style="fill: black; stroke: black;">
<rect x="427" y="230.13" width="20" height="1" />
</g>
<g style="fill: black; stroke: black;">
<line x1="460.5" y1="243.17" x2="470" y2="243.17" />
<line x1="460.5" y1="182.16" x2="470" y2="182.16" />
</g>
<g style="fill: black; stroke: black;">
<rect x="455" y="229.7" width="20" height="1" />
</g>
<g style="text-anchor: end; font-family: Ubuntu,Verdana,sans-serif; font-size: 0.9em;" >
<text x="512" y="282" >02 Jul 2020 i5-3330</text>
<text x="58" y="282" style="text-anchor: start;" >benchmarks game</text>
</g>
<text x="16" y="144" transform="rotate(270,16,144)" style="text-anchor: middle; font-family: Ubuntu,Verdana,sans-serif; font-size: 0.9em;" >program busy time / least busy</text>
<text x="285" y="18" style="text-anchor: middle; font-family: Ubuntu,Verdana,sans-serif; font-size: 1.2em;" >How many times slower?</text>
<g style="stroke: #333;">
<line x1="58" y1="24" x2="58" y2="264" />
<line x1="511" y1="24" x2="511" y2="264" />
<line x1="58" y1="264" x2="511" y2="264" />
</g>
</svg>

