<?xml version="1.0" encoding="UTF-8" standalone="no"?>
<!DOCTYPE svg PUBLIC "-//W3C//DTD SVG 1.1//EN" "http://www.w3.org/Graphics/SVG/1.1/DTD/svg11.dtd">
<svg xmlns="http://www.w3.org/2000/svg" version="1.1" xmlns:xlink="http://www.w3.org/1999/xlink" viewBox="0 0 512 288">

<!-- Copyright 2015-2021 Isaac Gouy -->

<!-- Box plot chart showing benchmark program performance grouped by implementation language -->

<!-- The Computer Language Benchmarks Game -->
<!-- https://benchmarksgame-team.pages.debian.net/benchmarksgame/license.html -->

<g style="stroke: #ccc;" >
<line x1="51" y1="264" x2="461" y2="264" />
<line x1="51" y1="206.75" x2="461" y2="206.75" />
<line x1="51" y1="180.12" x2="461" y2="180.12" />
<line x1="51" y1="144" x2="461" y2="144" />
<line x1="51" y1="86.75" x2="461" y2="86.75" />
<line x1="51" y1="60.12" x2="461" y2="60.12" />
<line x1="51" y1="24" x2="461" y2="24" />
</g>
<g style="text-anchor: end; font-family: Ubuntu,Verdana,sans-serif; font-size: 0.9em;" >
<text x="51" y="262" >1</text>
<text x="51" y="204.75" >3</text>
<text x="51" y="178.12" >5</text>
<text x="51" y="142" >10</text>
<text x="51" y="84.75" >30</text>
<text x="51" y="58.12" >50</text>
<text x="51" y="22" >100</text>
</g>
<defs>
<linearGradient id="grade" x1="0" y1="0" x2="0" y2="1">
<stop offset="0" style="stop-color: white" stop-opacity="0.6"/>
<stop offset="1" style="stop-color: white" stop-opacity="0.8"/>
</linearGradient>
<mask id="fade">
<rect x="58" y="24" width="452" height="288" fill="url(#grade)"  />
</mask>
<g id="backgroundText" style="text-anchor: end; font-family: Ubuntu,Verdana,sans-serif; font-size: 1em;">
<text x="16" y="0" transform="rotate(270,16,0)" xml:space="preserve">   pidigits   pidigits   pidigits   pidigits</text>
<text x="43" y="0" transform="rotate(270,43,0)" xml:space="preserve">   binary-trees   binary-trees   binary-trees</text>
<text x="70" y="0" transform="rotate(270,70,0)" xml:space="preserve">   k-nucleotide   k-nucleotide   k-nucleotide</text>
<text x="97" y="0" transform="rotate(270,97,0)" xml:space="preserve">   fasta   fasta   fasta   fasta   fasta</text>
<text x="124" y="0" transform="rotate(270,124,0)" xml:space="preserve">   n-body   n-body   n-body   n-body   n-body</text>
<text x="151" y="0" transform="rotate(270,151,0)" xml:space="preserve">   fannkuch-redux   fannkuch-redux</text>
<text x="178" y="0" transform="rotate(270,178,0)" xml:space="preserve">   regex-redux   regex-redux   regex-redux</text>
<text x="205" y="0" transform="rotate(270,205,0)" xml:space="preserve">   spectral-norm   spectral-norm   spectral-norm</text>
<text x="232" y="0" transform="rotate(270,232,0)" xml:space="preserve">   mandelbrot   mandelbrot   mandelbrot</text>
<text x="259" y="0" transform="rotate(270,259,0)" xml:space="preserve">   reverse-complement   reverse-complement</text>
</g>
</defs>
<use x="60" y="27" xlink:href="#backgroundText"/>
<rect x="58" y="24" width="452" height="288" fill="white" mask="url(#fade)" />
<rect x="58" y="264" width="452" height="288" style="fill: white; stroke: white;" />
<g style="fill: black; stroke: black;">
<rect x="72" y="242.58" width="1" height="21.42" />
<rect x="99" y="184.64" width="1" height="79.36" />
<rect x="126" y="182.6" width="1" height="81.4" />
<rect x="153" y="169.47" width="1" height="94.53" />
<rect x="180" y="200.13" width="1" height="63.87" />
<rect x="207" y="131.02" width="1" height="132.98" />
<rect x="234" y="148.47" width="1" height="113.54" />
<rect x="261" y="162.8" width="1" height="101.2" />
<rect x="288" y="151.11" width="1" height="112.89" />
<rect x="315" y="69.78" width="1" height="186.11" />
</g>
<g style="fill: white; stroke: black;">
<rect x="62" y="243.02" width="22" height="15.61" />
<rect x="89" y="210.25" width="22" height="28.67" />
<rect x="116" y="199.43" width="22" height="29.78" />
<rect x="143" y="192.37" width="22" height="61.12" />
<rect x="170" y="205.76" width="22" height="20.29" />
<rect x="197" y="153.33" width="22" height="57.97" />
<rect x="224" y="185.04" width="22" height="59.06" />
<rect x="251" y="193.42" width="22" height="39.69" />
<rect x="278" y="172.73" width="22" height="21.87" />
<rect x="305" y="113.73" width="22" height="111.69" />
</g>
<g style="fill: black; stroke: black;">
<line x1="68.5" y1="264" x2="78" y2="264" />
<line x1="68.5" y1="242.58" x2="78" y2="242.58" />
</g>
<g style="fill: black; stroke: black;">
<rect x="63" y="244.45" width="20" height="1" />
</g>
<g style="fill: black; stroke: black;">
<line x1="95.5" y1="264" x2="105" y2="264" />
<line x1="95.5" y1="184.64" x2="105" y2="184.64" />
<line x1="95.5" y1="97.7" x2="105" y2="97.7" />
<rect x="99" y="97.7" width="1" height="5" />
</g>
<g style="fill: black; stroke: black;">
<rect x="90" y="228.22" width="20" height="1" />
</g>
<g style="fill: black; stroke: black;">
<line x1="122.5" y1="264" x2="132" y2="264" />
<line x1="122.5" y1="182.6" x2="132" y2="182.6" />
</g>
<g style="fill: black; stroke: black;">
<rect x="117" y="222.99" width="20" height="1" />
</g>
<g style="fill: black; stroke: black;">
<line x1="149.5" y1="264" x2="159" y2="264" />
<line x1="149.5" y1="169.47" x2="159" y2="169.47" />
</g>
<g style="fill: black; stroke: black;">
<rect x="144" y="210.02" width="20" height="1" />
</g>
<g style="fill: black; stroke: black;">
<line x1="176.5" y1="264" x2="186" y2="264" />
<line x1="176.5" y1="200.13" x2="186" y2="200.13" />
</g>
<g style="fill: black; stroke: black;">
<rect x="171" y="208.24" width="20" height="1" />
</g>
<g style="fill: black; stroke: black;">
<line x1="203.5" y1="264" x2="213" y2="264" />
<line x1="203.5" y1="131.02" x2="213" y2="131.02" />
</g>
<g style="fill: black; stroke: black;">
<rect x="198" y="200.67" width="20" height="1" />
</g>
<g style="fill: black; stroke: black;">
<line x1="230.5" y1="262.01" x2="240" y2="262.01" />
<line x1="230.5" y1="148.47" x2="240" y2="148.47" />
<line x1="230.5" y1="116.69" x2="240" y2="116.69" />
<rect x="234" y="116.69" width="1" height="5" />
</g>
<g style="fill: black; stroke: black;">
<rect x="225" y="200.2" width="20" height="1" />
</g>
<g style="fill: black; stroke: black;">
<line x1="257.5" y1="264" x2="267" y2="264" />
<line x1="257.5" y1="162.8" x2="267" y2="162.8" />
<line x1="257.5" y1="127.97" x2="267" y2="127.97" />
<rect x="261" y="127.97" width="1" height="5" />
</g>
<g style="fill: black; stroke: black;">
<rect x="252" y="200.16" width="20" height="1" />
</g>
<g style="fill: black; stroke: black;">
<line x1="284.5" y1="264" x2="294" y2="264" />
<line x1="284.5" y1="151.11" x2="294" y2="151.11" />
<line x1="284.5" y1="79.67" x2="294" y2="79.67" />
<rect x="288" y="79.67" width="1" height="5" />
</g>
<g style="fill: black; stroke: black;">
<rect x="279" y="188.18" width="20" height="1" />
</g>
<g style="fill: black; stroke: black;">
<line x1="311.5" y1="255.88" x2="321" y2="255.88" />
<line x1="311.5" y1="69.78" x2="321" y2="69.78" />
<line x1="311.5" y1="35.74" x2="321" y2="35.74" />
<rect x="315" y="35.74" width="1" height="5" />
</g>
<g style="fill: black; stroke: black;">
<rect x="306" y="168.96" width="20" height="1" />
</g>
<g style="text-anchor: end; font-family: Ubuntu,Verdana,sans-serif; font-size: 0.9em;" >
<text x="462" y="282" >14 Sep 2021 u64q</text>
<text x="58" y="282" style="text-anchor: start;" >benchmarks game</text>
</g>
<text x="16" y="144" transform="rotate(270,16,144)" style="text-anchor: middle; font-family: Ubuntu,Verdana,sans-serif; font-size: 0.9em;" >program elapsed time / fastest</text>
<text x="259.5" y="18" style="text-anchor: middle; font-family: Ubuntu,Verdana,sans-serif; font-size: 1.2em;" >Elapsed time spread — C and C++ programs</text>
<g style="stroke: #333;">
<line x1="58" y1="24" x2="58" y2="264" />
<line x1="461" y1="24" x2="461" y2="264" />
<line x1="58" y1="264" x2="461" y2="264" />
</g>
</svg>

