<?xml version="1.0" encoding="UTF-8" standalone="no"?>
<!DOCTYPE svg PUBLIC "-//W3C//DTD SVG 1.1//EN" "http://www.w3.org/Graphics/SVG/1.1/DTD/svg11.dtd">
<svg xmlns="http://www.w3.org/2000/svg" version="1.1" xmlns:xlink="http://www.w3.org/1999/xlink" viewBox="0 0 512 288">

<!-- Copyright 2015-2021 Isaac Gouy -->

<!-- Box plot chart showing benchmark program performance grouped by implementation language -->

<!-- The Computer Language Benchmarks Game -->
<!-- https://benchmarksgame-team.pages.debian.net/benchmarksgame/license.html -->

<g style="stroke: #ccc;" >
<line x1="51" y1="264" x2="461" y2="264" />
<line x1="51" y1="206.75" x2="461" y2="206.75" />
<line x1="51" y1="180.12" x2="461" y2="180.12" />
<line x1="51" y1="144" x2="461" y2="144" />
<line x1="51" y1="86.75" x2="461" y2="86.75" />
<line x1="51" y1="60.12" x2="461" y2="60.12" />
<line x1="51" y1="24" x2="461" y2="24" />
</g>
<g style="text-anchor: end; font-family: Ubuntu,Verdana,sans-serif; font-size: 0.9em;" >
<text x="51" y="262" >1</text>
<text x="51" y="204.75" >3</text>
<text x="51" y="178.12" >5</text>
<text x="51" y="142" >10</text>
<text x="51" y="84.75" >30</text>
<text x="51" y="58.12" >50</text>
<text x="51" y="22" ></text>
</g>
<defs>
<linearGradient id="grade" x1="0" y1="0" x2="0" y2="1">
<stop offset="0" style="stop-color: white" stop-opacity="0.6"/>
<stop offset="1" style="stop-color: white" stop-opacity="0.8"/>
</linearGradient>
<mask id="fade">
<rect x="58" y="24" width="452" height="288" fill="url(#grade)"  />
</mask>
<g id="backgroundText" style="text-anchor: end; font-family: Ubuntu,Verdana,sans-serif; font-size: 1em;">
<text x="16" y="0" transform="rotate(270,16,0)" xml:space="preserve">   pidigits   pidigits   pidigits   pidigits</text>
<text x="43" y="0" transform="rotate(270,43,0)" xml:space="preserve">   binary-trees   binary-trees   binary-trees</text>
<text x="70" y="0" transform="rotate(270,70,0)" xml:space="preserve">   k-nucleotide   k-nucleotide   k-nucleotide</text>
<text x="97" y="0" transform="rotate(270,97,0)" xml:space="preserve">   fasta   fasta   fasta   fasta   fasta</text>
<text x="124" y="0" transform="rotate(270,124,0)" xml:space="preserve">   n-body   n-body   n-body   n-body   n-body</text>
<text x="151" y="0" transform="rotate(270,151,0)" xml:space="preserve">   regex-redux   regex-redux   regex-redux</text>
<text x="178" y="0" transform="rotate(270,178,0)" xml:space="preserve">   fannkuch-redux   fannkuch-redux</text>
<text x="205" y="0" transform="rotate(270,205,0)" xml:space="preserve">   spectral-norm   spectral-norm   spectral-norm</text>
<text x="232" y="0" transform="rotate(270,232,0)" xml:space="preserve">   mandelbrot   mandelbrot   mandelbrot</text>
<text x="259" y="0" transform="rotate(270,259,0)" xml:space="preserve">   reverse-complement   reverse-complement</text>
</g>
</defs>
<use x="60" y="27" xlink:href="#backgroundText"/>
<rect x="58" y="24" width="452" height="288" fill="white" mask="url(#fade)" />
<rect x="58" y="264" width="452" height="288" style="fill: white; stroke: white;" />
<g style="fill: black; stroke: black;">
<rect x="72" y="242.58" width="1" height="21.42" />
<rect x="99" y="189.38" width="1" height="74.62" />
<rect x="126" y="198.34" width="1" height="65.66" />
<rect x="153" y="171.69" width="1" height="92.31" />
<rect x="180" y="200.39" width="1" height="63.61" />
<rect x="207" y="148.44" width="1" height="113.38" />
<rect x="234" y="131.16" width="1" height="132.84" />
<rect x="261" y="163.23" width="1" height="100.77" />
<rect x="288" y="151.26" width="1" height="112.74" />
<rect x="315" y="118.23" width="1" height="136.56" />
</g>
<g style="fill: white; stroke: black;">
<rect x="62" y="242.93" width="22" height="15.5" />
<rect x="89" y="214.08" width="22" height="26.98" />
<rect x="116" y="210.06" width="22" height="33.75" />
<rect x="143" y="193.97" width="22" height="62.17" />
<rect x="170" y="205.14" width="22" height="20.69" />
<rect x="197" y="185.29" width="22" height="60.25" />
<rect x="224" y="153.39" width="22" height="58.07" />
<rect x="251" y="193.78" width="22" height="39.52" />
<rect x="278" y="172.85" width="22" height="21.82" />
<rect x="305" y="157.42" width="22" height="71.7" />
</g>
<g style="fill: black; stroke: black;">
<line x1="68.5" y1="264" x2="78" y2="264" />
<line x1="68.5" y1="242.58" x2="78" y2="242.58" />
</g>
<g style="fill: black; stroke: black;">
<rect x="63" y="244.42" width="20" height="1" />
</g>
<g style="fill: black; stroke: black;">
<line x1="95.5" y1="264" x2="105" y2="264" />
<line x1="95.5" y1="189.38" x2="105" y2="189.38" />
<line x1="95.5" y1="101.37" x2="105" y2="101.37" />
<rect x="99" y="101.37" width="1" height="5" />
</g>
<g style="fill: black; stroke: black;">
<rect x="90" y="231.18" width="20" height="1" />
</g>
<g style="fill: black; stroke: black;">
<line x1="122.5" y1="264" x2="132" y2="264" />
<line x1="122.5" y1="198.34" x2="132" y2="198.34" />
</g>
<g style="fill: black; stroke: black;">
<rect x="117" y="226.2" width="20" height="1" />
</g>
<g style="fill: black; stroke: black;">
<line x1="149.5" y1="264" x2="159" y2="264" />
<line x1="149.5" y1="171.69" x2="159" y2="171.69" />
</g>
<g style="fill: black; stroke: black;">
<rect x="144" y="212.3" width="20" height="1" />
</g>
<g style="fill: black; stroke: black;">
<line x1="176.5" y1="264" x2="186" y2="264" />
<line x1="176.5" y1="200.39" x2="186" y2="200.39" />
</g>
<g style="fill: black; stroke: black;">
<rect x="171" y="208.45" width="20" height="1" />
</g>
<g style="fill: black; stroke: black;">
<line x1="203.5" y1="261.82" x2="213" y2="261.82" />
<line x1="203.5" y1="148.44" x2="213" y2="148.44" />
<line x1="203.5" y1="117.4" x2="213" y2="117.4" />
<rect x="207" y="117.4" width="1" height="5" />
</g>
<g style="fill: black; stroke: black;">
<rect x="198" y="206.74" width="20" height="1" />
</g>
<g style="fill: black; stroke: black;">
<line x1="230.5" y1="264" x2="240" y2="264" />
<line x1="230.5" y1="131.16" x2="240" y2="131.16" />
</g>
<g style="fill: black; stroke: black;">
<rect x="225" y="200.78" width="20" height="1" />
</g>
<g style="fill: black; stroke: black;">
<line x1="257.5" y1="264" x2="267" y2="264" />
<line x1="257.5" y1="163.23" x2="267" y2="163.23" />
<line x1="257.5" y1="128.31" x2="267" y2="128.31" />
<rect x="261" y="128.31" width="1" height="5" />
</g>
<g style="fill: black; stroke: black;">
<rect x="252" y="200.5" width="20" height="1" />
</g>
<g style="fill: black; stroke: black;">
<line x1="284.5" y1="264" x2="294" y2="264" />
<line x1="284.5" y1="151.26" x2="294" y2="151.26" />
<line x1="284.5" y1="79.93" x2="294" y2="79.93" />
<rect x="288" y="79.93" width="1" height="5" />
</g>
<g style="fill: black; stroke: black;">
<rect x="279" y="187.98" width="20" height="1" />
</g>
<g style="fill: black; stroke: black;">
<line x1="311.5" y1="254.79" x2="321" y2="254.79" />
<line x1="311.5" y1="118.23" x2="321" y2="118.23" />
<line x1="311.5" y1="38.21" x2="321" y2="38.21" />
<rect x="315" y="38.21" width="1" height="5" />
</g>
<g style="fill: black; stroke: black;">
<rect x="306" y="186.47" width="20" height="1" />
</g>
<g style="text-anchor: end; font-family: Ubuntu,Verdana,sans-serif; font-size: 0.9em;" >
<text x="462" y="282" >14 Sep 2021 u64q</text>
<text x="58" y="282" style="text-anchor: start;" >benchmarks game</text>
</g>
<text x="16" y="144" transform="rotate(270,16,144)" style="text-anchor: middle; font-family: Ubuntu,Verdana,sans-serif; font-size: 0.9em;" >program elapsed seconds / lowest</text>
<rect x="" y="0" width="" height="23" style="fill: white; stroke: white;" />
<text x="259.5" y="18" style="text-anchor: middle; font-family: Ubuntu,Verdana,sans-serif; font-size: 1.2em;" >Elapsed time spread — C and C++ programs</text>
<g style="stroke: #333;">
<line x1="58" y1="24" x2="58" y2="264" />
<line x1="461" y1="24" x2="461" y2="264" />
<line x1="58" y1="264" x2="461" y2="264" />
</g>
</svg>

