<?xml version="1.0" encoding="UTF-8" standalone="no"?>
<!DOCTYPE svg PUBLIC "-//W3C//DTD SVG 1.1//EN" "http://www.w3.org/Graphics/SVG/1.1/DTD/svg11.dtd">
<svg xmlns="http://www.w3.org/2000/svg" version="1.1" xmlns:xlink="http://www.w3.org/1999/xlink" viewBox="0 0 512 288">

<!-- Copyright 2015-2021 Isaac Gouy -->

<!-- Box plot chart showing benchmark program performance grouped by implementation language -->

<!-- The Computer Language Benchmarks Game -->
<!-- https://benchmarksgame-team.pages.debian.net/benchmarksgame/license.html -->

<g style="stroke: #ccc;">
<line x1="130" y1="264" x2="130" y2="24" />
<line x1="210" y1="264" x2="210" y2="24" />
<line x1="290" y1="264" x2="290" y2="24" />
<line x1="370" y1="264" x2="370" y2="24" />
</g>
<g style="text-anchor: end; font-family: Ubuntu,Verdana,sans-serif; font-size: 0.9em;" >
<text x="128" y="40" >10x</text>
<text x="208" y="40" >20x</text>
<text x="288" y="40" >30x</text>
<text x="368" y="40" >40x</text>
<text x="448" y="40" >50x</text>
</g>
<g style="stroke: #ccc;" >
<line x1="51" y1="264" x2="461" y2="264" />
<line x1="51" y1="229.71" x2="461" y2="229.71" />
<line x1="51" y1="195.43" x2="461" y2="195.43" />
<line x1="51" y1="161.14" x2="461" y2="161.14" />
<line x1="51" y1="126.86" x2="461" y2="126.86" />
<line x1="51" y1="92.57" x2="461" y2="92.57" />
<line x1="51" y1="58.29" x2="461" y2="58.29" />
<line x1="51" y1="24" x2="461" y2="24" />
</g>
<g style="text-anchor: end; font-family: Ubuntu,Verdana,sans-serif; font-size: 0.9em;" >
<text x="51" y="262" >0</text>
<text x="51" y="227.71" >25</text>
<text x="51" y="193.43" >50</text>
<text x="51" y="159.14" >75</text>
<text x="51" y="124.86" >100</text>
<text x="51" y="90.57" >125</text>
<text x="51" y="56.29" >150</text>
<text x="51" y="22" ></text>
</g>
<g style="fill: white; stroke: black;">
<rect x="58" y="41.83" width="8" height="222.17" />
<rect x="66" y="96.69" width="8" height="167.31" />
<rect x="74" y="70.63" width="8" height="193.37" />
<rect x="82" y="148.8" width="8" height="115.2" />
<rect x="90" y="207.77" width="8" height="56.23" />
<rect x="98" y="221.49" width="8" height="42.51" />
<rect x="106" y="225.6" width="8" height="38.4" />
<rect x="114" y="231.09" width="8" height="32.91" />
<rect x="122" y="243.43" width="8" height="20.57" />
<rect x="130" y="235.2" width="8" height="28.8" />
<rect x="138" y="247.54" width="8" height="16.46" />
<rect x="146" y="231.09" width="8" height="32.91" />
<rect x="154" y="226.97" width="8" height="37.03" />
<rect x="162" y="244.8" width="8" height="19.2" />
<rect x="170" y="250.29" width="8" height="13.71" />
<rect x="178" y="243.43" width="8" height="20.57" />
<rect x="186" y="253.03" width="8" height="10.97" />
<rect x="194" y="254.4" width="8" height="9.6" />
<rect x="202" y="246.17" width="8" height="17.83" />
<rect x="210" y="254.4" width="8" height="9.6" />
<rect x="218" y="255.77" width="8" height="8.23" />
<rect x="226" y="255.77" width="8" height="8.23" />
<rect x="234" y="262.63" width="8" height="1.37" />
<rect x="242" y="259.89" width="8" height="4.11" />
<rect x="250" y="255.77" width="8" height="8.23" />
<rect x="258" y="259.89" width="8" height="4.11" />
<rect x="266" y="259.89" width="8" height="4.11" />
<rect x="274" y="250.29" width="8" height="13.71" />
<rect x="282" y="254.4" width="8" height="9.6" />
<rect x="290" y="258.51" width="8" height="5.49" />
<rect x="298" y="259.89" width="8" height="4.11" />
<rect x="306" y="259.89" width="8" height="4.11" />
<rect x="314" y="250.29" width="8" height="13.71" />
<rect x="322" y="257.14" width="8" height="6.86" />
<rect x="330" y="261.26" width="8" height="2.74" />
<rect x="338" y="259.89" width="8" height="4.11" />
<rect x="346" y="258.51" width="8" height="5.49" />
<rect x="354" y="259.89" width="8" height="4.11" />
<rect x="362" y="264" width="8" height="0" />
<rect x="370" y="262.63" width="8" height="1.37" />
<rect x="378" y="261.26" width="8" height="2.74" />
<rect x="386" y="262.63" width="8" height="1.37" />
<rect x="394" y="262.63" width="8" height="1.37" />
<rect x="402" y="262.63" width="8" height="1.37" />
<rect x="410" y="264" width="8" height="0" />
<rect x="418" y="261.26" width="8" height="2.74" />
<rect x="426" y="258.51" width="8" height="5.49" />
<rect x="434" y="258.51" width="8" height="5.49" />
<rect x="442" y="262.63" width="8" height="1.37" />
</g>
<g style="text-anchor: end; font-family: Ubuntu,Verdana,sans-serif; font-size: 0.9em;" >
<text x="462" y="282" >14 Sep 2021 u64q</text>
<text x="58" y="282" style="text-anchor: start;" >benchmarks game</text>
</g>
<text x="16" y="144" transform="rotate(270,16,144)" style="text-anchor: middle; font-family: Ubuntu,Verdana,sans-serif; font-size: 0.9em;" >how many programs</text>
<rect x="" y="0" width="" height="23" style="fill: white; stroke: white;" />
<text x="259.5" y="18" style="text-anchor: middle; font-family: Ubuntu,Verdana,sans-serif; font-size: 1.2em;" >How many times more elapsed seconds?</text>
<g style="stroke: #333;">
<line x1="58" y1="24" x2="58" y2="264" />
<line x1="461" y1="24" x2="461" y2="264" />
<line x1="58" y1="264" x2="461" y2="264" />
</g>
</svg>

