<?xml version="1.0" encoding="UTF-8" standalone="no"?>
<!DOCTYPE svg PUBLIC "-//W3C//DTD SVG 1.1//EN" "http://www.w3.org/Graphics/SVG/1.1/DTD/svg11.dtd">
<svg xmlns="http://www.w3.org/2000/svg" version="1.1" xmlns:xlink="http://www.w3.org/1999/xlink" viewBox="0 0 512 288">

<!-- Copyright 2015-2020 Isaac Gouy -->
<!-- https://salsa.debian.org/benchmarksgame-team/benchmarksgame/blob/master/LICENSE.md -->

<g style="stroke: #ccc;" >
<line x1="51" y1="264" x2="511" y2="264" />
<line x1="51" y1="221.57" x2="511" y2="221.57" />
<line x1="51" y1="201.85" x2="511" y2="201.85" />
<line x1="51" y1="175.08" x2="511" y2="175.08" />
<line x1="51" y1="132.65" x2="511" y2="132.65" />
<line x1="51" y1="112.92" x2="511" y2="112.92" />
<line x1="51" y1="86.15" x2="511" y2="86.15" />
<line x1="51" y1="43.73" x2="511" y2="43.73" />
<line x1="51" y1="24" x2="511" y2="24" />
</g>
<g style="text-anchor: end; font-family: Ubuntu,Verdana,sans-serif; font-size: 0.9em;" >
<text x="51" y="262" >1</text>
<text x="51" y="219.57" >3</text>
<text x="51" y="199.85" >5</text>
<text x="51" y="173.08" >10</text>
<text x="51" y="130.65" >30</text>
<text x="51" y="110.92" >50</text>
<text x="51" y="84.15" >100</text>
<text x="51" y="41.73" >300</text>
<text x="51" y="22" ></text>
</g>
<defs>
<linearGradient id="grade" x1="0" y1="0" x2="0" y2="1">
<stop offset="0" style="stop-color: white" stop-opacity="0.6"/>
<stop offset="1" style="stop-color: white" stop-opacity="0.8"/>
</linearGradient>
<mask id="fade">
<rect x="58" y="24" width="452" height="288" fill="url(#grade)"  />
</mask>
<g id="backgroundText" style="text-anchor: end; font-family: Ubuntu,Verdana,sans-serif; font-size: 1em;">
<text x="18.5" y="0" transform="rotate(270,18.5,0)" xml:space="preserve">   Node js   Node js   Node js   Node js</text>
<text x="48.5" y="0" transform="rotate(270,48.5,0)" xml:space="preserve">   OCaml   OCaml   OCaml   OCaml   OCaml</text>
<text x="78.5" y="0" transform="rotate(270,78.5,0)" xml:space="preserve">                                                            </text>
<text x="108.5" y="0" transform="rotate(270,108.5,0)" xml:space="preserve">   Racket   Racket   Racket   Racket   Racket</text>
<text x="138.5" y="0" transform="rotate(270,138.5,0)" xml:space="preserve">   Dart   Dart   Dart   Dart   Dart   Dart</text>
<text x="168.5" y="0" transform="rotate(270,168.5,0)" xml:space="preserve">                                                            </text>
<text x="198.5" y="0" transform="rotate(270,198.5,0)" xml:space="preserve">   PHP   PHP   PHP   PHP   PHP   PHP   PHP   PHP</text>
<text x="228.5" y="0" transform="rotate(270,228.5,0)" xml:space="preserve">   Ruby   Ruby   Ruby   Ruby   Ruby   Ruby</text>
<text x="258.5" y="0" transform="rotate(270,258.5,0)" xml:space="preserve">   Erlang HiPE   Erlang HiPE   Erlang HiPE</text>
<text x="288.5" y="0" transform="rotate(270,288.5,0)" xml:space="preserve">   Lua   Lua   Lua   Lua   Lua   Lua   Lua   Lua</text>
<text x="318.5" y="0" transform="rotate(270,318.5,0)" xml:space="preserve">   VW Smalltalk   VW Smalltalk   VW Smalltalk</text>
<text x="348.5" y="0" transform="rotate(270,348.5,0)" xml:space="preserve">   Python 3   Python 3   Python 3   Python 3</text>
<text x="378.5" y="0" transform="rotate(270,378.5,0)" xml:space="preserve">   Perl   Perl   Perl   Perl   Perl   Perl</text>
<text x="408.5" y="0" transform="rotate(270,408.5,0)" xml:space="preserve">                                                            </text>
<text x="438.5" y="0" transform="rotate(270,438.5,0)" xml:space="preserve">   Matz's Ruby   Matz's Ruby   Matz's Ruby</text>
</g>
</defs>
<use x="60" y="27" xlink:href="#backgroundText"/>
<rect x="58" y="24" width="452" height="288" fill="white" mask="url(#fade)" />
<rect x="58" y="264" width="452" height="288" style="fill: white; stroke: white;" />
<g style="fill: black; stroke: black;">
<rect x="73" y="191.81" width="1" height="53.17" />
<rect x="103" y="177.77" width="1" height="62.81" />
<rect x="133" y="708.61" width="1" height="0" />
<rect x="163" y="153.83" width="1" height="97.56" />
<rect x="193" y="159.88" width="1" height="74.11" />
<rect x="223" y="708.61" width="1" height="0" />
<rect x="253" y="100.65" width="1" height="153.5" />
<rect x="283" y="105.82" width="1" height="114.74" />
<rect x="313" y="100.12" width="1" height="130.19" />
<rect x="343" y="83.61" width="1" height="173.6" />
<rect x="373" y="87.88" width="1" height="99.07" />
<rect x="403" y="64.34" width="1" height="184.87" />
<rect x="433" y="68.44" width="1" height="129.57" />
<rect x="463" y="708.61" width="1" height="0" />
<rect x="493" y="7.03" width="1" height="135.76" />
</g>
<g style="fill: white; stroke: black;">
<rect x="62" y="204.54" width="23" height="17.35" />
<rect x="92" y="185.15" width="23" height="49.05" />
<rect x="122" y="708.61" width="23" height="0" />
<rect x="152" y="169.45" width="23" height="52.24" />
<rect x="182" y="183.91" width="23" height="33.06" />
<rect x="212" y="708.61" width="23" height="0" />
<rect x="242" y="128.26" width="23" height="45.98" />
<rect x="272" y="131.43" width="23" height="38.13" />
<rect x="302" y="127.5" width="23" height="44.96" />
<rect x="332" y="111.59" width="23" height="47.7" />
<rect x="362" y="117.39" width="23" height="55.86" />
<rect x="392" y="92.39" width="23" height="86.53" />
<rect x="422" y="98.33" width="23" height="58.29" />
<rect x="452" y="708.61" width="23" height="0" />
<rect x="482" y="22.48" width="23" height="63.5" />
</g>
<g style="fill: black; stroke: black;">
<line x1="68.5" y1="244.98" x2="79" y2="244.98" />
<line x1="68.5" y1="191.81" x2="79" y2="191.81" />
</g>
<g style="fill: black; stroke: black;">
<rect x="63" y="209.33" width="21" height="1" />
</g>
<g style="fill: black; stroke: black;">
<line x1="98.5" y1="240.58" x2="109" y2="240.58" />
<line x1="98.5" y1="177.77" x2="109" y2="177.77" />
</g>
<g style="fill: black; stroke: black;">
<rect x="93" y="218.31" width="21" height="1" />
</g>
<g style="fill: black; stroke: black;">
<line x1="128.5" y1="708.61" x2="139" y2="708.61" />
<line x1="128.5" y1="708.61" x2="139" y2="708.61" />
</g>
<g style="fill: black; stroke: black;">
<rect x="123" y="707.61" width="21" height="1" />
</g>
<g style="fill: black; stroke: black;">
<line x1="158.5" y1="251.38" x2="169" y2="251.38" />
<line x1="158.5" y1="153.83" x2="169" y2="153.83" />
</g>
<g style="fill: black; stroke: black;">
<rect x="153" y="177.45" width="21" height="1" />
</g>
<g style="fill: black; stroke: black;">
<line x1="188.5" y1="233.99" x2="199" y2="233.99" />
<line x1="188.5" y1="159.88" x2="199" y2="159.88" />
<line x1="188.5" y1="70.18" x2="199" y2="70.18" />
<rect x="193" y="70.18" width="1" height="5" />
</g>
<g style="fill: black; stroke: black;">
<rect x="183" y="202.97" width="21" height="1" />
</g>
<g style="fill: black; stroke: black;">
<line x1="218.5" y1="708.61" x2="229" y2="708.61" />
<line x1="218.5" y1="708.61" x2="229" y2="708.61" />
</g>
<g style="fill: black; stroke: black;">
<rect x="213" y="707.61" width="21" height="1" />
</g>
<g style="fill: black; stroke: black;">
<line x1="248.5" y1="254.15" x2="259" y2="254.15" />
<line x1="248.5" y1="100.65" x2="259" y2="100.65" />
<line x1="248.5" y1="100.01" x2="259" y2="100.01" />
<rect x="253" y="100.01" width="1" height="5" />
</g>
<g style="fill: black; stroke: black;">
<rect x="243" y="156.08" width="21" height="1" />
</g>
<g style="fill: black; stroke: black;">
<line x1="278.5" y1="220.55" x2="289" y2="220.55" />
<line x1="278.5" y1="105.82" x2="289" y2="105.82" />
<line x1="278.5" y1="101.78" x2="289" y2="101.78" />
<rect x="283" y="101.78" width="1" height="5" />
</g>
<g style="fill: black; stroke: black;">
<rect x="273" y="151.63" width="21" height="1" />
</g>
<g style="fill: black; stroke: black;">
<line x1="308.5" y1="230.32" x2="319" y2="230.32" />
<line x1="308.5" y1="100.12" x2="319" y2="100.12" />
<line x1="308.5" y1="98.13" x2="319" y2="98.13" />
<rect x="313" y="98.13" width="1" height="5" />
</g>
<g style="fill: black; stroke: black;">
<rect x="303" y="143.06" width="21" height="1" />
</g>
<g style="fill: black; stroke: black;">
<line x1="338.5" y1="257.21" x2="349" y2="257.21" />
<line x1="338.5" y1="83.61" x2="349" y2="83.61" />
<line x1="338.5" y1="78.92" x2="349" y2="78.92" />
<rect x="343" y="78.92" width="1" height="5" />
</g>
<g style="fill: black; stroke: black;">
<rect x="333" y="130.14" width="21" height="1" />
</g>
<g style="fill: black; stroke: black;">
<line x1="368.5" y1="186.95" x2="379" y2="186.95" />
<line x1="368.5" y1="87.88" x2="379" y2="87.88" />
<line x1="368.5" y1="87.26" x2="379" y2="87.26" />
<rect x="373" y="87.26" width="1" height="5" />
</g>
<g style="fill: black; stroke: black;">
<rect x="363" y="145.28" width="21" height="1" />
</g>
<g style="fill: black; stroke: black;">
<line x1="398.5" y1="249.21" x2="409" y2="249.21" />
<line x1="398.5" y1="64.34" x2="409" y2="64.34" />
</g>
<g style="fill: black; stroke: black;">
<rect x="393" y="137.24" width="21" height="1" />
</g>
<g style="fill: black; stroke: black;">
<line x1="428.5" y1="198.01" x2="439" y2="198.01" />
<line x1="428.5" y1="68.44" x2="439" y2="68.44" />
<line x1="428.5" y1="25.47" x2="439" y2="25.47" />
<rect x="433" y="25.47" width="1" height="5" />
</g>
<g style="fill: black; stroke: black;">
<rect x="423" y="136.63" width="21" height="1" />
</g>
<g style="fill: black; stroke: black;">
<line x1="458.5" y1="708.61" x2="469" y2="708.61" />
<line x1="458.5" y1="708.61" x2="469" y2="708.61" />
</g>
<g style="fill: black; stroke: black;">
<rect x="453" y="707.61" width="21" height="1" />
</g>
<g style="fill: black; stroke: black;">
<line x1="488.5" y1="142.79" x2="499" y2="142.79" />
<line x1="488.5" y1="7.03" x2="499" y2="7.03" />
</g>
<g style="fill: black; stroke: black;">
<rect x="483" y="71.85" width="21" height="1" />
</g>
<g style="text-anchor: end; font-family: Ubuntu,Verdana,sans-serif; font-size: 0.9em;" >
<text x="512" y="282" >02 Jun 2020 Q6600</text>
<text x="58" y="282" style="text-anchor: start;" >benchmarks game</text>
</g>
<text x="16" y="144" transform="rotate(270,16,144)" style="text-anchor: middle; font-family: Ubuntu,Verdana,sans-serif; font-size: 0.9em;" >program busy time / least busy</text>
<text x="285" y="18" style="text-anchor: middle; font-family: Ubuntu,Verdana,sans-serif; font-size: 1.2em;" >How many times slower?</text>
<g style="stroke: #333;">
<line x1="58" y1="24" x2="58" y2="264" />
<line x1="511" y1="24" x2="511" y2="264" />
<line x1="58" y1="264" x2="511" y2="264" />
</g>
</svg>

